<?xml version="1.0" standalone="no"?>
<!DOCTYPE svg PUBLIC "-//W3C//DTD SVG 1.1//EN" "http://www.w3.org/Graphics/SVG/1.1/DTD/svg11.dtd" >
<svg xmlns="http://www.w3.org/2000/svg" xmlns:xlink="http://www.w3.org/1999/xlink" version="1.1">
<metadata>
Created by FontForge 20161013 at Thu Sep  2 15:55:02 2010
 By ,,,
2010 Lukasz Dziedzic published by FSI FontShop International GmbH
</metadata>
<defs>
<font id="GoodPro-Medium" horiz-adv-x="276" >
  <font-face 
    font-family="GoodPro-Medium"
    font-weight="500"
    font-stretch="normal"
    units-per-em="1000"
    panose-1="2 11 6 4 2 1 1 2 1 2"
    ascent="820"
    descent="-180"
    x-height="508"
    cap-height="725"
    bbox="-581 -208 1282 926"
    underline-thickness="70"
    underline-position="-230"
    unicode-range="U+000D-FB04"
  />
<missing-glyph horiz-adv-x="512" 
d="M274 267l6 55q118 51 118 143q0 49 -37 83.5t-110 34.5q-60 0 -101.5 -29.5t-62.5 -78.5l68 -22q28 60 91 60q34 0 49 -16.5t15 -39.5q0 -70 -107 -104l6 -86h65zM199 221v-93h90v93h-90zM18 0v724h455v-724h-455z" />
    <glyph glyph-name="f_f" unicode="ff" horiz-adv-x="597" 
d="M582 507v-81h-113v-426h-112v426h-169v-426h-112v426h-59v81h59v36q0 82 51.5 133t163.5 54l5 -78q-61 -3 -87 -31t-26 -80v-34h174v36q0 82 51.5 133t163.5 54l5 -78q-61 -3 -87 -31t-26 -80v-34h118z" />
    <glyph glyph-name="f_f_i" unicode="ffi" horiz-adv-x="810" 
d="M569 730l5 -78q-61 -3 -87 -31t-26 -80v-34h283v-507h-111v426h-167v-426h-112v426h-166v-426h-112v426h-59v81h59v36q0 82 51.5 133t163.5 54l5 -78q-61 -3 -87 -31t-26 -80v-34h171v36q0 82 51.5 133t163.5 54zM639 725h100v-118h-100v118z" />
    <glyph glyph-name="f_f_j" unicode="ffj" horiz-adv-x="811" 
d="M569 730l5 -78q-61 -3 -87 -31t-26 -80v-34h283v-472q0 -192 -191 -203l-8 86q88 10 88 117v391h-167v-426h-112v426h-166v-426h-112v426h-59v81h59v36q0 82 51.5 133t163.5 54l5 -78q-61 -3 -87 -31t-26 -80v-34h171v36q0 82 51.5 133t163.5 54zM639 725h100v-118h-100
v118z" />
    <glyph glyph-name="f_f_l" unicode="ffl" horiz-adv-x="821" 
d="M571 507v-81h-105v-426h-112v426h-166v-426h-112v426h-59v81h59v36q0 82 51.5 133t163.5 54l5 -78q-61 -3 -87 -31t-26 -80v-34h171v36q0 186 235 186h50v18h112v-747h-112v652h-48q-70 -1 -100 -27.5t-30 -83.5v-34h110z" />
    <glyph glyph-name="f_i" unicode="fi" horiz-adv-x="532" 
d="M291 730l5 -78q-61 -3 -87 -31t-26 -80v-34h283v-507h-111v426h-167v-426h-112v426h-59v81h59v36q0 82 51.5 133t163.5 54zM361 725h100v-118h-100v118z" />
    <glyph glyph-name="f_j" unicode="fj" horiz-adv-x="533" 
d="M291 730l5 -78q-61 -3 -87 -31t-26 -80v-34h283v-472q0 -192 -191 -203l-8 86q88 10 88 117v391h-167v-426h-112v426h-59v81h59v36q0 82 51.5 133t163.5 54zM361 725h100v-118h-100v118z" />
    <glyph glyph-name="f_l" unicode="fl" horiz-adv-x="542" 
d="M292 507v-82h-104v-425h-112v425h-59v82h59v36q0 186 235 186h49v18h112v-747h-112v652h-48q-70 -1 -99.5 -27.5t-29.5 -83.5v-34h109z" />
    <glyph glyph-name=".notdef" horiz-adv-x="512" 
d="M274 267l6 55q118 51 118 143q0 49 -37 83.5t-110 34.5q-60 0 -101.5 -29.5t-62.5 -78.5l68 -22q28 60 91 60q34 0 49 -16.5t15 -39.5q0 -70 -107 -104l6 -86h65zM199 221v-93h90v93h-90zM18 0v724h455v-724h-455z" />
    <glyph glyph-name=".null" horiz-adv-x="0" 
 />
    <glyph glyph-name=".null" horiz-adv-x="0" 
 />
    <glyph glyph-name="nonmarkingreturn" horiz-adv-x="333" 
 />
    <glyph glyph-name="CR" unicode="&#xd;" horiz-adv-x="215" 
 />
    <glyph glyph-name="space" unicode=" " horiz-adv-x="215" 
 />
    <glyph glyph-name="exclam" unicode="!" horiz-adv-x="245" 
d="M65 725h112v-284l-10 -222h-92l-10 219v287zM61 0v128h121v-128h-121z" />
    <glyph glyph-name="quotedbl" unicode="&#x22;" horiz-adv-x="346" 
d="M195 594v131h97v-131l-27 -112h-47zM48 594v131h97v-131l-27 -112h-47z" />
    <glyph glyph-name="numbersign" unicode="#" horiz-adv-x="552" 
d="M40 442v77h107l16 206h81l-17 -206h120l16 206h80l-16 -206h85v-77h-88l-11 -159h99v-77h-101l-17 -206h-80l16 206h-119l-16 -206h-80l16 206h-91v77h94l11 159h-105zM225 442l-11 -159h119l11 159h-119z" />
    <glyph glyph-name="dollar" unicode="$" horiz-adv-x="504" 
d="M238 826h68l2 -99q56 -14 94.5 -53t56.5 -95l-77 -29q-25 68 -82 85l-15 -220q41 -20 66 -35.5t55 -42t44.5 -62t14.5 -80.5q0 -87 -50.5 -141t-136.5 -62l-12 -92h-68l-2 95q-129 23 -167 164l82 32q24 -78 91 -100l15 232q-42 20 -67 35.5t-55 42t-44.5 61.5t-14.5 80
q0 80 51 132.5t138 59.5zM369 179q0 64 -88 113l-4 -207q92 11 92 94zM138 554q0 -60 84 -107l2 193q-86 -10 -86 -86z" />
    <glyph glyph-name="percent" unicode="%" horiz-adv-x="607" 
d="M288 593v-51q0 -67 -33 -103.5t-95 -36.5t-95 36.5t-33 103.5v51q0 67 33 104.5t95 37.5t95 -37.5t33 -104.5zM111 592v-50q0 -37 11.5 -53t37.5 -16t37.5 16t11.5 53v50q0 37 -11.5 53t-37.5 16t-37.5 -16t-11.5 -53zM54 0l410 724h85l-411 -724h-84zM577 178v-51
q0 -66 -33 -102.5t-95 -36.5t-95 36.5t-33 102.5v51q0 67 33 104.5t95 37.5t95 -37.5t33 -104.5zM400 178v-51q0 -37 11.5 -53t37.5 -16t37.5 16t11.5 53v51q0 36 -11.5 52t-37.5 16t-37.5 -16t-11.5 -52z" />
    <glyph glyph-name="ampersand" unicode="&#x26;" horiz-adv-x="619" 
d="M460 606l-75 -44q-41 84 -104 84q-71 0 -71 -72q0 -45 26 -80l178 -239q21 73 21 164v23h158v-86h-72q-8 -105 -42 -187q57 -65 136 -80l-13 -97q-104 12 -179 84q-74 -85 -185 -85q-98 0 -155.5 54.5t-57.5 162.5q0 71 32.5 130t91.5 98q-48 67 -48 137q0 69 45 115
t128 46q67 0 111.5 -31t74.5 -97zM251 82q68 0 114 65l-158 213q-68 -59 -68 -150q0 -128 112 -128z" />
    <glyph glyph-name="quotesingle" unicode="'" horiz-adv-x="189" 
d="M46 594v131h97v-131l-27 -112h-47z" />
    <glyph glyph-name="parenleft" unicode="(" horiz-adv-x="277" 
d="M57 179v302q0 175 53.5 254.5t166.5 79.5h28v-78h-28q-124 0 -124 -256v-302q0 -257 124 -257h28v-78h-28q-113 0 -166.5 80t-53.5 255z" />
    <glyph glyph-name="parenright" unicode=")" horiz-adv-x="277" 
d="M219 481v-302q0 -175 -53 -255t-166 -80h-28v79h28q124 0 124 256v302q0 256 -124 256h-28v78h28q113 0 166 -79.5t53 -254.5z" />
    <glyph glyph-name="asterisk" unicode="*" horiz-adv-x="316" 
d="M131 694l-9 104h67l-10 -104l92 42l21 -68l-99 -22l68 -78l-55 -42l-50 90h-2l-49 -89l-55 42l67 77l-99 22l21 68z" />
    <glyph glyph-name="plus" unicode="+" horiz-adv-x="468" 
d="M191 88v182h-145v83h145v182h83v-182h149v-83h-149v-182h-83z" />
    <glyph glyph-name="comma" unicode="," horiz-adv-x="215" 
d="M48 0v119h120v-86q0 -153 -116 -163l-5 51q29 7 39.5 24t10.5 55h-49z" />
    <glyph glyph-name="hyphen" unicode="-" horiz-adv-x="281" 
d="M28 244v97h225v-97h-225z" />
    <glyph glyph-name="period" unicode="." horiz-adv-x="214" 
d="M47 0v128h121v-128h-121z" />
    <glyph glyph-name="slash" unicode="/" horiz-adv-x="324" 
d="M-27 -85l278 828h86l-278 -828h-86z" />
    <glyph glyph-name="zero" unicode="0" horiz-adv-x="560" 
d="M511 485v-247q0 -115 -60.5 -181.5t-170.5 -66.5q-111 0 -171 66t-60 182v247q0 116 60 183t171 67q110 0 170.5 -67t60.5 -183zM164 485v-247q0 -76 28.5 -111.5t87.5 -35.5t87.5 35.5t28.5 111.5v247q0 75 -28.5 110.5t-87.5 35.5t-87.5 -35.5t-28.5 -110.5z" />
    <glyph glyph-name="one" unicode="1" horiz-adv-x="383" 
d="M204 729h94v-729h-121v517h-147v83h65q60 0 81 24t28 105z" />
    <glyph glyph-name="two" unicode="2" horiz-adv-x="538" 
d="M277 735q106 0 160.5 -54.5t54.5 -137.5q0 -69 -29 -124t-72 -92t-87.5 -70t-80 -73.5t-44.5 -86.5h318v-97h-443l-2 56q2 64 36 122t81 100.5t93.5 82.5t79 85.5t32.5 91.5q0 97 -106 97q-47 0 -81 -31.5t-47 -87.5l-92 30q22 83 80.5 136t148.5 53z" />
    <glyph glyph-name="three" unicode="3" horiz-adv-x="528" 
d="M189 328v90h53q56 0 84.5 26t28.5 84q0 108 -102 108q-94 0 -128 -104l-88 31q23 79 82.5 125.5t144.5 46.5q104 0 157.5 -54t53.5 -139q0 -126 -98 -163v-2q112 -30 112 -166q0 -109 -59.5 -165t-169.5 -56q-177 0 -228 159l86 34q37 -97 135 -97q60 0 86.5 33t26.5 99
q0 60 -30.5 85t-91.5 25h-55z" />
    <glyph glyph-name="four" unicode="4" horiz-adv-x="536" 
d="M443 0h-107v135h-324v78l318 512h113v-495h86l-9 -95h-77v-135zM137 230h199l6 353h-2z" />
    <glyph glyph-name="five" unicode="5" horiz-adv-x="530" 
d="M131 325l-76 38l30 362h385l-8 -104h-285l-13 -189q60 30 129 30q204 0 204 -226q0 -121 -60 -183.5t-177 -62.5q-81 0 -138.5 41t-79.5 120l88 33q16 -48 49 -73t75 -25q65 0 93.5 36.5t28.5 112.5q0 70 -29.5 100t-94.5 30q-76 0 -121 -40z" />
    <glyph glyph-name="six" unicode="6" horiz-adv-x="541" 
d="M285 735q74 0 128 -39.5t77 -113.5l-81 -36q-32 89 -118 89q-64 0 -95.5 -40t-31.5 -112v-70h2q52 45 139 45q199 0 199 -216q0 -126 -59.5 -189t-168.5 -63q-107 0 -167 63t-60 178v239q0 117 63.5 191t172.5 74zM281 363q-50 0 -83.5 -19t-33.5 -50v-75q0 -64 30.5 -96
t84.5 -32q56 0 83 35.5t27 112.5q0 63 -26 93.5t-82 30.5z" />
    <glyph glyph-name="seven" unicode="7" horiz-adv-x="494" 
d="M224 0h-130l262 623h-343v102h469v-91z" />
    <glyph glyph-name="eight" unicode="8" horiz-adv-x="548" 
d="M274 -10q-237 0 -237 222q0 133 102 173v2q-85 39 -85 155q0 90 53.5 141.5t166.5 51.5t166 -51.5t53 -141.5q0 -116 -85 -155v-2q102 -40 102 -173q0 -222 -236 -222zM394 218q0 63 -30.5 89.5t-89.5 26.5t-89.5 -26.5t-30.5 -89.5q0 -72 29 -101.5t91 -29.5t91 29
t29 102zM274 640q-59 0 -84.5 -24.5t-25.5 -83.5q0 -60 26 -85.5t84 -25.5t84 25.5t26 85.5q0 59 -25.5 83.5t-84.5 24.5z" />
    <glyph glyph-name="nine" unicode="9" horiz-adv-x="541" 
d="M123 180q21 -49 52 -70t80 -21q59 0 90.5 32.5t31.5 95.5v111h-2q-48 -45 -133 -45q-98 0 -151.5 54t-53.5 163q0 112 59.5 173.5t172.5 61.5q105 0 164 -62t59 -162v-287q0 -107 -63 -170.5t-168 -63.5q-163 0 -215 147zM262 376q42 0 77.5 19t37.5 52v70
q0 118 -110 118q-114 0 -114 -131q0 -69 27 -98.5t82 -29.5z" />
    <glyph glyph-name="colon" unicode=":" horiz-adv-x="214" 
d="M47 358v128h121v-128h-121zM47 0v128h121v-128h-121z" />
    <glyph glyph-name="semicolon" unicode=";" horiz-adv-x="215" 
d="M47 358v128h121v-128h-121zM48 0v119h120v-86q0 -153 -116 -163l-5 51q29 7 39.5 24t10.5 55h-49z" />
    <glyph glyph-name="less" unicode="&#x3c;" horiz-adv-x="468" 
d="M395 440l-196 -124l197 -125v-109l-343 227v12l342 229v-110z" />
    <glyph glyph-name="equal" unicode="=" horiz-adv-x="468" 
d="M409 339h-350v83h350v-83zM409 183h-350v83h350v-83z" />
    <glyph glyph-name="greater" unicode="&#x3e;" horiz-adv-x="468" 
d="M72 191l196 125l-195 124v110l342 -229v-12l-343 -227v109z" />
    <glyph glyph-name="question" unicode="?" horiz-adv-x="502" 
d="M19 566q27 76 87.5 122.5t148.5 46.5q106 0 158.5 -53t52.5 -129q0 -78 -46 -142t-131 -103l-7 -90h-85l-8 142q162 63 162 183q0 42 -24.5 69t-78.5 27q-102 0 -139 -103zM179 0v128h121v-128h-121z" />
    <glyph glyph-name="at" unicode="@" horiz-adv-x="777" 
d="M564 434h-25l-18 -215q-1 -6 -1 -16q0 -56 50 -56q40 0 60 31t20 108v127q0 117 -63.5 180t-188.5 63q-127 0 -198.5 -74t-71.5 -190v-200q0 -132 74 -203.5t200 -71.5q82 0 137 21.5t102 66.5l60 -45q-116 -121 -300 -121q-169 0 -263 93t-94 260v202q0 147 95 245
t259 98q161 0 247.5 -90.5t86.5 -233.5v-126q0 -111 -45 -166t-121 -55q-81 0 -110 51q-52 -54 -131 -54q-61 0 -93.5 40t-32.5 112q0 133 67 212t189 79h113zM427 199l19 224h-13q-65 0 -99.5 -52.5t-34.5 -151.5q0 -41 12.5 -57.5t38.5 -16.5q52 0 77 54z" />
    <glyph glyph-name="A" unicode="A" horiz-adv-x="610" 
d="M181 168l-46 -168h-127l227 725h140l227 -725h-128l-47 168h-246zM302 612l-95 -350h194l-97 350h-2z" />
    <glyph glyph-name="B" unicode="B" horiz-adv-x="582" 
d="M512 539q0 -123 -95 -158v-2q127 -30 127 -171q0 -102 -52.5 -155t-170.5 -53h-249v725h222q110 0 164 -50t54 -136zM194 326v-225h121q55 0 80.5 26t25.5 89q0 60 -25 85t-81 25h-121zM194 621v-202h104q53 0 76 25.5t23 79.5q0 52 -23 74.5t-76 22.5h-104z" />
    <glyph glyph-name="C" unicode="C" horiz-adv-x="529" 
d="M284 735q80 0 138.5 -45t77.5 -115l-91 -33q-27 90 -115 90q-119 0 -119 -145v-259q0 -64 30.5 -101.5t88.5 -37.5q47 0 74 22.5t41 73.5l92 -31q-38 -164 -217 -164q-107 0 -171 65t-64 173v259q0 115 63.5 181.5t171.5 66.5z" />
    <glyph glyph-name="D" unicode="D" horiz-adv-x="623" 
d="M72 725h249q120 0 187 -68t67 -185v-220q0 -117 -67 -184.5t-187 -67.5h-249v725zM450 466q0 79 -32 116.5t-97 37.5h-124v-518h124q65 0 97 36.5t32 116.5v211z" />
    <glyph glyph-name="E" unicode="E" horiz-adv-x="529" 
d="M72 725h413v-107h-288v-198h223v-95h-223v-219h300v-106h-425v725z" />
    <glyph glyph-name="F" unicode="F" horiz-adv-x="522" 
d="M72 725h416v-107h-291v-208h250v-100h-250v-310h-125v725z" />
    <glyph glyph-name="G" unicode="G" horiz-adv-x="598" 
d="M307 735q88 0 151 -44t84 -118l-91 -33q-39 92 -133 92q-144 0 -144 -166v-222q0 -150 138 -150q81 0 122 64v125h-93v83h203v-366h-102v53h-2q-62 -62 -159 -62q-108 0 -170 64.5t-62 186.5v225q0 124 65.5 196t192.5 72z" />
    <glyph glyph-name="H" unicode="H" horiz-adv-x="627" 
d="M72 725h125v-301h233v301h125v-725h-125v316h-233v-316h-125v725z" />
    <glyph glyph-name="I" unicode="I" horiz-adv-x="295" 
d="M85 725h125v-725h-125v725z" />
    <glyph glyph-name="J" unicode="J" horiz-adv-x="293" 
d="M97 725h125v-601q0 -127 -67.5 -194.5t-197.5 -69.5l-10 98q78 0 114 38t36 127v602z" />
    <glyph glyph-name="K" unicode="K" horiz-adv-x="597" 
d="M589 0h-141l-184 318l-69 -90v-228h-123v725h123v-361h2l230 361h143l-225 -322z" />
    <glyph glyph-name="L" unicode="L" horiz-adv-x="483" 
d="M72 725h121v-616h268v-109h-389v725z" />
    <glyph glyph-name="M" unicode="M" horiz-adv-x="791" 
d="M603 725h117v-725h-114v481h-2l-181 -358h-55l-181 358h-2v-481h-113v725h116l207 -439h2z" />
    <glyph glyph-name="N" unicode="N" horiz-adv-x="627" 
d="M72 725h95l275 -469h2v469h111v-725h-88l-283 484h-2v-484h-110v725z" />
    <glyph glyph-name="O" unicode="O" horiz-adv-x="600" 
d="M300 735q121 0 186.5 -67t65.5 -184v-243q0 -117 -65.5 -184t-186.5 -67t-186 67t-65 184v243q0 117 65 184t186 67zM427 241v243q0 148 -127 148q-64 0 -95 -36t-31 -112v-243q0 -151 126 -151q127 0 127 151z" />
    <glyph glyph-name="P" unicode="P" horiz-adv-x="567" 
d="M320 725q103 0 159.5 -60.5t56.5 -168.5q0 -107 -54.5 -167.5t-153.5 -60.5h-131v-268h-125v725h248zM197 622v-258h119q50 0 72.5 31.5t22.5 98.5q0 68 -22.5 98t-72.5 30h-119z" />
    <glyph glyph-name="Q" unicode="Q" horiz-adv-x="600" 
d="M300 735q121 0 186.5 -67t65.5 -184v-243q0 -92 -41 -153.5t-118 -84.5l117 -111l-108 -47l-120 146q-113 5 -173 71t-60 179v243q0 117 65 184t186 67zM427 241v243q0 148 -127 148q-64 0 -95 -36t-31 -112v-243q0 -151 126 -151q127 0 127 151z" />
    <glyph glyph-name="R" unicode="R" horiz-adv-x="580" 
d="M429 0l-145 298h-87v-298h-125v725h231q112 0 166.5 -54t54.5 -153q0 -77 -32 -128t-93 -68l167 -322h-137zM197 623v-230h102q57 0 79 29t22 89t-22 86t-78 26h-103z" />
    <glyph glyph-name="S" unicode="S" horiz-adv-x="502" 
d="M244 735q83 0 141 -40.5t84 -110.5l-88 -40q-33 92 -127 92q-100 0 -100 -87q0 -38 33 -67.5t80.5 -52t95 -49t80.5 -73.5t33 -111q0 -98 -60.5 -152t-163.5 -54q-82 0 -146 45.5t-85 122.5l94 34q17 -50 54 -76.5t82 -26.5q107 0 107 94q0 43 -34 74.5t-82 54t-96 48
t-82 72t-34 111.5q0 83 58 137.5t156 54.5z" />
    <glyph glyph-name="T" unicode="T" horiz-adv-x="495" 
d="M14 725h467v-108h-171v-617h-125v617h-171v108z" />
    <glyph glyph-name="U" unicode="U" horiz-adv-x="625" 
d="M439 725h125v-488q0 -116 -66 -181.5t-185 -65.5t-185.5 64t-66.5 178v493h125v-494q0 -68 34.5 -99.5t92.5 -31.5q126 0 126 131v494z" />
    <glyph glyph-name="V" unicode="V" horiz-adv-x="605" 
d="M597 725l-230 -725h-130l-230 725h138l156 -581h2l157 581h137z" />
    <glyph glyph-name="W" unicode="W" horiz-adv-x="927" 
d="M901 725l-178 -725h-134l-124 531h-2l-125 -531h-134l-177 725h125l121 -577h2l131 577h116l131 -581h2l122 581h124z" />
    <glyph glyph-name="X" unicode="X" horiz-adv-x="590" 
d="M19 0l196 369l-191 356h137l134 -284h2l132 284h137l-190 -361l195 -364h-137l-140 291h-2l-137 -291h-136z" />
    <glyph glyph-name="Y" unicode="Y" horiz-adv-x="579" 
d="M573 725l-221 -491v-234h-125v233l-222 492h140l144 -377h2l144 377h138z" />
    <glyph glyph-name="Z" unicode="Z" horiz-adv-x="535" 
d="M492 107v-107h-455v74l313 544h-299v107h442v-73l-311 -545h310z" />
    <glyph glyph-name="bracketleft" unicode="[" horiz-adv-x="273" 
d="M69 -156v971h253v-79h-151v-813h151v-79h-253z" />
    <glyph glyph-name="backslash" unicode="\" horiz-adv-x="332" 
d="M57 743l278 -828h-86l-278 828h86z" />
    <glyph glyph-name="bracketright" unicode="]" 
d="M206 815v-971h-256v81h152v810h-152v80h256z" />
    <glyph glyph-name="asciicircum" unicode="^" horiz-adv-x="454" 
d="M46 525l143 223h79l140 -223h-89l-90 148l-92 -148h-91z" />
    <glyph glyph-name="underscore" unicode="_" horiz-adv-x="425" 
d="M0 -52h425v-77h-425v77z" />
    <glyph glyph-name="grave" unicode="`" 
d="M3 725h124l62 -140h-84z" />
    <glyph glyph-name="a" unicode="a" horiz-adv-x="465" 
d="M119 362l-68 38q61 118 182 118q86 0 127.5 -47.5t41.5 -126.5v-240q0 -38 36 -38h13v-64q-30 -8 -52 -8q-64 0 -91 46q-52 -49 -131 -49q-67 0 -105 38.5t-38 101.5q0 74 52 119t170 45h35v49q0 88 -74 88q-61 0 -98 -70zM205 68q52 0 86 39v114h-35q-63 0 -89 -21
t-26 -61q0 -71 64 -71z" />
    <glyph glyph-name="b" unicode="b" horiz-adv-x="507" 
d="M299 -7q-81 0 -132 52h-2l-5 -45h-98v747h112v-281h2q48 51 131 51q76 0 118 -51.5t42 -141.5v-140q0 -89 -43 -140t-125 -51zM174 377v-249q33 -48 94 -48q87 0 87 104v138q0 103 -85 103q-61 0 -96 -48z" />
    <glyph glyph-name="c" unicode="c" horiz-adv-x="431" 
d="M410 395l-78 -31q-24 65 -89 65q-91 0 -91 -101v-148q0 -103 91 -103q65 0 90 69l80 -30q-46 -125 -181 -125q-91 0 -141.5 52.5t-50.5 131.5v157q0 81 50.5 133t141.5 52q63 0 109.5 -32t68.5 -90z" />
    <glyph glyph-name="d" unicode="d" horiz-adv-x="508" 
d="M208 518q75 0 123 -45h2v274h112v-747h-99l-5 47h-2q-51 -56 -138 -56q-77 0 -119 51t-42 141v143q0 90 43 141t125 51zM333 128v254q-34 46 -94 46q-87 0 -87 -105v-141q0 -102 85 -102q62 0 96 48z" />
    <glyph glyph-name="e" unicode="e" horiz-adv-x="460" 
d="M425 240h-273v-59q0 -105 96 -105q36 0 59 17.5t39 57.5l80 -30q-43 -130 -189 -130q-93 0 -145 51.5t-52 134.5v156q0 80 51 132t144 52q89 0 139.5 -53.5t50.5 -135.5v-88zM152 339v-33h174v35q0 45 -23 69t-64 24q-87 0 -87 -95z" />
    <glyph glyph-name="f" unicode="f" horiz-adv-x="316" 
d="M301 507v-81h-113v-426h-112v426h-59v81h59v36q0 82 51.5 133t163.5 54l5 -78q-61 -3 -87 -31t-26 -80v-34h118z" />
    <glyph glyph-name="g" unicode="g" horiz-adv-x="484" 
d="M241 175q-50 0 -83 10q-30 -15 -30 -37q0 -33 55 -33h111q168 0 168 -129q0 -78 -57.5 -120.5t-162.5 -42.5q-192 0 -192 125q0 57 40 92q-52 27 -52 84t65 91q-46 42 -46 130t45 130t139 42q68 0 110 -21q43 24 61 65l52 -22q-9 -62 -54 -100q20 -40 20 -95
q0 -86 -46 -127.5t-143 -41.5zM162 344q0 -55 17 -73.5t63 -18.5q47 0 64 18.5t17 73.5q0 54 -18 73.5t-63 19.5q-46 0 -63 -19.5t-17 -73.5zM287 24h-115q-29 -19 -29 -63q0 -62 104 -62q68 0 92.5 18.5t24.5 53.5q0 29 -16 41t-61 12z" />
    <glyph glyph-name="h" unicode="h" horiz-adv-x="516" 
d="M174 377v-377h-112v747h112v-281h2q48 51 131 51q77 0 118.5 -51t41.5 -141v-325h-112v322q0 103 -85 103q-63 0 -96 -48z" />
    <glyph glyph-name="i" unicode="i" horiz-adv-x="245" 
d="M66 508h112v-508h-112v508zM70 725h104v-118h-104v118z" />
    <glyph glyph-name="j" unicode="j" horiz-adv-x="259" 
d="M82 725h104v-118h-104v118zM0 -168l-9 86q46 5 67 33t21 84v473h112v-473q0 -192 -191 -203z" />
    <glyph glyph-name="k" unicode="k" horiz-adv-x="508" 
d="M62 747h112v-487h2l185 248h121l-169 -220l185 -288h-126l-133 217l-65 -70v-147h-112v747z" />
    <glyph glyph-name="l" unicode="l" horiz-adv-x="251" 
d="M69 747h112v-747h-112v747z" />
    <glyph glyph-name="m" unicode="m" horiz-adv-x="751" 
d="M436 324v-324h-111v324q0 101 -72 101q-56 0 -83 -59v-366h-112v508h100v-54h2q46 63 127 63q85 0 121 -74q50 74 140 74q154 0 154 -193v-324h-111v324q0 101 -76 101q-36 0 -57.5 -25t-21.5 -76z" />
    <glyph glyph-name="n" unicode="n" horiz-adv-x="512" 
d="M170 376v-376h-112v508h100l3 -49h2q51 58 138 58q78 0 120 -51t42 -141v-325h-111v322q0 103 -85 103q-64 0 -97 -49z" />
    <glyph glyph-name="o" unicode="o" horiz-adv-x="487" 
d="M447 332v-158q0 -80 -53.5 -131.5t-150.5 -51.5t-150 51t-53 132v158q0 81 53 133t150 52q98 0 151 -51.5t53 -133.5zM152 328v-149q0 -104 91 -104q92 0 92 104v149q0 104 -92 104q-91 0 -91 -104z" />
    <glyph glyph-name="p" unicode="p" horiz-adv-x="503" 
d="M295 -8q-75 0 -123 45h-2v-206h-112v677h100l3 -49h2q51 58 140 58q77 0 118.5 -51.5t41.5 -141.5v-140q0 -90 -43 -141t-125 -51zM170 377v-250q33 -47 94 -47q88 0 88 104v138q0 103 -85 103q-62 0 -97 -48z" />
    <glyph glyph-name="q" unicode="q" horiz-adv-x="503" 
d="M211 517q84 0 135 -61h2l5 52h92v-677h-112v211h-2q-49 -52 -130 -52q-75 0 -118 50t-43 134v159q0 86 46 135t125 49zM333 141v237q-37 47 -91 47q-43 0 -67 -25.5t-24 -75.5v-144q0 -100 88 -100q66 0 94 61z" />
    <glyph glyph-name="r" unicode="r" horiz-adv-x="359" 
d="M343 503l-12 -102q-20 13 -49 13q-98 0 -112 -131v-283h-112v508h97l5 -84h2q40 92 124 92q33 0 57 -13z" />
    <glyph glyph-name="s" unicode="s" horiz-adv-x="416" 
d="M214 -9q-132 0 -181 115l80 38q34 -74 98 -74q71 0 71 65q0 27 -25 45.5t-60.5 31.5t-71 29.5t-60.5 49.5t-25 80q0 63 46 104.5t128 41.5q62 0 106 -30.5t64 -85.5l-77 -29q-28 65 -89 65q-72 0 -72 -57q0 -26 25 -44t60.5 -31t71 -30t60.5 -50t25 -80q0 -67 -49 -110.5
t-125 -43.5z" />
    <glyph glyph-name="t" unicode="t" horiz-adv-x="334" 
d="M305 508v-84h-115v-279q0 -69 62 -69q21 0 43 8l10 -69q-43 -23 -93 -23q-135 0 -135 158v269l-61 16v71l67 5l29 140h78v-143h115z" />
    <glyph glyph-name="u" unicode="u" horiz-adv-x="512" 
d="M342 128v380h111v-508h-99l-4 48h-2q-52 -57 -139 -57q-77 0 -119 51.5t-42 140.5v325h112v-326q0 -102 85 -102q62 0 97 48z" />
    <glyph glyph-name="v" unicode="v" horiz-adv-x="500" 
d="M490 508l-178 -508h-125l-177 508h127l111 -409h2l113 409h127z" />
    <glyph glyph-name="w" unicode="w" horiz-adv-x="725" 
d="M451 0l-87 378h-2l-88 -378h-124l-137 508h117l84 -404h2l93 404h107l92 -406h2l85 406h117l-137 -508h-124z" />
    <glyph glyph-name="x" unicode="x" horiz-adv-x="496" 
d="M15 0l156 262l-150 246h126l104 -191h2l99 191h124l-150 -252l156 -256h-126l-111 201h-2l-104 -201h-124z" />
    <glyph glyph-name="y" unicode="y" horiz-adv-x="506" 
d="M493 508l-186 -518q-29 -80 -76.5 -117t-126.5 -40l-8 79q45 5 70 24.5t39 61.5l7 21l-199 489h125l128 -372h2l109 372h116z" />
    <glyph glyph-name="z" unicode="z" horiz-adv-x="431" 
d="M393 87v-87h-358v65l227 353v2h-217v88h352v-63l-230 -356v-2h226z" />
    <glyph glyph-name="braceleft" unicode="{" horiz-adv-x="282" 
d="M25 296v68q81 8 81 66q0 19 -17 88.5t-17 119.5q0 88 59 132.5t168 44.5h29v-69h-29q-126 0 -126 -126q0 -42 16 -109t16 -89q0 -71 -77 -91v-2q77 -20 77 -91q0 -22 -16 -88.5t-16 -108.5q0 -127 126 -127h28v-69h-28q-109 0 -168 45t-59 133q0 50 17 119t17 88
q0 27 -22 44.5t-59 21.5z" />
    <glyph glyph-name="bar" unicode="|" horiz-adv-x="283" 
d="M89 -156v971h105v-971h-105z" />
    <glyph glyph-name="braceright" unicode="}" horiz-adv-x="282" 
d="M257 364v-68q-37 -4 -59 -21.5t-22 -44.5q0 -19 17 -88t17 -119q0 -88 -59 -133t-168 -45h-29v70h28q126 0 126 126q0 43 -15.5 109t-15.5 88q0 71 76 91v2q-76 20 -76 91q0 22 15.5 89t15.5 109q0 125 -126 125h-28v70h28q109 0 168.5 -44.5t59.5 -132.5
q0 -50 -17 -119.5t-17 -88.5q0 -58 81 -66z" />
    <glyph glyph-name="asciitilde" unicode="~" horiz-adv-x="503" 
d="M129 596h-83q12 151 128 151q31 0 56.5 -12t39 -26.5t30 -26.5t31.5 -12q19 0 29 14.5t14 51.5h83q-12 -151 -127 -151q-31 0 -56.5 12t-39 26t-30.5 26t-32 12q-19 0 -29 -14.5t-14 -50.5z" />
    <glyph glyph-name="uni00A0" unicode="&#xa0;" horiz-adv-x="215" 
 />
    <glyph glyph-name="exclamdown" unicode="&#xa1;" horiz-adv-x="245" 
d="M179 -104h-113v284l11 222h91l11 -218v-288zM182 621v-128h-121v128h121z" />
    <glyph glyph-name="cent" unicode="&#xa2;" horiz-adv-x="431" 
d="M410 395l-78 -31q-24 63 -89 63q-91 0 -91 -105v-136q0 -110 91 -110q65 0 90 70l80 -30q-38 -102 -137 -121l-13 -95h-68l-2 94q-74 11 -113.5 62t-39.5 125v146q0 75 40.5 126t115.5 61l16 115h68l2 -118q92 -22 128 -116z" />
    <glyph glyph-name="sterling" unicode="&#xa3;" horiz-adv-x="570" 
d="M51 324l-12 81h68q-12 70 -12 107q0 103 55.5 164t155.5 61q80 0 135 -43.5t72 -114.5l-86 -33q-28 89 -114 89q-105 0 -105 -136q0 -29 7 -94h218l-10 -81h-197q11 -78 13 -112q29 -12 59.5 -42t56 -52t51.5 -22q30 0 46 24t25 83l84 -24q-26 -189 -148 -189
q-25 0 -47.5 8t-42 24t-32 29.5t-30.5 36t-26 31.5h-2q-21 -129 -126 -129q-44 0 -70 26.5t-26 73.5q0 53 35 88.5t98 42.5q-1 3 -9 40.5t-13 62.5h-71zM116 69q35 0 36 87q-57 -7 -57 -59q0 -28 21 -28z" />
    <glyph glyph-name="currency" unicode="&#xa4;" horiz-adv-x="399" 
d="M74 375q0 39 18 69l-43 47l41 44l45 -48q29 19 64 19t65 -19l47 51l41 -45l-46 -50q18 -33 18 -68q0 -38 -19 -70l45 -47l-41 -45l-46 49q-30 -19 -64 -19q-37 0 -64 18l-47 -50l-41 44l46 50q-19 32 -19 70zM141 375q0 -27 17.5 -45t41.5 -18t41 18t17 45t-17 44.5
t-41 17.5t-41.5 -17.5t-17.5 -44.5z" />
    <glyph glyph-name="yen" unicode="&#xa5;" horiz-adv-x="603" 
d="M490 143h-122v-143h-125v143h-130v77h130v42h-130v76h107l-193 387h139l139 -338h2l138 338h140l-195 -387h100v-76h-122v-42h122v-77z" />
    <glyph glyph-name="brokenbar" unicode="&#xa6;" horiz-adv-x="283" 
d="M89 398v417h105v-417h-105zM89 -156v418h105v-418h-105z" />
    <glyph glyph-name="section" unicode="&#xa7;" horiz-adv-x="445" 
d="M54 -32l87 20q22 -64 83 -64q69 0 69 65q0 29 -27 56.5t-65 52t-76 52t-65 69t-27 91.5q0 98 86 142q-63 61 -63 127q0 67 43 112t128 45q68 0 113 -35.5t62 -99.5l-86 -20q-22 64 -83 64q-69 0 -69 -65q0 -29 27 -56.5t65 -52t76 -52t65 -69t27 -91.5q0 -48 -23 -85
t-64 -58q63 -60 63 -126q0 -67 -42.5 -112t-127.5 -45q-67 0 -113 35.5t-63 99.5zM327 247q0 31 -25.5 59.5t-112.5 90.5q-59 -23 -59 -75q0 -32 25.5 -61t111.5 -89q60 22 60 75z" />
    <glyph glyph-name="dieresis" unicode="&#xa8;" 
d="M23 725h82v-118h-82v118zM171 725h82v-118h-82v118z" />
    <glyph glyph-name="copyright" unicode="&#xa9;" horiz-adv-x="731" 
d="M368 614q69 0 116 -35.5t61 -94.5l-75 -24q-21 76 -93 76q-47 0 -71.5 -28.5t-24.5 -81.5v-132q0 -51 24.5 -80.5t71.5 -29.5q38 0 60 19t33 63l77 -23q-31 -136 -179 -136q-88 0 -140.5 51.5t-52.5 134.5v132q0 87 52 138t141 51zM682 425v-130q0 -133 -84.5 -221.5
t-231.5 -88.5t-232 88.5t-85 221.5v130q0 135 84.5 223.5t232.5 88.5q147 0 231.5 -88.5t84.5 -223.5zM611 296v129q0 109 -65 177t-181 68t-180.5 -68t-64.5 -177v-129q0 -108 65 -176.5t181 -68.5q115 0 180 68.5t65 176.5z" />
    <glyph glyph-name="ordfeminine" unicode="&#xaa;" horiz-adv-x="316" 
d="M81 650l-51 28q17 34 49.5 54t72.5 20q58 0 86.5 -30.5t28.5 -78.5v-136q0 -19 18 -19h13v-50h-41q-35 0 -54 27q-36 -30 -89 -30q-45 0 -71 23t-26 61q0 100 149 100h25v24q0 49 -49 49q-43 0 -61 -42zM134 489q34 0 57 22v56h-25q-75 0 -75 -44q0 -34 43 -34z" />
    <glyph glyph-name="guillemotleft" unicode="&#xab;" horiz-adv-x="436" 
d="M410 437l-124 -177l124 -177h-94l-122 177l122 177h94zM242 437l-124 -177l124 -177h-94l-122 177l122 177h94z" />
    <glyph glyph-name="logicalnot" unicode="&#xac;" horiz-adv-x="468" 
d="M340 122v147h-294v84h376v-231h-82z" />
    <glyph glyph-name="uni00AD" unicode="&#xad;" horiz-adv-x="281" 
d="M28 244v97h225v-97h-225z" />
    <glyph glyph-name="registered" unicode="&#xae;" horiz-adv-x="277" 
d="M260 666v-53q0 -51 -31.5 -86t-90.5 -35q-58 0 -89.5 35t-31.5 86v53q0 51 31 84.5t90 33.5t90.5 -33.5t31.5 -84.5zM48 667v-54q0 -91 90 -91q92 0 92 91v54q0 88 -92 88q-90 0 -90 -88zM167 559l-30 63h-17v-63h-40v166h63q62 0 62 -50q0 -34 -31 -45l37 -71h-44z
M120 694v-44h22q21 0 21 23q0 21 -21 21h-22z" />
    <glyph glyph-name="macron" unicode="&#xaf;" 
d="M267 689v-72h-258v72h258z" />
    <glyph glyph-name="degree" unicode="&#xb0;" horiz-adv-x="263" 
d="M19 671q0 48 33 82t80 34q46 0 79 -34.5t33 -81.5q0 -48 -33 -82t-79 -34q-47 0 -80 33.5t-33 82.5zM80 671q0 -26 14.5 -41.5t37.5 -15.5q22 0 37 15.5t15 41.5q0 24 -15.5 40.5t-36.5 16.5q-23 0 -37.5 -16t-14.5 -41z" />
    <glyph glyph-name="plusminus" unicode="&#xb1;" horiz-adv-x="468" 
d="M191 147v148h-145v83h145v157h83v-157h149v-83h-149v-148h-83zM423 36h-377v83h377v-83z" />
    <glyph glyph-name="twosuperior" unicode="&#xb2;" 
d="M141 800q53 0 79.5 -25.5t26.5 -63.5q0 -36 -20.5 -64t-46 -43t-49.5 -34.5t-29 -38.5h146v-54h-220l-1 29q1 28 17 53.5t38 43.5t43.5 34.5t36.5 34.5t15 36q0 36 -42 36t-57 -49l-54 18q13 39 42.5 63t74.5 24z" />
    <glyph glyph-name="threesuperior" unicode="&#xb3;" 
d="M99 615v49h27q46 0 46 41q0 40 -41 40t-56 -40l-51 18q12 35 41.5 56t72.5 21q52 0 78.5 -24.5t26.5 -61.5q0 -54 -44 -70v-2q51 -14 51 -72q0 -47 -30 -72t-84 -25q-90 0 -115 72l51 20q17 -39 59 -39q46 0 46 48q0 23 -12 32t-38 9h-28z" />
    <glyph glyph-name="acute" unicode="&#xb4;" 
d="M116 725h124l-96 -140h-83z" />
    <glyph glyph-name="mu" unicode="&#xb5;" horiz-adv-x="522" 
d="M58 189v319h112v-318q0 -103 88 -103q60 0 94 48v373h111v-508h-99l-4 46h-2q-38 -44 -96 -44q-66 0 -97 50h-2q7 -140 18 -211l-112 -9q-11 202 -11 357z" />
    <glyph glyph-name="paragraph" unicode="&#xb6;" horiz-adv-x="617" 
d="M166 747h454v-99h-103v-809h-106v809h-140v-809h-105v614q-76 0 -115.5 39t-39.5 107q0 65 40 106.5t115 41.5z" />
    <glyph glyph-name="periodcentered" unicode="&#xb7;" horiz-adv-x="235" 
d="M46 318q0 32 21 55t50 23t50.5 -23t21.5 -55t-21.5 -54.5t-50.5 -22.5t-50 22.5t-21 54.5z" />
    <glyph glyph-name="cedilla" unicode="&#xb8;" 
d="M94 22l59 -5l-7 -44q80 -11 80 -63q0 -33 -34 -56t-95 -27l-19 49q60 10 60 30q0 21 -64 25z" />
    <glyph glyph-name="onesuperior" unicode="&#xb9;" horiz-adv-x="219" 
d="M111 798h58v-321h-72v215h-69v47h28q30 0 40.5 11t14.5 48z" />
    <glyph glyph-name="ordmasculine" unicode="&#xba;" horiz-adv-x="301" 
d="M284 635v-84q0 -50 -35 -83.5t-99 -33.5t-98.5 33.5t-34.5 83.5v84q0 50 34.5 83.5t98.5 33.5q65 0 99.5 -33.5t34.5 -83.5zM94 629v-73q0 -68 56 -68q57 0 57 68v73q0 64 -57 64q-56 0 -56 -64z" />
    <glyph glyph-name="guillemotright" unicode="&#xbb;" horiz-adv-x="436" 
d="M194 83l124 177l-124 177h93l123 -177l-123 -177h-93zM26 83l124 177l-124 177h93l123 -177l-123 -177h-93z" />
    <glyph glyph-name="onequarter" unicode="&#xbc;" horiz-adv-x="595" 
d="M152 727h58v-321h-72v215h-69v47h28q30 0 40.5 11t14.5 48zM133 0h-73l399 725h73zM533 0h-62v58h-154v45l148 216h68v-209h37l-4 -52h-33v-58zM389 110h83l4 136h-2l-85 -134v-2z" />
    <glyph glyph-name="onehalf" unicode="&#xbd;" horiz-adv-x="595" 
d="M152 727h58v-321h-72v215h-69v47h28q30 0 40.5 11t14.5 48zM133 0h-73l399 725h73zM459 323q53 0 79.5 -25.5t26.5 -63.5q0 -36 -20.5 -64t-46 -43t-49.5 -34.5t-29 -38.5h146v-54h-220l-1 29q1 28 17 53.5t38 43.5t43.5 34.5t36.5 34.5t15 36q0 36 -42 36t-57 -49
l-54 18q13 39 42.5 63t74.5 24z" />
    <glyph glyph-name="threequarters" unicode="&#xbe;" horiz-adv-x="595" 
d="M99 544v49h27q46 0 46 41q0 40 -41 40t-56 -40l-51 18q12 35 41.5 56t72.5 21q52 0 78.5 -24.5t26.5 -61.5q0 -54 -44 -70v-2q51 -13 51 -72q0 -47 -30 -72t-84 -25q-90 0 -115 72l51 20q17 -39 59 -39q46 0 46 48q0 23 -12 32t-38 9h-28zM133 0h-73l399 725h73zM522 0
h-62v58h-154v45l148 216h68v-209h37l-4 -52h-33v-58zM378 110h83l4 136h-2l-85 -134v-2z" />
    <glyph glyph-name="questiondown" unicode="&#xbf;" horiz-adv-x="502" 
d="M483 56q-27 -77 -87.5 -123.5t-148.5 -46.5q-106 0 -158.5 53t-52.5 130q0 78 45.5 142t130.5 102l8 91h85l8 -143q-162 -63 -162 -183q0 -42 24.5 -69t78.5 -27q102 0 139 103zM323 621v-128h-121v128h121z" />
    <glyph glyph-name="Agrave" unicode="&#xc0;" horiz-adv-x="610" 
d="M181 168l-46 -168h-127l227 725h140l227 -725h-128l-47 168h-246zM302 612l-95 -350h194l-97 350h-2zM154 874h137l63 -117h-96z" />
    <glyph glyph-name="Aacute" unicode="&#xc1;" horiz-adv-x="610" 
d="M181 168l-46 -168h-127l227 725h140l227 -725h-128l-47 168h-246zM302 612l-95 -350h194l-97 350h-2zM312 874h136l-97 -117h-96z" />
    <glyph glyph-name="Acircumflex" unicode="&#xc2;" horiz-adv-x="610" 
d="M181 168l-46 -168h-127l227 725h140l227 -725h-128l-47 168h-246zM302 612l-95 -350h194l-97 350h-2zM259 757h-94l93 117h91l93 -117h-94l-44 61z" />
    <glyph glyph-name="Atilde" unicode="&#xc3;" horiz-adv-x="610" 
d="M181 168l-46 -168h-127l227 725h140l227 -725h-128l-47 168h-246zM302 612l-95 -350h194l-97 350h-2zM400 875l57 -8q-9 -58 -30.5 -88t-63.5 -30q-24 0 -46 15t-39 30t-29 15q-26 0 -36 -54l-57 8q9 59 30 88.5t63 29.5q33 0 68 -30t47 -30q26 0 36 54z" />
    <glyph glyph-name="Adieresis" unicode="&#xc4;" horiz-adv-x="610" 
d="M181 168l-46 -168h-127l227 725h140l227 -725h-128l-47 168h-246zM302 612l-95 -350h194l-97 350h-2zM175 873h85v-108h-85v108zM348 873h85v-108h-85v108z" />
    <glyph glyph-name="Aring" unicode="&#xc5;" horiz-adv-x="610" 
d="M181 168l-46 -168h-127l227 725h140l227 -725h-128l-47 168h-246zM302 612l-95 -350h194l-97 350h-2zM210 820q0 34 26.5 55.5t67.5 21.5t67.5 -21.5t26.5 -55.5t-26.5 -55.5t-67.5 -21.5t-67.5 21.5t-26.5 55.5zM273 820q0 -14 8.5 -22.5t22.5 -8.5q13 0 21.5 8.5
t8.5 22.5t-8.5 22.5t-21.5 8.5q-14 0 -22.5 -8.5t-8.5 -22.5z" />
    <glyph glyph-name="AE" unicode="&#xc6;" horiz-adv-x="854" 
d="M212 173l-76 -173h-127l332 725h470v-107h-290l20 -198h223v-95h-213l22 -219h249v-106h-365l-17 173h-228zM399 602l-146 -336h179l-31 336h-2z" />
    <glyph glyph-name="Ccedilla" unicode="&#xc7;" horiz-adv-x="529" 
d="M284 735q80 0 138.5 -45t77.5 -115l-91 -33q-27 90 -115 90q-119 0 -119 -145v-259q0 -64 30.5 -101.5t88.5 -37.5q47 0 74 22.5t41 73.5l92 -31q-35 -152 -194 -163l-3 -18q80 -11 80 -63q0 -33 -34 -56t-95 -27l-19 49q60 10 60 30q0 21 -64 25l13 62q-91 11 -143.5 74
t-52.5 161v259q0 115 63.5 181.5t171.5 66.5z" />
    <glyph glyph-name="Egrave" unicode="&#xc8;" horiz-adv-x="529" 
d="M72 725h413v-107h-288v-198h223v-95h-223v-219h300v-106h-425v725zM143 874h137l63 -117h-96z" />
    <glyph glyph-name="Eacute" unicode="&#xc9;" horiz-adv-x="529" 
d="M72 725h413v-107h-288v-198h223v-95h-223v-219h300v-106h-425v725zM273 874h136l-97 -117h-96z" />
    <glyph glyph-name="Ecircumflex" unicode="&#xca;" horiz-adv-x="529" 
d="M72 725h413v-107h-288v-198h223v-95h-223v-219h300v-106h-425v725zM241 757h-94l93 117h91l93 -117h-94l-44 61z" />
    <glyph glyph-name="Edieresis" unicode="&#xcb;" horiz-adv-x="529" 
d="M72 725h413v-107h-288v-198h223v-95h-223v-219h300v-106h-425v725zM154 873h85v-108h-85v108zM327 873h85v-108h-85v108z" />
    <glyph glyph-name="Igrave" unicode="&#xcc;" horiz-adv-x="295" 
d="M85 725h125v-725h-125v725zM4 874h137l63 -117h-96z" />
    <glyph glyph-name="Iacute" unicode="&#xcd;" horiz-adv-x="295" 
d="M85 725h125v-725h-125v725zM149 874h136l-97 -117h-96z" />
    <glyph glyph-name="Icircumflex" unicode="&#xce;" horiz-adv-x="295" 
d="M85 725h125v-725h-125v725zM103 757h-94l93 117h91l93 -117h-94l-44 61z" />
    <glyph glyph-name="Idieresis" unicode="&#xcf;" horiz-adv-x="295" 
d="M85 725h125v-725h-125v725zM19 873h85v-108h-85v108zM192 873h85v-108h-85v108z" />
    <glyph glyph-name="Eth" unicode="&#xd0;" horiz-adv-x="637" 
d="M85 725h249q120 0 187 -68t67 -185v-220q0 -117 -67 -184.5t-187 -67.5h-249v337h-70v70h70v318zM463 466q0 79 -32 116.5t-97 37.5h-124v-213h75v-70h-75v-235h124q65 0 97 36.5t32 116.5v211z" />
    <glyph glyph-name="Ntilde" unicode="&#xd1;" horiz-adv-x="627" 
d="M72 725h95l275 -469h2v469h111v-725h-88l-283 484h-2v-484h-110v725zM410 875l57 -8q-9 -58 -30.5 -88t-63.5 -30q-24 0 -46 15t-39 30t-29 15q-26 0 -36 -54l-57 8q9 59 30 88.5t63 29.5q33 0 68 -30t47 -30q26 0 36 54z" />
    <glyph glyph-name="Ograve" unicode="&#xd2;" horiz-adv-x="600" 
d="M300 735q121 0 186.5 -67t65.5 -184v-243q0 -117 -65.5 -184t-186.5 -67t-186 67t-65 184v243q0 117 65 184t186 67zM427 241v243q0 148 -127 148q-64 0 -95 -36t-31 -112v-243q0 -151 126 -151q127 0 127 151zM161 874h137l63 -117h-96z" />
    <glyph glyph-name="Oacute" unicode="&#xd3;" horiz-adv-x="600" 
d="M300 735q121 0 186.5 -67t65.5 -184v-243q0 -117 -65.5 -184t-186.5 -67t-186 67t-65 184v243q0 117 65 184t186 67zM427 241v243q0 148 -127 148q-64 0 -95 -36t-31 -112v-243q0 -151 126 -151q127 0 127 151zM298 874h136l-97 -117h-96z" />
    <glyph glyph-name="Ocircumflex" unicode="&#xd4;" horiz-adv-x="600" 
d="M300 735q121 0 186.5 -67t65.5 -184v-243q0 -117 -65.5 -184t-186.5 -67t-186 67t-65 184v243q0 117 65 184t186 67zM427 241v243q0 148 -127 148q-64 0 -95 -36t-31 -112v-243q0 -151 126 -151q127 0 127 151zM255 757h-94l93 117h91l93 -117h-94l-44 61z" />
    <glyph glyph-name="Otilde" unicode="&#xd5;" horiz-adv-x="600" 
d="M300 735q121 0 186.5 -67t65.5 -184v-243q0 -117 -65.5 -184t-186.5 -67t-186 67t-65 184v243q0 117 65 184t186 67zM427 241v243q0 148 -127 148q-64 0 -95 -36t-31 -112v-243q0 -151 126 -151q127 0 127 151zM394 875l57 -8q-9 -58 -30.5 -88t-63.5 -30q-24 0 -46 15
t-39 30t-29 15q-26 0 -36 -54l-57 8q9 59 30 88.5t63 29.5q33 0 68 -30t47 -30q26 0 36 54z" />
    <glyph glyph-name="Odieresis" unicode="&#xd6;" horiz-adv-x="600" 
d="M300 735q121 0 186.5 -67t65.5 -184v-243q0 -117 -65.5 -184t-186.5 -67t-186 67t-65 184v243q0 117 65 184t186 67zM427 241v243q0 148 -127 148q-64 0 -95 -36t-31 -112v-243q0 -151 126 -151q127 0 127 151zM171 873h85v-108h-85v108zM344 873h85v-108h-85v108z" />
    <glyph glyph-name="multiply" unicode="&#xd7;" horiz-adv-x="468" 
d="M350 128l-117 124l-116 -124l-55 59l116 124l-116 124l55 59l116 -125l117 125l55 -59l-117 -124l117 -124z" />
    <glyph glyph-name="Oslash" unicode="&#xd8;" horiz-adv-x="600" 
d="M300 735q117 0 185 -66l41 59l39 -32l-48 -69q35 -59 35 -143v-243q0 -117 -65.5 -184t-186.5 -67q-119 0 -184 65l-39 -55l-39 32l45 65q-34 58 -34 144v243q0 117 65 184t186 67zM427 241v257h-2l-238 -341q28 -67 113 -67q127 0 127 151zM174 484v-258h2l237 341
q-27 65 -113 65q-64 0 -95 -36t-31 -112z" />
    <glyph glyph-name="Ugrave" unicode="&#xd9;" horiz-adv-x="625" 
d="M439 725h125v-488q0 -116 -66 -181.5t-185 -65.5t-185.5 64t-66.5 178v493h125v-494q0 -68 34.5 -99.5t92.5 -31.5q126 0 126 131v494zM180 874h137l63 -117h-96z" />
    <glyph glyph-name="Uacute" unicode="&#xda;" horiz-adv-x="625" 
d="M439 725h125v-488q0 -116 -66 -181.5t-185 -65.5t-185.5 64t-66.5 178v493h125v-494q0 -68 34.5 -99.5t92.5 -31.5q126 0 126 131v494zM308 874h136l-97 -117h-96z" />
    <glyph glyph-name="Ucircumflex" unicode="&#xdb;" horiz-adv-x="625" 
d="M439 725h125v-488q0 -116 -66 -181.5t-185 -65.5t-185.5 64t-66.5 178v493h125v-494q0 -68 34.5 -99.5t92.5 -31.5q126 0 126 131v494zM268 757h-94l93 117h91l93 -117h-94l-44 61z" />
    <glyph glyph-name="Udieresis" unicode="&#xdc;" horiz-adv-x="625" 
d="M439 725h125v-488q0 -116 -66 -181.5t-185 -65.5t-185.5 64t-66.5 178v493h125v-494q0 -68 34.5 -99.5t92.5 -31.5q126 0 126 131v494zM184 873h85v-108h-85v108zM357 873h85v-108h-85v108z" />
    <glyph glyph-name="Yacute" unicode="&#xdd;" horiz-adv-x="579" 
d="M573 725l-221 -491v-234h-125v233l-222 492h140l144 -377h2l144 377h138zM287 874h136l-97 -117h-96z" />
    <glyph glyph-name="Thorn" unicode="&#xde;" horiz-adv-x="567" 
d="M320 603q103 0 159.5 -60.5t56.5 -168.5q0 -107 -54.5 -167.5t-153.5 -60.5h-131v-146h-125v725h125v-122h123zM197 500v-258h119q50 0 72.5 31.5t22.5 98.5q0 68 -22.5 98t-72.5 30h-119z" />
    <glyph glyph-name="germandbls" unicode="&#xdf;" horiz-adv-x="516" 
d="M246 396q0 88 84 126q3 14 3 30q0 31 -16.5 50t-46.5 19q-95 0 -95 -157v-464h-113v464q0 115 53 179.5t149 64.5q75 0 119.5 -47t44.5 -121q0 -43 -12 -76q-59 -14 -59 -60q0 -19 14.5 -38t35 -37t41 -39.5t35 -55t14.5 -73.5q0 -80 -47 -125.5t-127 -45.5
q-79 0 -127 38l21 80q35 -29 86 -29q81 0 81 84q0 25 -14 48t-34.5 41t-41 37t-34.5 46.5t-14 60.5z" />
    <glyph glyph-name="agrave" unicode="&#xe0;" horiz-adv-x="465" 
d="M119 362l-68 38q61 118 182 118q86 0 127.5 -47.5t41.5 -126.5v-240q0 -38 36 -38h13v-64q-30 -8 -52 -8q-64 0 -91 46q-52 -49 -131 -49q-67 0 -105 38.5t-38 101.5q0 74 52 119t170 45h35v49q0 88 -74 88q-61 0 -98 -70zM205 68q52 0 86 39v114h-35q-63 0 -89 -21
t-26 -61q0 -71 64 -71zM112 725h124l62 -140h-84z" />
    <glyph glyph-name="aacute" unicode="&#xe1;" horiz-adv-x="465" 
d="M119 362l-68 38q61 118 182 118q86 0 127.5 -47.5t41.5 -126.5v-240q0 -38 36 -38h13v-64q-30 -8 -52 -8q-64 0 -91 46q-52 -49 -131 -49q-67 0 -105 38.5t-38 101.5q0 74 52 119t170 45h35v49q0 88 -74 88q-61 0 -98 -70zM205 68q52 0 86 39v114h-35q-63 0 -89 -21
t-26 -61q0 -71 64 -71zM233 725h124l-96 -140h-83z" />
    <glyph glyph-name="acircumflex" unicode="&#xe2;" horiz-adv-x="465" 
d="M119 362l-68 38q61 118 182 118q86 0 127.5 -47.5t41.5 -126.5v-240q0 -38 36 -38h13v-64q-30 -8 -52 -8q-64 0 -91 46q-52 -49 -131 -49q-67 0 -105 38.5t-38 101.5q0 74 52 119t170 45h35v49q0 88 -74 88q-61 0 -98 -70zM205 68q52 0 86 39v114h-35q-63 0 -89 -21
t-26 -61q0 -71 64 -71zM190 585h-91l97 140h78l97 -140h-92l-44 76z" />
    <glyph glyph-name="atilde" unicode="&#xe3;" horiz-adv-x="465" 
d="M119 362l-68 38q61 118 182 118q86 0 127.5 -47.5t41.5 -126.5v-240q0 -38 36 -38h13v-64q-30 -8 -52 -8q-64 0 -91 46q-52 -49 -131 -49q-67 0 -105 38.5t-38 101.5q0 74 52 119t170 45h35v49q0 88 -74 88q-61 0 -98 -70zM205 68q52 0 86 39v114h-35q-63 0 -89 -21
t-26 -61q0 -71 64 -71zM329 726l58 -12q-9 -67 -30.5 -100.5t-63.5 -33.5q-26 0 -48 19t-38.5 38.5t-28.5 19.5q-14 0 -22 -15.5t-13 -53.5l-58 10q9 68 30.5 101.5t63.5 33.5q21 0 39.5 -12t29.5 -26.5t23.5 -26.5t22.5 -12q14 0 22 16t13 54z" />
    <glyph glyph-name="adieresis" unicode="&#xe4;" horiz-adv-x="465" 
d="M119 362l-68 38q61 118 182 118q86 0 127.5 -47.5t41.5 -126.5v-240q0 -38 36 -38h13v-64q-30 -8 -52 -8q-64 0 -91 46q-52 -49 -131 -49q-67 0 -105 38.5t-38 101.5q0 74 52 119t170 45h35v49q0 88 -74 88q-61 0 -98 -70zM205 68q52 0 86 39v114h-35q-63 0 -89 -21
t-26 -61q0 -71 64 -71zM121 725h82v-118h-82v118zM269 725h82v-118h-82v118z" />
    <glyph glyph-name="aring" unicode="&#xe5;" horiz-adv-x="465" 
d="M119 362l-68 38q61 118 182 118q86 0 127.5 -47.5t41.5 -126.5v-240q0 -38 36 -38h13v-64q-30 -8 -52 -8q-64 0 -91 46q-52 -49 -131 -49q-67 0 -105 38.5t-38 101.5q0 74 52 119t170 45h35v49q0 88 -74 88q-61 0 -98 -70zM205 68q52 0 86 39v114h-35q-63 0 -89 -21
t-26 -61q0 -71 64 -71zM143 661q0 38 26.5 61.5t67.5 23.5t67.5 -23.5t26.5 -61.5q0 -37 -26.5 -60.5t-67.5 -23.5t-67.5 23.5t-26.5 60.5zM206 661q0 -34 31 -34q14 0 22.5 9.5t8.5 24.5t-8.5 25t-22.5 10q-15 0 -23 -10t-8 -25z" />
    <glyph glyph-name="ae" unicode="&#xe6;" horiz-adv-x="720" 
d="M685 233h-264v-62q0 -97 91 -97q74 0 101 79l73 -31q-49 -131 -186 -131q-105 0 -147 75q-50 -75 -169 -75q-70 0 -110 38.5t-40 101.5q0 75 54.5 121.5t178.5 46.5h41v47q0 82 -81 82q-69 0 -97 -72l-75 38q23 57 71 90.5t106 33.5q93 0 135 -60q47 60 139 60
q82 0 130.5 -54t48.5 -133v-98zM210 71q31 0 59 13.5t39 39.5v99h-41q-124 0 -124 -85q0 -67 67 -67zM421 339v-40h164v42q0 93 -82 93t-82 -95z" />
    <glyph glyph-name="ccedilla" unicode="&#xe7;" horiz-adv-x="431" 
d="M410 395l-78 -31q-24 65 -89 65q-91 0 -91 -101v-148q0 -103 91 -103q65 0 90 69l80 -30q-42 -114 -161 -124l-3 -19q80 -11 80 -63q0 -33 -34 -56t-95 -27l-19 49q60 10 60 30q0 21 -64 25l14 64q-73 12 -112 61.5t-39 118.5v157q0 81 50.5 133t141.5 52q63 0 109.5 -32
t68.5 -90z" />
    <glyph glyph-name="egrave" unicode="&#xe8;" horiz-adv-x="460" 
d="M425 240h-273v-59q0 -105 96 -105q36 0 59 17.5t39 57.5l80 -30q-43 -130 -189 -130q-93 0 -145 51.5t-52 134.5v156q0 80 51 132t144 52q89 0 139.5 -53.5t50.5 -135.5v-88zM152 339v-33h174v35q0 45 -23 69t-64 24q-87 0 -87 -95zM109 725h124l62 -140h-84z" />
    <glyph glyph-name="eacute" unicode="&#xe9;" horiz-adv-x="460" 
d="M425 240h-273v-59q0 -105 96 -105q36 0 59 17.5t39 57.5l80 -30q-43 -130 -189 -130q-93 0 -145 51.5t-52 134.5v156q0 80 51 132t144 52q89 0 139.5 -53.5t50.5 -135.5v-88zM152 339v-33h174v35q0 45 -23 69t-64 24q-87 0 -87 -95zM239 725h124l-96 -140h-83z" />
    <glyph glyph-name="ecircumflex" unicode="&#xea;" horiz-adv-x="460" 
d="M425 240h-273v-59q0 -105 96 -105q36 0 59 17.5t39 57.5l80 -30q-43 -130 -189 -130q-93 0 -145 51.5t-52 134.5v156q0 80 51 132t144 52q89 0 139.5 -53.5t50.5 -135.5v-88zM152 339v-33h174v35q0 45 -23 69t-64 24q-87 0 -87 -95zM192 584h-91l97 140h78l97 -140h-92
l-44 76z" />
    <glyph glyph-name="edieresis" unicode="&#xeb;" horiz-adv-x="460" 
d="M425 240h-273v-59q0 -105 96 -105q36 0 59 17.5t39 57.5l80 -30q-43 -130 -189 -130q-93 0 -145 51.5t-52 134.5v156q0 80 51 132t144 52q89 0 139.5 -53.5t50.5 -135.5v-88zM152 339v-33h174v35q0 45 -23 69t-64 24q-87 0 -87 -95zM121 725h82v-118h-82v118zM269 725h82
v-118h-82v118z" />
    <glyph glyph-name="igrave" unicode="&#xec;" horiz-adv-x="245" 
d="M66 508h112v-508h-112v508zM-18 725h124l62 -140h-84z" />
    <glyph glyph-name="iacute" unicode="&#xed;" horiz-adv-x="245" 
d="M66 508h112v-508h-112v508zM132 725h124l-96 -140h-83z" />
    <glyph glyph-name="icircumflex" unicode="&#xee;" horiz-adv-x="245" 
d="M66 508h112v-508h-112v508zM77 585h-91l97 140h78l97 -140h-92l-44 76z" />
    <glyph glyph-name="idieresis" unicode="&#xef;" horiz-adv-x="245" 
d="M66 508h112v-508h-112v508zM8 725h82v-118h-82v118zM156 725h82v-118h-82v118z" />
    <glyph glyph-name="eth" unicode="&#xf0;" horiz-adv-x="488" 
d="M448 185q0 -87 -52 -140.5t-151 -53.5q-97 0 -150.5 51.5t-53.5 131.5v152q0 81 47 132t134 51q78 0 122 -41h2q-9 98 -67 141l-44 -65l-56 40l39 58q-33 12 -78 21l17 72q57 -8 107 -26l39 58l56 -41l-33 -48q122 -78 122 -258v-235zM153 179q0 -103 92 -103
q91 0 91 103v143q0 104 -92 104q-91 0 -91 -104v-143z" />
    <glyph glyph-name="ntilde" unicode="&#xf1;" horiz-adv-x="512" 
d="M170 376v-376h-112v508h100l3 -49h2q51 58 138 58q78 0 120 -51t42 -141v-325h-111v322q0 103 -85 103q-64 0 -97 -49zM354 726l58 -12q-9 -67 -30.5 -100.5t-63.5 -33.5q-26 0 -48 19t-38.5 38.5t-28.5 19.5q-14 0 -22 -15.5t-13 -53.5l-58 10q9 68 30.5 101.5
t63.5 33.5q21 0 39.5 -12t29.5 -26.5t23.5 -26.5t22.5 -12q14 0 22 16t13 54z" />
    <glyph glyph-name="ograve" unicode="&#xf2;" horiz-adv-x="487" 
d="M447 332v-158q0 -80 -53.5 -131.5t-150.5 -51.5t-150 51t-53 132v158q0 81 53 133t150 52q98 0 151 -51.5t53 -133.5zM152 328v-149q0 -104 91 -104q92 0 92 104v149q0 104 -92 104q-91 0 -91 -104zM109 725h124l62 -140h-84z" />
    <glyph glyph-name="oacute" unicode="&#xf3;" horiz-adv-x="487" 
d="M447 332v-158q0 -80 -53.5 -131.5t-150.5 -51.5t-150 51t-53 132v158q0 81 53 133t150 52q98 0 151 -51.5t53 -133.5zM152 328v-149q0 -104 91 -104q92 0 92 104v149q0 104 -92 104q-91 0 -91 -104zM253 725h124l-96 -140h-83z" />
    <glyph glyph-name="ocircumflex" unicode="&#xf4;" horiz-adv-x="487" 
d="M447 332v-158q0 -80 -53.5 -131.5t-150.5 -51.5t-150 51t-53 132v158q0 81 53 133t150 52q98 0 151 -51.5t53 -133.5zM152 328v-149q0 -104 91 -104q92 0 92 104v149q0 104 -92 104q-91 0 -91 -104zM198 584h-91l97 140h78l97 -140h-92l-44 76z" />
    <glyph glyph-name="otilde" unicode="&#xf5;" horiz-adv-x="487" 
d="M447 332v-158q0 -80 -53.5 -131.5t-150.5 -51.5t-150 51t-53 132v158q0 81 53 133t150 52q98 0 151 -51.5t53 -133.5zM152 328v-149q0 -104 91 -104q92 0 92 104v149q0 104 -92 104q-91 0 -91 -104zM340 726l58 -12q-9 -67 -30.5 -100.5t-63.5 -33.5q-26 0 -48 19
t-38.5 38.5t-28.5 19.5q-14 0 -22 -15.5t-13 -53.5l-58 10q9 68 30.5 101.5t63.5 33.5q21 0 39.5 -12t29.5 -26.5t23.5 -26.5t22.5 -12q14 0 22 16t13 54z" />
    <glyph glyph-name="odieresis" unicode="&#xf6;" horiz-adv-x="487" 
d="M447 332v-158q0 -80 -53.5 -131.5t-150.5 -51.5t-150 51t-53 132v158q0 81 53 133t150 52q98 0 151 -51.5t53 -133.5zM152 328v-149q0 -104 91 -104q92 0 92 104v149q0 104 -92 104q-91 0 -91 -104zM128 725h82v-118h-82v118zM276 725h82v-118h-82v118z" />
    <glyph glyph-name="divide" unicode="&#xf7;" horiz-adv-x="468" 
d="M423 269h-377v84h377v-84zM173 483q0 26 17 44t42 18q24 0 41.5 -18.5t17.5 -43.5q0 -26 -17.5 -44t-41.5 -18q-25 0 -42 18t-17 44zM173 144q0 26 17 44t42 18q24 0 41.5 -18.5t17.5 -43.5q0 -26 -17.5 -44.5t-41.5 -18.5q-25 0 -42 18.5t-17 44.5z" />
    <glyph glyph-name="oslash" unicode="&#xf8;" horiz-adv-x="487" 
d="M447 332v-158q0 -80 -53.5 -131.5t-150.5 -51.5q-88 0 -142 44l-29 -35l-38 32l33 41q-27 42 -27 101v158q0 81 53 133t150 52q91 0 146 -47l31 39l39 -32l-38 -46q26 -44 26 -99zM152 328v-151h2l169 212q-21 43 -80 43q-91 0 -91 -104zM243 75q92 0 92 104v145h-2
l-168 -209q23 -40 78 -40z" />
    <glyph glyph-name="ugrave" unicode="&#xf9;" horiz-adv-x="512" 
d="M342 128v380h111v-508h-99l-4 48h-2q-52 -57 -139 -57q-77 0 -119 51.5t-42 140.5v325h112v-326q0 -102 85 -102q62 0 97 48zM120 725h124l62 -140h-84z" />
    <glyph glyph-name="uacute" unicode="&#xfa;" horiz-adv-x="512" 
d="M342 128v380h111v-508h-99l-4 48h-2q-52 -57 -139 -57q-77 0 -119 51.5t-42 140.5v325h112v-326q0 -102 85 -102q62 0 97 48zM261 725h124l-96 -140h-83z" />
    <glyph glyph-name="ucircumflex" unicode="&#xfb;" horiz-adv-x="512" 
d="M342 128v380h111v-508h-99l-4 48h-2q-52 -57 -139 -57q-77 0 -119 51.5t-42 140.5v325h112v-326q0 -102 85 -102q62 0 97 48zM211 584h-91l97 140h78l97 -140h-92l-44 76z" />
    <glyph glyph-name="udieresis" unicode="&#xfc;" horiz-adv-x="512" 
d="M342 128v380h111v-508h-99l-4 48h-2q-52 -57 -139 -57q-77 0 -119 51.5t-42 140.5v325h112v-326q0 -102 85 -102q62 0 97 48zM140 725h82v-118h-82v118zM288 725h82v-118h-82v118z" />
    <glyph glyph-name="yacute" unicode="&#xfd;" horiz-adv-x="506" 
d="M493 508l-186 -518q-29 -80 -76.5 -117t-126.5 -40l-8 79q45 5 70 24.5t39 61.5l7 21l-199 489h125l128 -372h2l109 372h116zM271 725h124l-96 -140h-83z" />
    <glyph glyph-name="thorn" unicode="&#xfe;" horiz-adv-x="503" 
d="M295 -8q-75 0 -123 45h-2v-206h-112v916h112v-287h2q46 57 131 57q77 0 118.5 -51.5t41.5 -141.5v-140q0 -90 -43 -141t-125 -51zM170 377v-250q33 -47 94 -47q88 0 88 104v138q0 103 -85 103q-62 0 -97 -48z" />
    <glyph glyph-name="ydieresis" unicode="&#xff;" horiz-adv-x="506" 
d="M493 508l-186 -518q-29 -80 -76.5 -117t-126.5 -40l-8 79q45 5 70 24.5t39 61.5l7 21l-199 489h125l128 -372h2l109 372h116zM151 725h82v-118h-82v118zM299 725h82v-118h-82v118z" />
    <glyph glyph-name="Amacron" unicode="&#x100;" horiz-adv-x="610" 
d="M181 168l-46 -168h-127l227 725h140l227 -725h-128l-47 168h-246zM302 612l-95 -350h194l-97 350h-2zM440 854v-67h-272v67h272z" />
    <glyph glyph-name="amacron" unicode="&#x101;" horiz-adv-x="465" 
d="M119 362l-68 38q61 118 182 118q86 0 127.5 -47.5t41.5 -126.5v-240q0 -38 36 -38h13v-64q-30 -8 -52 -8q-64 0 -91 46q-52 -49 -131 -49q-67 0 -105 38.5t-38 101.5q0 74 52 119t170 45h35v49q0 88 -74 88q-61 0 -98 -70zM205 68q52 0 86 39v114h-35q-63 0 -89 -21
t-26 -61q0 -71 64 -71zM363 689v-72h-258v72h258z" />
    <glyph glyph-name="Abreve" unicode="&#x102;" horiz-adv-x="610" 
d="M181 168l-46 -168h-127l227 725h140l227 -725h-128l-47 168h-246zM302 612l-95 -350h194l-97 350h-2zM167 874h81q3 -37 16 -51t41 -14q26 0 39 14.5t17 50.5h80q-11 -68 -41.5 -95t-95.5 -27t-95.5 27t-41.5 95z" />
    <glyph glyph-name="abreve" unicode="&#x103;" horiz-adv-x="465" 
d="M119 362l-68 38q61 118 182 118q86 0 127.5 -47.5t41.5 -126.5v-240q0 -38 36 -38h13v-64q-30 -8 -52 -8q-64 0 -91 46q-52 -49 -131 -49q-67 0 -105 38.5t-38 101.5q0 74 52 119t170 45h35v49q0 88 -74 88q-61 0 -98 -70zM205 68q52 0 86 39v114h-35q-63 0 -89 -21
t-26 -61q0 -71 64 -71zM99 725h81q3 -51 15.5 -70.5t40.5 -19.5q27 0 39.5 19.5t15.5 70.5h82q-11 -84 -41 -116t-96 -32t-96 32t-41 116z" />
    <glyph glyph-name="Aogonek" unicode="&#x104;" horiz-adv-x="610" 
d="M181 168l-46 -168h-127l227 725h140l227 -725h-20q-31 0 -47.5 -16.5t-16.5 -41.5q0 -17 11 -28.5t32 -11.5q31 0 61 18l21 -58q-45 -30 -105 -30q-54 0 -81.5 21t-27.5 58q0 58 65 87v2h-20l-47 168h-246zM302 612l-95 -350h194l-97 350h-2z" />
    <glyph glyph-name="aogonek" unicode="&#x105;" horiz-adv-x="465" 
d="M119 362l-68 38q61 118 182 118q86 0 127.5 -47.5t41.5 -126.5v-240q0 -38 36 -38h13v-64q-84 -16 -84 -60q0 -39 42 -39q31 0 61 18l20 -58q-43 -30 -104 -30q-108 0 -108 76q0 60 78 90v2q-32 10 -48 39q-52 -49 -131 -49q-67 0 -105 38.5t-38 101.5q0 74 52 119
t170 45h35v49q0 88 -74 88q-61 0 -98 -70zM205 68q52 0 86 39v114h-35q-63 0 -89 -21t-26 -61q0 -71 64 -71z" />
    <glyph glyph-name="Cacute" unicode="&#x106;" horiz-adv-x="529" 
d="M284 735q80 0 138.5 -45t77.5 -115l-91 -33q-27 90 -115 90q-119 0 -119 -145v-259q0 -64 30.5 -101.5t88.5 -37.5q47 0 74 22.5t41 73.5l92 -31q-38 -164 -217 -164q-107 0 -171 65t-64 173v259q0 115 63.5 181.5t171.5 66.5zM276 874h136l-97 -117h-96z" />
    <glyph glyph-name="cacute" unicode="&#x107;" horiz-adv-x="431" 
d="M410 395l-78 -31q-24 65 -89 65q-91 0 -91 -101v-148q0 -103 91 -103q65 0 90 69l80 -30q-46 -125 -181 -125q-91 0 -141.5 52.5t-50.5 131.5v157q0 81 50.5 133t141.5 52q63 0 109.5 -32t68.5 -90zM238 725h124l-96 -140h-83z" />
    <glyph glyph-name="Ccircumflex" unicode="&#x108;" horiz-adv-x="529" 
d="M284 735q80 0 138.5 -45t77.5 -115l-91 -33q-27 90 -115 90q-119 0 -119 -145v-259q0 -64 30.5 -101.5t88.5 -37.5q47 0 74 22.5t41 73.5l92 -31q-38 -164 -217 -164q-107 0 -171 65t-64 173v259q0 115 63.5 181.5t171.5 66.5zM239 757h-94l93 117h91l93 -117h-94l-44 61
z" />
    <glyph glyph-name="ccircumflex" unicode="&#x109;" horiz-adv-x="431" 
d="M410 395l-78 -31q-24 65 -89 65q-91 0 -91 -101v-148q0 -103 91 -103q65 0 90 69l80 -30q-46 -125 -181 -125q-91 0 -141.5 52.5t-50.5 131.5v157q0 81 50.5 133t141.5 52q63 0 109.5 -32t68.5 -90zM191 584h-91l97 140h78l97 -140h-92l-44 76z" />
    <glyph glyph-name="Cdotaccent" unicode="&#x10a;" horiz-adv-x="529" 
d="M284 735q80 0 138.5 -45t77.5 -115l-91 -33q-27 90 -115 90q-119 0 -119 -145v-259q0 -64 30.5 -101.5t88.5 -37.5q47 0 74 22.5t41 73.5l92 -31q-38 -164 -217 -164q-107 0 -171 65t-64 173v259q0 115 63.5 181.5t171.5 66.5zM229 874h110v-109h-110v109z" />
    <glyph glyph-name="cdotaccent" unicode="&#x10b;" horiz-adv-x="431" 
d="M410 395l-78 -31q-24 65 -89 65q-91 0 -91 -101v-148q0 -103 91 -103q65 0 90 69l80 -30q-46 -125 -181 -125q-91 0 -141.5 52.5t-50.5 131.5v157q0 81 50.5 133t141.5 52q63 0 109.5 -32t68.5 -90zM185 724h104v-118h-104v118z" />
    <glyph glyph-name="Ccaron" unicode="&#x10c;" horiz-adv-x="529" 
d="M284 735q80 0 138.5 -45t77.5 -115l-91 -33q-27 90 -115 90q-119 0 -119 -145v-259q0 -64 30.5 -101.5t88.5 -37.5q47 0 74 22.5t41 73.5l92 -31q-38 -164 -217 -164q-107 0 -171 65t-64 173v259q0 115 63.5 181.5t171.5 66.5zM148 874h93l43 -63l44 63h92l-97 -117h-78z
" />
    <glyph glyph-name="ccaron" unicode="&#x10d;" horiz-adv-x="431" 
d="M410 395l-78 -31q-24 65 -89 65q-91 0 -91 -101v-148q0 -103 91 -103q65 0 90 69l80 -30q-46 -125 -181 -125q-91 0 -141.5 52.5t-50.5 131.5v157q0 81 50.5 133t141.5 52q63 0 109.5 -32t68.5 -90zM99 725h91l45 -76l44 76h91l-96 -140h-78z" />
    <glyph glyph-name="Dcaron" unicode="&#x10e;" horiz-adv-x="623" 
d="M72 725h249q120 0 187 -68t67 -185v-220q0 -117 -67 -184.5t-187 -67.5h-249v725zM450 466q0 79 -32 116.5t-97 37.5h-124v-518h124q65 0 97 36.5t32 116.5v211zM152 874h93l43 -63l44 63h92l-97 -117h-78z" />
    <glyph glyph-name="dcaron" unicode="&#x10f;" horiz-adv-x="508" 
d="M208 518q75 0 123 -45h2v274h112v-747h-99l-5 47h-2q-51 -56 -138 -56q-77 0 -119 51t-42 141v143q0 90 43 141t125 51zM333 128v254q-34 46 -94 46q-87 0 -87 -105v-141q0 -102 85 -102q62 0 96 48zM508 748h92l-57 -141h-60z" />
    <glyph glyph-name="Dcroat" unicode="&#x110;" horiz-adv-x="637" 
d="M85 725h249q120 0 187 -68t67 -185v-220q0 -117 -67 -184.5t-187 -67.5h-249v337h-70v70h70v318zM463 466q0 79 -32 116.5t-97 37.5h-124v-213h75v-70h-75v-235h124q65 0 97 36.5t32 116.5v211z" />
    <glyph glyph-name="dcroat" unicode="&#x111;" horiz-adv-x="508" 
d="M266 592v68h67v87h112v-87h44v-68h-44v-592h-99l-5 47h-2q-51 -56 -138 -56q-77 0 -119 51t-42 141v143q0 90 43 141t125 51q75 0 123 -45h2v119h-67zM333 128v254q-34 46 -94 46q-87 0 -87 -105v-141q0 -102 85 -102q62 0 96 48z" />
    <glyph glyph-name="Emacron" unicode="&#x112;" horiz-adv-x="529" 
d="M72 725h413v-107h-288v-198h223v-95h-223v-219h300v-106h-425v725zM419 854v-67h-272v67h272z" />
    <glyph glyph-name="emacron" unicode="&#x113;" horiz-adv-x="460" 
d="M425 240h-273v-59q0 -105 96 -105q36 0 59 17.5t39 57.5l80 -30q-43 -130 -189 -130q-93 0 -145 51.5t-52 134.5v156q0 80 51 132t144 52q89 0 139.5 -53.5t50.5 -135.5v-88zM152 339v-33h174v35q0 45 -23 69t-64 24q-87 0 -87 -95zM366 689v-72h-258v72h258z" />
    <glyph glyph-name="Ebreve" unicode="&#x114;" horiz-adv-x="529" 
d="M72 725h413v-107h-288v-198h223v-95h-223v-219h300v-106h-425v725zM148 874h81q3 -37 16 -51t41 -14q26 0 39 14.5t17 50.5h80q-11 -68 -41.5 -95t-95.5 -27t-95.5 27t-41.5 95z" />
    <glyph glyph-name="ebreve" unicode="&#x115;" horiz-adv-x="460" 
d="M425 240h-273v-59q0 -105 96 -105q36 0 59 17.5t39 57.5l80 -30q-43 -130 -189 -130q-93 0 -145 51.5t-52 134.5v156q0 80 51 132t144 52q89 0 139.5 -53.5t50.5 -135.5v-88zM152 339v-33h174v35q0 45 -23 69t-64 24q-87 0 -87 -95zM101 725h81q3 -51 15.5 -70.5
t40.5 -19.5q27 0 39.5 19.5t15.5 70.5h82q-11 -84 -41 -116t-96 -32t-96 32t-41 116z" />
    <glyph glyph-name="Edotaccent" unicode="&#x116;" horiz-adv-x="529" 
d="M72 725h413v-107h-288v-198h223v-95h-223v-219h300v-106h-425v725zM233 874h110v-109h-110v109z" />
    <glyph glyph-name="edotaccent" unicode="&#x117;" horiz-adv-x="460" 
d="M425 240h-273v-59q0 -105 96 -105q36 0 59 17.5t39 57.5l80 -30q-43 -130 -189 -130q-93 0 -145 51.5t-52 134.5v156q0 80 51 132t144 52q89 0 139.5 -53.5t50.5 -135.5v-88zM152 339v-33h174v35q0 45 -23 69t-64 24q-87 0 -87 -95zM186 724h104v-118h-104v118z" />
    <glyph glyph-name="Eogonek" unicode="&#x118;" horiz-adv-x="529" 
d="M72 725h413v-107h-288v-198h223v-95h-223v-219h300v-106h-39q-27 -2 -42 -20t-15 -38q0 -17 11 -28.5t32 -11.5q31 0 61 18l21 -58q-45 -30 -105 -30q-54 0 -81.5 21t-27.5 58q0 58 65 87v2h-305v725z" />
    <glyph glyph-name="eogonek" unicode="&#x119;" horiz-adv-x="460" 
d="M425 240h-273v-59q0 -105 96 -105q36 0 59 17.5t39 57.5l80 -30q-33 -100 -123 -122q-26 -6 -38.5 -23t-12.5 -37q0 -17 11.5 -27t30.5 -10q31 0 61 18l20 -58q-43 -30 -104 -30q-108 0 -108 76q0 52 60 82v2q-86 4 -134.5 55t-48.5 130v156q0 80 51 132t144 52
q89 0 139.5 -53.5t50.5 -135.5v-88zM152 339v-33h174v35q0 45 -23 69t-64 24q-87 0 -87 -95z" />
    <glyph glyph-name="Ecaron" unicode="&#x11a;" horiz-adv-x="529" 
d="M72 725h413v-107h-288v-198h223v-95h-223v-219h300v-106h-425v725zM148 874h93l43 -63l44 63h92l-97 -117h-78z" />
    <glyph glyph-name="ecaron" unicode="&#x11b;" horiz-adv-x="460" 
d="M425 240h-273v-59q0 -105 96 -105q36 0 59 17.5t39 57.5l80 -30q-43 -130 -189 -130q-93 0 -145 51.5t-52 134.5v156q0 80 51 132t144 52q89 0 139.5 -53.5t50.5 -135.5v-88zM152 339v-33h174v35q0 45 -23 69t-64 24q-87 0 -87 -95zM101 725h91l45 -76l44 76h91l-96 -140
h-78z" />
    <glyph glyph-name="Gcircumflex" unicode="&#x11c;" horiz-adv-x="598" 
d="M307 735q88 0 151 -44t84 -118l-91 -33q-39 92 -133 92q-144 0 -144 -166v-222q0 -150 138 -150q81 0 122 64v125h-93v83h203v-366h-102v53h-2q-62 -62 -159 -62q-108 0 -170 64.5t-62 186.5v225q0 124 65.5 196t192.5 72zM269 757h-94l93 117h91l93 -117h-94l-44 61z
" />
    <glyph glyph-name="gcircumflex" unicode="&#x11d;" horiz-adv-x="484" 
d="M241 175q-50 0 -83 10q-30 -15 -30 -37q0 -33 55 -33h111q168 0 168 -129q0 -78 -57.5 -120.5t-162.5 -42.5q-192 0 -192 125q0 57 40 92q-52 27 -52 84t65 91q-46 42 -46 130t45 130t139 42q68 0 110 -21q43 24 61 65l52 -22q-9 -62 -54 -100q20 -40 20 -95
q0 -86 -46 -127.5t-143 -41.5zM162 344q0 -55 17 -73.5t63 -18.5q47 0 64 18.5t17 73.5q0 54 -18 73.5t-63 19.5q-46 0 -63 -19.5t-17 -73.5zM287 24h-115q-29 -19 -29 -63q0 -62 104 -62q68 0 92.5 18.5t24.5 53.5q0 29 -16 41t-61 12zM200 584h-91l97 140h78l97 -140h-92
l-44 76z" />
    <glyph glyph-name="Gbreve" unicode="&#x11e;" horiz-adv-x="598" 
d="M307 735q88 0 151 -44t84 -118l-91 -33q-39 92 -133 92q-144 0 -144 -166v-222q0 -150 138 -150q81 0 122 64v125h-93v83h203v-366h-102v53h-2q-62 -62 -159 -62q-108 0 -170 64.5t-62 186.5v225q0 124 65.5 196t192.5 72zM174 874h81q3 -37 16 -51t41 -14q26 0 39 14.5
t17 50.5h80q-11 -68 -41.5 -95t-95.5 -27t-95.5 27t-41.5 95z" />
    <glyph glyph-name="gbreve" unicode="&#x11f;" horiz-adv-x="484" 
d="M241 175q-50 0 -83 10q-30 -15 -30 -37q0 -33 55 -33h111q168 0 168 -129q0 -78 -57.5 -120.5t-162.5 -42.5q-192 0 -192 125q0 57 40 92q-52 27 -52 84t65 91q-46 42 -46 130t45 130t139 42q68 0 110 -21q43 24 61 65l52 -22q-9 -62 -54 -100q20 -40 20 -95
q0 -86 -46 -127.5t-143 -41.5zM162 344q0 -55 17 -73.5t63 -18.5q47 0 64 18.5t17 73.5q0 54 -18 73.5t-63 19.5q-46 0 -63 -19.5t-17 -73.5zM287 24h-115q-29 -19 -29 -63q0 -62 104 -62q68 0 92.5 18.5t24.5 53.5q0 29 -16 41t-61 12zM114 725h81q3 -51 15.5 -70.5
t40.5 -19.5q27 0 39.5 19.5t15.5 70.5h82q-11 -84 -41 -116t-96 -32t-96 32t-41 116z" />
    <glyph glyph-name="Gdotaccent" unicode="&#x120;" horiz-adv-x="598" 
d="M307 735q88 0 151 -44t84 -118l-91 -33q-39 92 -133 92q-144 0 -144 -166v-222q0 -150 138 -150q81 0 122 64v125h-93v83h203v-366h-102v53h-2q-62 -62 -159 -62q-108 0 -170 64.5t-62 186.5v225q0 124 65.5 196t192.5 72zM252 874h110v-109h-110v109z" />
    <glyph glyph-name="gdotaccent" unicode="&#x121;" horiz-adv-x="484" 
d="M241 175q-50 0 -83 10q-30 -15 -30 -37q0 -33 55 -33h111q168 0 168 -129q0 -78 -57.5 -120.5t-162.5 -42.5q-192 0 -192 125q0 57 40 92q-52 27 -52 84t65 91q-46 42 -46 130t45 130t139 42q68 0 110 -21q43 24 61 65l52 -22q-9 -62 -54 -100q20 -40 20 -95
q0 -86 -46 -127.5t-143 -41.5zM162 344q0 -55 17 -73.5t63 -18.5q47 0 64 18.5t17 73.5q0 54 -18 73.5t-63 19.5q-46 0 -63 -19.5t-17 -73.5zM287 24h-115q-29 -19 -29 -63q0 -62 104 -62q68 0 92.5 18.5t24.5 53.5q0 29 -16 41t-61 12zM194 724h104v-118h-104v118z" />
    <glyph glyph-name="Gcommaaccent" unicode="&#x122;" horiz-adv-x="598" 
d="M307 735q88 0 151 -44t84 -118l-91 -33q-39 92 -133 92q-144 0 -144 -166v-222q0 -150 138 -150q81 0 122 64v125h-93v83h203v-366h-102v53h-2q-62 -62 -159 -62q-108 0 -170 64.5t-62 186.5v225q0 124 65.5 196t192.5 72zM255 -100v70h113v-39q0 -60 -25 -84.5
t-89 -28.5l-4 41q29 2 39 10t10 26z" />
    <glyph glyph-name="gcommaaccent" unicode="&#x123;" horiz-adv-x="484" 
d="M241 175q-50 0 -83 10q-30 -15 -30 -37q0 -33 55 -33h111q168 0 168 -129q0 -78 -57.5 -120.5t-162.5 -42.5q-192 0 -192 125q0 57 40 92q-52 27 -52 84t65 91q-46 42 -46 130t45 130t139 42q68 0 110 -21q43 24 61 65l52 -22q-9 -62 -54 -100q20 -40 20 -95
q0 -86 -46 -127.5t-143 -41.5zM162 344q0 -55 17 -73.5t63 -18.5q47 0 64 18.5t17 73.5q0 54 -18 73.5t-63 19.5q-46 0 -63 -19.5t-17 -73.5zM287 24h-115q-29 -19 -29 -63q0 -62 104 -62q68 0 92.5 18.5t24.5 53.5q0 29 -16 41t-61 12zM300 648v-71h-113v39q0 60 25 84.5
t89 28.5l4 -41q-29 -2 -39 -10t-10 -26z" />
    <glyph glyph-name="Hcircumflex" unicode="&#x124;" horiz-adv-x="627" 
d="M72 725h125v-301h233v301h125v-725h-125v316h-233v-316h-125v725zM270 757h-94l93 117h91l93 -117h-94l-44 61z" />
    <glyph glyph-name="hcircumflex" unicode="&#x125;" horiz-adv-x="516" 
d="M174 377v-377h-112v747h112v-281h2q48 51 131 51q77 0 118.5 -51t41.5 -141v-325h-112v322q0 103 -85 103q-63 0 -96 -48zM71 770h-91l97 140h78l97 -140h-92l-44 76z" />
    <glyph glyph-name="Hbar" unicode="&#x126;" horiz-adv-x="627" 
d="M72 725h125v-94h233v94h125v-94h60v-70h-60v-561h-125v316h-233v-316h-125v561h-61v70h61v94zM197 424h233v137h-233v-137z" />
    <glyph glyph-name="hbar" unicode="&#x127;" horiz-adv-x="516" 
d="M174 377v-377h-112v584h-76v68h76v95h112v-95h102v-68h-102v-118h2q48 51 131 51q77 0 118.5 -51t41.5 -141v-325h-112v322q0 103 -85 103q-63 0 -96 -48z" />
    <glyph glyph-name="Itilde" unicode="&#x128;" horiz-adv-x="295" 
d="M85 725h125v-725h-125v725zM241 875l57 -8q-9 -58 -30.5 -88t-63.5 -30q-24 0 -46 15t-39 30t-29 15q-26 0 -36 -54l-57 8q9 59 30 88.5t63 29.5q25 0 47.5 -15t39 -30t28.5 -15q26 0 36 54z" />
    <glyph glyph-name="itilde" unicode="&#x129;" horiz-adv-x="245" 
d="M66 508h112v-508h-112v508zM218 726l58 -12q-9 -67 -30.5 -100.5t-63.5 -33.5q-26 0 -48 19t-38.5 38.5t-28.5 19.5q-14 0 -22 -15.5t-13 -53.5l-58 10q9 68 30.5 101.5t63.5 33.5q21 0 39.5 -12t29.5 -26.5t23.5 -26.5t22.5 -12q14 0 22 16t13 54z" />
    <glyph glyph-name="Imacron" unicode="&#x12a;" horiz-adv-x="295" 
d="M85 725h125v-725h-125v725zM284 854v-67h-272v67h272z" />
    <glyph glyph-name="imacron" unicode="&#x12b;" horiz-adv-x="245" 
d="M66 508h112v-508h-112v508zM251 689v-72h-258v72h258z" />
    <glyph glyph-name="Ibreve" unicode="&#x12c;" horiz-adv-x="295" 
d="M85 725h125v-725h-125v725zM9 874h81q3 -37 16 -51t41 -14q26 0 39 14.5t17 50.5h80q-11 -68 -41.5 -95t-95.5 -27t-95.5 27t-41.5 95z" />
    <glyph glyph-name="ibreve" unicode="&#x12d;" horiz-adv-x="245" 
d="M66 508h112v-508h-112v508zM-16 725h81q3 -51 15.5 -70.5t40.5 -19.5q27 0 39.5 19.5t15.5 70.5h82q-11 -84 -41 -116t-96 -32t-96 32t-41 116z" />
    <glyph glyph-name="Iogonek" unicode="&#x12e;" horiz-adv-x="295" 
d="M85 725h125v-725h-22q-27 -2 -42 -20t-15 -38q0 -17 11 -28.5t32 -11.5q31 0 61 18l21 -58q-45 -30 -105 -30q-54 0 -81.5 21t-27.5 58q0 58 65 87v2h-22v725z" />
    <glyph glyph-name="iogonek" unicode="&#x12f;" horiz-adv-x="245" 
d="M66 508h112v-508h-12q-24 0 -40.5 -19t-16.5 -39q0 -17 11 -28.5t32 -11.5q31 0 61 18l21 -58q-45 -30 -105 -30q-54 0 -81.5 21t-27.5 58q0 58 65 87v2h-19v508zM71 725h104v-118h-104v118z" />
    <glyph glyph-name="Idotaccent" unicode="&#x130;" horiz-adv-x="295" 
d="M85 725h125v-725h-125v725zM92 874h110v-109h-110v109z" />
    <glyph glyph-name="dotlessi" unicode="&#x131;" horiz-adv-x="245" 
d="M66 508h112v-508h-112v508z" />
    <glyph glyph-name="IJ" unicode="&#x132;" horiz-adv-x="588" 
d="M85 725h125v-725h-125v725zM392 725h125v-601q0 -127 -67.5 -194.5t-197.5 -69.5l-10 98q78 0 114 38t36 127v602z" />
    <glyph glyph-name="ij" unicode="&#x133;" horiz-adv-x="504" 
d="M66 508h112v-508h-112v508zM70 725h104v-118h-104v118zM327 725h104v-118h-104v118zM245 -168l-9 86q46 5 67 33t21 84v473h112v-473q0 -192 -191 -203z" />
    <glyph glyph-name="Jcircumflex" unicode="&#x134;" horiz-adv-x="293" 
d="M97 725h125v-601q0 -127 -67.5 -194.5t-197.5 -69.5l-10 98q78 0 114 38t36 127v602zM113 757h-94l93 117h91l93 -117h-94l-44 61z" />
    <glyph glyph-name="jcircumflex" unicode="&#x135;" horiz-adv-x="259" 
d="M88 585h-91l97 140h78l97 -140h-92l-44 76zM0 -168l-9 86q46 5 67 33t21 84v473h112v-473q0 -192 -191 -203z" />
    <glyph glyph-name="Kcommaaccent" unicode="&#x136;" horiz-adv-x="597" 
d="M589 0h-141l-184 318l-69 -90v-228h-123v725h123v-361h2l230 361h143l-225 -322zM260 -100v70h113v-39q0 -60 -25 -84.5t-89 -28.5l-4 41q29 2 39 10t10 26z" />
    <glyph glyph-name="kcommaaccent" unicode="&#x137;" horiz-adv-x="508" 
d="M62 747h112v-487h2l185 248h121l-169 -220l185 -288h-126l-133 217l-65 -70v-147h-112v747zM205 -100v70h113v-39q0 -60 -25 -84.5t-89 -28.5l-4 41q29 2 39 10t10 26z" />
    <glyph glyph-name="kgreenlandic" unicode="&#x138;" horiz-adv-x="508" 
d="M62 508h112v-248h2l185 248h121l-169 -220l185 -288h-126l-133 217l-65 -70v-147h-112v508z" />
    <glyph glyph-name="Lacute" unicode="&#x139;" horiz-adv-x="483" 
d="M72 725h121v-616h268v-109h-389v725zM136 874h136l-97 -117h-96z" />
    <glyph glyph-name="lacute" unicode="&#x13a;" horiz-adv-x="251" 
d="M69 747h112v-747h-112v747zM136 910h124l-96 -140h-83z" />
    <glyph glyph-name="Lcommaaccent" unicode="&#x13b;" horiz-adv-x="483" 
d="M72 725h121v-616h268v-109h-389v725zM216 -100v70h113v-39q0 -60 -25 -84.5t-89 -28.5l-4 41q29 2 39 10t10 26z" />
    <glyph glyph-name="lcommaaccent" unicode="&#x13c;" horiz-adv-x="251" 
d="M69 747h112v-747h-112v747zM72 -100v70h113v-39q0 -60 -25 -84.5t-89 -28.5l-4 41q29 2 39 10t10 26z" />
    <glyph glyph-name="Lcaron" unicode="&#x13d;" horiz-adv-x="483" 
d="M72 725h121v-616h268v-109h-389v725zM303 725h92l-57 -141h-60z" />
    <glyph glyph-name="lcaron" unicode="&#x13e;" horiz-adv-x="251" 
d="M69 747h112v-747h-112v747zM232 747h92l-57 -141h-60z" />
    <glyph glyph-name="Ldot" unicode="&#x13f;" horiz-adv-x="483" 
d="M333 461h95v-113h-95v113zM72 725h121v-616h268v-109h-389v725z" />
    <glyph glyph-name="ldot" unicode="&#x140;" horiz-adv-x="278" 
d="M232 447h63v-136h-63v136zM69 747h112v-747h-112v747z" />
    <glyph glyph-name="Lslash" unicode="&#x141;" horiz-adv-x="497" 
d="M86 725h121v-299l167 87v-100l-167 -85v-219h268v-109h-389v279l-62 -31v98l62 31v348z" />
    <glyph glyph-name="lslash" unicode="&#x142;" horiz-adv-x="320" 
d="M98 747h112v-284l85 50v-92l-85 -51v-370h-112v314l-76 -43v91l76 44v341z" />
    <glyph glyph-name="Nacute" unicode="&#x143;" horiz-adv-x="627" 
d="M72 725h95l275 -469h2v469h111v-725h-88l-283 484h-2v-484h-110v725zM306 874h136l-97 -117h-96z" />
    <glyph glyph-name="nacute" unicode="&#x144;" horiz-adv-x="512" 
d="M170 376v-376h-112v508h100l3 -49h2q51 58 138 58q78 0 120 -51t42 -141v-325h-111v322q0 103 -85 103q-64 0 -97 -49zM261 725h124l-96 -140h-83z" />
    <glyph glyph-name="Ncommaaccent" unicode="&#x145;" horiz-adv-x="627" 
d="M72 725h95l275 -469h2v469h111v-725h-88l-283 484h-2v-484h-110v725zM271 -100v70h113v-39q0 -60 -25 -84.5t-89 -28.5l-4 41q29 2 39 10t10 26z" />
    <glyph glyph-name="ncommaaccent" unicode="&#x146;" horiz-adv-x="512" 
d="M170 376v-376h-112v508h100l3 -49h2q51 58 138 58q78 0 120 -51t42 -141v-325h-111v322q0 103 -85 103q-64 0 -97 -49zM205 -100v70h113v-39q0 -60 -25 -84.5t-89 -28.5l-4 41q29 2 39 10t10 26z" />
    <glyph glyph-name="Ncaron" unicode="&#x147;" horiz-adv-x="627" 
d="M72 725h95l275 -469h2v469h111v-725h-88l-283 484h-2v-484h-110v725zM177 874h93l43 -63l44 63h92l-97 -117h-78z" />
    <glyph glyph-name="ncaron" unicode="&#x148;" horiz-adv-x="512" 
d="M170 376v-376h-112v508h100l3 -49h2q51 58 138 58q78 0 120 -51t42 -141v-325h-111v322q0 103 -85 103q-64 0 -97 -49zM121 725h91l45 -76l44 76h91l-96 -140h-78z" />
    <glyph glyph-name="napostrophe" unicode="&#x149;" horiz-adv-x="512" 
d="M170 376v-376h-112v508h100l3 -49h2q51 58 138 58q78 0 120 -51t42 -141v-325h-111v322q0 103 -85 103q-64 0 -97 -49zM21 653v70h113v-39q0 -60 -25 -84.5t-89 -28.5l-4 41q29 2 39 10t10 26z" />
    <glyph glyph-name="Eng" unicode="&#x14a;" horiz-adv-x="627" 
d="M182 0h-110v725h95l275 -470h2v470h111v-663q0 -192 -202 -195l-10 93q40 0 64.5 18t33.5 62l-257 444h-2v-484z" />
    <glyph glyph-name="eng" unicode="&#x14b;" horiz-adv-x="512" 
d="M272 -168l-7 80q46 5 66.5 34.5t20.5 89.5v286q0 103 -85 103q-64 0 -97 -49v-376h-112v508h100l3 -49h2q51 58 138 58q78 0 120 -51t42 -141v-289q0 -193 -191 -204z" />
    <glyph glyph-name="Omacron" unicode="&#x14c;" horiz-adv-x="600" 
d="M300 735q121 0 186.5 -67t65.5 -184v-243q0 -117 -65.5 -184t-186.5 -67t-186 67t-65 184v243q0 117 65 184t186 67zM427 241v243q0 148 -127 148q-64 0 -95 -36t-31 -112v-243q0 -151 126 -151q127 0 127 151zM436 854v-67h-272v67h272z" />
    <glyph glyph-name="omacron" unicode="&#x14d;" horiz-adv-x="487" 
d="M447 332v-158q0 -80 -53.5 -131.5t-150.5 -51.5t-150 51t-53 132v158q0 81 53 133t150 52q98 0 151 -51.5t53 -133.5zM152 328v-149q0 -104 91 -104q92 0 92 104v149q0 104 -92 104q-91 0 -91 -104zM372 689v-72h-258v72h258z" />
    <glyph glyph-name="Obreve" unicode="&#x14e;" horiz-adv-x="600" 
d="M300 735q121 0 186.5 -67t65.5 -184v-243q0 -117 -65.5 -184t-186.5 -67t-186 67t-65 184v243q0 117 65 184t186 67zM427 241v243q0 148 -127 148q-64 0 -95 -36t-31 -112v-243q0 -151 126 -151q127 0 127 151zM164 874h81q3 -37 16 -51t41 -14q26 0 39 14.5t17 50.5h80
q-11 -68 -41.5 -95t-95.5 -27t-95.5 27t-41.5 95z" />
    <glyph glyph-name="obreve" unicode="&#x14f;" horiz-adv-x="487" 
d="M447 332v-158q0 -80 -53.5 -131.5t-150.5 -51.5t-150 51t-53 132v158q0 81 53 133t150 52q98 0 151 -51.5t53 -133.5zM152 328v-149q0 -104 91 -104q92 0 92 104v149q0 104 -92 104q-91 0 -91 -104zM106 725h81q3 -51 15.5 -70.5t40.5 -19.5q27 0 39.5 19.5t15.5 70.5h82
q-11 -84 -41 -116t-96 -32t-96 32t-41 116z" />
    <glyph glyph-name="Ohungarumlaut" unicode="&#x150;" horiz-adv-x="600" 
d="M300 735q121 0 186.5 -67t65.5 -184v-243q0 -117 -65.5 -184t-186.5 -67t-186 67t-65 184v243q0 117 65 184t186 67zM427 241v243q0 148 -127 148q-64 0 -95 -36t-31 -112v-243q0 -151 126 -151q127 0 127 151zM234 874h110l-79 -117h-70zM387 874h109l-97 -117h-71z" />
    <glyph glyph-name="ohungarumlaut" unicode="&#x151;" horiz-adv-x="487" 
d="M447 332v-158q0 -80 -53.5 -131.5t-150.5 -51.5t-150 51t-53 132v158q0 81 53 133t150 52q98 0 151 -51.5t53 -133.5zM152 328v-149q0 -104 91 -104q92 0 92 104v149q0 104 -92 104q-91 0 -91 -104zM178 725h109l-84 -140h-68zM330 725h109l-102 -140h-69z" />
    <glyph glyph-name="OE" unicode="&#x152;" horiz-adv-x="884" 
d="M427 725h413v-107h-288v-198h223v-95h-223v-219h300v-106h-425v55h-2q-51 -65 -154 -65q-101 0 -161.5 68t-60.5 183v243q0 115 60.5 183t160.5 68q103 0 155 -66h2v56zM427 241v243q0 75 -31 111t-96 36q-64 0 -95 -35.5t-31 -111.5v-243q0 -77 31 -113.5t95 -36.5
q65 0 96 36t31 114z" />
    <glyph glyph-name="oe" unicode="&#x153;" horiz-adv-x="749" 
d="M714 235h-269v-64q0 -97 93 -97q77 0 104 79l73 -31q-51 -132 -187 -132q-96 0 -141 63q-48 -63 -152 -63q-92 0 -143.5 53t-51.5 130v162q0 77 51.5 130t142.5 53q105 0 155 -65q48 65 146 65q82 0 130.5 -54.5t48.5 -132.5v-96zM332 327q0 105 -90 105q-89 0 -89 -105
v-147q0 -108 88 -108q91 0 91 108v147zM445 339v-38h169v40q0 45 -22 69t-62 24q-85 0 -85 -95z" />
    <glyph glyph-name="Racute" unicode="&#x154;" horiz-adv-x="580" 
d="M429 0l-145 298h-87v-298h-125v725h231q112 0 166.5 -54t54.5 -153q0 -77 -32 -128t-93 -68l167 -322h-137zM197 623v-230h102q57 0 79 29t22 89t-22 86t-78 26h-103zM258 874h136l-97 -117h-96z" />
    <glyph glyph-name="racute" unicode="&#x155;" horiz-adv-x="359" 
d="M343 503l-12 -102q-20 13 -49 13q-98 0 -112 -131v-283h-112v508h97l5 -84h2q40 92 124 92q33 0 57 -13zM202 725h124l-96 -140h-83z" />
    <glyph glyph-name="Rcommaaccent" unicode="&#x156;" horiz-adv-x="580" 
d="M429 0l-145 298h-87v-298h-125v725h231q112 0 166.5 -54t54.5 -153q0 -77 -32 -128t-93 -68l167 -322h-137zM197 623v-230h102q57 0 79 29t22 89t-22 86t-78 26h-103zM246 -100v70h113v-39q0 -60 -25 -84.5t-89 -28.5l-4 41q29 2 39 10t10 26z" />
    <glyph glyph-name="rcommaaccent" unicode="&#x157;" horiz-adv-x="359" 
d="M343 503l-12 -102q-20 13 -49 13q-98 0 -112 -131v-283h-112v508h97l5 -84h2q40 92 124 92q33 0 57 -13zM60 -100v70h113v-39q0 -60 -25 -84.5t-89 -28.5l-4 41q29 2 39 10t10 26z" />
    <glyph glyph-name="Rcaron" unicode="&#x158;" horiz-adv-x="580" 
d="M429 0l-145 298h-87v-298h-125v725h231q112 0 166.5 -54t54.5 -153q0 -77 -32 -128t-93 -68l167 -322h-137zM197 623v-230h102q57 0 79 29t22 89t-22 86t-78 26h-103zM137 874h93l43 -63l44 63h92l-97 -117h-78z" />
    <glyph glyph-name="rcaron" unicode="&#x159;" horiz-adv-x="359" 
d="M343 503l-12 -102q-20 13 -49 13q-98 0 -112 -131v-283h-112v508h97l5 -84h2q40 92 124 92q33 0 57 -13zM67 725h91l45 -76l44 76h91l-96 -140h-78z" />
    <glyph glyph-name="Sacute" unicode="&#x15a;" horiz-adv-x="502" 
d="M244 735q83 0 141 -40.5t84 -110.5l-88 -40q-33 92 -127 92q-100 0 -100 -87q0 -38 33 -67.5t80.5 -52t95 -49t80.5 -73.5t33 -111q0 -98 -60.5 -152t-163.5 -54q-82 0 -146 45.5t-85 122.5l94 34q17 -50 54 -76.5t82 -26.5q107 0 107 94q0 43 -34 74.5t-82 54t-96 48
t-82 72t-34 111.5q0 83 58 137.5t156 54.5zM258 874h136l-97 -117h-96z" />
    <glyph glyph-name="sacute" unicode="&#x15b;" horiz-adv-x="416" 
d="M214 -9q-132 0 -181 115l80 38q34 -74 98 -74q71 0 71 65q0 27 -25 45.5t-60.5 31.5t-71 29.5t-60.5 49.5t-25 80q0 63 46 104.5t128 41.5q62 0 106 -30.5t64 -85.5l-77 -29q-28 65 -89 65q-72 0 -72 -57q0 -26 25 -44t60.5 -31t71 -30t60.5 -50t25 -80q0 -67 -49 -110.5
t-125 -43.5zM223 725h124l-96 -140h-83z" />
    <glyph glyph-name="Scircumflex" unicode="&#x15c;" horiz-adv-x="502" 
d="M244 735q83 0 141 -40.5t84 -110.5l-88 -40q-33 92 -127 92q-100 0 -100 -87q0 -38 33 -67.5t80.5 -52t95 -49t80.5 -73.5t33 -111q0 -98 -60.5 -152t-163.5 -54q-82 0 -146 45.5t-85 122.5l94 34q17 -50 54 -76.5t82 -26.5q107 0 107 94q0 43 -34 74.5t-82 54t-96 48
t-82 72t-34 111.5q0 83 58 137.5t156 54.5zM220 757h-94l93 117h91l93 -117h-94l-44 61z" />
    <glyph glyph-name="scircumflex" unicode="&#x15d;" horiz-adv-x="416" 
d="M214 -9q-132 0 -181 115l80 38q34 -74 98 -74q71 0 71 65q0 27 -25 45.5t-60.5 31.5t-71 29.5t-60.5 49.5t-25 80q0 63 46 104.5t128 41.5q62 0 106 -30.5t64 -85.5l-77 -29q-28 65 -89 65q-72 0 -72 -57q0 -26 25 -44t60.5 -31t71 -30t60.5 -50t25 -80q0 -67 -49 -110.5
t-125 -43.5zM173 585h-91l97 140h78l97 -140h-92l-44 76z" />
    <glyph glyph-name="Scedilla" unicode="&#x15e;" horiz-adv-x="502" 
d="M244 735q83 0 141 -40.5t84 -110.5l-88 -40q-33 92 -127 92q-100 0 -100 -87q0 -38 33 -67.5t80.5 -52t95 -49t80.5 -73.5t33 -111q0 -91 -52.5 -144.5t-143.5 -60.5l-3 -18q80 -11 80 -63q0 -33 -34 -56t-95 -27l-19 49q60 10 60 30q0 21 -64 25l13 61q-71 9 -125 53.5
t-72 112.5l94 34q17 -50 54 -76.5t82 -26.5q107 0 107 94q0 43 -34 74.5t-82 54t-96 48t-82 72t-34 111.5q0 83 58 137.5t156 54.5z" />
    <glyph glyph-name="scedilla" unicode="&#x15f;" horiz-adv-x="416" 
d="M237 -8l-3 -19q80 -11 80 -63q0 -33 -34 -56t-95 -27l-19 49q60 10 60 30q0 21 -64 25l14 63q-102 14 -143 112l80 38q34 -74 98 -74q71 0 71 65q0 27 -25 45.5t-60.5 31.5t-71 29.5t-60.5 49.5t-25 80q0 63 46 104.5t128 41.5q62 0 106 -30.5t64 -85.5l-77 -29
q-28 65 -89 65q-72 0 -72 -57q0 -26 25 -44t60.5 -31t71 -30t60.5 -50t25 -80q0 -61 -42 -103.5t-109 -49.5z" />
    <glyph glyph-name="Scaron" unicode="&#x160;" horiz-adv-x="502" 
d="M244 735q83 0 141 -40.5t84 -110.5l-88 -40q-33 92 -127 92q-100 0 -100 -87q0 -38 33 -67.5t80.5 -52t95 -49t80.5 -73.5t33 -111q0 -98 -60.5 -152t-163.5 -54q-82 0 -146 45.5t-85 122.5l94 34q17 -50 54 -76.5t82 -26.5q107 0 107 94q0 43 -34 74.5t-82 54t-96 48
t-82 72t-34 111.5q0 83 58 137.5t156 54.5zM125 874h93l43 -63l44 63h92l-97 -117h-78z" />
    <glyph glyph-name="scaron" unicode="&#x161;" horiz-adv-x="416" 
d="M214 -9q-132 0 -181 115l80 38q34 -74 98 -74q71 0 71 65q0 27 -25 45.5t-60.5 31.5t-71 29.5t-60.5 49.5t-25 80q0 63 46 104.5t128 41.5q62 0 106 -30.5t64 -85.5l-77 -29q-28 65 -89 65q-72 0 -72 -57q0 -26 25 -44t60.5 -31t71 -30t60.5 -50t25 -80q0 -67 -49 -110.5
t-125 -43.5zM81 725h91l45 -76l44 76h91l-96 -140h-78z" />
    <glyph glyph-name="Tcommaaccent" unicode="&#x162;" horiz-adv-x="495" 
d="M14 725h467v-108h-171v-617h-31l-4 -27q80 -11 80 -63q0 -33 -34 -56t-95 -27l-19 49q60 10 60 30q0 21 -64 25l15 69h-33v617h-171v108z" />
    <glyph glyph-name="tcommaaccent" unicode="&#x163;" horiz-adv-x="334" 
d="M305 508v-84h-115v-279q0 -69 62 -69q21 0 43 8l10 -69q-43 -23 -93 -23q-3 0 -7 0.5t-6 0.5l-3 -20q80 -11 80 -63q0 -33 -34 -56t-95 -27l-19 49q60 10 60 30q0 21 -64 25l16 76q-63 33 -63 143v269l-61 16v71l67 5l29 140h78v-143h115z" />
    <glyph glyph-name="Tcaron" unicode="&#x164;" horiz-adv-x="495" 
d="M14 725h467v-108h-171v-617h-125v617h-171v108zM112 874h93l43 -63l44 63h92l-97 -117h-78z" />
    <glyph glyph-name="tcaron" unicode="&#x165;" horiz-adv-x="334" 
d="M305 508v-84h-115v-279q0 -69 62 -69q21 0 43 8l10 -69q-43 -23 -93 -23q-135 0 -135 158v269l-61 16v71l67 5l29 140h78v-143h115zM271 725h92l-57 -141h-60z" />
    <glyph glyph-name="Tbar" unicode="&#x166;" horiz-adv-x="495" 
d="M14 725h467v-108h-171v-188h98v-72h-98v-357h-125v357h-98v72h98v188h-171v108z" />
    <glyph glyph-name="tbar" unicode="&#x167;" horiz-adv-x="334" 
d="M305 508v-84h-115v-53h117v-72h-117v-154q0 -69 62 -69q21 0 43 8l10 -69q-43 -23 -93 -23q-135 0 -135 158v149h-56v72h56v48l-61 16v71l67 5l29 140h78v-143h115z" />
    <glyph glyph-name="Utilde" unicode="&#x168;" horiz-adv-x="625" 
d="M439 725h125v-488q0 -116 -66 -181.5t-185 -65.5t-185.5 64t-66.5 178v493h125v-494q0 -68 34.5 -99.5t92.5 -31.5q126 0 126 131v494zM409 875l57 -8q-9 -58 -30.5 -88t-63.5 -30q-24 0 -46 15t-39 30t-29 15q-26 0 -36 -54l-57 8q9 59 30 88.5t63 29.5q25 0 47.5 -15
t39 -30t28.5 -15q26 0 36 54z" />
    <glyph glyph-name="utilde" unicode="&#x169;" horiz-adv-x="512" 
d="M342 128v380h111v-508h-99l-4 48h-2q-52 -57 -139 -57q-77 0 -119 51.5t-42 140.5v325h112v-326q0 -102 85 -102q62 0 97 48zM350 726l58 -12q-9 -67 -30.5 -100.5t-63.5 -33.5q-26 0 -48 19t-38.5 38.5t-28.5 19.5q-14 0 -22 -15.5t-13 -53.5l-58 10q9 68 30.5 101.5
t63.5 33.5q21 0 39.5 -12t29.5 -26.5t23.5 -26.5t22.5 -12q14 0 22 16t13 54z" />
    <glyph glyph-name="Umacron" unicode="&#x16a;" horiz-adv-x="625" 
d="M439 725h125v-488q0 -116 -66 -181.5t-185 -65.5t-185.5 64t-66.5 178v493h125v-494q0 -68 34.5 -99.5t92.5 -31.5q126 0 126 131v494zM449 854v-67h-272v67h272z" />
    <glyph glyph-name="umacron" unicode="&#x16b;" horiz-adv-x="512" 
d="M342 128v380h111v-508h-99l-4 48h-2q-52 -57 -139 -57q-77 0 -119 51.5t-42 140.5v325h112v-326q0 -102 85 -102q62 0 97 48zM385 689v-72h-258v72h258z" />
    <glyph glyph-name="Ubreve" unicode="&#x16c;" horiz-adv-x="625" 
d="M439 725h125v-488q0 -116 -66 -181.5t-185 -65.5t-185.5 64t-66.5 178v493h125v-494q0 -68 34.5 -99.5t92.5 -31.5q126 0 126 131v494zM176 874h81q3 -37 16 -51t41 -14q26 0 39 14.5t17 50.5h80q-11 -68 -41.5 -95t-95.5 -27t-95.5 27t-41.5 95z" />
    <glyph glyph-name="ubreve" unicode="&#x16d;" horiz-adv-x="512" 
d="M342 128v380h111v-508h-99l-4 48h-2q-52 -57 -139 -57q-77 0 -119 51.5t-42 140.5v325h112v-326q0 -102 85 -102q62 0 97 48zM118 725h81q3 -51 15.5 -70.5t40.5 -19.5q27 0 39.5 19.5t15.5 70.5h82q-11 -84 -41 -116t-96 -32t-96 32t-41 116z" />
    <glyph glyph-name="Uring" unicode="&#x16e;" horiz-adv-x="625" 
d="M439 725h125v-488q0 -116 -66 -181.5t-185 -65.5t-185.5 64t-66.5 178v493h125v-494q0 -68 34.5 -99.5t92.5 -31.5q126 0 126 131v494zM220 820q0 34 26.5 55.5t67.5 21.5t67.5 -21.5t26.5 -55.5t-26.5 -55.5t-67.5 -21.5t-67.5 21.5t-26.5 55.5zM283 820
q0 -14 8.5 -22.5t22.5 -8.5q13 0 21.5 8.5t8.5 22.5t-8.5 22.5t-21.5 8.5q-14 0 -22.5 -8.5t-8.5 -22.5z" />
    <glyph glyph-name="uring" unicode="&#x16f;" horiz-adv-x="512" 
d="M342 128v380h111v-508h-99l-4 48h-2q-52 -57 -139 -57q-77 0 -119 51.5t-42 140.5v325h112v-326q0 -102 85 -102q62 0 97 48zM158 661q0 38 26 61.5t68 23.5t68 -23.5t26 -61.5q0 -37 -26.5 -60.5t-67.5 -23.5t-67.5 23.5t-26.5 60.5zM221 661q0 -34 31 -34
q14 0 22.5 9.5t8.5 24.5t-8.5 25t-22.5 10q-15 0 -23 -10t-8 -25z" />
    <glyph glyph-name="Uhungarumlaut" unicode="&#x170;" horiz-adv-x="625" 
d="M439 725h125v-488q0 -116 -66 -181.5t-185 -65.5t-185.5 64t-66.5 178v493h125v-494q0 -68 34.5 -99.5t92.5 -31.5q126 0 126 131v494zM235 874h110l-79 -117h-70zM388 874h109l-97 -117h-71z" />
    <glyph glyph-name="uhungarumlaut" unicode="&#x171;" horiz-adv-x="512" 
d="M342 128v380h111v-508h-99l-4 48h-2q-52 -57 -139 -57q-77 0 -119 51.5t-42 140.5v325h112v-326q0 -102 85 -102q62 0 97 48zM187 725h109l-84 -140h-68zM339 725h109l-102 -140h-69z" />
    <glyph glyph-name="Uogonek" unicode="&#x172;" horiz-adv-x="625" 
d="M439 725h125v-488q0 -102 -51 -165.5t-145 -77.5q-23 -3 -38.5 -18.5t-15.5 -38.5q0 -35 41 -35q32 0 62 18l20 -58q-43 -30 -104 -30q-108 0 -108 76q0 52 59 82v2q-106 7 -164.5 70t-58.5 170v493h125v-494q0 -68 34.5 -99.5t92.5 -31.5q126 0 126 131v494z" />
    <glyph glyph-name="uogonek" unicode="&#x173;" horiz-adv-x="512" 
d="M342 128v380h111v-508h-13q-27 -2 -42 -20t-15 -38q0 -17 11 -28.5t32 -11.5q31 0 61 18l21 -58q-45 -30 -105 -30q-54 0 -81.5 21t-27.5 58q0 58 65 87v2h-5l-4 48h-2q-52 -57 -139 -57q-77 0 -119 51.5t-42 140.5v325h112v-326q0 -102 85 -102q62 0 97 48z" />
    <glyph glyph-name="Wcircumflex" unicode="&#x174;" horiz-adv-x="927" 
d="M901 725l-178 -725h-134l-124 531h-2l-125 -531h-134l-177 725h125l121 -577h2l131 577h116l131 -581h2l122 581h124zM419 757h-94l93 117h91l93 -117h-94l-44 61z" />
    <glyph glyph-name="wcircumflex" unicode="&#x175;" horiz-adv-x="725" 
d="M451 0l-87 378h-2l-88 -378h-124l-137 508h117l84 -404h2l93 404h107l92 -406h2l85 406h117l-137 -508h-124zM318 584h-91l97 140h78l97 -140h-92l-44 76z" />
    <glyph glyph-name="Ycircumflex" unicode="&#x176;" horiz-adv-x="579" 
d="M573 725l-221 -491v-234h-125v233l-222 492h140l144 -377h2l144 377h138zM245 757h-94l93 117h91l93 -117h-94l-44 61z" />
    <glyph glyph-name="ycircumflex" unicode="&#x177;" horiz-adv-x="506" 
d="M493 508l-186 -518q-29 -80 -76.5 -117t-126.5 -40l-8 79q45 5 70 24.5t39 61.5l7 21l-199 489h125l128 -372h2l109 372h116zM221 585h-91l97 140h78l97 -140h-92l-44 76z" />
    <glyph glyph-name="Ydieresis" unicode="&#x178;" horiz-adv-x="579" 
d="M573 725l-221 -491v-234h-125v233l-222 492h140l144 -377h2l144 377h138zM161 873h85v-108h-85v108zM334 873h85v-108h-85v108z" />
    <glyph glyph-name="Zacute" unicode="&#x179;" horiz-adv-x="535" 
d="M492 107v-107h-455v74l313 544h-299v107h442v-73l-311 -545h310zM271 874h136l-97 -117h-96z" />
    <glyph glyph-name="zacute" unicode="&#x17a;" horiz-adv-x="431" 
d="M393 87v-87h-358v65l227 353v2h-217v88h352v-63l-230 -356v-2h226zM225 725h124l-96 -140h-83z" />
    <glyph glyph-name="Zdotaccent" unicode="&#x17b;" horiz-adv-x="535" 
d="M492 107v-107h-455v74l313 544h-299v107h442v-73l-311 -545h310zM221 874h110v-109h-110v109z" />
    <glyph glyph-name="zdotaccent" unicode="&#x17c;" horiz-adv-x="431" 
d="M393 87v-87h-358v65l227 353v2h-217v88h352v-63l-230 -356v-2h226zM170 724h104v-118h-104v118z" />
    <glyph glyph-name="Zcaron" unicode="&#x17d;" horiz-adv-x="535" 
d="M492 107v-107h-455v74l313 544h-299v107h442v-73l-311 -545h310zM140 874h93l43 -63l44 63h92l-97 -117h-78z" />
    <glyph glyph-name="zcaron" unicode="&#x17e;" horiz-adv-x="431" 
d="M393 87v-87h-358v65l227 353v2h-217v88h352v-63l-230 -356v-2h226zM89 725h91l45 -76l44 76h91l-96 -140h-78z" />
    <glyph glyph-name="longs" unicode="&#x17f;" horiz-adv-x="299" 
d="M318 730l6 -78q-60 -3 -84.5 -31t-24.5 -80v-541h-111v426h-87v81h87v36q0 82 51 133t163 54z" />
    <glyph glyph-name="uni018F" unicode="&#x18f;" horiz-adv-x="577" 
d="M41 232v155h362v110q0 64 -33.5 101t-99.5 37q-103 0 -132 -95l-93 31q22 82 82.5 123t149.5 41q117 0 184 -67.5t67 -175.5v-251q0 -116 -62 -183.5t-188 -67.5q-116 0 -176.5 67t-60.5 175zM276 90q127 0 127 144v72h-250v-80q0 -66 31.5 -101t91.5 -35z" />
    <glyph glyph-name="florin" unicode="&#x192;" horiz-adv-x="340" 
d="M332 508l-15 -81h-114l-91 -493h-111l90 493h-58l15 81h58l7 35q15 82 76 133t174 54l-9 -78q-115 -5 -135 -111l-6 -33h119z" />
    <glyph glyph-name="uni01B5" unicode="&#x1b5;" horiz-adv-x="535" 
d="M64 330v88h171l115 200h-299v107h442v-73l-134 -234h119v-88h-169l-127 -223h310v-107h-455v74l147 256h-120z" />
    <glyph glyph-name="uni01B6" unicode="&#x1b6;" horiz-adv-x="431" 
d="M54 229v72h133l75 117v2h-217v88h352v-63l-93 -144h85v-72h-132l-90 -140v-2h226v-87h-358v65l105 164h-86z" />
    <glyph glyph-name="Aringacute" unicode="&#x1fa;" horiz-adv-x="610" 
d="M311 926h136l-80 -96q32 -21 32 -59q0 -32 -22 -52l225 -719h-128l-47 168h-246l-46 -168h-127l225 719q-22 20 -22 52q0 56 60 72zM302 612l-95 -350h194l-97 350h-2zM274 771q0 -14 8.5 -22.5t22.5 -8.5q13 0 21.5 8.5t8.5 22.5t-8.5 22.5t-21.5 8.5q-14 0 -22.5 -8.5
t-8.5 -22.5z" />
    <glyph glyph-name="aringacute" unicode="&#x1fb;" horiz-adv-x="465" 
d="M119 362l-68 38q61 118 182 118q86 0 127.5 -47.5t41.5 -126.5v-240q0 -38 36 -38h13v-64q-30 -8 -52 -8q-64 0 -91 46q-52 -49 -131 -49q-67 0 -105 38.5t-38 101.5q0 74 52 119t170 45h35v49q0 88 -74 88q-61 0 -98 -70zM205 68q52 0 86 39v114h-35q-63 0 -89 -21
t-26 -61q0 -71 64 -71zM139 632q0 38 26.5 61.5t67.5 23.5t67.5 -23.5t26.5 -61.5q0 -37 -26.5 -60.5t-67.5 -23.5t-67.5 23.5t-26.5 60.5zM202 632q0 -34 31 -34q14 0 22.5 9.5t8.5 24.5t-8.5 25t-22.5 10q-15 0 -23 -10t-8 -25zM243 890h124l-96 -140h-83z" />
    <glyph glyph-name="AEacute" unicode="&#x1fc;" horiz-adv-x="854" 
d="M212 173l-76 -173h-127l332 725h470v-107h-290l20 -198h223v-95h-213l22 -219h249v-106h-365l-17 173h-228zM399 602l-146 -336h179l-31 336h-2zM519 874h136l-97 -117h-96z" />
    <glyph glyph-name="aeacute" unicode="&#x1fd;" horiz-adv-x="720" 
d="M685 233h-264v-62q0 -97 91 -97q74 0 101 79l73 -31q-49 -131 -186 -131q-105 0 -147 75q-50 -75 -169 -75q-70 0 -110 38.5t-40 101.5q0 75 54.5 121.5t178.5 46.5h41v47q0 82 -81 82q-69 0 -97 -72l-75 38q23 57 71 90.5t106 33.5q93 0 135 -60q47 60 139 60
q82 0 130.5 -54t48.5 -133v-98zM210 71q31 0 59 13.5t39 39.5v99h-41q-124 0 -124 -85q0 -67 67 -67zM421 339v-40h164v42q0 93 -82 93t-82 -95zM384 725h124l-96 -140h-83z" />
    <glyph glyph-name="Oslashacute" unicode="&#x1fe;" horiz-adv-x="600" 
d="M300 735q117 0 185 -66l41 59l39 -32l-48 -69q35 -59 35 -143v-243q0 -117 -65.5 -184t-186.5 -67q-119 0 -184 65l-39 -55l-39 32l45 65q-34 58 -34 144v243q0 117 65 184t186 67zM427 241v257h-2l-238 -341q28 -67 113 -67q127 0 127 151zM174 484v-258h2l237 341
q-27 65 -113 65q-64 0 -95 -36t-31 -112zM301 874h136l-97 -117h-96z" />
    <glyph glyph-name="oslashacute" unicode="&#x1ff;" horiz-adv-x="487" 
d="M447 332v-158q0 -80 -53.5 -131.5t-150.5 -51.5q-88 0 -142 44l-29 -35l-38 32l33 41q-27 42 -27 101v158q0 81 53 133t150 52q91 0 146 -47l31 39l39 -32l-38 -46q26 -44 26 -99zM152 328v-151h2l169 212q-21 43 -80 43q-91 0 -91 -104zM243 75q92 0 92 104v145h-2
l-168 -209q23 -40 78 -40zM251 725h124l-96 -140h-83z" />
    <glyph glyph-name="Scommaaccent" unicode="&#x218;" horiz-adv-x="502" 
d="M244 735q83 0 141 -40.5t84 -110.5l-88 -40q-33 92 -127 92q-100 0 -100 -87q0 -38 33 -67.5t80.5 -52t95 -49t80.5 -73.5t33 -111q0 -98 -60.5 -152t-163.5 -54q-82 0 -146 45.5t-85 122.5l94 34q17 -50 54 -76.5t82 -26.5q107 0 107 94q0 43 -34 74.5t-82 54t-96 48
t-82 72t-34 111.5q0 83 58 137.5t156 54.5zM201 -100v70h113v-39q0 -60 -25 -84.5t-89 -28.5l-4 41q29 2 39 10t10 26z" />
    <glyph glyph-name="scommaaccent" unicode="&#x219;" horiz-adv-x="416" 
d="M214 -9q-132 0 -181 115l80 38q34 -74 98 -74q71 0 71 65q0 27 -25 45.5t-60.5 31.5t-71 29.5t-60.5 49.5t-25 80q0 63 46 104.5t128 41.5q62 0 106 -30.5t64 -85.5l-77 -29q-28 65 -89 65q-72 0 -72 -57q0 -26 25 -44t60.5 -31t71 -30t60.5 -50t25 -80q0 -67 -49 -110.5
t-125 -43.5zM158 -100v70h113v-39q0 -60 -25 -84.5t-89 -28.5l-4 41q29 2 39 10t10 26z" />
    <glyph glyph-name="uni021A" unicode="&#x21a;" horiz-adv-x="495" 
d="M14 725h467v-108h-171v-617h-125v617h-171v108zM191 -100v70h113v-39q0 -60 -25 -84.5t-89 -28.5l-4 41q29 2 39 10t10 26z" />
    <glyph glyph-name="uni021B" unicode="&#x21b;" horiz-adv-x="334" 
d="M305 508v-84h-115v-279q0 -69 62 -69q21 0 43 8l10 -69q-43 -23 -93 -23q-135 0 -135 158v269l-61 16v71l67 5l29 140h78v-143h115zM145 -100v70h113v-39q0 -60 -25 -84.5t-89 -28.5l-4 41q29 2 39 10t10 26z" />
    <glyph glyph-name="uni0237" unicode="&#x237;" horiz-adv-x="230" 
d="M-12 -168l-9 86q46 5 67 33t21 84v473h112v-473q0 -192 -191 -203z" />
    <glyph glyph-name="uni0259" unicode="&#x259;" horiz-adv-x="460" 
d="M33 268h274v59q0 105 -97 105q-36 0 -59 -17t-39 -57l-80 29q43 130 189 130q93 0 145 -51.5t52 -133.5v-157q0 -80 -51 -132t-144 -52q-89 0 -139.5 53.5t-50.5 135.5v88zM220 74q87 0 87 95v34h-175v-35q0 -46 23 -70t65 -24z" />
    <glyph glyph-name="uni02BB" unicode="&#x2bb;" horiz-adv-x="210" 
d="M163 692v-124h-114v91q0 93 54 170l41 -18q-24 -51 -24 -112z" />
    <glyph glyph-name="afii57929" unicode="&#x2bc;" horiz-adv-x="210" 
d="M49 630v123h114v-90q0 -93 -54 -170l-43 18q26 54 27 112z" />
    <glyph glyph-name="circumflex" unicode="&#x2c6;" 
d="M93 585h-91l97 140h78l97 -140h-92l-44 76z" />
    <glyph glyph-name="caron" unicode="&#x2c7;" 
d="M2 725h91l45 -76l44 76h91l-96 -140h-78z" />
    <glyph glyph-name="uni02C9" unicode="&#x2c9;" 
d="M267 689v-72h-258v72h258z" />
    <glyph glyph-name="breve" unicode="&#x2d8;" 
d="M1 725h81q3 -51 15.5 -70.5t40.5 -19.5q27 0 39.5 19.5t15.5 70.5h82q-11 -84 -41 -116t-96 -32t-96 32t-41 116z" />
    <glyph glyph-name="dotaccent" unicode="&#x2d9;" 
d="M52 725h104v-118h-104v118z" />
    <glyph glyph-name="ring" unicode="&#x2da;" 
d="M44 661q0 38 26 61.5t68 23.5t68 -23.5t26 -61.5q0 -37 -26.5 -60.5t-67.5 -23.5t-67.5 23.5t-26.5 60.5zM107 661q0 -34 31 -34q14 0 22.5 9.5t8.5 24.5t-8.5 25t-22.5 10q-15 0 -23 -10t-8 -25z" />
    <glyph glyph-name="ogonek" unicode="&#x2db;" 
d="M151 12l46 -6q-71 -22 -71 -72q0 -32 38 -32q35 0 65 18l20 -58q-43 -30 -104 -30q-108 0 -108 76q0 73 114 104z" />
    <glyph glyph-name="tilde" unicode="&#x2dc;" 
d="M231 726l58 -12q-9 -67 -30.5 -100.5t-63.5 -33.5q-26 0 -48 19t-38.5 38.5t-28.5 19.5q-14 0 -22 -15.5t-13 -53.5l-58 10q9 68 30.5 101.5t63.5 33.5q21 0 39.5 -12t29.5 -26.5t23.5 -26.5t22.5 -12q14 0 22 16t13 54z" />
    <glyph glyph-name="hungarumlaut" unicode="&#x2dd;" 
d="M79 725h109l-84 -140h-68zM231 725h109l-102 -140h-69z" />
    <glyph glyph-name="gravecomb" unicode="&#x300;" horiz-adv-x="0" 
d="M-275 725h124l62 -140h-84z" />
    <glyph glyph-name="acutecomb" unicode="&#x301;" horiz-adv-x="0" 
d="M-160 725h124l-96 -140h-83z" />
    <glyph glyph-name="uni0302" unicode="&#x302;" horiz-adv-x="0" 
d="M-167 585h-91l97 140h78l97 -140h-92l-44 76z" />
    <glyph glyph-name="tildecomb" unicode="&#x303;" horiz-adv-x="0" 
d="M-52 726l58 -12q-9 -67 -30.5 -100.5t-63.5 -33.5q-26 0 -48 19t-38.5 38.5t-28.5 19.5q-14 0 -22 -15.5t-13 -53.5l-58 10q9 68 30.5 101.5t63.5 33.5q21 0 39.5 -12t29.5 -26.5t23.5 -26.5t22.5 -12q14 0 22 16t13 54z" />
    <glyph glyph-name="uni0304" unicode="&#x304;" horiz-adv-x="0" 
d="M-8 689v-72h-258v72h258z" />
    <glyph glyph-name="uni0306" unicode="&#x306;" horiz-adv-x="0" 
d="M-277 725h81q3 -51 15.5 -70.5t40.5 -19.5q27 0 39.5 19.5t15.5 70.5h82q-11 -84 -41 -116t-96 -32t-96 32t-41 116z" />
    <glyph glyph-name="uni0307" unicode="&#x307;" horiz-adv-x="0" 
d="M-160 725h104v-118h-104v118z" />
    <glyph glyph-name="uni0308" unicode="&#x308;" horiz-adv-x="0" 
d="M-252 725h82v-118h-82v118zM-104 725h82v-118h-82v118z" />
    <glyph glyph-name="uni030A" unicode="&#x30a;" horiz-adv-x="0" 
d="M-236 661q0 38 26 61.5t68 23.5t68 -23.5t26 -61.5q0 -37 -26.5 -60.5t-67.5 -23.5t-67.5 23.5t-26.5 60.5zM-173 661q0 -34 31 -34q14 0 22.5 9.5t8.5 24.5t-8.5 25t-22.5 10q-15 0 -23 -10t-8 -25z" />
    <glyph glyph-name="uni030B" unicode="&#x30b;" horiz-adv-x="0" 
d="M-197 725h109l-84 -140h-68zM-45 725h109l-102 -140h-69z" />
    <glyph glyph-name="uni030C" unicode="&#x30c;" horiz-adv-x="0" 
d="M-275 725h91l45 -76l44 76h91l-96 -140h-78z" />
    <glyph glyph-name="uni0312" unicode="&#x312;" horiz-adv-x="0" 
d="M-162 574h-123l67 151h83z" />
    <glyph glyph-name="uni0315" unicode="&#x315;" horiz-adv-x="0" 
d="M103 725h123l-73 -155h-83z" />
    <glyph glyph-name="uni0326" unicode="&#x326;" horiz-adv-x="0" 
d="M-295 -101v71h113v-39q0 -60 -24.5 -84.5t-88.5 -28.5l-4 41q28 2 38 10t10 26z" />
    <glyph glyph-name="uni0327" unicode="&#x327;" horiz-adv-x="0" 
d="M-146 22l59 -5l-7 -44q80 -11 80 -63q0 -33 -34 -56t-95 -27l-19 49q60 10 60 30q0 21 -64 25z" />
    <glyph glyph-name="uni0328" unicode="&#x328;" horiz-adv-x="0" 
d="M-108 12l46 -6q-71 -22 -71 -72q0 -32 38 -32q35 0 65 18l20 -58q-43 -30 -104 -30q-108 0 -108 76q0 73 114 104z" />
    <glyph glyph-name="uni0335" unicode="&#x335;" horiz-adv-x="1" 
d="M-8 291v-72h-258v72h258z" />
    <glyph glyph-name="uni0336" unicode="&#x336;" horiz-adv-x="1" 
d="M-581 211v89h555v-89h-555z" />
    <glyph glyph-name="uni0394" unicode="&#x394;" horiz-adv-x="610" 
d="M8 0l246 725h104l244 -725h-594zM305 582l-144 -483h287l-141 483h-2z" />
    <glyph glyph-name="uni03A9" unicode="&#x3a9;" horiz-adv-x="600" 
d="M300 735q123 0 187.5 -58.5t64.5 -169.5v-123q0 -147 -135 -191v-91h130v-102h-217v258q97 17 97 122v123q0 63 -32.5 96t-94.5 33q-126 0 -126 -129v-123q0 -53 23 -82.5t73 -39.5v-258h-216v102h129v91q-134 44 -134 191v123q0 110 64.5 169t186.5 59z" />
    <glyph glyph-name="uni03BC" unicode="&#x3bc;" horiz-adv-x="522" 
d="M58 189v319h112v-318q0 -103 88 -103q60 0 94 48v373h111v-508h-99l-4 46h-2q-38 -44 -96 -44q-66 0 -97 50h-2q7 -140 18 -211l-112 -9q-11 202 -11 357z" />
    <glyph glyph-name="pi" unicode="&#x3c0;" horiz-adv-x="514" 
d="M446 0h-112v422h-154v-322q0 -49 -30 -78t-83 -29q-25 0 -52 9v64h13q41 0 41 43v309h-52v90h479v-90h-50v-418z" />
    <glyph glyph-name="uni0400" unicode="&#x400;" horiz-adv-x="529" 
d="M72 725h413v-107h-288v-198h223v-95h-223v-219h300v-106h-425v725zM143 874h137l63 -117h-96z" />
    <glyph glyph-name="afii10023" unicode="&#x401;" horiz-adv-x="529" 
d="M72 725h413v-107h-288v-198h223v-95h-223v-219h300v-106h-425v725zM154 873h85v-108h-85v108zM327 873h85v-108h-85v108z" />
    <glyph glyph-name="afii10051" unicode="&#x402;" horiz-adv-x="604" 
d="M262 354v-354h-112v625h-138v100h400v-100h-150v-169h2q49 55 130 55q78 0 119.5 -51.5t41.5 -143.5v-281q0 -192 -191 -203l-7 80q46 5 66 34.5t20 88.5v279q0 102 -85 102q-67 0 -96 -62z" />
    <glyph glyph-name="afii10052" unicode="&#x403;" horiz-adv-x="452" 
d="M72 725h366v-107h-244v-618h-122v725zM244 874h136l-97 -117h-96z" />
    <glyph glyph-name="afii10053" unicode="&#x404;" horiz-adv-x="538" 
d="M504 571l-87 -32q-15 46 -48 71.5t-78 25.5q-61 0 -88.5 -34.5t-27.5 -104.5v-76h201v-99h-201v-100q0 -65 29.5 -101t84.5 -36q46 0 79 27.5t48 77.5l90 -33q-24 -83 -84.5 -125t-145.5 -42q-102 0 -164.5 65.5t-62.5 172.5v266q0 111 62 176t167 65q82 0 141 -44
t85 -120z" />
    <glyph glyph-name="afii10054" unicode="&#x405;" horiz-adv-x="502" 
d="M244 735q83 0 141 -40.5t84 -110.5l-88 -40q-33 92 -127 92q-100 0 -100 -87q0 -38 33 -67.5t80.5 -52t95 -49t80.5 -73.5t33 -111q0 -98 -60.5 -152t-163.5 -54q-82 0 -146 45.5t-85 122.5l94 34q17 -50 54 -76.5t82 -26.5q107 0 107 94q0 43 -34 74.5t-82 54t-96 48
t-82 72t-34 111.5q0 83 58 137.5t156 54.5z" />
    <glyph glyph-name="afii10055" unicode="&#x406;" horiz-adv-x="295" 
d="M85 725h125v-725h-125v725z" />
    <glyph glyph-name="afii10056" unicode="&#x407;" horiz-adv-x="295" 
d="M85 725h125v-725h-125v725zM19 873h85v-108h-85v108zM192 873h85v-108h-85v108z" />
    <glyph glyph-name="afii10057" unicode="&#x408;" horiz-adv-x="293" 
d="M97 725h125v-601q0 -127 -67.5 -194.5t-197.5 -69.5l-10 98q78 0 114 38t36 127v602z" />
    <glyph glyph-name="afii10058" unicode="&#x409;" horiz-adv-x="915" 
d="M145 725h408v-294h114q115 0 166 -54t51 -157q0 -109 -52 -164.5t-170 -55.5h-234v621h-169l-12 -245q-8 -154 -32.5 -239.5t-60.5 -114t-94 -28.5q-31 0 -55 8v80h18q35 0 54 21.5t32 86.5t19 193zM553 101h102q58 0 82 26.5t24 92.5q0 62 -24 87t-84 25h-100v-231z" />
    <glyph glyph-name="afii10059" unicode="&#x40a;" horiz-adv-x="917" 
d="M72 725h124v-286h234v286h125v-294h113q115 0 166 -54t51 -157q0 -109 -52 -164.5t-170 -55.5h-233v327h-234v-327h-124v725zM654 332h-99v-231h101q58 0 82 26.5t24 92.5q0 62 -24 87t-84 25z" />
    <glyph glyph-name="afii10060" unicode="&#x40b;" horiz-adv-x="604" 
d="M262 354v-354h-112v625h-138v100h400v-100h-150v-169h2q49 55 130 55q78 0 119.5 -51.5t41.5 -143.5v-316h-112v314q0 102 -85 102q-67 0 -96 -62z" />
    <glyph glyph-name="afii10061" unicode="&#x40c;" horiz-adv-x="613" 
d="M574 725v-85h-23q-45 0 -72 -53l-71 -143q-22 -46 -67 -67v-2q55 -19 77 -67l84 -179q22 -48 72 -48h21v-80q-21 -6 -64 -6q-100 0 -148 101l-89 188q-12 24 -27.5 33t-44.5 9h-27v-326h-123v725h123v-305h27q47 0 69 44l83 169q48 98 143 98q27 0 57 -6zM305 874h136
l-97 -117h-96z" />
    <glyph glyph-name="uni040D" unicode="&#x40d;" horiz-adv-x="636" 
d="M446 725h118v-725h-118v519h-2l-254 -519h-118v725h118v-519h2zM181 874h137l63 -117h-96z" />
    <glyph glyph-name="afii10062" unicode="&#x40e;" horiz-adv-x="579" 
d="M5 725h144l160 -378h2l128 378h134l-222 -578q-58 -149 -229 -149l-7 97q95 7 118 75l18 52zM157 874h81q3 -37 16 -51t41 -14q26 0 39 14.5t17 50.5h80q-11 -68 -41.5 -95t-95.5 -27t-95.5 27t-41.5 95z" />
    <glyph glyph-name="afii10145" unicode="&#x40f;" horiz-adv-x="617" 
d="M546 0h-174v-161h-118v161h-182v725h124v-619h225v619h125v-725z" />
    <glyph glyph-name="afii10017" unicode="&#x410;" horiz-adv-x="610" 
d="M181 168l-46 -168h-127l227 725h140l227 -725h-128l-47 168h-246zM302 612l-95 -350h194l-97 350h-2z" />
    <glyph glyph-name="afii10018" unicode="&#x411;" horiz-adv-x="565" 
d="M72 725h422v-105h-298v-188h113q115 0 166.5 -54.5t51.5 -157.5q0 -108 -52 -164t-170 -56h-233v725zM196 101h102q56 0 81 27t25 92q0 61 -24.5 86.5t-82.5 25.5h-101v-231z" />
    <glyph glyph-name="afii10019" unicode="&#x412;" horiz-adv-x="582" 
d="M512 539q0 -123 -95 -158v-2q127 -30 127 -171q0 -102 -52.5 -155t-170.5 -53h-249v725h222q110 0 164 -50t54 -136zM194 326v-225h121q55 0 80.5 26t25.5 89q0 60 -25 85t-81 25h-121zM194 621v-202h104q53 0 76 25.5t23 79.5q0 52 -23 74.5t-76 22.5h-104z" />
    <glyph glyph-name="afii10020" unicode="&#x413;" horiz-adv-x="452" 
d="M72 725h366v-107h-244v-618h-122v725z" />
    <glyph glyph-name="afii10021" unicode="&#x414;" horiz-adv-x="638" 
d="M153 725h395v-630h83v-249h-124v154h-386v-154h-123v249h72q55 147 67 351zM424 621h-163l-10 -182q-12 -205 -63 -344h236v526z" />
    <glyph glyph-name="afii10022" unicode="&#x415;" horiz-adv-x="529" 
d="M72 725h413v-107h-288v-198h223v-95h-223v-219h300v-106h-425v725z" />
    <glyph glyph-name="afii10024" unicode="&#x416;" horiz-adv-x="876" 
d="M36 640v84q25 7 58 7q82 0 124 -95l75 -173q19 -43 60 -43h23v305h123v-305h24q41 0 60 43l75 173q42 95 124 95q34 0 57 -7v-84h-20q-23 0 -37.5 -13t-26.5 -40l-62 -145q-19 -45 -59 -66v-2q50 -18 70 -65l76 -180q21 -48 62 -48h18v-80q-18 -6 -55 -6q-102 0 -142 98
l-79 191q-17 42 -63 42h-22v-326h-123v326h-21q-25 0 -39 -9.5t-24 -32.5l-80 -191q-41 -98 -141 -98q-37 0 -56 6v80h18q42 0 63 48l76 180q20 47 69 65v2q-39 21 -58 66l-63 145q-23 53 -63 53h-21z" />
    <glyph glyph-name="afii10025" unicode="&#x417;" horiz-adv-x="529" 
d="M180 322v98h62q114 0 114 86v45q0 41 -28 64.5t-78 23.5q-48 0 -78.5 -23.5t-50.5 -76.5l-90 33q26 76 86 119.5t146 43.5q100 0 157 -50.5t57 -124.5v-45q0 -102 -94 -138v-2q108 -27 108 -142v-59q0 -82 -62 -133t-167 -51q-180 0 -234 168l91 31q36 -106 134 -106
q57 0 85.5 25.5t28.5 71.5v55q0 47 -31 67t-92 20h-64z" />
    <glyph glyph-name="afii10026" unicode="&#x418;" horiz-adv-x="636" 
d="M446 725h118v-725h-118v519h-2l-254 -519h-118v725h118v-519h2z" />
    <glyph glyph-name="afii10027" unicode="&#x419;" horiz-adv-x="636" 
d="M446 725h118v-725h-118v519h-2l-254 -519h-118v725h118v-519h2zM181 874h81q3 -37 16 -51t41 -14q26 0 39 14.5t17 50.5h80q-11 -68 -41.5 -95t-95.5 -27t-95.5 27t-41.5 95z" />
    <glyph glyph-name="afii10028" unicode="&#x41a;" horiz-adv-x="613" 
d="M574 725v-85h-23q-45 0 -72 -53l-71 -143q-22 -46 -67 -67v-2q55 -19 77 -67l84 -179q22 -48 72 -48h21v-80q-21 -6 -64 -6q-100 0 -148 101l-89 188q-12 24 -27.5 33t-44.5 9h-27v-326h-123v725h123v-305h27q47 0 69 44l83 169q48 98 143 98q27 0 57 -6z" />
    <glyph glyph-name="afii10029" unicode="&#x41b;" horiz-adv-x="625" 
d="M553 725v-725h-125v621h-169l-12 -245q-8 -154 -32.5 -239.5t-60.5 -114t-94 -28.5q-31 0 -55 8v80h18q35 0 54 21.5t32 86.5t19 193l17 342h408z" />
    <glyph glyph-name="afii10030" unicode="&#x41c;" horiz-adv-x="791" 
d="M603 725h117v-725h-114v481h-2l-181 -358h-55l-181 358h-2v-481h-113v725h116l207 -439h2z" />
    <glyph glyph-name="afii10031" unicode="&#x41d;" horiz-adv-x="627" 
d="M72 725h125v-301h233v301h125v-725h-125v316h-233v-316h-125v725z" />
    <glyph glyph-name="afii10032" unicode="&#x41e;" horiz-adv-x="600" 
d="M300 735q121 0 186.5 -67t65.5 -184v-243q0 -117 -65.5 -184t-186.5 -67t-186 67t-65 184v243q0 117 65 184t186 67zM427 241v243q0 148 -127 148q-64 0 -95 -36t-31 -112v-243q0 -151 126 -151q127 0 127 151z" />
    <glyph glyph-name="afii10033" unicode="&#x41f;" horiz-adv-x="617" 
d="M72 725h474v-725h-125v621h-224v-621h-125v725z" />
    <glyph glyph-name="afii10034" unicode="&#x420;" horiz-adv-x="567" 
d="M320 725q103 0 159.5 -60.5t56.5 -168.5q0 -107 -54.5 -167.5t-153.5 -60.5h-131v-268h-125v725h248zM197 622v-258h119q50 0 72.5 31.5t22.5 98.5q0 68 -22.5 98t-72.5 30h-119z" />
    <glyph glyph-name="afii10035" unicode="&#x421;" horiz-adv-x="529" 
d="M284 735q80 0 138.5 -45t77.5 -115l-91 -33q-27 90 -115 90q-119 0 -119 -145v-259q0 -64 30.5 -101.5t88.5 -37.5q47 0 74 22.5t41 73.5l92 -31q-38 -164 -217 -164q-107 0 -171 65t-64 173v259q0 115 63.5 181.5t171.5 66.5z" />
    <glyph glyph-name="afii10036" unicode="&#x422;" horiz-adv-x="495" 
d="M14 725h467v-108h-171v-617h-125v617h-171v108z" />
    <glyph glyph-name="afii10037" unicode="&#x423;" horiz-adv-x="579" 
d="M5 725h144l160 -378h2l128 378h134l-222 -578q-58 -149 -229 -149l-7 97q95 7 118 75l18 52z" />
    <glyph glyph-name="afii10038" unicode="&#x424;" horiz-adv-x="717" 
d="M296 725h124v-88h21q117 0 177 -61t60 -164v-95q0 -105 -60 -165.5t-177 -60.5h-21v-91h-124v91h-20q-117 0 -177.5 60.5t-60.5 165.5v95q0 103 60.5 164t177.5 61h20v88zM273 188h28v349h-28q-116 0 -116 -123v-99q0 -127 116 -127zM444 537h-28v-349h28q115 0 115 128
v98q0 123 -115 123z" />
    <glyph glyph-name="afii10039" unicode="&#x425;" horiz-adv-x="590" 
d="M19 0l196 369l-191 356h137l134 -284h2l132 284h137l-190 -361l195 -364h-137l-140 291h-2l-137 -291h-136z" />
    <glyph glyph-name="afii10040" unicode="&#x426;" horiz-adv-x="623" 
d="M533 112h84v-273h-116v161h-429v725h125v-619h211v619h125v-613z" />
    <glyph glyph-name="afii10041" unicode="&#x427;" horiz-adv-x="571" 
d="M499 0h-125v300q-61 -11 -113 -11q-119 0 -171.5 52.5t-52.5 168.5v215h125v-214q0 -67 30 -93.5t100 -26.5q41 0 82 7v327h125v-725z" />
    <glyph glyph-name="afii10042" unicode="&#x428;" horiz-adv-x="874" 
d="M803 0h-731v725h125v-619h178v619h125v-619h178v619h125v-725z" />
    <glyph glyph-name="afii10043" unicode="&#x429;" horiz-adv-x="893" 
d="M803 112h83v-273h-126v161h-688v725h125v-619h178v619h125v-619h178v619h125v-613z" />
    <glyph glyph-name="afii10044" unicode="&#x42a;" horiz-adv-x="665" 
d="M178 621h-164v104h289v-294h114q115 0 166 -54t51 -157q0 -109 -52 -164.5t-170 -55.5h-233v622h-2zM303 101h102q58 0 82 26.5t24 92.5q0 62 -24 87t-84 25h-100v-231z" />
    <glyph glyph-name="afii10045" unicode="&#x42b;" horiz-adv-x="820" 
d="M72 725h124v-294h114q115 0 166 -54t51 -157q0 -109 -52 -164.5t-170 -55.5h-233v725zM196 101h102q58 0 82 26.5t24 92.5q0 62 -24 87t-84 25h-100v-231zM624 725h125v-725h-125v725z" />
    <glyph glyph-name="afii10046" unicode="&#x42c;" horiz-adv-x="558" 
d="M72 725h124v-294h114q115 0 166 -54t51 -157q0 -109 -52 -164.5t-170 -55.5h-233v725zM196 101h102q58 0 82 26.5t24 92.5q0 62 -24 87t-84 25h-100v-231z" />
    <glyph glyph-name="afii10047" unicode="&#x42d;" horiz-adv-x="538" 
d="M162 322v99h201v76q0 70 -27.5 104.5t-88.5 34.5q-45 0 -78 -25.5t-48 -71.5l-87 32q26 76 85 120t141 44q105 0 167 -65t62 -176v-266q0 -107 -62.5 -172.5t-164.5 -65.5q-85 0 -145.5 42t-84.5 125l90 33q15 -50 48 -77.5t79 -27.5q55 0 84.5 36t29.5 101v100h-201z
" />
    <glyph glyph-name="afii10048" unicode="&#x42e;" horiz-adv-x="842" 
d="M72 725h123v-305h115v64q0 117 62.5 184t179.5 67q116 0 179 -67t63 -184v-243q0 -117 -63 -184t-179 -67q-117 0 -179.5 67t-62.5 184v84h-115v-325h-123v725zM669 241v243q0 74 -28.5 109t-88.5 35t-89 -35t-29 -109v-243q0 -75 29 -111t89 -36t88.5 36t28.5 111z" />
    <glyph glyph-name="afii10049" unicode="&#x42f;" horiz-adv-x="588" 
d="M302 725h214v-725h-125v301h-60q-43 -3 -58 -45l-63 -164q-38 -97 -145 -97q-35 0 -53 6v80h18q45 0 64 48l55 142q16 42 53 60v2q-134 29 -134 185q0 207 234 207zM392 390v233h-87q-59 0 -84.5 -26.5t-25.5 -89.5q0 -62 25.5 -89.5t87.5 -27.5h84z" />
    <glyph glyph-name="afii10065" unicode="&#x430;" horiz-adv-x="465" 
d="M119 362l-68 38q61 118 182 118q86 0 127.5 -47.5t41.5 -126.5v-240q0 -38 36 -38h13v-64q-30 -8 -52 -8q-64 0 -91 46q-52 -49 -131 -49q-67 0 -105 38.5t-38 101.5q0 74 52 119t170 45h35v49q0 88 -74 88q-61 0 -98 -70zM205 68q52 0 86 39v114h-35q-63 0 -89 -21
t-26 -61q0 -71 64 -71z" />
    <glyph glyph-name="afii10066" unicode="&#x431;" horiz-adv-x="488" 
d="M414 736l16 -89q-27 -19 -84 -28l-101 -15q-67 -10 -93.5 -45.5t-26.5 -95.5v-8h2q46 60 139 60q88 0 134.5 -50.5t46.5 -132.5v-158q0 -80 -53.5 -131.5t-150.5 -51.5t-150 51.5t-53 131.5v288q0 97 47.5 158.5t136.5 78.5zM152 325v-146q0 -104 91 -104q92 0 92 104
v146q0 107 -91 107q-92 0 -92 -107z" />
    <glyph glyph-name="afii10067" unicode="&#x432;" horiz-adv-x="472" 
d="M419 382q0 -88 -79 -112v-2q106 -22 106 -120q0 -73 -42.5 -110.5t-138.5 -37.5h-207v508h189q87 0 129.5 -34t42.5 -92zM162 226v-147h102q42 0 61 17t19 58q0 39 -19 55.5t-62 16.5h-101zM162 426v-128h83q42 0 60 17t18 52q0 32 -16.5 45.5t-54.5 13.5h-90z" />
    <glyph glyph-name="afii10068" unicode="&#x433;" horiz-adv-x="380" 
d="M362 508v-93h-192v-415h-112v508h304z" />
    <glyph glyph-name="afii10069" unicode="&#x434;" horiz-adv-x="537" 
d="M127 508h332v-420h69v-238h-106v150h-314v-150h-106v238h63q32 99 41 193zM348 420h-130l-12 -144q-9 -102 -40 -193h182v337z" />
    <glyph glyph-name="afii10070" unicode="&#x435;" horiz-adv-x="460" 
d="M425 240h-273v-59q0 -105 96 -105q36 0 59 17.5t39 57.5l80 -30q-43 -130 -189 -130q-93 0 -145 51.5t-52 134.5v156q0 80 51 132t144 52q89 0 139.5 -53.5t50.5 -135.5v-88zM152 339v-33h174v35q0 45 -23 69t-64 24q-87 0 -87 -95z" />
    <glyph glyph-name="afii10072" unicode="&#x436;" horiz-adv-x="723" 
d="M34 435v73q20 5 42 5q98 0 125 -81l23 -70q20 -63 61 -63h21v209h111v-209h21q41 0 61 63l23 70q27 81 125 81q22 0 42 -5v-73h-19q-43 0 -58 -46l-21 -65q-12 -40 -42 -57v-2q34 -13 49 -56l33 -88q19 -51 58 -51h14v-67q-25 -7 -48 -7q-50 0 -78 22t-47 69l-40 102
q-14 33 -44 33h-29v-222h-111v222h-29q-30 0 -44 -33l-40 -102q-19 -47 -47 -69t-78 -22q-24 0 -48 7v67h14q39 0 58 51l33 88q16 43 49 56v2q-30 17 -42 57l-21 65q-15 46 -58 46h-19z" />
    <glyph glyph-name="afii10073" unicode="&#x437;" horiz-adv-x="442" 
d="M145 219v79h56q48 0 70 15t22 54q0 67 -82 67q-76 0 -102 -65l-79 21q20 58 69.5 92.5t123.5 34.5q87 0 133 -41t46 -102q0 -84 -69 -109v-2q84 -21 84 -114q0 -79 -51 -119t-147 -40q-70 0 -121 29t-72 85l78 24q28 -60 107 -60q96 0 96 83q0 39 -25 53.5t-78 14.5h-59z
" />
    <glyph glyph-name="afii10074" unicode="&#x438;" horiz-adv-x="532" 
d="M368 508h105v-508h-105v367h-2l-202 -367h-106v508h106v-372h2z" />
    <glyph glyph-name="afii10075" unicode="&#x439;" horiz-adv-x="532" 
d="M368 508h105v-508h-105v367h-2l-202 -367h-106v508h106v-372h2zM134 725h81q3 -51 15.5 -70.5t40.5 -19.5q27 0 39.5 19.5t15.5 70.5h82q-11 -84 -41 -116t-96 -32t-96 32t-41 116z" />
    <glyph glyph-name="afii10076" unicode="&#x43a;" horiz-adv-x="495" 
d="M461 70h13v-67q-24 -7 -48 -7q-48 0 -75.5 22t-49.5 69l-47 102q-16 33 -45 33h-39v-222h-112v508h112v-209h32q18 0 31 14.5t29 48.5l32 70q18 39 46 60t78 21q24 0 42 -5v-73h-18q-36 0 -58 -46l-30 -65q-18 -41 -43 -57v-2q32 -12 51 -54l41 -91q12 -27 25 -38.5
t33 -11.5z" />
    <glyph glyph-name="afii10077" unicode="&#x43b;" horiz-adv-x="527" 
d="M469 0h-112v421h-125l-19 -266q-11 -159 -147 -159q-30 0 -54 7v67h21q37 0 55 24.5t22 84.5l20 329h339v-508z" />
    <glyph glyph-name="afii10078" unicode="&#x43c;" horiz-adv-x="630" 
d="M466 508h106v-508h-103v317h-2l-128 -230h-48l-128 231h-2v-318h-103v508h106l150 -281h2z" />
    <glyph glyph-name="afii10079" unicode="&#x43d;" horiz-adv-x="524" 
d="M170 0h-112v508h112v-204h184v204h112v-508h-112v217h-184v-217z" />
    <glyph glyph-name="afii10080" unicode="&#x43e;" horiz-adv-x="487" 
d="M447 332v-158q0 -80 -53.5 -131.5t-150.5 -51.5t-150 51t-53 132v158q0 81 53 133t150 52q98 0 151 -51.5t53 -133.5zM152 328v-149q0 -104 91 -104q92 0 92 104v149q0 104 -92 104q-91 0 -91 -104z" />
    <glyph glyph-name="afii10081" unicode="&#x43f;" horiz-adv-x="514" 
d="M170 0h-112v508h397v-508h-111v419h-174v-419z" />
    <glyph glyph-name="afii10082" unicode="&#x440;" horiz-adv-x="503" 
d="M295 -8q-75 0 -123 45h-2v-237h-112v708h100l3 -49h2q51 58 140 58q77 0 118.5 -51.5t41.5 -142.5v-136q0 -92 -43 -143.5t-125 -51.5zM170 375v-246q32 -47 94 -47q88 0 88 106v131q0 104 -85 104q-62 0 -97 -48z" />
    <glyph glyph-name="afii10083" unicode="&#x441;" horiz-adv-x="431" 
d="M410 395l-78 -31q-24 65 -89 65q-91 0 -91 -101v-148q0 -103 91 -103q65 0 90 69l80 -30q-46 -125 -181 -125q-91 0 -141.5 52.5t-50.5 131.5v157q0 81 50.5 133t141.5 52q63 0 109.5 -32t68.5 -90z" />
    <glyph glyph-name="afii10084" unicode="&#x442;" horiz-adv-x="436" 
d="M274 0h-111v417h-146v91h402v-91h-145v-417z" />
    <glyph glyph-name="afii10085" unicode="&#x443;" horiz-adv-x="506" 
d="M493 508l-201 -559q-29 -80 -75.5 -117t-125.5 -40l-8 85q46 5 72 24t40 61l18 56l-200 490h125l128 -373h2l109 373h116z" />
    <glyph glyph-name="afii10086" unicode="&#x444;" horiz-adv-x="722" 
d="M305 715h112v-236h2q40 37 103 37q76 0 118 -51.5t42 -141.5v-140q0 -89 -42 -139.5t-120 -50.5q-62 0 -101 38h-2v-234h-112v234h-2q-41 -38 -101 -38q-78 0 -120 50.5t-42 139.5v140q0 90 42 141.5t118 51.5q63 0 103 -37h2v236zM489 428q-43 0 -74 -36v-277
q28 -38 75 -38q80 0 80 103v144q0 104 -81 104zM232 77q47 0 75 38v277q-31 36 -74 36q-81 0 -81 -104v-144q0 -103 80 -103z" />
    <glyph glyph-name="afii10087" unicode="&#x445;" horiz-adv-x="496" 
d="M15 0l156 262l-150 246h126l104 -191h2l99 191h124l-150 -252l156 -256h-126l-111 201h-2l-104 -201h-124z" />
    <glyph glyph-name="afii10088" unicode="&#x446;" horiz-adv-x="524" 
d="M58 508h112v-420h164v420h111v-420h69v-238h-105v150h-351v508z" />
    <glyph glyph-name="afii10089" unicode="&#x447;" horiz-adv-x="496" 
d="M164 508v-149q0 -45 20 -63.5t70 -18.5q38 0 72 7v224h112v-508h-112v200q-46 -9 -101 -9q-91 0 -132 42t-41 122v153h112z" />
    <glyph glyph-name="afii10090" unicode="&#x448;" horiz-adv-x="760" 
d="M58 508h112v-420h154v420h112v-420h153v420h112v-508h-643v508z" />
    <glyph glyph-name="afii10091" unicode="&#x449;" horiz-adv-x="780" 
d="M58 508h112v-420h154v420h112v-420h153v420h112v-420h69v-238h-106v150h-606v508z" />
    <glyph glyph-name="afii10092" unicode="&#x44a;" horiz-adv-x="564" 
d="M262 508v-198h95q96 0 139 -39t43 -114q0 -77 -43 -117t-141 -40h-205v422h-133v86h245zM262 227v-148h91q43 0 62 17.5t19 58.5q0 39 -19 55.5t-62 16.5h-91z" />
    <glyph glyph-name="afii10093" unicode="&#x44b;" horiz-adv-x="673" 
d="M503 508h112v-508h-112v508zM170 508v-198h95q96 0 139 -39t43 -114q0 -77 -43 -117t-141 -40h-205v508h112zM170 227v-148h91q43 0 62 17.5t19 58.5q0 39 -19 55.5t-62 16.5h-91z" />
    <glyph glyph-name="afii10094" unicode="&#x44c;" horiz-adv-x="472" 
d="M170 508v-198h95q96 0 139 -39t43 -114q0 -77 -43 -117t-141 -40h-205v508h112zM170 227v-148h91q43 0 62 17.5t19 58.5q0 39 -19 55.5t-62 16.5h-91z" />
    <glyph glyph-name="afii10095" unicode="&#x44d;" horiz-adv-x="453" 
d="M302 165v55h-162v78h162v40q0 96 -90 96q-68 0 -95 -69l-76 30q22 58 69.5 90t110.5 32q91 0 141.5 -52t50.5 -133v-157q0 -79 -50.5 -131.5t-142.5 -52.5q-134 0 -182 126l76 27q27 -73 97 -73q91 0 91 94z" />
    <glyph glyph-name="afii10096" unicode="&#x44e;" horiz-adv-x="685" 
d="M61 508h112v-204h82v28q0 81 51 133t144 52q94 0 144.5 -51.5t50.5 -133.5v-158q0 -80 -51 -131.5t-144 -51.5t-144 51.5t-51 131.5v43h-82v-217h-112v508zM367 328v-149q0 -103 83 -103t83 103v149q0 104 -83 104t-83 -104z" />
    <glyph glyph-name="afii10097" unicode="&#x44f;" horiz-adv-x="493" 
d="M17 70h14q40 0 64 45l40 76q10 20 25 31v2q-106 22 -106 138q0 66 44 106t135 40h201v-508h-108v204h-42q-33 0 -49 -35l-41 -89q-21 -46 -50 -65t-77 -19q-25 0 -50 7v67zM326 276v147h-77q-43 0 -61 -16.5t-18 -52.5q0 -39 17.5 -58.5t62.5 -19.5h76z" />
    <glyph glyph-name="uni0450" unicode="&#x450;" horiz-adv-x="460" 
d="M110 725h124l62 -140h-84zM425 240h-273v-59q0 -105 96 -105q36 0 59 17.5t39 57.5l80 -30q-43 -130 -189 -130q-93 0 -145 51.5t-52 134.5v156q0 80 51 132t144 52q89 0 139.5 -53.5t50.5 -135.5v-88zM152 339v-33h174v35q0 45 -23 69t-64 24q-87 0 -87 -95z" />
    <glyph glyph-name="afii10071" unicode="&#x451;" horiz-adv-x="460" 
d="M425 240h-273v-59q0 -105 96 -105q36 0 59 17.5t39 57.5l80 -30q-43 -130 -189 -130q-93 0 -145 51.5t-52 134.5v156q0 80 51 132t144 52q89 0 139.5 -53.5t50.5 -135.5v-88zM152 339v-33h174v35q0 45 -23 69t-64 24q-87 0 -87 -95zM124 725h82v-118h-82v118zM272 725h82
v-118h-82v118z" />
    <glyph glyph-name="afii10099" unicode="&#x452;" horiz-adv-x="516" 
d="M276 652v-68h-102v-118h2q48 51 131 51q77 0 118.5 -51t41.5 -141v-290q0 -192 -191 -203l-7 80q46 5 66 34.5t20 88.5v287q0 103 -85 103q-63 0 -96 -48v-377h-112v584h-76v68h76v95h112v-95h102z" />
    <glyph glyph-name="afii10100" unicode="&#x453;" horiz-adv-x="380" 
d="M362 508v-93h-192v-415h-112v508h304zM176 725h124l-96 -140h-83z" />
    <glyph glyph-name="afii10101" unicode="&#x454;" horiz-adv-x="431" 
d="M150 165q0 -93 92 -93q70 0 96 72l76 -27q-46 -126 -183 -126q-91 0 -141 52.5t-50 131.5v157q0 81 50.5 133t141.5 52q63 0 110 -32t69 -90l-75 -30q-27 69 -95 69q-91 0 -91 -96v-40h163v-78h-163v-55z" />
    <glyph glyph-name="afii10102" unicode="&#x455;" horiz-adv-x="416" 
d="M214 -9q-132 0 -181 115l80 38q34 -74 98 -74q71 0 71 65q0 27 -25 45.5t-60.5 31.5t-71 29.5t-60.5 49.5t-25 80q0 63 46 104.5t128 41.5q62 0 106 -30.5t64 -85.5l-77 -29q-28 65 -89 65q-72 0 -72 -57q0 -26 25 -44t60.5 -31t71 -30t60.5 -50t25 -80q0 -67 -49 -110.5
t-125 -43.5z" />
    <glyph glyph-name="afii10103" unicode="&#x456;" horiz-adv-x="245" 
d="M66 508h112v-508h-112v508zM71 725h104v-118h-104v118z" />
    <glyph glyph-name="afii10104" unicode="&#x457;" horiz-adv-x="245" 
d="M66 508h112v-508h-112v508zM8 725h82v-118h-82v118zM156 725h82v-118h-82v118z" />
    <glyph glyph-name="afii10105" unicode="&#x458;" horiz-adv-x="253" 
d="M83 725h103v-118h-103v118zM0 -208l-8 85q45 6 66 33.5t21 84.5v513h112v-513q0 -192 -191 -203z" />
    <glyph glyph-name="afii10106" unicode="&#x459;" horiz-adv-x="771" 
d="M469 508v-198h94q96 0 139 -39t43 -114q0 -77 -43 -117t-141 -40h-205v421h-124l-19 -266q-12 -159 -147 -159q-30 0 -54 7v67h21q37 0 55 24.5t22 84.5l20 329h339zM559 227h-90v-148h90q43 0 62 17.5t19 58.5q0 39 -19 55.5t-62 16.5z" />
    <glyph glyph-name="afii10107" unicode="&#x45a;" horiz-adv-x="768" 
d="M170 0h-112v508h112v-204h183v204h113v-198h94q96 0 139 -39t43 -114q0 -77 -43 -117t-141 -40h-205v217h-183v-217zM556 227h-90v-148h90q43 0 62 17.5t19 58.5q0 39 -19 55.5t-62 16.5z" />
    <glyph glyph-name="afii10108" unicode="&#x45b;" horiz-adv-x="516" 
d="M174 377v-377h-112v584h-76v68h76v95h112v-95h102v-68h-102v-118h2q48 51 131 51q77 0 118.5 -51t41.5 -141v-325h-112v322q0 103 -85 103q-63 0 -96 -48z" />
    <glyph glyph-name="afii10109" unicode="&#x45c;" horiz-adv-x="495" 
d="M461 70h13v-67q-24 -7 -48 -7q-48 0 -75.5 22t-49.5 69l-47 102q-16 33 -45 33h-39v-222h-112v508h112v-209h32q18 0 31 14.5t29 48.5l32 70q18 39 46 60t78 21q24 0 42 -5v-73h-18q-36 0 -58 -46l-30 -65q-18 -41 -43 -57v-2q32 -12 51 -54l41 -91q12 -27 25 -38.5
t33 -11.5zM253 725h124l-96 -140h-83z" />
    <glyph glyph-name="uni045D" unicode="&#x45d;" horiz-adv-x="532" 
d="M368 508h105v-508h-105v367h-2l-202 -367h-106v508h106v-372h2zM136 725h124l62 -140h-84z" />
    <glyph glyph-name="afii10110" unicode="&#x45e;" horiz-adv-x="506" 
d="M493 508l-201 -559q-29 -80 -75.5 -117t-125.5 -40l-8 85q46 5 72 24t40 61l18 56l-200 490h125l128 -373h2l109 373h116zM120 725h81q3 -51 15.5 -70.5t40.5 -19.5q27 0 39.5 19.5t15.5 70.5h82q-11 -84 -41 -116t-96 -32t-96 32t-41 116z" />
    <glyph glyph-name="afii10193" unicode="&#x45f;" horiz-adv-x="519" 
d="M455 0h-145v-150h-97v150h-155v508h112v-419h174v419h111v-508z" />
    <glyph glyph-name="afii10146" unicode="&#x462;" horiz-adv-x="558" 
d="M72 725h124v-79h198v-85h-198v-130h114q115 0 166 -54t51 -157q0 -109 -52 -164.5t-170 -55.5h-233v561h-91v85h91v79zM196 101h102q58 0 82 26.5t24 92.5q0 62 -24 87t-84 25h-100v-231z" />
    <glyph glyph-name="afii10194" unicode="&#x463;" horiz-adv-x="472" 
d="M170 508v-62h127v-69h-127v-67h95q96 0 139 -39t43 -114q0 -77 -43 -117t-141 -40h-205v377h-51v69h51v62h112zM170 227v-148h91q43 0 62 17.5t19 58.5q0 39 -19 55.5t-62 16.5h-91z" />
    <glyph glyph-name="afii10147" unicode="&#x472;" horiz-adv-x="600" 
d="M552 484v-243q0 -117 -65.5 -184t-186.5 -67t-186 67t-65 184v243q0 117 65 184t186 67t186.5 -67t65.5 -184zM427 238v87h-253v-87q0 -75 31 -111t95 -36q65 0 96 36t31 111zM174 487v-72h253v72q0 74 -31 109t-96 35q-64 0 -95 -35t-31 -109z" />
    <glyph glyph-name="afii10195" unicode="&#x473;" horiz-adv-x="487" 
d="M447 332v-158q0 -80 -53.5 -131.5t-150.5 -51.5t-150 51t-53 132v158q0 81 53 133t150 52q98 0 151 -51.5t53 -133.5zM243 70q92 0 92 103v54h-183v-54q0 -103 91 -103zM152 332v-34h183v34q0 105 -92 105q-91 0 -91 -105z" />
    <glyph glyph-name="afii10148" unicode="&#x474;" horiz-adv-x="632" 
d="M7 725h138l159 -580h2l116 445q18 66 60 103.5t103 37.5q32 0 60 -6v-85h-21q-60 0 -79 -63l-176 -577h-129z" />
    <glyph glyph-name="afii10196" unicode="&#x475;" horiz-adv-x="520" 
d="M10 508h127l116 -409h2l84 314q27 100 133 100q31 0 51 -5v-73h-20q-43 0 -58 -47l-128 -388h-125z" />
    <glyph glyph-name="afii10050" unicode="&#x490;" horiz-adv-x="452" 
d="M320 820h118v-202h-244v-618h-122v725h248v95z" />
    <glyph glyph-name="afii10098" unicode="&#x491;" horiz-adv-x="380" 
d="M362 587v-172h-192v-415h-112v508h213v79h91z" />
    <glyph glyph-name="uni0492" unicode="&#x492;" horiz-adv-x="474" 
d="M10 314v96h84v315h367v-107h-245v-208h132v-96h-132v-314h-122v314h-84z" />
    <glyph glyph-name="uni0493" unicode="&#x493;" horiz-adv-x="391" 
d="M5 219v72h64v217h304v-93h-192v-124h123v-72h-123v-219h-112v219h-64z" />
    <glyph glyph-name="uni0496" unicode="&#x496;" horiz-adv-x="903" 
d="M36 640v84q25 7 58 7q82 0 124 -95l75 -173q19 -43 60 -43h23v305h123v-305h24q41 0 60 43l75 173q42 95 124 95q34 0 57 -7v-84h-20q-23 0 -37.5 -13t-26.5 -40l-62 -145q-19 -45 -59 -66v-2q50 -18 70 -65l76 -180q21 -48 62 -48h57v-242h-119v158q-81 9 -117 96
l-79 191q-17 42 -63 42h-22v-326h-123v326h-21q-25 0 -39 -9.5t-24 -32.5l-80 -191q-41 -98 -141 -98q-37 0 -56 6v80h18q42 0 63 48l76 180q20 47 69 65v2q-39 21 -58 66l-63 145q-23 53 -63 53h-21z" />
    <glyph glyph-name="uni0497" unicode="&#x497;" horiz-adv-x="742" 
d="M34 435v73q20 5 42 5q98 0 125 -81l23 -70q20 -63 61 -63h21v209h111v-209h21q41 0 61 63l23 70q27 81 125 81q22 0 42 -5v-73h-19q-43 0 -58 -46l-21 -65q-12 -40 -42 -57v-2q34 -13 49 -56l33 -88q19 -51 58 -51h41v-220h-98v148q-39 4 -62 25.5t-40 63.5l-40 102
q-14 33 -44 33h-29v-222h-111v222h-29q-30 0 -44 -33l-40 -102q-19 -47 -47 -69t-78 -22q-24 0 -48 7v67h14q39 0 58 51l33 88q16 43 49 56v2q-30 17 -42 57l-21 65q-15 46 -58 46h-19z" />
    <glyph glyph-name="uni049A" unicode="&#x49a;" horiz-adv-x="637" 
d="M574 725v-85h-23q-45 0 -72 -53l-71 -143q-22 -46 -67 -67v-2q55 -19 77 -67l84 -179q22 -48 72 -48h59v-242h-118v157q-88 5 -132 100l-89 188q-12 24 -27.5 33t-44.5 9h-27v-326h-123v725h123v-305h27q47 0 69 44l83 169q48 98 143 98q27 0 57 -6z" />
    <glyph glyph-name="uni049B" unicode="&#x49b;" horiz-adv-x="513" 
d="M461 70h40v-220h-98v148q-38 4 -60 25.5t-42 63.5l-47 102q-16 33 -45 33h-39v-222h-112v508h112v-209h32q18 0 31 14.5t29 48.5l32 70q18 39 46 60t78 21q24 0 42 -5v-73h-18q-36 0 -58 -46l-30 -65q-18 -41 -43 -57v-2q32 -12 51 -54l41 -91q12 -27 25 -38.5t33 -11.5z
" />
    <glyph glyph-name="uni049C" unicode="&#x49c;" horiz-adv-x="653" 
d="M614 725v-85h-27q-50 0 -68 -53l-47 -139q-17 -52 -55 -73q47 -21 66 -77l59 -169q17 -48 72 -48h21v-80q-26 -7 -59 -7q-119 0 -156 109l-62 181q-9 25 -20 33t-34 9v-139h-62v139h-47v-326h-123v725h123v-305h47v111h62v-111q19 0 31 9t21 36l53 159q36 107 151 107
q24 0 54 -6z" />
    <glyph glyph-name="uni049D" unicode="&#x49d;" horiz-adv-x="513" 
d="M58 508h112v-209h36v105h61v-105q13 0 22.5 11t21.5 44l27 72q32 87 121 87q28 0 46 -5v-73h-18q-41 0 -58 -46l-26 -65q-15 -39 -40 -58q29 -13 48 -55l37 -91q20 -50 58 -50h13v-67q-25 -7 -48 -7q-49 0 -76.5 21t-46.5 69l-40 103q-12 33 -38 33h-3v-119h-61v119h-36
v-222h-112v508z" />
    <glyph glyph-name="uni04A2" unicode="&#x4a2;" horiz-adv-x="641" 
d="M72 725h125v-301h233v301h125v-643h70v-243h-119v161h-76v316h-233v-316h-125v725z" />
    <glyph glyph-name="uni04A3" unicode="&#x4a3;" horiz-adv-x="557" 
d="M170 0h-112v508h112v-204h184v204h112v-438h62v-220h-98v150h-76v217h-184v-217z" />
    <glyph glyph-name="uni04AE" unicode="&#x4ae;" horiz-adv-x="579" 
d="M573 725l-221 -491v-234h-125v233l-222 492h140l144 -377h2l144 377h138z" />
    <glyph glyph-name="uni04AF" unicode="&#x4af;" horiz-adv-x="500" 
d="M305 -204h-111v212l-184 500h127l112 -384l114 384h127l-185 -500v-212z" />
    <glyph glyph-name="uni04B0" unicode="&#x4b0;" horiz-adv-x="579" 
d="M573 725l-221 -459v-15h144v-89h-144v-162h-125v162h-145v89h145v15l-222 459h140l145 -347l145 347h138z" />
    <glyph glyph-name="uni04B1" unicode="&#x4b1;" horiz-adv-x="500" 
d="M490 508l-162 -436h92v-72h-115v-204h-111v204h-116v72h92l-160 436h127l112 -384l114 384h127z" />
    <glyph glyph-name="uni04B2" unicode="&#x4b2;" horiz-adv-x="609" 
d="M19 0l196 369l-191 356h137l134 -284h2l132 284h137l-190 -361l151 -283h78v-242h-118v161h-53l-140 291h-2l-137 -291h-136z" />
    <glyph glyph-name="uni04B3" unicode="&#x4b3;" horiz-adv-x="523" 
d="M16 2l155 260l-150 246h126l104 -191h2l99 191h124l-150 -252l113 -186h72v-220h-98v152h-58l-110 199h-2l-103 -199h-124z" />
    <glyph glyph-name="uni04B6" unicode="&#x4b6;" horiz-adv-x="585" 
d="M499 82h70v-243h-119v161h-76v300q-61 -11 -113 -11q-119 0 -171.5 52.5t-52.5 168.5v215h125v-214q0 -67 30 -93.5t100 -26.5q41 0 82 7v327h125v-643z" />
    <glyph glyph-name="uni04B7" unicode="&#x4b7;" horiz-adv-x="529" 
d="M164 508v-149q0 -45 20 -63.5t70 -18.5q38 0 72 7v224h112v-438h62v-220h-98v150h-76v200q-46 -9 -101 -9q-91 0 -132 42t-41 122v153h112z" />
    <glyph glyph-name="uni04B8" unicode="&#x4b8;" horiz-adv-x="590" 
d="M253 520h62v-132q31 0 78 7v330h125v-725h-125v300q-33 -6 -78 -10v-115h-62v114q-114 4 -165 57t-51 164v215h125v-217q0 -57 20.5 -84t70.5 -34v130z" />
    <glyph glyph-name="uni04B9" unicode="&#x4b9;" horiz-adv-x="539" 
d="M240 384h61v-107q26 1 67 7v224h112v-508h-112v201q-35 -7 -67 -8v-110h-61v108q-188 3 -188 167v150h112v-147q0 -38 18 -58t58 -25v106z" />
    <glyph glyph-name="uni04BA" unicode="&#x4ba;" horiz-adv-x="577" 
d="M196 465l-36 7q75 20 150 20q118 0 170.5 -52.5t52.5 -167.5v-272h-125v270q0 67 -30 94t-99 27q-58 0 -111 -13l28 21v-399h-124v725h124v-260z" />
    <glyph glyph-name="uni04BB" unicode="&#x4bb;" horiz-adv-x="496" 
d="M174 0h-112v747h112v-245q49 11 101 11q91 0 132 -42t41 -123v-348h-112v344q0 44 -20.5 63t-69.5 19q-40 0 -72 -7v-419z" />
    <glyph glyph-name="uni04C0" unicode="&#x4c0;" horiz-adv-x="295" 
d="M85 725h125v-725h-125v725z" />
    <glyph glyph-name="uni04CF" unicode="&#x4cf;" horiz-adv-x="251" 
d="M69 747h112v-747h-112v747z" />
    <glyph glyph-name="uni04D8" unicode="&#x4d8;" horiz-adv-x="577" 
d="M41 232v155h362v110q0 64 -33.5 101t-99.5 37q-103 0 -132 -95l-93 31q22 82 82.5 123t149.5 41q117 0 184 -67.5t67 -175.5v-251q0 -116 -62 -183.5t-188 -67.5q-116 0 -176.5 67t-60.5 175zM276 90q127 0 127 144v72h-250v-80q0 -66 31.5 -101t91.5 -35z" />
    <glyph glyph-name="afii10846" unicode="&#x4d9;" horiz-adv-x="460" 
d="M33 268h274v59q0 105 -97 105q-36 0 -59 -17t-39 -57l-80 29q43 130 189 130q93 0 145 -51.5t52 -133.5v-157q0 -80 -51 -132t-144 -52q-89 0 -139.5 53.5t-50.5 135.5v88zM220 74q87 0 87 95v34h-175v-35q0 -46 23 -70t65 -24z" />
    <glyph glyph-name="uni04E2" unicode="&#x4e2;" horiz-adv-x="636" 
d="M446 725h118v-725h-118v519h-2l-254 -519h-118v725h118v-519h2zM454 854v-67h-272v67h272z" />
    <glyph glyph-name="uni04E3" unicode="&#x4e3;" horiz-adv-x="532" 
d="M368 508h105v-508h-105v367h-2l-202 -367h-106v508h106v-372h2zM395 689v-72h-258v72h258z" />
    <glyph glyph-name="uni04E8" unicode="&#x4e8;" horiz-adv-x="600" 
d="M552 484v-243q0 -117 -65.5 -184t-186.5 -67t-186 67t-65 184v243q0 117 65 184t186 67t186.5 -67t65.5 -184zM427 238v87h-253v-87q0 -75 31 -111t95 -36q65 0 96 36t31 111zM174 487v-72h253v72q0 74 -31 109t-96 35q-64 0 -95 -35t-31 -109z" />
    <glyph glyph-name="uni04E9" unicode="&#x4e9;" horiz-adv-x="487" 
d="M447 332v-158q0 -80 -53.5 -131.5t-150.5 -51.5t-150 51t-53 132v158q0 81 53 133t150 52q98 0 151 -51.5t53 -133.5zM243 70q92 0 92 103v54h-183v-54q0 -103 91 -103zM152 332v-34h183v34q0 105 -92 105q-91 0 -91 -105z" />
    <glyph glyph-name="uni04EE" unicode="&#x4ee;" horiz-adv-x="579" 
d="M5 725h144l160 -378h2l128 378h134l-222 -578q-58 -149 -229 -149l-7 97q95 7 118 75l18 52zM425 854v-67h-272v67h272z" />
    <glyph glyph-name="uni04EF" unicode="&#x4ef;" horiz-adv-x="506" 
d="M493 508l-201 -559q-29 -80 -75.5 -117t-125.5 -40l-8 85q46 5 72 24t40 61l18 56l-200 490h125l128 -373h2l109 373h116zM382 689v-72h-258v72h258z" />
    <glyph glyph-name="Wgrave" unicode="&#x1e80;" horiz-adv-x="927" 
d="M901 725l-178 -725h-134l-124 531h-2l-125 -531h-134l-177 725h125l121 -577h2l131 577h116l131 -581h2l122 581h124zM315 874h137l63 -117h-96z" />
    <glyph glyph-name="wgrave" unicode="&#x1e81;" horiz-adv-x="725" 
d="M451 0l-87 378h-2l-88 -378h-124l-137 508h117l84 -404h2l93 404h107l92 -406h2l85 406h117l-137 -508h-124zM214 725h124l62 -140h-84z" />
    <glyph glyph-name="Wacute" unicode="&#x1e82;" horiz-adv-x="927" 
d="M901 725l-178 -725h-134l-124 531h-2l-125 -531h-134l-177 725h125l121 -577h2l131 577h116l131 -581h2l122 581h124zM468 874h136l-97 -117h-96z" />
    <glyph glyph-name="wacute" unicode="&#x1e83;" horiz-adv-x="725" 
d="M451 0l-87 378h-2l-88 -378h-124l-137 508h117l84 -404h2l93 404h107l92 -406h2l85 406h117l-137 -508h-124zM377 725h124l-96 -140h-83z" />
    <glyph glyph-name="Wdieresis" unicode="&#x1e84;" horiz-adv-x="927" 
d="M901 725l-178 -725h-134l-124 531h-2l-125 -531h-134l-177 725h125l121 -577h2l131 577h116l131 -581h2l122 581h124zM336 873h85v-108h-85v108zM509 873h85v-108h-85v108z" />
    <glyph glyph-name="wdieresis" unicode="&#x1e85;" horiz-adv-x="725" 
d="M451 0l-87 378h-2l-88 -378h-124l-137 508h117l84 -404h2l93 404h107l92 -406h2l85 406h117l-137 -508h-124zM249 725h82v-118h-82v118zM397 725h82v-118h-82v118z" />
    <glyph glyph-name="uni1E8A" unicode="&#x1e8a;" horiz-adv-x="590" 
d="M19 0l196 369l-191 356h137l134 -284h2l132 284h137l-190 -361l195 -364h-137l-140 291h-2l-137 -291h-136zM240 874h110v-109h-110v109z" />
    <glyph glyph-name="uni1E8B" unicode="&#x1e8b;" horiz-adv-x="496" 
d="M15 0l156 262l-150 246h126l104 -191h2l99 191h124l-150 -252l156 -256h-126l-111 201h-2l-104 -201h-124zM196 725h104v-118h-104v118z" />
    <glyph glyph-name="Ygrave" unicode="&#x1ef2;" horiz-adv-x="579" 
d="M573 725l-221 -491v-234h-125v233l-222 492h140l144 -377h2l144 377h138zM158 874h137l63 -117h-96z" />
    <glyph glyph-name="ygrave" unicode="&#x1ef3;" horiz-adv-x="506" 
d="M493 508l-186 -518q-29 -80 -76.5 -117t-126.5 -40l-8 79q45 5 70 24.5t39 61.5l7 21l-199 489h125l128 -372h2l109 372h116zM132 725h124l62 -140h-84z" />
    <glyph glyph-name="uni2007" unicode="&#x2007;" horiz-adv-x="532" 
 />
    <glyph glyph-name="uni2008" unicode="&#x2008;" horiz-adv-x="214" 
 />
    <glyph glyph-name="uni200B" unicode="&#x200b;" horiz-adv-x="0" 
 />
    <glyph glyph-name="uni2010" unicode="&#x2010;" horiz-adv-x="281" 
d="M28 244v97h225v-97h-225z" />
    <glyph glyph-name="endash" unicode="&#x2013;" horiz-adv-x="430" 
d="M28 254v89h375v-89h-375z" />
    <glyph glyph-name="emdash" unicode="&#x2014;" horiz-adv-x="610" 
d="M28 254v89h555v-89h-555z" />
    <glyph glyph-name="afii00208" unicode="&#x2015;" horiz-adv-x="610" 
d="M28 254v89h555v-89h-555z" />
    <glyph glyph-name="quoteleft" unicode="&#x2018;" horiz-adv-x="210" 
d="M163 692v-124h-114v91q0 93 54 170l41 -18q-24 -51 -24 -112z" />
    <glyph glyph-name="quoteright" unicode="&#x2019;" horiz-adv-x="210" 
d="M49 630v123h114v-90q0 -93 -54 -170l-43 18q26 54 27 112z" />
    <glyph glyph-name="quotesinglbase" unicode="&#x201a;" horiz-adv-x="210" 
d="M49 7v123h114v-90q0 -94 -54 -170l-43 18q26 54 27 112z" />
    <glyph glyph-name="quotedblleft" unicode="&#x201c;" horiz-adv-x="372" 
d="M324 692v-124h-114v91q0 93 54 170l41 -18q-24 -51 -24 -112zM163 692v-124h-114v91q0 93 54 170l41 -18q-24 -51 -24 -112z" />
    <glyph glyph-name="quotedblright" unicode="&#x201d;" horiz-adv-x="372" 
d="M210 630v123h114v-90q0 -93 -54 -170l-43 18q26 54 27 112zM49 630v123h114v-90q0 -93 -54 -170l-43 18q26 54 27 112z" />
    <glyph glyph-name="quotedblbase" unicode="&#x201e;" horiz-adv-x="364" 
d="M198 7v123h114v-90q0 -94 -54 -170l-43 18q26 54 27 112zM38 7v123h114v-90q0 -94 -54 -170l-43 18q26 54 27 112z" />
    <glyph glyph-name="dagger" unicode="&#x2020;" horiz-adv-x="430" 
d="M19 554l146 -6l-7 199h111l-6 -199l147 6v-108l-147 5l6 -606h-111l7 606l-146 -5v108z" />
    <glyph glyph-name="daggerdbl" unicode="&#x2021;" horiz-adv-x="430" 
d="M165 141v310l-146 -5v108l146 -6l-7 199h111l-6 -199l147 6v-108l-147 5v-310l147 5v-108l-147 6l6 -199h-111l7 199l-146 -6v108z" />
    <glyph glyph-name="bullet" unicode="&#x2022;" horiz-adv-x="285" 
d="M18 311q0 58 36 97.5t89 39.5t89 -39.5t36 -97.5t-36 -97t-89 -39t-89 39t-36 97z" />
    <glyph glyph-name="ellipsis" unicode="&#x2026;" horiz-adv-x="643" 
d="M47 0v128h121v-128h-121zM261 0v128h121v-128h-121zM476 0v128h121v-128h-121z" />
    <glyph glyph-name="perthousand" unicode="&#x2030;" horiz-adv-x="891" 
d="M288 593v-51q0 -67 -33 -103.5t-95 -36.5t-95 36.5t-33 103.5v51q0 67 33 104.5t95 37.5t95 -37.5t33 -104.5zM111 592v-50q0 -37 11.5 -53t37.5 -16t37.5 16t11.5 53v50q0 37 -11.5 53t-37.5 16t-37.5 -16t-11.5 -53zM54 0l410 724h85l-411 -724h-84zM577 178v-51
q0 -66 -33 -102.5t-95 -36.5t-95 36.5t-33 102.5v51q0 67 33 104.5t95 37.5t95 -37.5t33 -104.5zM400 178v-51q0 -37 11.5 -53t37.5 -16t37.5 16t11.5 53v51q0 36 -11.5 52t-37.5 16t-37.5 -16t-11.5 -52zM866 178v-51q0 -66 -33 -102.5t-95 -36.5t-95 36.5t-33 102.5v51
q0 67 33 104.5t95 37.5t95 -37.5t33 -104.5zM688 178v-51q0 -37 12 -53t38 -16q49 0 49 69v51q0 68 -49 68q-26 0 -38 -16t-12 -52z" />
    <glyph glyph-name="guilsinglleft" unicode="&#x2039;" horiz-adv-x="268" 
d="M242 437l-124 -177l124 -177h-94l-122 177l122 177h94z" />
    <glyph glyph-name="guilsinglright" unicode="&#x203a;" horiz-adv-x="268" 
d="M26 83l124 177l-124 177h93l123 -177l-123 -177h-93z" />
    <glyph glyph-name="uni203D" unicode="&#x203d;" horiz-adv-x="539" 
d="M19 563q27 77 93.5 125.5t157.5 48.5q115 0 173.5 -54.5t58.5 -133.5q0 -76 -49 -136.5t-143 -98.5l-5 -95h-86l-6 195v226q-72 -22 -105 -105zM394 544q0 87 -88 102v-247h2q86 54 86 145zM201 0v128h121v-128h-121z" />
    <glyph glyph-name="fraction" unicode="&#x2044;" horiz-adv-x="283" 
d="M4 0h-73l399 725h73z" />
    <glyph glyph-name="uni2070" unicode="&#x2070;" 
d="M253 683v-93q0 -54 -30 -85.5t-85 -31.5t-84.5 31.5t-29.5 85.5v93q0 54 30 85.5t84 31.5q55 0 85 -32t30 -85zM92 682v-92q0 -61 46 -61q47 0 47 61v92q0 58 -47 58q-46 0 -46 -58z" />
    <glyph glyph-name="uni2074" unicode="&#x2074;" 
d="M231 477h-62v58h-154v45l148 216h68v-209h37l-4 -52h-33v-58zM87 587h83l4 136h-2l-85 -134v-2z" />
    <glyph glyph-name="uni2075" unicode="&#x2075;" 
d="M78 613l-45 23l14 160h192l-4 -56h-133l-6 -70q28 11 56 11q99 0 99 -100q0 -108 -117 -108q-87 0 -110 73l50 19q16 -38 55 -38q27 0 38.5 13t11.5 41q0 25 -12 36t-40 11q-27 0 -49 -15z" />
    <glyph glyph-name="uni2076" unicode="&#x2076;" 
d="M145 800q78 0 102 -69l-46 -21q-16 35 -52 35q-57 0 -57 -61v-22h2q23 18 63 18q96 0 96 -95q0 -55 -29.5 -83.5t-84.5 -28.5t-84 30.5t-29 88.5v84q0 55 32.5 89.5t86.5 34.5zM142 628q-47 0 -50 -24v-24q0 -51 49 -51q24 0 35 12.5t11 41.5q0 45 -45 45z" />
    <glyph glyph-name="uni2077" unicode="&#x2077;" horiz-adv-x="260" 
d="M126 477h-77l123 261h-156v58h228v-52z" />
    <glyph glyph-name="uni2078" unicode="&#x2078;" 
d="M138 473q-117 0 -117 99q0 55 47 73v2q-38 18 -38 67q0 39 26.5 62.5t81.5 23.5t81.5 -23.5t26.5 -62.5q0 -48 -38 -67v-2q47 -18 47 -73q0 -99 -117 -99zM187 574q0 24 -12 33.5t-37 9.5t-36.5 -9.5t-11.5 -33.5q0 -27 11.5 -37.5t36.5 -10.5q26 0 37.5 10t11.5 38z
M138 747q-25 0 -34.5 -9t-9.5 -32q0 -22 10.5 -32t33.5 -10q24 0 34 9.5t10 32.5t-9.5 32t-34.5 9z" />
    <glyph glyph-name="uni2079" unicode="&#x2079;" 
d="M27 539l43 25q18 -37 59 -37q55 0 55 54v36h-2q-22 -18 -63 -18q-42 0 -69 24t-27 72q0 50 30 78t85 28q53 0 82.5 -30.5t29.5 -80.5v-106q0 -51 -31.5 -81t-85.5 -30q-80 0 -106 66zM134 651q18 0 34 8t16 21v20q0 47 -46 47q-49 0 -49 -48q0 -27 11 -37.5t34 -10.5z
" />
    <glyph glyph-name="uni207A" unicode="&#x207a;" horiz-adv-x="235" 
d="M94 530v78h-69v46h69v78h46v-78h70v-46h-70v-78h-46z" />
    <glyph glyph-name="uni207B" unicode="&#x207b;" horiz-adv-x="235" 
d="M210 608h-185v46h185v-46z" />
    <glyph glyph-name="uni207C" unicode="&#x207c;" horiz-adv-x="235" 
d="M197 643h-164v45h164v-45zM197 566h-164v45h164v-45z" />
    <glyph glyph-name="uni207D" unicode="&#x207d;" horiz-adv-x="147" 
d="M30 564v134q0 76 25.5 111.5t81.5 35.5h14v-43h-14q-52 0 -52 -104v-134q0 -103 52 -103h14v-44h-14q-56 0 -81.5 36t-25.5 111z" />
    <glyph glyph-name="uni207E" unicode="&#x207e;" horiz-adv-x="147" 
d="M118 698v-134q0 -75 -25.5 -111t-82.5 -36h-14v44h14q52 0 52 103v134q0 103 -52 103h-14v44h14q57 0 82.5 -35.5t25.5 -111.5z" />
    <glyph glyph-name="uni207F" unicode="&#x207f;" horiz-adv-x="279" 
d="M36 477v249h60l3 -25h2q29 29 67 29q39 0 59 -24.5t20 -63.5v-165h-66v161q0 39 -35 39q-26 0 -43 -25v-175h-67z" />
    <glyph glyph-name="uni2080" unicode="&#x2080;" 
d="M253 88v-93q0 -54 -30 -85.5t-85 -31.5t-84.5 31.5t-29.5 85.5v93q0 54 30 85.5t84 31.5q55 0 85 -32t30 -85zM92 87v-92q0 -61 46 -61q47 0 47 61v92q0 58 -47 58q-46 0 -46 -58z" />
    <glyph glyph-name="uni2081" unicode="&#x2081;" horiz-adv-x="219" 
d="M111 203h58v-321h-72v215h-69v47h28q30 0 40.5 11t14.5 48z" />
    <glyph glyph-name="uni2082" unicode="&#x2082;" 
d="M141 205q53 0 79.5 -25.5t26.5 -63.5q0 -36 -20.5 -64t-46 -43t-49.5 -34.5t-29 -38.5h146v-54h-220l-1 29q1 28 17 53.5t38 43.5t43.5 34.5t36.5 34.5t15 36q0 36 -42 36t-57 -49l-54 18q13 39 42.5 63t74.5 24z" />
    <glyph glyph-name="uni2083" unicode="&#x2083;" 
d="M99 20v49h27q46 0 46 41q0 40 -41 40t-56 -40l-51 18q12 35 41.5 56t72.5 21q52 0 78.5 -24.5t26.5 -61.5q0 -54 -44 -70v-2q51 -13 51 -72q0 -47 -30 -72t-84 -25q-90 0 -115 72l51 20q16 -39 59 -39q46 0 46 48q0 23 -12 32t-38 9h-28z" />
    <glyph glyph-name="uni2084" unicode="&#x2084;" 
d="M231 -118h-62v58h-154v45l148 216h68v-209h37l-4 -52h-33v-58zM87 -8h83l4 136h-2l-85 -134v-2z" />
    <glyph glyph-name="uni2085" unicode="&#x2085;" 
d="M78 18l-45 23l14 160h192l-4 -56h-133l-6 -70q28 11 56 11q99 0 99 -100q0 -108 -117 -108q-87 0 -110 73l50 19q16 -38 55 -38q27 0 38.5 13t11.5 41q0 25 -12 36t-40 11q-27 0 -49 -15z" />
    <glyph glyph-name="uni2086" unicode="&#x2086;" 
d="M145 205q78 0 102 -69l-46 -21q-16 35 -52 35q-57 0 -57 -61v-22h2q22 18 63 18q96 0 96 -95q0 -55 -29.5 -83.5t-84.5 -28.5t-84 30.5t-29 88.5v84q0 55 32.5 89.5t86.5 34.5zM142 33q-47 0 -50 -24v-24q0 -51 49 -51q24 0 35 12.5t11 41.5q0 45 -45 45z" />
    <glyph glyph-name="uni2087" unicode="&#x2087;" horiz-adv-x="260" 
d="M126 -118h-77l123 261h-156v58h228v-52z" />
    <glyph glyph-name="uni2088" unicode="&#x2088;" 
d="M138 -122q-117 0 -117 99q0 55 47 73v2q-38 18 -38 67q0 39 26.5 62.5t81.5 23.5t81.5 -23.5t26.5 -62.5q0 -48 -38 -67v-2q47 -18 47 -73q0 -99 -117 -99zM187 -21q0 24 -12 33.5t-37 9.5t-36.5 -9t-11.5 -34q0 -27 11.5 -37.5t36.5 -10.5q26 0 37.5 10t11.5 38z
M138 152q-25 0 -34.5 -9t-9.5 -32q0 -22 10.5 -32t33.5 -10q24 0 34 9.5t10 32.5t-9.5 32t-34.5 9z" />
    <glyph glyph-name="uni2089" unicode="&#x2089;" 
d="M27 -56l43 25q18 -37 59 -37q55 0 55 54v36h-2q-23 -18 -63 -18q-42 0 -69 24t-27 72q0 50 30 78t85 28q53 0 82.5 -30.5t29.5 -80.5v-106q0 -51 -31.5 -81t-85.5 -30q-80 0 -106 66zM134 56q18 0 34 8t16 21v20q0 47 -46 47q-49 0 -49 -48q0 -27 11 -37.5t34 -10.5z" />
    <glyph glyph-name="uni208A" unicode="&#x208a;" horiz-adv-x="235" 
d="M94 -65v78h-69v46h69v78h46v-78h70v-46h-70v-78h-46z" />
    <glyph glyph-name="uni208B" unicode="&#x208b;" horiz-adv-x="235" 
d="M210 13h-185v46h185v-46z" />
    <glyph glyph-name="uni208C" unicode="&#x208c;" horiz-adv-x="235" 
d="M197 48h-164v45h164v-45zM197 -29h-164v45h164v-45z" />
    <glyph glyph-name="uni208D" unicode="&#x208d;" horiz-adv-x="147" 
d="M30 -31v134q0 76 25.5 111.5t81.5 35.5h14v-43h-14q-52 0 -52 -104v-134q0 -103 52 -103h14v-44h-14q-56 0 -81.5 36t-25.5 111z" />
    <glyph glyph-name="uni208E" unicode="&#x208e;" horiz-adv-x="147" 
d="M118 103v-134q0 -75 -25.5 -111t-82.5 -36h-14v44h14q52 0 52 103v134q0 103 -52 103h-14v44h14q57 0 82.5 -35.5t25.5 -111.5z" />
    <glyph glyph-name="franc" unicode="&#x20a3;" horiz-adv-x="522" 
d="M4 100v79h68v546h415v-107h-290v-203h248v-100h-248v-136h98v-79h-98v-100h-125v100h-68z" />
    <glyph glyph-name="lira" unicode="&#x20a4;" horiz-adv-x="570" 
d="M51 367l-10 64h61q-7 49 -7 77q0 106 55 167.5t156 61.5q80 0 135 -43.5t72 -114.5l-86 -33q-28 89 -114 89q-105 0 -105 -140q0 -14 4 -64h229l-10 -64h-211l4 -32h199l-8 -61h-182q6 -61 7 -73q32 -13 82.5 -59t83.5 -46q30 0 46 24t25 83l84 -24q-26 -189 -148 -189
q-32 0 -61.5 15t-44.5 29.5t-40.5 44t-32.5 37.5h-2q-22 -126 -125 -126q-44 0 -70 25.5t-26 68.5q0 55 35.5 88.5t99.5 37.5l-14 64h-64l-9 61h60l-6 32h-62zM115 64q35 0 36 87q-57 -6 -57 -59q0 -28 21 -28z" />
    <glyph glyph-name="peseta" unicode="&#x20a7;" horiz-adv-x="947" 
d="M210 725q79 0 121.5 -57t42.5 -167q0 -108 -42 -165t-118 -57h-64v-279h-102v725h162zM921 398l-64 -24q-15 63 -60 63q-43 0 -43 -56q0 -24 18 -44t43 -36.5t50.5 -36.5t43.5 -53t18 -77q0 -67 -34 -105.5t-94 -38.5q-111 0 -137 131l67 22q16 -78 65 -78q46 0 46 63
q0 29 -18 51t-44 39t-51.5 35.5t-43.5 50t-18 73.5q0 63 33.5 102t91.5 39q50 0 84 -31.5t47 -88.5zM629 509v-82h-83v-308q0 -49 44 -49q12 0 32 8l12 -64q-34 -22 -76 -22q-54 0 -79 31.5t-25 97.5v304l-46 13v69l50 4l24 135h64v-137h83zM150 635v-273h58q33 0 49 31.5
t16 106.5t-16 105t-49 30h-58z" />
    <glyph glyph-name="Euro" unicode="&#x20ac;" horiz-adv-x="564" 
d="M303 735q80 0 138.5 -45t77.5 -115l-91 -33q-26 86 -115 86q-59 0 -89 -36.5t-30 -104.5v-32h239l-14 -62h-225v-40h215l-13 -62h-202v-63q0 -63 30.5 -100t89.5 -37q46 0 73.5 22t40.5 72l93 -31q-40 -164 -218 -164q-107 0 -171 65t-64 173v63h-53v62h53v40h-53v62h53
v32q0 115 63.5 181.5t171.5 66.5z" />
    <glyph glyph-name="uni20B4" unicode="&#x20b4;" horiz-adv-x="534" 
d="M33 396v67h310q36 38 36 85q0 98 -103 98q-97 0 -140 -87l-84 35q67 141 232 141q95 0 145 -49.5t50 -126.5q0 -54 -31 -96h51v-67h-125q-17 -11 -49 -30.5t-43 -26.5h216v-67h-300q-36 -43 -36 -93q0 -47 31 -73t86 -26q100 0 144 96l78 -33q-61 -153 -229 -153
q-106 0 -158.5 49.5t-52.5 128.5q0 58 32 104h-60v67h130q29 20 90 57h-220z" />
    <glyph glyph-name="afii61248" unicode="&#x2105;" horiz-adv-x="863" 
d="M198 736q53 0 92 -28t52 -70l-68 -27q-18 48 -68 48q-34 0 -52 -21t-18 -58v-143q0 -35 18 -55.5t52 -20.5q53 0 67 52l70 -25q-27 -99 -146 -99q-71 0 -114 40.5t-43 107.5v143q0 72 43 114t115 42zM823 282v-128q0 -73 -44.5 -116.5t-124.5 -43.5t-124.5 43.5
t-44.5 116.5v127q0 73 44.5 116.5t124.5 43.5t124.5 -43t44.5 -116zM728 154v127q0 83 -74 83q-73 0 -73 -82v-128q0 -44 17.5 -64.5t55.5 -20.5t56 20.5t18 64.5zM259 0h-69l399 725h69z" />
    <glyph glyph-name="afii61289" unicode="&#x2113;" horiz-adv-x="721" 
d="M178 241l-14 73q30 8 59 21q16 181 76.5 291t147.5 110q100 0 100 -123q0 -83 -66 -168t-169 -145q-1 -23 -1 -71q0 -84 10 -115.5t35 -31.5q24 0 47 32.5t38 74.5l74 -22q-21 -77 -71.5 -128t-108.5 -51q-61 0 -89 52.5t-28 173.5v41q-22 -8 -40 -14zM436 649
q-35 0 -68 -68.5t-49 -189.5h2q63 47 102.5 103.5t39.5 107.5q0 47 -27 47z" />
    <glyph glyph-name="afii61352" unicode="&#x2116;" horiz-adv-x="919" 
d="M72 725h95l275 -469h2v469h111v-725h-88l-283 484h-2v-484h-110v725zM872 619v-98q0 -52 -34.5 -84t-96.5 -32t-96 32t-34 84v98q0 51 34 84t96 33q64 0 97.5 -32t33.5 -85zM687 615v-92q0 -54 53 -54q55 0 55 55v92q0 56 -54 56t-54 -57zM615 312v62h260v-62h-260z" />
    <glyph glyph-name="uni2117" unicode="&#x2117;" horiz-adv-x="731" 
d="M682 425v-130q0 -133 -84.5 -221.5t-231.5 -88.5t-232 88.5t-85 221.5v130q0 135 84.5 223.5t232.5 88.5q147 0 231.5 -88.5t84.5 -223.5zM611 296v129q0 108 -65 176.5t-180 68.5q-116 0 -181 -68.5t-65 -176.5v-129q0 -108 65 -176.5t181 -68.5q115 0 180 68.5
t65 176.5zM387 604q76 0 117 -40t41 -112t-40 -112t-113 -40h-79v-179h-89v483h163zM313 535v-170h72q37 0 54 20.5t17 65.5q0 44 -17 64t-54 20h-72z" />
    <glyph glyph-name="uni2120" unicode="&#x2120;" horiz-adv-x="593" 
d="M499 725h65v-317h-62v187h-2l-65 -142h-29l-64 142h-2v-187h-63v317h65l78 -182h2zM240 658l-49 -17q-17 39 -54 39q-41 0 -41 -31q0 -19 22.5 -33t49.5 -23.5t49.5 -33.5t22.5 -60q0 -42 -30 -69t-77 -27q-83 0 -112 75l48 21q20 -45 62 -45q40 0 40 38q0 20 -22.5 34
t-49.5 23t-49.5 32.5t-22.5 59.5q0 40 28.5 66t79.5 26q39 0 66.5 -20t38.5 -55z" />
    <glyph glyph-name="trademark" unicode="&#x2122;" horiz-adv-x="565" 
d="M471 725h65v-317h-62v187h-2l-65 -142h-29l-64 142h-2v-187h-63v317h65l77 -181h2zM12 725h204v-59h-67v-258h-69v258h-68v59z" />
    <glyph glyph-name="Omega" unicode="&#x2126;" horiz-adv-x="600" 
d="M300 735q123 0 187.5 -58.5t64.5 -169.5v-123q0 -147 -135 -191v-91h130v-102h-217v258q97 17 97 122v123q0 63 -32.5 96t-94.5 33q-126 0 -126 -129v-123q0 -53 23 -82.5t73 -39.5v-258h-216v102h129v91q-134 44 -134 191v123q0 110 64.5 169t186.5 59z" />
    <glyph glyph-name="estimated" unicode="&#x212e;" horiz-adv-x="769" 
d="M729 348h-567v-98q0 -83 66.5 -145.5t176.5 -62.5q151 0 242 122l50 -35q-104 -142 -297 -142q-159 0 -259.5 100.5t-100.5 247.5q0 149 97 249.5t248 100.5q152 0 241.5 -93.5t102.5 -243.5zM162 440v-35h446v35q0 83 -60 136.5t-162 53.5q-100 0 -162 -56t-62 -134z
" />
    <glyph glyph-name="uni2150" unicode="&#x2150;" horiz-adv-x="534" 
d="M111 727h58v-321h-72v215h-69v47h28q30 0 40.5 11t14.5 48zM76 0h-73l399 725h73zM400 0h-77l123 261h-156v58h228v-52z" />
    <glyph glyph-name="uni2151" unicode="&#x2151;" horiz-adv-x="550" 
d="M111 727h58v-321h-72v215h-69v47h28q30 0 40.5 11t14.5 48zM76 0h-73l399 725h73zM301 62l43 25q18 -37 59 -37q55 0 55 54v36h-2q-22 -18 -63 -18q-42 0 -69 24t-27 72q0 50 30 78t85 28q53 0 82.5 -30.5t29.5 -80.5v-106q0 -51 -31.5 -81t-85.5 -30q-80 0 -106 66z
M408 174q18 0 34 8t16 21v20q0 47 -46 47q-49 0 -49 -48q0 -27 11 -37.5t34 -10.5z" />
    <glyph glyph-name="uni2152" unicode="&#x2152;" horiz-adv-x="769" 
d="M111 727h58v-321h-72v215h-69v47h28q30 0 40.5 11t14.5 48zM76 0h-73l399 725h73zM385 321h58v-321h-72v215h-69v47h28q30 0 40.5 11t14.5 48zM746 206v-93q0 -54 -30 -85.5t-85 -31.5t-84.5 31.5t-29.5 85.5v93q0 54 30 85.5t84 31.5q55 0 85 -32t30 -85zM585 205v-92
q0 -61 46 -61q47 0 47 61v92q0 58 -47 58q-46 0 -46 -58z" />
    <glyph glyph-name="onethird" unicode="&#x2153;" horiz-adv-x="595" 
d="M152 727h58v-321h-72v215h-69v47h28q30 0 40.5 11t14.5 48zM133 0h-73l399 725h73zM417 138v49h27q46 0 46 41q0 40 -41 40t-56 -40l-51 18q12 35 41.5 56t72.5 21q52 0 78.5 -24.5t26.5 -61.5q0 -54 -44 -70v-2q51 -13 51 -72q0 -47 -30 -72t-84 -25q-90 0 -115 72
l51 20q16 -39 59 -39q46 0 46 48q0 23 -12 32t-38 9h-28z" />
    <glyph glyph-name="twothirds" unicode="&#x2154;" horiz-adv-x="595" 
d="M141 729q53 0 79.5 -25.5t26.5 -63.5q0 -36 -20.5 -64t-46 -43t-49.5 -34.5t-29 -38.5h146v-54h-220l-1 29q1 28 17 53.5t38 43.5t43.5 34.5t36.5 34.5t15 36q0 36 -42 36t-57 -49l-54 18q13 39 42.5 63t74.5 24zM133 0h-73l399 725h73zM417 138v49h27q46 0 46 41
q0 40 -41 40t-56 -40l-51 18q12 35 41.5 56t72.5 21q52 0 78.5 -24.5t26.5 -61.5q0 -54 -44 -70v-2q51 -13 51 -72q0 -47 -30 -72t-84 -25q-90 0 -115 72l51 20q16 -39 59 -39q46 0 46 48q0 23 -12 32t-38 9h-28z" />
    <glyph glyph-name="uni2155" unicode="&#x2155;" horiz-adv-x="595" 
d="M152 727h58v-321h-72v215h-69v47h28q30 0 40.5 11t14.5 48zM133 0h-73l399 725h73zM396 136l-45 23l14 160h192l-4 -56h-133l-6 -70q28 11 56 11q99 0 99 -100q0 -108 -117 -108q-87 0 -110 73l50 19q16 -38 55 -38q27 0 38.5 13t11.5 41q0 25 -12 36t-40 11
q-27 0 -49 -15z" />
    <glyph glyph-name="uni2156" unicode="&#x2156;" horiz-adv-x="595" 
d="M141 729q53 0 79.5 -25.5t26.5 -63.5q0 -36 -20.5 -64t-46 -43t-49.5 -34.5t-29 -38.5h146v-54h-220l-1 29q1 28 17 53.5t38 43.5t43.5 34.5t36.5 34.5t15 36q0 36 -42 36t-57 -49l-54 18q13 39 42.5 63t74.5 24zM133 0h-73l399 725h73zM396 136l-45 23l14 160h192
l-4 -56h-133l-6 -70q28 11 56 11q99 0 99 -100q0 -108 -117 -108q-87 0 -110 73l50 19q16 -38 55 -38q27 0 38.5 13t11.5 41q0 25 -12 36t-40 11q-27 0 -49 -15z" />
    <glyph glyph-name="uni2157" unicode="&#x2157;" horiz-adv-x="595" 
d="M99 544v49h27q46 0 46 41q0 40 -41 40t-56 -40l-51 18q12 35 41.5 56t72.5 21q52 0 78.5 -24.5t26.5 -61.5q0 -54 -44 -70v-2q51 -13 51 -72q0 -47 -30 -72t-84 -25q-90 0 -115 72l51 20q17 -39 59 -39q46 0 46 48q0 23 -12 32t-38 9h-28zM133 0h-73l399 725h73zM396 136
l-45 23l14 160h192l-4 -56h-133l-6 -70q28 11 56 11q99 0 99 -100q0 -108 -117 -108q-87 0 -110 73l50 19q16 -38 55 -38q27 0 38.5 13t11.5 41q0 25 -12 36t-40 11q-27 0 -49 -15z" />
    <glyph glyph-name="uni2158" unicode="&#x2158;" horiz-adv-x="595" 
d="M219 406h-62v58h-154v45l148 216h68v-209h37l-4 -52h-33v-58zM75 516h83l4 136h-2l-85 -134v-2zM133 0h-73l399 725h73zM396 136l-45 23l14 160h192l-4 -56h-133l-6 -70q28 11 56 11q99 0 99 -100q0 -108 -117 -108q-87 0 -110 73l50 19q16 -38 55 -38q27 0 38.5 13
t11.5 41q0 25 -12 36t-40 11q-27 0 -49 -15z" />
    <glyph glyph-name="uni2159" unicode="&#x2159;" horiz-adv-x="595" 
d="M152 727h58v-321h-72v215h-69v47h28q30 0 40.5 11t14.5 48zM133 0h-73l399 725h73zM463 323q78 0 102 -69l-46 -21q-16 35 -52 35q-57 0 -57 -61v-22h2q22 18 63 18q96 0 96 -95q0 -55 -29.5 -83.5t-84.5 -28.5t-84 30.5t-29 88.5v84q0 55 32.5 89.5t86.5 34.5zM460 151
q-47 0 -50 -24v-24q0 -51 49 -51q24 0 35 12.5t11 41.5q0 45 -45 45z" />
    <glyph glyph-name="uni215A" unicode="&#x215a;" horiz-adv-x="595" 
d="M78 542l-45 23l14 160h192l-4 -56h-133l-6 -70q28 11 56 11q99 0 99 -100q0 -108 -117 -108q-87 0 -110 73l50 19q16 -38 55 -38q27 0 38.5 13t11.5 41q0 25 -12 36t-40 11q-27 0 -49 -15zM133 0h-73l399 725h73zM463 323q78 0 102 -69l-46 -21q-16 35 -52 35
q-57 0 -57 -61v-22h2q22 18 63 18q96 0 96 -95q0 -55 -29.5 -83.5t-84.5 -28.5t-84 30.5t-29 88.5v84q0 55 32.5 89.5t86.5 34.5zM460 151q-47 0 -50 -24v-24q0 -51 49 -51q24 0 35 12.5t11 41.5q0 45 -45 45z" />
    <glyph glyph-name="oneeighth" unicode="&#x215b;" horiz-adv-x="595" 
d="M152 727h58v-321h-72v215h-69v47h28q30 0 40.5 11t14.5 48zM133 0h-73l399 725h73zM456 -4q-117 0 -117 99q0 55 47 73v2q-38 18 -38 67q0 39 26.5 62.5t81.5 23.5t81.5 -23.5t26.5 -62.5q0 -48 -38 -67v-2q47 -18 47 -73q0 -99 -117 -99zM505 97q0 24 -12 33.5t-37 9.5
t-36.5 -9t-11.5 -34q0 -27 11.5 -37.5t36.5 -10.5q26 0 37.5 10t11.5 38zM456 270q-25 0 -34.5 -9t-9.5 -32q0 -22 10.5 -32t33.5 -10q24 0 34 9.5t10 32.5t-9.5 32t-34.5 9z" />
    <glyph glyph-name="threeeighths" unicode="&#x215c;" horiz-adv-x="595" 
d="M99 544v49h27q46 0 46 41q0 40 -41 40t-56 -40l-51 18q12 35 41.5 56t72.5 21q52 0 78.5 -24.5t26.5 -61.5q0 -54 -44 -70v-2q51 -13 51 -72q0 -47 -30 -72t-84 -25q-90 0 -115 72l51 20q17 -39 59 -39q46 0 46 48q0 23 -12 32t-38 9h-28zM133 0h-73l399 725h73zM456 -4
q-117 0 -117 99q0 55 47 73v2q-38 18 -38 67q0 39 26.5 62.5t81.5 23.5t81.5 -23.5t26.5 -62.5q0 -48 -38 -67v-2q47 -18 47 -73q0 -99 -117 -99zM505 97q0 24 -12 33.5t-37 9.5t-36.5 -9t-11.5 -34q0 -27 11.5 -37.5t36.5 -10.5q26 0 37.5 10t11.5 38zM456 270
q-25 0 -34.5 -9t-9.5 -32q0 -22 10.5 -32t33.5 -10q24 0 34 9.5t10 32.5t-9.5 32t-34.5 9z" />
    <glyph glyph-name="fiveeighths" unicode="&#x215d;" horiz-adv-x="595" 
d="M78 542l-45 23l14 160h192l-4 -56h-133l-6 -70q28 11 56 11q99 0 99 -100q0 -108 -117 -108q-87 0 -110 73l50 19q16 -38 55 -38q27 0 38.5 13t11.5 41q0 25 -12 36t-40 11q-27 0 -49 -15zM133 0h-73l399 725h73zM456 -4q-117 0 -117 99q0 55 47 73v2q-38 18 -38 67
q0 39 26.5 62.5t81.5 23.5t81.5 -23.5t26.5 -62.5q0 -48 -38 -67v-2q47 -18 47 -73q0 -99 -117 -99zM505 97q0 24 -12 33.5t-37 9.5t-36.5 -9t-11.5 -34q0 -27 11.5 -37.5t36.5 -10.5q26 0 37.5 10t11.5 38zM456 270q-25 0 -34.5 -9t-9.5 -32q0 -22 10.5 -32t33.5 -10
q24 0 34 9.5t10 32.5t-9.5 32t-34.5 9z" />
    <glyph glyph-name="seveneighths" unicode="&#x215e;" horiz-adv-x="595" 
d="M185 406h-77l123 261h-156v58h228v-52zM133 0h-73l399 725h73zM456 -4q-117 0 -117 99q0 55 47 73v2q-38 18 -38 67q0 39 26.5 62.5t81.5 23.5t81.5 -23.5t26.5 -62.5q0 -48 -38 -67v-2q47 -18 47 -73q0 -99 -117 -99zM505 97q0 24 -12 33.5t-37 9.5t-36.5 -9t-11.5 -34
q0 -27 11.5 -37.5t36.5 -10.5q26 0 37.5 10t11.5 38zM456 270q-25 0 -34.5 -9t-9.5 -32q0 -22 10.5 -32t33.5 -10q24 0 34 9.5t10 32.5t-9.5 32t-34.5 9z" />
    <glyph glyph-name="uni215F" unicode="&#x215f;" horiz-adv-x="595" 
d="M152 727h58v-321h-72v215h-69v47h28q30 0 40.5 11t14.5 48zM133 0h-73l399 725h73z" />
    <glyph glyph-name="uni2189" unicode="&#x2189;" horiz-adv-x="607" 
d="M253 612v-93q0 -54 -30 -85.5t-85 -31.5t-84.5 31.5t-29.5 85.5v93q0 54 30 85.5t84 31.5q55 0 85 -32t30 -85zM92 611v-92q0 -61 46 -61q47 0 47 61v92q0 58 -47 58q-46 0 -46 -58zM133 0h-73l399 725h73zM430 138v49h27q46 0 46 41q0 40 -41 40t-56 -40l-51 18
q12 35 41.5 56t72.5 21q52 0 78.5 -24.5t26.5 -61.5q0 -54 -44 -70v-2q51 -13 51 -72q0 -47 -30 -72t-84 -25q-89 0 -115 72l51 20q16 -39 59 -39q46 0 46 48q0 23 -12 32t-38 9h-28z" />
    <glyph glyph-name="partialdiff" unicode="&#x2202;" horiz-adv-x="491" 
d="M264 518q70 0 108 -36h2q0 81 -38 129.5t-125 63.5l30 72q229 -31 229 -260q0 -48 -10 -111l-30 -185q-15 -91 -78.5 -145.5t-163.5 -54.5q-84 0 -127.5 40t-43.5 108q0 22 4 41l26 150q15 84 72 136t145 52zM317 183l24 143q3 19 3 34q0 72 -74 72q-95 0 -113 -106
l-24 -143q-3 -19 -3 -35q0 -72 74 -72q95 0 113 107z" />
    <glyph glyph-name="Delta" unicode="&#x2206;" horiz-adv-x="610" 
d="M8 0l246 725h104l244 -725h-594zM305 582l-144 -483h287l-141 483h-2z" />
    <glyph glyph-name="product" unicode="&#x220f;" horiz-adv-x="617" 
d="M27 725h564v-108h-68v-683h-113v684h-203v-684h-113v683h-67v108z" />
    <glyph glyph-name="summation" unicode="&#x2211;" horiz-adv-x="553" 
d="M31 725h492v-107h-326v-2l189 -274l-190 -300v-2h336v-106h-501v53l227 355l-227 323v60z" />
    <glyph glyph-name="minus" unicode="&#x2212;" horiz-adv-x="468" 
d="M422 270h-376v83h376v-83z" />
    <glyph glyph-name="uni2215" unicode="&#x2215;" horiz-adv-x="283" 
d="M4 0h-73l399 725h73z" />
    <glyph glyph-name="uni2219" unicode="&#x2219;" horiz-adv-x="532" 
d="M141 311q0 58 36 97.5t89 39.5t89 -39.5t36 -97.5t-36 -97t-89 -39t-89 39t-36 97z" />
    <glyph glyph-name="radical" unicode="&#x221a;" horiz-adv-x="601" 
d="M599 747l-237 -747h-129l-138 406l-83 17v85h185l100 -364h2l162 603h138z" />
    <glyph glyph-name="infinity" unicode="&#x221e;" horiz-adv-x="574" 
d="M537 285q0 -76 -33.5 -115t-81.5 -39q-40 0 -69.5 21t-65.5 67q-36 -45 -66 -66.5t-69 -21.5q-48 0 -81.5 39t-33.5 115t33.5 115.5t81.5 39.5q39 0 69 -21.5t66 -67.5q37 46 66 67.5t69 21.5q48 0 81.5 -39.5t33.5 -115.5zM246 285q-34 45 -49.5 59t-34.5 14
q-46 0 -46 -73q0 -72 46 -72q18 0 34 13.5t50 58.5zM328 285q35 -46 50.5 -59t33.5 -13q46 0 46 72q0 73 -46 73q-18 0 -34 -13.5t-50 -59.5z" />
    <glyph glyph-name="integral" unicode="&#x222b;" horiz-adv-x="230" 
d="M258 851l9 -86q-46 -5 -67 -33t-21 -85v-612q0 -192 -191 -203l-9 86q46 5 67 33t21 84v612q0 192 191 204z" />
    <glyph glyph-name="approxequal" unicode="&#x2248;" horiz-adv-x="468" 
d="M409 430v-83q-47 -27 -92 -27q-33 0 -88.5 19t-85.5 19q-42 0 -84 -26v83q47 26 93 26q35 0 92.5 -19t85.5 -19q41 0 79 27zM409 273v-82q-47 -27 -93 -27q-32 0 -88 19t-85 19q-42 0 -84 -26v83q47 26 93 26q34 0 92 -19.5t87 -19.5q40 0 78 27z" />
    <glyph glyph-name="notequal" unicode="&#x2260;" horiz-adv-x="468" 
d="M365 500l-38 -78h82v-83h-123l-35 -73h158v-83h-199l-51 -106l-53 26l39 80h-86v83h126l36 73h-162v83h202l51 105z" />
    <glyph glyph-name="lessequal" unicode="&#x2264;" horiz-adv-x="468" 
d="M396 440l-186 -102v-2l187 -101v-105l-344 202v11l343 206v-109zM58 27v80h339v-80h-339z" />
    <glyph glyph-name="greaterequal" unicode="&#x2265;" horiz-adv-x="468" 
d="M71 235l186 101v2l-185 102v109l343 -206v-11l-344 -202v105zM410 107v-80h-339v80h339z" />
    <glyph glyph-name="dotmath" unicode="&#x22c5;" horiz-adv-x="532" 
d="M194 318q0 32 21 55t50 23t50.5 -23t21.5 -55t-21.5 -54.5t-50.5 -22.5t-50 22.5t-21 54.5z" />
    <glyph glyph-name="lozenge" unicode="&#x25ca;" horiz-adv-x="430" 
d="M37 302l178 267l178 -267l-178 -268zM127 301l88 -133l88 133l-88 132z" />
    <glyph glyph-name="uni2E18" unicode="&#x2e18;" horiz-adv-x="538" 
d="M519 58q-27 -77 -93.5 -125.5t-157.5 -48.5q-115 0 -173.5 54.5t-58.5 133.5q0 76 49 136.5t143 98.5l5 95h86l6 -195v-226q72 22 105 105zM144 77q0 -87 88 -102v247h-2q-86 -54 -86 -145zM337 621v-128h-121v128h121z" />
    <glyph glyph-name="uniFB00" unicode="&#xfb00;" horiz-adv-x="597" 
d="M582 507v-81h-113v-426h-112v426h-169v-426h-112v426h-59v81h59v36q0 82 51.5 133t163.5 54l5 -78q-61 -3 -87 -31t-26 -80v-34h174v36q0 82 51.5 133t163.5 54l5 -78q-61 -3 -87 -31t-26 -80v-34h118z" />
    <glyph glyph-name="fi" unicode="&#xfb01;" horiz-adv-x="532" 
d="M291 730l5 -78q-61 -3 -87 -31t-26 -80v-34h283v-507h-111v426h-167v-426h-112v426h-59v81h59v36q0 82 51.5 133t163.5 54zM361 725h100v-118h-100v118z" />
    <glyph glyph-name="fl" unicode="&#xfb02;" horiz-adv-x="542" 
d="M292 507v-82h-104v-425h-112v425h-59v82h59v36q0 186 235 186h49v18h112v-747h-112v652h-48q-70 -1 -99.5 -27.5t-29.5 -83.5v-34h109z" />
    <glyph glyph-name="uniFB03" unicode="&#xfb03;" horiz-adv-x="810" 
d="M569 730l5 -78q-61 -3 -87 -31t-26 -80v-34h283v-507h-111v426h-167v-426h-112v426h-166v-426h-112v426h-59v81h59v36q0 82 51.5 133t163.5 54l5 -78q-61 -3 -87 -31t-26 -80v-34h171v36q0 82 51.5 133t163.5 54zM639 725h100v-118h-100v118z" />
    <glyph glyph-name="uniFB04" unicode="&#xfb04;" horiz-adv-x="821" 
d="M571 507v-81h-105v-426h-112v426h-166v-426h-112v426h-59v81h59v36q0 82 51.5 133t163.5 54l5 -78q-61 -3 -87 -31t-26 -80v-34h171v36q0 186 235 186h50v18h112v-747h-112v652h-48q-70 -1 -100 -27.5t-30 -83.5v-34h110z" />
    <glyph glyph-name="caron.alt001" 
d="M116 725h92l-57 -141h-60z" />
    <glyph glyph-name="ogonek.alt001" 
d="M146 15l46 -15q-30 0 -47 -18.5t-17 -39.5q0 -17 11 -28.5t32 -11.5q31 0 61 18l21 -58q-45 -30 -105 -30q-54 0 -81.5 21t-27.5 58q0 35 28 63.5t79 40.5z" />
    <glyph glyph-name="i.latn_TRK" horiz-adv-x="245" 
d="M66 508h112v-508h-112v508zM70 725h104v-118h-104v118z" />
    <glyph glyph-name="Ldot.latn_CAT" horiz-adv-x="483" 
d="M333 461h95v-113h-95v113zM72 725h121v-616h268v-109h-389v725z" />
    <glyph glyph-name="ldot.latn_CAT" horiz-adv-x="278" 
d="M232 447h63v-136h-63v136zM69 747h112v-747h-112v747z" />
    <glyph glyph-name="afii10066.cyrl_SRB" horiz-adv-x="488" 
d="M447 337v-160q0 -85 -53 -135.5t-151 -50.5q-97 0 -150 50.5t-53 132.5v154q0 116 103 156v2q-69 34 -69 107q0 126 186 136l139 8l9 -89q-34 -7 -106 -7t-96 -12t-24 -36q0 -22 27.5 -37t66 -28.5t77.5 -32.5t66.5 -59.5t27.5 -98.5zM335 329q0 50 -27 76.5t-75 44.5
q-81 -27 -81 -116v-156q0 -103 91 -103q92 0 92 103v151z" />
    <glyph glyph-name="numbersign.subs" horiz-adv-x="285" 
d="M22 74v42h52l7 88h46l-7 -88h56l8 88h46l-8 -88h42v-42h-44l-4 -63h48v-42h-49l-8 -87h-46l8 87h-57l-7 -87h-47l8 87h-44v42h45l5 63h-50zM118 74l-4 -63h56l4 63h-56z" />
    <glyph glyph-name="dollar.subs" horiz-adv-x="264" 
d="M124 254h39l1 -54q55 -14 76 -67l-44 -17q-13 26 -36 34l-7 -81q20 -7 33 -14t27.5 -18t22 -27t7.5 -36q0 -41 -25.5 -65.5t-70.5 -29.5l-7 -46h-38l-1 47q-66 11 -86 74l46 19q11 -30 42 -41l7 86q-43 15 -67.5 35.5t-24.5 59.5q0 38 27 63.5t72 28.5zM188 -36
q0 22 -39 40l-2 -76q41 5 41 36zM78 120q0 -22 36 -37l1 70q-37 -6 -37 -33z" />
    <glyph glyph-name="comma.subs" horiz-adv-x="141" 
d="M34 -116v77h73v-59q0 -50 -16.5 -76.5t-54.5 -30.5l-4 34q33 8 34 55h-32z" />
    <glyph glyph-name="period.subs" horiz-adv-x="141" 
d="M34 -118v79h73v-79h-73z" />
    <glyph glyph-name="n.subs" horiz-adv-x="279" 
d="M36 -118v249h60l3 -25h2q29 29 67 29q39 0 59 -24.5t20 -63.5v-165h-66v161q0 39 -35 39q-26 0 -43 -25v-175h-67z" />
    <glyph glyph-name="cent.subs" horiz-adv-x="247" 
d="M237 132l-47 -18q-12 38 -49 38q-51 0 -51 -61v-101q0 -64 50 -64q37 0 51 43l47 -18q-22 -61 -78 -71l-7 -47h-41l-1 46q-43 6 -65.5 36t-22.5 73v107q0 44 23.5 73t67.5 35l9 51h40l2 -53q50 -13 72 -69z" />
    <glyph glyph-name="sterling.subs" horiz-adv-x="289" 
d="M27 24l-7 44h33q-5 25 -5 38q0 47 29 75.5t80 28.5q41 0 70.5 -20.5t38.5 -52.5l-50 -20q-15 37 -54 37q-48 0 -48 -56q0 -8 2 -30h105l-6 -44h-91l5 -42q12 -6 36.5 -25.5t39.5 -19.5q27 0 34 42l48 -15q-15 -86 -78 -86q-18 0 -35.5 9.5t-25.5 17.5t-23 25h-2
q-14 -52 -66 -52q-24 0 -37.5 12.5t-13.5 36.5t17 40t49 20q-1 3 -4 15.5t-5 21.5h-36zM63 -80q15 0 16 34q-25 -4 -25 -23q0 -11 9 -11z" />
    <glyph glyph-name="currency.subs" horiz-adv-x="202" 
d="M37 48q0 20 9 35l-21 23l22 24l22 -24q13 9 32 9q18 0 33 -9l24 25l22 -24l-23 -25q9 -15 9 -34t-10 -36l22 -22l-22 -24l-23 23q-16 -8 -32 -8q-18 0 -33 9l-22 -25l-23 24l23 24q-9 15 -9 35zM75 48q0 -12 7.5 -20t19.5 -8q11 0 18.5 8t7.5 20t-7.5 20t-18.5 8
q-12 0 -19.5 -8t-7.5 -20z" />
    <glyph glyph-name="yen.subs" horiz-adv-x="315" 
d="M255 -63h-59v-55h-74v55h-62v41h62v17h-62v40h49l-99 169h84l64 -143h2l65 143h83l-99 -169h46v-40h-59v-17h59v-41z" />
    <glyph glyph-name="franc.subs" horiz-adv-x="270" 
d="M2 -77v43h32v238h219v-59h-145v-75h124v-55h-124v-49h47v-43h-47v-41h-74v41h-32z" />
    <glyph glyph-name="lira.subs" horiz-adv-x="289" 
d="M27 46l-6 33h29q-2 9 -2 27q0 47 29 75.5t80 28.5q41 0 70.5 -20.5t38.5 -52.5l-50 -20q-15 37 -54 37q-48 0 -48 -56q0 -12 1 -19h111l-6 -33h-101l3 -12h95l-5 -32h-85l3 -28q11 -4 35.5 -20.5t39.5 -16.5q27 0 34 42l48 -15q-15 -86 -78 -86q-10 0 -19.5 2.5t-16 5.5
t-15 9.5t-12 10t-12.5 12t-11 10.5q-16 -50 -66 -50q-23 0 -37 12t-14 32q0 53 69 58q-1 8 -6 22h-34l-5 32h30l-3 12h-30zM62 -83q15 0 16 33q-25 -2 -25 -22q0 -11 9 -11z" />
    <glyph glyph-name="peseta.subs" horiz-adv-x="475" 
d="M108 204q83 0 83 -103q0 -49 -21 -75.5t-59 -26.5h-31v-117h-58v322h86zM465 60l-34 -15q-9 26 -28 26q-17 0 -17 -21q0 -11 12.5 -21.5t27.5 -18t27.5 -25t12.5 -41.5q0 -31 -17 -48.5t-48 -17.5q-55 0 -70 58l36 14q8 -32 31 -32q19 0 19 23q0 13 -13 24t-28 18.5
t-28 24.5t-13 41q0 29 17 47t47 18q51 0 66 -54zM317 109v-43h-38v-125q0 -21 21 -21q6 0 14 3l5 -35q-17 -10 -39 -10q-54 0 -54 66v120l-21 7v38l24 2l13 60h37v-62h38zM80 156v-111h26q27 0 27 56q0 31 -6.5 43t-20.5 12h-26z" />
    <glyph glyph-name="Euro.subs" horiz-adv-x="288" 
d="M154 209q41 0 72 -21t41 -52l-52 -21q-13 36 -54 36q-55 0 -55 -61v-5h119l-8 -31h-111v-15h107l-7 -32h-100v-15q0 -59 55 -59q41 0 54 38l53 -20q-23 -73 -114 -73q-56 0 -89.5 31t-33.5 83v15h-24v32h24v15h-24v31h24v5q0 55 33 87t90 32z" />
    <glyph glyph-name="numbersign.sups" horiz-adv-x="285" 
d="M22 669v42h52l7 88h46l-7 -88h56l8 88h46l-8 -88h42v-42h-44l-4 -63h48v-42h-49l-8 -87h-46l8 87h-57l-7 -87h-47l8 87h-44v42h45l5 63h-50zM118 669l-4 -63h56l4 63h-56z" />
    <glyph glyph-name="dollar.sups" horiz-adv-x="264" 
d="M124 849h39l1 -54q55 -14 76 -67l-44 -17q-13 26 -36 34l-7 -81q20 -7 33 -14t27.5 -18t22 -27t7.5 -36q0 -41 -25.5 -65.5t-70.5 -29.5l-7 -46h-38l-1 47q-66 11 -86 74l46 19q11 -30 42 -41l7 86q-43 15 -67.5 35.5t-24.5 59.5q0 38 27 63.5t72 28.5zM188 559
q0 22 -39 40l-2 -76q41 5 41 36zM78 715q0 -22 36 -37l1 70q-37 -6 -37 -33z" />
    <glyph glyph-name="comma.sups" horiz-adv-x="141" 
d="M34 479v77h73v-59q0 -50 -16.5 -76.5t-54.5 -30.5l-4 34q33 8 34 55h-32z" />
    <glyph glyph-name="period.sups" horiz-adv-x="141" 
d="M34 477v79h73v-79h-73z" />
    <glyph glyph-name="cent.sups" horiz-adv-x="247" 
d="M237 727l-47 -18q-12 38 -49 38q-51 0 -51 -61v-101q0 -64 50 -64q37 0 51 43l47 -18q-22 -60 -78 -72l-7 -46h-41l-1 45q-43 6 -65.5 36.5t-22.5 73.5v107q0 44 23.5 73t67.5 35l9 51h40l2 -53q50 -13 72 -69z" />
    <glyph glyph-name="sterling.sups" horiz-adv-x="289" 
d="M27 619l-7 44h33q-5 25 -5 38q0 47 29 75.5t80 28.5q41 0 70.5 -20.5t38.5 -52.5l-50 -20q-15 37 -54 37q-48 0 -48 -56q0 -8 2 -30h105l-6 -44h-91l5 -42q12 -6 36.5 -25.5t39.5 -19.5q27 0 34 42l48 -15q-15 -86 -78 -86q-18 0 -35.5 9.5t-25.5 17.5t-23 25h-2
q-14 -52 -66 -52q-24 0 -37.5 12.5t-13.5 36.5t17 40t49 20q-1 3 -4 15.5t-5 21.5h-36zM63 515q15 0 16 34q-25 -4 -25 -23q0 -11 9 -11z" />
    <glyph glyph-name="currency.sups" horiz-adv-x="202" 
d="M37 643q0 20 9 35l-21 23l22 24l22 -24q13 9 32 9q18 0 33 -9l24 25l22 -24l-23 -25q9 -15 9 -34t-10 -36l22 -22l-22 -24l-23 23q-16 -8 -32 -8q-18 0 -33 9l-22 -25l-23 24l23 24q-9 15 -9 35zM75 643q0 -13 7.5 -20.5t19.5 -7.5q11 0 18.5 8t7.5 20t-7.5 20t-18.5 8
q-12 0 -19.5 -7.5t-7.5 -20.5z" />
    <glyph glyph-name="yen.sups" horiz-adv-x="315" 
d="M255 532h-59v-55h-74v55h-62v41h62v17h-62v40h49l-99 169h84l64 -143h2l65 143h83l-99 -169h46v-40h-59v-17h59v-41z" />
    <glyph glyph-name="franc.sups" horiz-adv-x="270" 
d="M2 518v43h32v238h219v-59h-145v-75h124v-55h-124v-49h47v-43h-47v-41h-74v41h-32z" />
    <glyph glyph-name="lira.sups" horiz-adv-x="289" 
d="M27 641l-6 33h29q-2 9 -2 27q0 47 29 75.5t80 28.5q41 0 70.5 -20.5t38.5 -52.5l-50 -20q-15 37 -54 37q-48 0 -48 -56q0 -12 1 -19h111l-6 -33h-101l3 -12h95l-5 -32h-85l3 -28q11 -4 35.5 -20.5t39.5 -16.5q27 0 34 42l48 -15q-15 -86 -78 -86q-10 0 -19.5 2.5t-16 5.5
t-15 9.5t-12 10t-12.5 12t-11 10.5q-16 -50 -66 -50q-23 0 -37 12t-14 32q0 53 69 58q-1 8 -6 22h-34l-5 32h30l-3 12h-30zM62 512q15 0 16 33q-25 -2 -25 -22q0 -11 9 -11z" />
    <glyph glyph-name="peseta.sups" horiz-adv-x="475" 
d="M108 799q83 0 83 -103q0 -49 -21 -75.5t-59 -26.5h-31v-117h-58v322h86zM465 655l-34 -15q-9 26 -28 26q-17 0 -17 -21q0 -11 12.5 -21.5t27.5 -18t27.5 -25t12.5 -41.5q0 -31 -17 -48.5t-48 -17.5q-55 0 -70 58l36 14q8 -32 31 -32q19 0 19 23q0 13 -13 24t-28 18.5
t-28 24.5t-13 41q0 29 17 47t47 18q51 0 66 -54zM317 704v-43h-38v-125q0 -21 21 -21q6 0 14 3l5 -35q-17 -10 -39 -10q-54 0 -54 66v120l-21 7v38l24 2l13 60h37v-62h38zM80 751v-111h26q27 0 27 56q0 31 -6.5 43t-20.5 12h-26z" />
    <glyph glyph-name="Euro.sups" horiz-adv-x="288" 
d="M154 804q41 0 72 -21t41 -52l-52 -21q-13 36 -54 36q-55 0 -55 -61v-5h119l-8 -31h-111v-15h107l-7 -32h-100v-15q0 -59 55 -59q41 0 54 38l53 -20q-23 -73 -114 -73q-56 0 -89.5 31t-33.5 83v15h-24v32h24v15h-24v31h24v5q0 55 33 87t90 32z" />
    <glyph glyph-name="numbersign.numr" horiz-adv-x="285" 
d="M22 598v42h52l7 88h46l-7 -88h56l8 88h46l-8 -88h42v-42h-44l-4 -63h48v-42h-49l-8 -87h-46l8 87h-57l-7 -87h-47l8 87h-44v42h45l5 63h-50zM118 598l-4 -63h56l4 63h-56z" />
    <glyph glyph-name="dollar.numr" horiz-adv-x="264" 
d="M124 778h39l1 -54q55 -14 76 -67l-44 -17q-13 26 -36 34l-7 -81q20 -7 33 -14t27.5 -18t22 -27t7.5 -36q0 -41 -25.5 -65.5t-70.5 -29.5l-7 -46h-38l-1 47q-66 11 -86 74l46 19q11 -30 42 -41l7 86q-43 15 -67.5 35.5t-24.5 59.5q0 38 27 63.5t72 28.5zM188 488
q0 22 -39 40l-2 -76q41 5 41 36zM78 644q0 -22 36 -37l1 70q-37 -6 -37 -33z" />
    <glyph glyph-name="parenleft.numr" horiz-adv-x="147" 
d="M30 493v134q0 76 25.5 111.5t81.5 35.5h14v-43h-14q-52 0 -52 -104v-134q0 -103 52 -103h14v-44h-14q-56 0 -81.5 36t-25.5 111z" />
    <glyph glyph-name="parenright.numr" horiz-adv-x="147" 
d="M118 627v-134q0 -75 -25.5 -111t-82.5 -36h-14v44h14q52 0 52 103v134q0 103 -52 103h-14v44h14q57 0 82.5 -35.5t25.5 -111.5z" />
    <glyph glyph-name="plus.numr" horiz-adv-x="235" 
d="M94 459v78h-69v46h69v78h46v-78h70v-46h-70v-78h-46z" />
    <glyph glyph-name="comma.numr" horiz-adv-x="141" 
d="M34 408v77h73v-59q0 -50 -16.5 -76.5t-54.5 -30.5l-4 34q33 8 34 55h-32z" />
    <glyph glyph-name="period.numr" horiz-adv-x="141" 
d="M34 406v79h73v-79h-73z" />
    <glyph glyph-name="zero.numr" 
d="M253 612v-93q0 -54 -30 -85.5t-85 -31.5t-84.5 31.5t-29.5 85.5v93q0 54 30 85.5t84 31.5q55 0 85 -32t30 -85zM92 611v-92q0 -61 46 -61q47 0 47 61v92q0 58 -47 58q-46 0 -46 -58z" />
    <glyph glyph-name="one.numr" horiz-adv-x="219" 
d="M111 727h58v-321h-72v215h-69v47h28q30 0 40.5 11t14.5 48z" />
    <glyph glyph-name="two.numr" 
d="M141 729q53 0 79.5 -25.5t26.5 -63.5q0 -36 -20.5 -64t-46 -43t-49.5 -34.5t-29 -38.5h146v-54h-220l-1 29q1 28 17 53.5t38 43.5t43.5 34.5t36.5 34.5t15 36q0 36 -42 36t-57 -49l-54 18q13 39 42.5 63t74.5 24z" />
    <glyph glyph-name="three.numr" 
d="M99 544v49h27q46 0 46 41q0 40 -41 40t-56 -40l-51 18q12 35 41.5 56t72.5 21q52 0 78.5 -24.5t26.5 -61.5q0 -54 -44 -70v-2q51 -13 51 -72q0 -47 -30 -72t-84 -25q-90 0 -115 72l51 20q17 -39 59 -39q46 0 46 48q0 23 -12 32t-38 9h-28z" />
    <glyph glyph-name="four.numr" 
d="M231 406h-62v58h-154v45l148 216h68v-209h37l-4 -52h-33v-58zM87 516h83l4 136h-2l-85 -134v-2z" />
    <glyph glyph-name="five.numr" 
d="M78 542l-45 23l14 160h192l-4 -56h-133l-6 -70q28 11 56 11q99 0 99 -100q0 -108 -117 -108q-87 0 -110 73l50 19q16 -38 55 -38q27 0 38.5 13t11.5 41q0 25 -12 36t-40 11q-27 0 -49 -15z" />
    <glyph glyph-name="six.numr" 
d="M145 729q78 0 102 -69l-46 -21q-16 35 -52 35q-57 0 -57 -61v-22h2q23 18 63 18q96 0 96 -95q0 -55 -29.5 -83.5t-84.5 -28.5t-84 30.5t-29 88.5v84q0 55 32.5 89.5t86.5 34.5zM142 557q-47 0 -50 -24v-24q0 -51 49 -51q24 0 35 12.5t11 41.5q0 45 -45 45z" />
    <glyph glyph-name="seven.numr" horiz-adv-x="260" 
d="M126 406h-77l123 261h-156v58h228v-52z" />
    <glyph glyph-name="eight.numr" 
d="M138 402q-117 0 -117 99q0 55 47 73v2q-38 18 -38 67q0 39 26.5 62.5t81.5 23.5t81.5 -23.5t26.5 -62.5q0 -48 -38 -67v-2q47 -18 47 -73q0 -99 -117 -99zM187 503q0 24 -12 33.5t-37 9.5t-36.5 -9t-11.5 -34q0 -27 11.5 -37.5t36.5 -10.5q26 0 37.5 10t11.5 38zM138 676
q-25 0 -34.5 -9t-9.5 -32q0 -22 10.5 -32t33.5 -10q24 0 34 9.5t10 32.5t-9.5 32t-34.5 9z" />
    <glyph glyph-name="nine.numr" 
d="M27 468l43 25q18 -37 59 -37q55 0 55 54v36h-2q-22 -18 -63 -18q-42 0 -69 24t-27 72q0 50 30 78t85 28q53 0 82.5 -30.5t29.5 -80.5v-106q0 -51 -31.5 -81t-85.5 -30q-80 0 -106 66zM134 580q18 0 34 8t16 21v20q0 47 -46 47q-49 0 -49 -48q0 -27 11 -37.5t34 -10.5z
" />
    <glyph glyph-name="equal.numr" horiz-adv-x="235" 
d="M197 572h-164v45h164v-45zM197 495h-164v45h164v-45z" />
    <glyph glyph-name="n.numr" horiz-adv-x="279" 
d="M36 406v249h60l3 -25h2q29 29 67 29q39 0 59 -24.5t20 -63.5v-165h-66v161q0 39 -35 39q-26 0 -43 -25v-175h-67z" />
    <glyph glyph-name="cent.numr" horiz-adv-x="247" 
d="M237 656l-47 -18q-12 38 -49 38q-51 0 -51 -61v-101q0 -64 50 -64q37 0 51 43l47 -18q-22 -60 -78 -72l-7 -46h-41l-1 45q-43 6 -65.5 36.5t-22.5 73.5v107q0 44 23.5 73t67.5 35l9 51h40l2 -53q50 -13 72 -69z" />
    <glyph glyph-name="sterling.numr" horiz-adv-x="289" 
d="M27 548l-7 44h33q-5 25 -5 38q0 47 29 75.5t80 28.5q41 0 70.5 -20.5t38.5 -52.5l-50 -20q-15 37 -54 37q-48 0 -48 -56q0 -8 2 -30h105l-6 -44h-91l5 -42q12 -6 36.5 -25.5t39.5 -19.5q27 0 34 42l48 -15q-15 -86 -78 -86q-18 0 -35.5 9.5t-25.5 17.5t-23 25h-2
q-14 -52 -66 -52q-24 0 -37.5 12.5t-13.5 36.5t17 40t49 20q-1 3 -4 15.5t-5 21.5h-36zM63 444q15 0 16 34q-25 -4 -25 -23q0 -11 9 -11z" />
    <glyph glyph-name="currency.numr" horiz-adv-x="202" 
d="M37 572q0 20 9 35l-21 23l22 24l22 -24q13 9 32 9q18 0 33 -9l24 25l22 -24l-23 -25q9 -15 9 -34t-10 -36l22 -22l-22 -24l-23 23q-16 -8 -32 -8q-18 0 -33 9l-22 -25l-23 24l23 24q-9 15 -9 35zM75 572q0 -12 7.5 -20t19.5 -8q11 0 18.5 8t7.5 20t-7.5 20t-18.5 8
q-12 0 -19.5 -8t-7.5 -20z" />
    <glyph glyph-name="yen.numr" horiz-adv-x="315" 
d="M255 461h-59v-55h-74v55h-62v41h62v17h-62v40h49l-99 169h84l64 -143h2l65 143h83l-99 -169h46v-40h-59v-17h59v-41z" />
    <glyph glyph-name="franc.numr" horiz-adv-x="270" 
d="M2 447v43h32v238h219v-59h-145v-75h124v-55h-124v-49h47v-43h-47v-41h-74v41h-32z" />
    <glyph glyph-name="lira.numr" horiz-adv-x="289" 
d="M27 570l-6 33h29q-2 9 -2 27q0 47 29 75.5t80 28.5q41 0 70.5 -20.5t38.5 -52.5l-50 -20q-15 37 -54 37q-48 0 -48 -56q0 -12 1 -19h111l-6 -33h-101l3 -12h95l-5 -32h-85l3 -28q11 -4 35.5 -20.5t39.5 -16.5q27 0 34 42l48 -15q-15 -86 -78 -86q-10 0 -19.5 2.5t-16 5.5
t-15 9.5t-12 10t-12.5 12t-11 10.5q-16 -50 -66 -50q-23 0 -37 12t-14 32q0 53 69 58q-1 8 -6 22h-34l-5 32h30l-3 12h-30zM62 441q15 0 16 33q-25 -2 -25 -22q0 -11 9 -11z" />
    <glyph glyph-name="peseta.numr" horiz-adv-x="475" 
d="M108 728q83 0 83 -103q0 -49 -21 -75.5t-59 -26.5h-31v-117h-58v322h86zM465 584l-34 -15q-9 26 -28 26q-17 0 -17 -21q0 -14 20 -26t40 -30.5t20 -49.5t-17 -48.5t-48 -17.5q-55 0 -70 58l36 14q8 -32 31 -32q19 0 19 23q0 13 -13 24t-28 18.5t-28 24.5t-13 41
q0 29 17 47t47 18q51 0 66 -54zM317 633v-43h-38v-125q0 -21 21 -21q6 0 14 3l5 -35q-17 -10 -39 -10q-54 0 -54 66v120l-21 7v38l24 2l13 60h37v-62h38zM80 680v-111h26q27 0 27 56q0 31 -6.5 43t-20.5 12h-26z" />
    <glyph glyph-name="Euro.numr" horiz-adv-x="288" 
d="M154 733q41 0 72 -21t41 -52l-52 -21q-13 36 -54 36q-55 0 -55 -61v-5h119l-8 -31h-111v-15h107l-7 -32h-100v-15q0 -59 55 -59q41 0 54 38l53 -20q-23 -73 -114 -73q-56 0 -89.5 31t-33.5 83v15h-24v32h24v15h-24v31h24v5q0 55 33 87t90 32z" />
    <glyph glyph-name="minus.numr" horiz-adv-x="235" 
d="M210 537h-185v46h185v-46z" />
    <glyph glyph-name="numbersign.dnom" horiz-adv-x="285" 
d="M22 192v42h52l7 88h46l-7 -88h56l8 88h46l-8 -88h42v-42h-44l-4 -63h48v-42h-49l-8 -87h-46l8 87h-57l-7 -87h-47l8 87h-44v42h45l5 63h-50zM118 192l-4 -63h56l4 63h-56z" />
    <glyph glyph-name="dollar.dnom" horiz-adv-x="264" 
d="M124 372h39l1 -54q55 -14 76 -67l-44 -17q-13 26 -36 34l-7 -81q20 -7 33 -14t27.5 -18t22 -27t7.5 -36q0 -41 -25.5 -65.5t-70.5 -29.5l-7 -46h-38l-1 47q-66 11 -86 74l46 19q11 -30 42 -41l7 86q-43 15 -67.5 35.5t-24.5 59.5q0 38 27 63.5t72 28.5zM188 82
q0 22 -39 40l-2 -76q41 5 41 36zM78 238q0 -22 36 -37l1 70q-37 -6 -37 -33z" />
    <glyph glyph-name="parenleft.dnom" horiz-adv-x="147" 
d="M30 87v134q0 76 25.5 111.5t81.5 35.5h14v-43h-14q-52 0 -52 -104v-134q0 -103 52 -103h14v-44h-14q-56 0 -81.5 36t-25.5 111z" />
    <glyph glyph-name="parenright.dnom" horiz-adv-x="147" 
d="M118 221v-134q0 -75 -25.5 -111t-82.5 -36h-14v44h14q52 0 52 103v134q0 103 -52 103h-14v44h14q57 0 82.5 -35.5t25.5 -111.5z" />
    <glyph glyph-name="plus.dnom" horiz-adv-x="235" 
d="M94 53v78h-69v46h69v78h46v-78h70v-46h-70v-78h-46z" />
    <glyph glyph-name="comma.dnom" horiz-adv-x="141" 
d="M34 2v77h73v-59q0 -50 -16.5 -76.5t-54.5 -30.5l-4 34q33 8 34 55h-32z" />
    <glyph glyph-name="period.dnom" horiz-adv-x="141" 
d="M34 0v79h73v-79h-73z" />
    <glyph glyph-name="zero.dnom" 
d="M253 206v-93q0 -54 -30 -85.5t-85 -31.5t-84.5 31.5t-29.5 85.5v93q0 54 30 85.5t84 31.5q55 0 85 -32t30 -85zM92 205v-92q0 -61 46 -61q47 0 47 61v92q0 58 -47 58q-46 0 -46 -58z" />
    <glyph glyph-name="one.dnom" horiz-adv-x="219" 
d="M111 321h58v-321h-72v215h-69v47h28q30 0 40.5 11t14.5 48z" />
    <glyph glyph-name="two.dnom" 
d="M141 323q53 0 79.5 -25.5t26.5 -63.5q0 -36 -20.5 -64t-46 -43t-49.5 -34.5t-29 -38.5h146v-54h-220l-1 29q1 28 17 53.5t38 43.5t43.5 34.5t36.5 34.5t15 36q0 36 -42 36t-57 -49l-54 18q13 39 42.5 63t74.5 24z" />
    <glyph glyph-name="three.dnom" 
d="M99 138v49h27q46 0 46 41q0 40 -41 40t-56 -40l-51 18q12 35 41.5 56t72.5 21q52 0 78.5 -24.5t26.5 -61.5q0 -54 -44 -70v-2q51 -13 51 -72q0 -47 -30 -72t-84 -25q-90 0 -115 72l51 20q16 -39 59 -39q46 0 46 48q0 23 -12 32t-38 9h-28z" />
    <glyph glyph-name="four.dnom" 
d="M231 0h-62v58h-154v45l148 216h68v-209h37l-4 -52h-33v-58zM87 110h83l4 136h-2l-85 -134v-2z" />
    <glyph glyph-name="five.dnom" 
d="M78 136l-45 23l14 160h192l-4 -56h-133l-6 -70q28 11 56 11q99 0 99 -100q0 -108 -117 -108q-87 0 -110 73l50 19q16 -38 55 -38q27 0 38.5 13t11.5 41q0 25 -12 36t-40 11q-27 0 -49 -15z" />
    <glyph glyph-name="six.dnom" 
d="M145 323q78 0 102 -69l-46 -21q-16 35 -52 35q-57 0 -57 -61v-22h2q22 18 63 18q96 0 96 -95q0 -55 -29.5 -83.5t-84.5 -28.5t-84 30.5t-29 88.5v84q0 55 32.5 89.5t86.5 34.5zM142 151q-47 0 -50 -24v-24q0 -51 49 -51q24 0 35 12.5t11 41.5q0 45 -45 45z" />
    <glyph glyph-name="seven.dnom" horiz-adv-x="260" 
d="M126 0h-77l123 261h-156v58h228v-52z" />
    <glyph glyph-name="eight.dnom" 
d="M138 -4q-117 0 -117 99q0 55 47 73v2q-38 18 -38 67q0 39 26.5 62.5t81.5 23.5t81.5 -23.5t26.5 -62.5q0 -48 -38 -67v-2q47 -18 47 -73q0 -99 -117 -99zM187 97q0 24 -12 33.5t-37 9.5t-36.5 -9t-11.5 -34q0 -27 11.5 -37.5t36.5 -10.5q26 0 37.5 10t11.5 38zM138 270
q-25 0 -34.5 -9t-9.5 -32q0 -22 10.5 -32t33.5 -10q24 0 34 9.5t10 32.5t-9.5 32t-34.5 9z" />
    <glyph glyph-name="nine.dnom" 
d="M27 62l43 25q18 -37 59 -37q55 0 55 54v36h-2q-23 -18 -63 -18q-42 0 -69 24t-27 72q0 50 30 78t85 28q53 0 82.5 -30.5t29.5 -80.5v-106q0 -51 -31.5 -81t-85.5 -30q-80 0 -106 66zM134 174q18 0 34 8t16 21v20q0 47 -46 47q-49 0 -49 -48q0 -27 11 -37.5t34 -10.5z" />
    <glyph glyph-name="equal.dnom" horiz-adv-x="235" 
d="M197 166h-164v45h164v-45zM197 89h-164v45h164v-45z" />
    <glyph glyph-name="n.dnom" horiz-adv-x="279" 
d="M36 0v249h60l3 -25h2q29 29 67 29q39 0 59 -24.5t20 -63.5v-165h-66v161q0 39 -35 39q-26 0 -43 -25v-175h-67z" />
    <glyph glyph-name="cent.dnom" horiz-adv-x="247" 
d="M237 250l-47 -18q-12 38 -49 38q-51 0 -51 -61v-101q0 -64 50 -64q37 0 51 43l47 -18q-22 -61 -78 -71l-7 -47h-41l-1 46q-43 6 -65.5 36t-22.5 73v107q0 44 23.5 73t67.5 35l9 51h40l2 -53q50 -13 72 -69z" />
    <glyph glyph-name="sterling.dnom" horiz-adv-x="289" 
d="M27 142l-7 44h33q-5 25 -5 38q0 47 29 75.5t80 28.5q41 0 70.5 -20.5t38.5 -52.5l-50 -20q-15 37 -54 37q-48 0 -48 -56q0 -8 2 -30h105l-6 -44h-91l5 -42q12 -6 36.5 -25.5t39.5 -19.5q27 0 34 42l48 -15q-15 -86 -78 -86q-18 0 -35.5 9.5t-25.5 17.5t-23 25h-2
q-14 -52 -66 -52q-24 0 -37.5 12.5t-13.5 36.5t17 40t49 20q-1 3 -4 15.5t-5 21.5h-36zM63 38q15 0 16 34q-25 -4 -25 -23q0 -11 9 -11z" />
    <glyph glyph-name="currency.dnom" horiz-adv-x="202" 
d="M37 166q0 20 9 35l-21 23l22 24l22 -24q13 9 32 9q18 0 33 -9l24 25l22 -24l-23 -25q9 -15 9 -34t-10 -36l22 -22l-22 -24l-23 23q-16 -8 -32 -8q-18 0 -33 9l-22 -25l-23 24l23 24q-9 15 -9 35zM75 166q0 -12 7.5 -20t19.5 -8q11 0 18.5 8t7.5 20t-7.5 20t-18.5 8
q-12 0 -19.5 -8t-7.5 -20z" />
    <glyph glyph-name="yen.dnom" horiz-adv-x="315" 
d="M255 55h-59v-55h-74v55h-62v41h62v17h-62v40h49l-99 169h84l64 -143h2l65 143h83l-99 -169h46v-40h-59v-17h59v-41z" />
    <glyph glyph-name="franc.dnom" horiz-adv-x="270" 
d="M2 41v43h32v238h219v-59h-145v-75h124v-55h-124v-49h47v-43h-47v-41h-74v41h-32z" />
    <glyph glyph-name="lira.dnom" horiz-adv-x="289" 
d="M27 164l-6 33h29q-2 9 -2 27q0 47 29 75.5t80 28.5q41 0 70.5 -20.5t38.5 -52.5l-50 -20q-15 37 -54 37q-48 0 -48 -56q0 -12 1 -19h111l-6 -33h-101l3 -12h95l-5 -32h-85l3 -28q11 -4 35.5 -20.5t39.5 -16.5q27 0 34 42l48 -15q-15 -86 -78 -86q-10 0 -19.5 2.5t-16 5.5
t-15 9.5t-12 10t-12.5 12t-11 10.5q-16 -50 -66 -50q-23 0 -37 12t-14 32q0 53 69 58q-1 8 -6 22h-34l-5 32h30l-3 12h-30zM62 35q15 0 16 33q-25 -2 -25 -22q0 -11 9 -11z" />
    <glyph glyph-name="peseta.dnom" horiz-adv-x="475" 
d="M108 322q83 0 83 -103q0 -49 -21 -75.5t-59 -26.5h-31v-117h-58v322h86zM465 178l-34 -15q-9 26 -28 26q-17 0 -17 -21q0 -14 20 -26t40 -30.5t20 -49.5t-17 -48.5t-48 -17.5q-55 0 -70 58l36 14q8 -32 31 -32q19 0 19 23q0 13 -13 24t-28 18.5t-28 24.5t-13 41
q0 29 17 47t47 18q51 0 66 -54zM317 227v-43h-38v-125q0 -21 21 -21q6 0 14 3l5 -35q-17 -10 -39 -10q-54 0 -54 66v120l-21 7v38l24 2l13 60h37v-62h38zM80 274v-111h26q27 0 27 56q0 31 -6.5 43t-20.5 12h-26z" />
    <glyph glyph-name="Euro.dnom" horiz-adv-x="288" 
d="M154 327q41 0 72 -21t41 -52l-52 -21q-13 36 -54 36q-55 0 -55 -61v-5h119l-8 -31h-111v-15h107l-7 -32h-100v-15q0 -59 55 -59q41 0 54 38l53 -20q-23 -73 -114 -73q-56 0 -89.5 31t-33.5 83v15h-24v32h24v15h-24v31h24v5q0 55 33 87t90 32z" />
    <glyph glyph-name="minus.dnom" horiz-adv-x="235" 
d="M210 131h-185v46h185v-46z" />
    <glyph glyph-name="space.frac" horiz-adv-x="43" 
 />
    <glyph glyph-name="numbersign.osf" horiz-adv-x="480" 
d="M29 367v75h90l14 172h80l-14 -172h98l14 172h81l-14 -172h72v-75h-74l-9 -122h83v-74h-85l-15 -171h-81l15 171h-99l-14 -171h-80l14 171h-76v74h79l8 122h-87zM197 367l-8 -122h97l9 122h-98z" />
    <glyph glyph-name="dollar.osf" horiz-adv-x="480" 
d="M42 452q0 66 43.5 112t118.5 54l18 122h69l2 -127q103 -24 137 -127l-88 -29q-31 74 -101 74q-83 0 -83 -69q0 -26 20.5 -48t51.5 -36t67.5 -33t67.5 -39t51.5 -55t20.5 -79q0 -71 -41 -118t-112 -58l-15 -132h-70l-3 131q-61 7 -100 41t-59 98l88 30q31 -88 121 -88
q39 0 61 21t22 59q0 33 -29.5 58t-71.5 43.5t-84.5 40t-72 61t-29.5 93.5z" />
    <glyph glyph-name="plus.osf" horiz-adv-x="480" 
d="M198 68v179h-143v84h143v179h82v-179h147v-84h-147v-179h-82z" />
    <glyph glyph-name="zero.osf" horiz-adv-x="500" 
d="M462 378v-178q0 -98 -55 -153.5t-158 -55.5q-101 0 -155.5 56t-54.5 155v172q0 101 54.5 158t155.5 57q102 0 157.5 -56t55.5 -155zM150 374v-177q0 -63 24.5 -92t74.5 -29q51 0 75.5 28.5t24.5 90.5v184q0 65 -24 94t-76 29q-50 0 -74.5 -30.5t-24.5 -97.5z" />
    <glyph glyph-name="one.osf" horiz-adv-x="358" 
d="M179 388h-150v80h67q61 0 82.5 26t26.5 98h94v-592h-120v388z" />
    <glyph glyph-name="two.osf" horiz-adv-x="471" 
d="M250 591q91 0 136.5 -43.5t45.5 -112.5q0 -72 -63 -152.5t-184 -191.5v-2h251v-89h-399l-1 67q283 247 283 362q0 69 -83 69q-61 0 -107 -77l-94 41q38 65 89 97t126 32z" />
    <glyph glyph-name="three.osf" horiz-adv-x="470" 
d="M420 433q0 -114 -82 -146v-2q55 -12 78 -46.5t23 -91.5q0 -245 -379 -245l-9 90q151 1 212.5 41t61.5 116q0 50 -27.5 70t-97.5 20h-32v84h28q62 0 87 23.5t25 75.5q0 75 -79 75q-67 0 -114 -75l-92 38q74 131 218 131q90 0 134.5 -44t44.5 -114z" />
    <glyph glyph-name="four.osf" horiz-adv-x="472" 
d="M389 -96h-108v224h-277v83l274 372h111v-370h81l-8 -85h-73v-224zM121 213h161l10 248h-2l-169 -246v-2z" />
    <glyph glyph-name="five.osf" horiz-adv-x="458" 
d="M400 485h-254l-11 -158q47 19 107 19q187 0 187 -179q0 -125 -94 -195t-272 -70l-9 90q142 0 202 42t60 124q0 54 -26 76.5t-84 22.5q-59 0 -107 -25l-70 34l27 317h352z" />
    <glyph glyph-name="six.osf" horiz-adv-x="482" 
d="M392 600q-208 0 -232 -218h2q45 32 105 32q88 0 136.5 -49t48.5 -150q0 -107 -53 -165.5t-154 -58.5q-98 0 -148 62.5t-50 166.5v103q0 171 90.5 269t247.5 98zM250 322q-57 0 -92 -36v-65q0 -139 92 -139q91 0 91 128q0 60 -22 86t-69 26z" />
    <glyph glyph-name="seven.osf" horiz-adv-x="440" 
d="M189 -91h-121l245 576h-304v98h421v-88z" />
    <glyph glyph-name="eight.osf" horiz-adv-x="479" 
d="M239 -10q-205 0 -205 176q0 107 93 138v2q-78 34 -78 130q0 70 46.5 112.5t143.5 42.5q98 0 144.5 -42t46.5 -112q0 -97 -78 -131v-2q93 -32 93 -138q0 -176 -206 -176zM332 175q0 46 -23.5 66t-69.5 20q-92 0 -92 -85q0 -97 93 -97q48 0 70 23t22 73zM240 506
q-45 0 -65 -20t-20 -63q0 -86 84 -86q45 0 65 21t20 65q0 43 -19.5 63t-64.5 20z" />
    <glyph glyph-name="nine.osf" horiz-adv-x="482" 
d="M84 -8q113 0 172 56.5t67 177.5h-2q-44 -28 -105 -28q-88 0 -137.5 47t-49.5 142q0 97 53 150.5t154 53.5q98 0 148.5 -62t50.5 -164v-97q0 -174 -91 -270t-251 -96zM232 286q55 0 92 37v41q0 70 -22 102.5t-70 32.5q-92 0 -92 -108q0 -56 22.5 -80.5t69.5 -24.5z" />
    <glyph glyph-name="less.osf" horiz-adv-x="480" 
d="M411 412l-205 -125l206 -126v-108l-354 227v12l353 229v-109z" />
    <glyph glyph-name="equal.osf" horiz-adv-x="480" 
d="M413 325h-345v83h345v-83zM413 169h-345v83h345v-83z" />
    <glyph glyph-name="greater.osf" horiz-adv-x="480" 
d="M274 286l-205 126v109h2l352 -228v-12l-351 -228h-2v108z" />
    <glyph glyph-name="cent.osf" horiz-adv-x="480" 
d="M436 489l-88 -32q-28 76 -103 76q-52 0 -75 -31t-23 -95v-210q0 -63 24.5 -92t75.5 -29q75 0 101 80l89 -30q-40 -115 -152 -133l-15 -129h-69l-3 129q-162 22 -162 212v197q0 91 42.5 149t127.5 68l18 121h69l2 -125q103 -23 141 -126z" />
    <glyph glyph-name="sterling.osf" horiz-adv-x="480" 
d="M419 488l-79 -29q-19 73 -84 73q-77 0 -77 -110q0 -26 6 -80h168l-8 -67h-150q10 -69 11 -101q23 -11 60.5 -49t58.5 -38q24 0 36 18.5t18 65.5l77 -21q-11 -85 -41 -122.5t-81 -37.5q-16 0 -31.5 5.5t-26 11t-24 19t-19 20t-18.5 24t-16 21.5h-2q-18 -101 -102 -101
q-37 0 -58 22t-21 62q0 43 27 72.5t76 36.5q-15 55 -24 92h-47l-9 67h42q-8 48 -8 84q0 91 45.5 143.5t129.5 52.5q66 0 111 -36.5t60 -97.5zM100 55q27 0 28 72q-44 -8 -44 -49q0 -23 16 -23z" />
    <glyph glyph-name="currency.osf" horiz-adv-x="376" 
d="M62 313q0 39 18 69l-43 46l41 45l45 -47q31 18 64 18q35 0 65 -19l47 51l42 -45l-46 -51q18 -31 18 -67q0 -38 -19 -70l45 -47l-42 -45l-46 48q-29 -18 -64 -18q-33 0 -64 18l-46 -50l-42 44l46 50q-19 32 -19 70zM130 312q0 -27 17 -44.5t41 -17.5q25 0 42 17.5t17 44.5
t-17.5 45t-41.5 18t-41 -18t-17 -45z" />
    <glyph glyph-name="yen.osf" horiz-adv-x="480" 
d="M408 126h-112v-126h-111v126h-112v65h112v38h-112v65h88l-163 319h124l119 -281h2l115 281h125l-164 -319h89v-65h-112v-38h112v-65z" />
    <glyph glyph-name="logicalnot.osf" horiz-adv-x="480" 
d="M345 100v147h-290v84h372v-231h-82z" />
    <glyph glyph-name="plusminus.osf" horiz-adv-x="480" 
d="M198 132v143h-143v83h143v151h82v-151h147v-83h-147v-143h-82zM427 21h-372v83h372v-83z" />
    <glyph glyph-name="multiply.osf" horiz-adv-x="480" 
d="M340 111l-117 124l-115 -124l-56 59l116 124l-116 124l55 59l116 -124l117 125l55 -59l-116 -125l117 -124z" />
    <glyph glyph-name="divide.osf" horiz-adv-x="480" 
d="M426 248h-372v83h372v-83zM180 461q0 26 17 44.5t41 18.5t41.5 -18.5t17.5 -44.5t-17.5 -44t-41.5 -18q-25 0 -41.5 18t-16.5 44zM180 122q0 26 16.5 44.5t41.5 18.5q24 0 41.5 -18.5t17.5 -44.5q0 -25 -17.5 -43.5t-41.5 -18.5q-25 0 -41.5 18t-16.5 44z" />
    <glyph glyph-name="franc.osf" horiz-adv-x="480" 
d="M20 82v72h56v459h357v-97h-245v-166h210v-87h-210v-109h84v-72h-84v-82h-112v82h-56z" />
    <glyph glyph-name="lira.osf" horiz-adv-x="480" 
d="M419 488l-79 -29q-19 73 -84 73q-77 0 -77 -110q0 -23 3 -50h196l-9 -52h-181q2 -18 4 -27h172l-9 -49h-156q5 -35 7 -70q23 -11 60.5 -49t58.5 -38q24 0 36 18.5t18 65.5l77 -21q-11 -85 -41 -122.5t-81 -37.5q-16 0 -31.5 5.5t-26 11t-24 19t-19 20t-18.5 24t-16 21.5
h-2q-18 -101 -102 -101q-37 0 -58 22t-21 62q0 43 27 72.5t76 36.5q-4 12 -16 61h-44l-9 49h41l-5 27h-43l-10 52h44q-4 25 -4 54q0 91 45.5 143.5t129.5 52.5q66 0 111 -36.5t60 -97.5zM100 55q27 0 28 72q-44 -8 -44 -49q0 -23 16 -23z" />
    <glyph glyph-name="peseta.osf" horiz-adv-x="480" 
d="M9 383v66h48v164h197q78 0 122 -43t52 -121h40v-66h-40q-8 -77 -51 -119t-116 -42h-92v-222h-112v383h-48zM251 303q31 0 46.5 20t19.5 65h-148v-85h82zM169 524v-80h148q-4 42 -19.5 61t-46.5 19h-82z" />
    <glyph glyph-name="Euro.osf" horiz-adv-x="480" 
d="M439 488l-89 -30q-24 74 -95 74q-48 0 -69.5 -29.5t-21.5 -89.5v-25h161l-11 -56h-150v-36h143l-11 -56h-132v-45q0 -63 22.5 -91t69.5 -28q72 0 95 79l90 -29q-45 -136 -190 -136q-198 0 -198 213v37h-35v56h35v36h-35v56h35v20q0 97 49.5 155t148.5 58q68 0 117.5 -35
t70.5 -98z" />
    <glyph glyph-name="uni20B4.osf" horiz-adv-x="481" 
d="M39 330v62h263q27 29 27 66q0 78 -81 78q-79 0 -112 -71l-82 32q58 123 202 123q83 0 126.5 -43t43.5 -108q0 -43 -24 -77h41v-62h-108q-16 -11 -70 -44h178v-62h-256q-26 -32 -26 -72q0 -37 24 -57t68 -20q81 0 116 77l76 -30q-53 -132 -199 -132q-92 0 -137 42t-45 109
q0 45 23 83h-48v62h111q17 12 69 44h-180z" />
    <glyph glyph-name="minus.osf" horiz-adv-x="480" 
d="M427 247h-372v84h372v-84z" />
    <glyph glyph-name="approxequal.osf" horiz-adv-x="480" 
d="M413 414v-83q-47 -27 -91 -27q-32 0 -86.5 19t-83.5 19q-42 0 -84 -26v83q47 26 93 26q34 0 90.5 -19t83.5 -19q40 0 78 27zM413 257v-82q-47 -27 -92 -27q-32 0 -86.5 19t-83.5 19q-41 0 -83 -26v83q47 26 92 26q34 0 90.5 -19.5t84.5 -19.5q40 0 78 27z" />
    <glyph glyph-name="notequal.osf" horiz-adv-x="480" 
d="M413 169h-193l-52 -107l-53 27l39 80h-86v83h126l36 73h-162v83h202l51 105l53 -27l-38 -78h77v-83h-117l-36 -73h153v-83z" />
    <glyph glyph-name="lessequal.osf" horiz-adv-x="480" 
d="M411 421l-194 -97v-2l195 -96v-105l-354 196v11l353 201v-108zM62 22v76h350v-76h-350z" />
    <glyph glyph-name="greaterequal.osf" horiz-adv-x="480" 
d="M68 226l194 96v2l-193 97v108l353 -201v-11l-354 -196v105zM418 98v-76h-350v76h350z" />
    <glyph glyph-name="numbersign.tf" horiz-adv-x="532" 
d="M31 442v77h107l17 206h80l-16 -206h119l16 206h80l-16 -206h85v-77h-87l-11 -159h98v-77h-101l-16 -206h-81l17 206h-120l-16 -206h-80l16 206h-91v77h94l11 159h-105zM216 442l-11 -159h119l11 159h-119z" />
    <glyph glyph-name="dollar.tf" horiz-adv-x="532" 
d="M252 830h71l2 -103q61 -14 104 -53t62 -95l-79 -31q-28 68 -95 85l-15 -217q45 -18 72.5 -32.5t60 -40t48.5 -61t16 -81.5q0 -90 -56 -145.5t-150 -63.5l-12 -96h-72l-2 99q-68 12 -116 54.5t-69 110.5l85 35q27 -78 106 -101l16 228q-45 18 -73.5 32.5t-61 39.5
t-48.5 60.5t-16 82.5q0 82 57 137t152 60zM399 185q0 38 -26.5 63.5t-75.5 46.5l-4 -207q106 9 106 97zM137 549q0 -36 25 -59.5t72 -45.5l3 194q-50 -5 -75 -29t-25 -60z" />
    <glyph glyph-name="plus.tf" horiz-adv-x="532" 
d="M223 88v182h-145v83h145v182h83v-182h149v-83h-149v-182h-83z" />
    <glyph glyph-name="zero.tf" horiz-adv-x="532" 
d="M498 485v-247q0 -115 -60.5 -181.5t-170.5 -66.5q-111 0 -171.5 66t-60.5 182v247q0 116 60.5 183t171.5 67q110 0 170.5 -67t60.5 -183zM151 485v-247q0 -77 28 -112t88 -35q58 0 86.5 35.5t28.5 111.5v247q0 146 -115 146q-59 0 -87.5 -35.5t-28.5 -110.5z" />
    <glyph glyph-name="one.tf" horiz-adv-x="532" 
d="M147 0v70h121v447h-166v83h83q60 0 81.5 24t28.5 105h94v-659h113v-70h-355z" />
    <glyph glyph-name="two.tf" horiz-adv-x="532" 
d="M276 735q106 0 160.5 -54.5t54.5 -137.5q0 -69 -29.5 -124t-72.5 -92t-87.5 -70t-80.5 -73.5t-45 -86.5h320v-97h-443l-2 56q2 64 36 122t81 100.5t93.5 82.5t79 85.5t32.5 91.5q0 97 -106 97q-47 0 -80.5 -31.5t-47.5 -87.5l-92 30q22 83 80.5 136t148.5 53z" />
    <glyph glyph-name="three.tf" horiz-adv-x="532" 
d="M200 328v90h53q56 0 84 26t28 84q0 108 -101 108q-95 0 -128 -104l-89 31q24 79 83 125.5t144 46.5q104 0 157.5 -54t53.5 -139q0 -126 -98 -163v-2q112 -29 112 -166q0 -109 -59 -165t-169 -56q-177 0 -229 159l87 34q36 -97 135 -97q59 0 86 33t27 99q0 60 -30.5 85
t-91.5 25h-55z" />
    <glyph glyph-name="four.tf" horiz-adv-x="532" 
d="M447 0h-108v135h-324v78l318 512h114v-495h85l-8 -95h-77v-135zM141 230h199l6 353h-2z" />
    <glyph glyph-name="five.tf" horiz-adv-x="532" 
d="M131 325l-76 38l30 362h386l-8 -104h-286l-13 -189q60 30 130 30q203 0 203 -226q0 -121 -60 -183.5t-177 -62.5q-81 0 -138.5 41t-79.5 120l88 33q16 -48 49 -73t75 -25q65 0 93.5 36.5t28.5 112.5q0 70 -29.5 100t-94.5 30q-76 0 -121 -40z" />
    <glyph glyph-name="six.tf" horiz-adv-x="532" 
d="M279 735q74 0 128 -39.5t77 -113.5l-81 -36q-32 89 -118 89q-64 0 -95.5 -40t-31.5 -112v-70h2q52 45 139 45q199 0 199 -216q0 -126 -59.5 -189t-168.5 -63q-107 0 -167 63t-60 178v239q0 117 63.5 191t172.5 74zM275 363q-50 0 -83.5 -19t-33.5 -50v-75q0 -64 30.5 -96
t84.5 -32q56 0 83 35.5t27 112.5q0 63 -26 93.5t-82 30.5z" />
    <glyph glyph-name="seven.tf" horiz-adv-x="532" 
d="M242 0h-130l272 623h-361v102h488v-91z" />
    <glyph glyph-name="eight.tf" horiz-adv-x="532" 
d="M266 -10q-237 0 -237 222q0 133 102 173v2q-85 39 -85 155q0 90 53.5 141.5t166.5 51.5t166 -51.5t53 -141.5q0 -116 -85 -155v-2q102 -40 102 -173q0 -222 -236 -222zM386 218q0 63 -30.5 89.5t-89.5 26.5t-89.5 -26.5t-30.5 -89.5q0 -72 29 -101.5t91 -29.5t91 29
t29 102zM266 640q-59 0 -84.5 -24.5t-25.5 -83.5q0 -60 26 -85.5t84 -25.5t84 25.5t26 85.5q0 59 -25.5 83.5t-84.5 24.5z" />
    <glyph glyph-name="nine.tf" horiz-adv-x="532" 
d="M121 180q21 -49 52 -70t80 -21q59 0 90.5 32.5t31.5 95.5v111h-2q-48 -45 -133 -45q-98 0 -151.5 54t-53.5 163q0 112 59.5 173.5t172.5 61.5q105 0 164 -62t59 -162v-287q0 -107 -63 -170.5t-168 -63.5q-163 0 -215 147zM260 376q42 0 77.5 19t37.5 52v70
q0 118 -110 118q-114 0 -114 -131q0 -69 27 -98.5t82 -29.5z" />
    <glyph glyph-name="less.tf" horiz-adv-x="532" 
d="M427 440l-196 -124l197 -125v-109l-343 227v12l342 229v-110z" />
    <glyph glyph-name="equal.tf" horiz-adv-x="532" 
d="M441 339h-350v83h350v-83zM441 183h-350v83h350v-83z" />
    <glyph glyph-name="greater.tf" horiz-adv-x="532" 
d="M104 191l196 125l-195 124v110l342 -229v-12l-343 -227v109z" />
    <glyph glyph-name="cent.tf" horiz-adv-x="532" 
d="M46 487q0 106 54.5 171t149.5 75l12 93h68l2 -96q61 -13 105.5 -55.5t59.5 -99.5l-91 -33q-26 86 -115 86q-59 0 -89 -36.5t-30 -104.5v-259q0 -63 30.5 -100t89.5 -37q47 0 74 21.5t40 72.5l93 -31q-37 -148 -184 -162l-12 -92h-69l-2 94q-86 14 -136 77t-50 157v259z
" />
    <glyph glyph-name="sterling.tf" horiz-adv-x="532" 
d="M49 325l-12 81h61q-11 63 -11 104q0 105 52.5 165.5t148.5 60.5q76 0 129.5 -42t68.5 -114l-87 -32q-24 85 -106 85q-96 0 -96 -135q0 -29 7 -92h205l-10 -81h-185q2 -16 5 -41.5t5 -43.5t3 -31q22 -9 44.5 -28.5t37.5 -36.5t34.5 -30t38.5 -13q28 0 43 22.5t22 78.5
l80 -22q-13 -100 -47 -145t-92 -45q-29 0 -57 15t-41 28.5t-38 45.5t-30 38h-2q-20 -127 -118 -127q-43 0 -67.5 26t-24.5 73q0 51 32.5 86t89.5 42q-2 14 -9.5 52.5t-10.5 55.5h-63zM110 68q33 0 34 85q-54 -6 -54 -57q0 -28 20 -28z" />
    <glyph glyph-name="currency.tf" horiz-adv-x="532" 
d="M141 375q0 36 18 69l-43 47l41 44l44 -47q31 18 64 18q34 0 66 -20l47 52l41 -45l-46 -50q18 -33 18 -68q0 -38 -19 -70l45 -47l-41 -45l-46 49q-30 -19 -65 -19q-33 0 -64 18l-46 -50l-41 44l46 50q-19 32 -19 70zM208 375q0 -27 17 -45t41 -18q25 0 42 18t17 45
t-17 44.5t-42 17.5q-24 0 -41 -17.5t-17 -44.5z" />
    <glyph glyph-name="yen.tf" horiz-adv-x="532" 
d="M445 145h-120v-145h-117v145h-128v76h128v42h-128v77h104l-184 385h130l136 -339h2l136 339h130l-185 -385h96v-77h-120v-42h120v-76z" />
    <glyph glyph-name="logicalnot.tf" horiz-adv-x="532" 
d="M372 122v147h-294v84h376v-231h-82z" />
    <glyph glyph-name="plusminus.tf" horiz-adv-x="532" 
d="M223 147v148h-145v83h145v157h83v-157h149v-83h-149v-148h-83zM455 36h-377v83h377v-83z" />
    <glyph glyph-name="multiply.tf" horiz-adv-x="532" 
d="M382 128l-117 124l-116 -124l-55 59l116 124l-116 124l55 59l116 -125l117 125l55 -59l-117 -124l117 -124z" />
    <glyph glyph-name="divide.tf" horiz-adv-x="532" 
d="M455 269h-377v84h377v-84zM205 483q0 26 17 44t42 18q24 0 41.5 -18.5t17.5 -43.5q0 -26 -17.5 -44t-41.5 -18q-25 0 -42 18t-17 44zM205 144q0 26 17 44t42 18q24 0 41.5 -18.5t17.5 -43.5q0 -26 -17.5 -44.5t-41.5 -18.5q-25 0 -42 18.5t-17 44.5z" />
    <glyph glyph-name="uni2007.tf" horiz-adv-x="532" 
 />
    <glyph glyph-name="franc.tf" horiz-adv-x="532" 
d="M8 100v79h69v546h421v-109h-293v-201h251v-101h-251v-135h98v-79h-98v-100h-128v100h-69z" />
    <glyph glyph-name="lira.tf" horiz-adv-x="532" 
d="M43 373l-10 58h61q-7 42 -7 79q0 105 52.5 165.5t148.5 60.5q76 0 129.5 -42t68.5 -114l-87 -32q-24 85 -106 85q-94 0 -96 -135q0 -36 4 -67h226l-10 -58h-209l4 -31h197l-9 -55h-181l8 -78q22 -9 44.5 -28.5t37.5 -36.5t34.5 -30t38.5 -13q28 0 43 22.5t22 78.5l80 -22
q-13 -100 -47 -145t-92 -45q-29 0 -57 15t-41 28.5t-38 45.5t-30 38h-2q-20 -127 -118 -127q-43 0 -67.5 26t-24.5 73q0 51 32.5 86t89.5 42l-13 70h-59l-9 55h57l-5 31h-60zM110 68q33 0 34 85q-54 -6 -54 -57q0 -28 20 -28z" />
    <glyph glyph-name="peseta.tf" horiz-adv-x="532" 
d="M4 461v65h51v199h224q90 0 141 -51.5t58 -147.5h52v-65h-53q-8 -92 -57 -142.5t-134 -50.5h-110v-268h-121v461h-51zM176 623v-99h181q-4 53 -23 76t-58 23h-100zM276 364q38 0 57.5 23.5t23.5 75.5h-181v-99h100z" />
    <glyph glyph-name="Euro.tf" horiz-adv-x="532" 
d="M303 735q80 0 138 -45t77 -115l-91 -33q-26 86 -115 86q-59 0 -89 -36.5t-30 -104.5v-32h232l-13 -62h-219v-40h209l-13 -62h-196v-63q0 -63 30.5 -100t89.5 -37q47 0 74 21.5t40 72.5l93 -31q-40 -164 -218 -164q-107 0 -171 65t-64 173v63h-64v62h64v40h-64v62h64v32
q0 115 63.5 181.5t172.5 66.5z" />
    <glyph glyph-name="uni20B4.tf" horiz-adv-x="532" 
d="M35 396v67h304q37 39 37 86q0 98 -101 98q-96 0 -139 -88l-83 35q67 141 229 141q95 0 144.5 -49t49.5 -126q0 -52 -32 -97h51v-67h-124q-13 -9 -28 -18.5t-33.5 -21t-28.5 -17.5h213v-66h-294q-37 -42 -37 -95q0 -47 30 -73t85 -26q98 0 142 96l77 -32
q-60 -153 -226 -153q-105 0 -157 49t-52 128q0 58 33 106h-61v66h129q29 20 88 57h-216z" />
    <glyph glyph-name="minus.tf" horiz-adv-x="532" 
d="M454 270h-376v83h376v-83z" />
    <glyph glyph-name="approxequal.tf" horiz-adv-x="532" 
d="M441 430v-83q-47 -27 -92 -27q-33 0 -89 19t-85 19q-42 0 -84 -26v83q47 26 93 26q35 0 92.5 -19t85.5 -19q41 0 79 27zM441 273v-82q-47 -27 -93 -27q-32 0 -88 19t-85 19q-42 0 -84 -26v83q47 26 93 26q34 0 92 -19.5t87 -19.5q40 0 78 27z" />
    <glyph glyph-name="notequal.tf" horiz-adv-x="532" 
d="M397 500l-38 -78h82v-83h-123l-35 -73h158v-83h-199l-51 -106l-53 26l39 80h-86v83h126l36 73h-162v83h202l51 105z" />
    <glyph glyph-name="lessequal.tf" horiz-adv-x="532" 
d="M428 440l-186 -102v-2l187 -101v-105l-344 202v11l343 206v-109zM90 27v80h339v-80h-339z" />
    <glyph glyph-name="greaterequal.tf" horiz-adv-x="532" 
d="M103 235l186 101v2l-185 102v109l343 -206v-11l-344 -202v105zM442 107v-80h-339v80h339z" />
    <glyph glyph-name="numbersign.tosf" horiz-adv-x="480" 
d="M29 367v75h90l14 172h80l-14 -172h98l14 172h81l-14 -172h72v-75h-74l-9 -122h83v-74h-85l-15 -171h-81l15 171h-99l-14 -171h-80l14 171h-76v74h79l8 122h-87zM197 367l-8 -122h97l9 122h-98z" />
    <glyph glyph-name="dollar.tosf" horiz-adv-x="480" 
d="M42 452q0 66 43.5 112t118.5 54l18 122h69l2 -127q103 -24 137 -128l-88 -28q-31 74 -97 74q-87 0 -87 -69q0 -26 20.5 -48t51.5 -36t67.5 -33t67.5 -39t51.5 -55t20.5 -79q0 -71 -41 -118t-112 -58l-15 -132h-70l-3 131q-61 7 -100 41t-59 98l88 30q31 -88 113 -88
q40 0 65.5 21.5t25.5 58.5q0 33 -29.5 58t-71.5 43.5t-84.5 40t-72 61t-29.5 93.5z" />
    <glyph glyph-name="plus.tosf" horiz-adv-x="480" 
d="M198 68v179h-143v84h143v179h82v-179h147v-84h-147v-179h-82z" />
    <glyph glyph-name="zero.tosf" horiz-adv-x="480" 
d="M452 378v-178q0 -98 -55 -153.5t-158 -55.5q-101 0 -155.5 56t-54.5 155v172q0 101 54.5 158t155.5 57q102 0 157.5 -56t55.5 -155zM140 374v-177q0 -63 24.5 -92t74.5 -29q51 0 75.5 28.5t24.5 90.5v184q0 65 -24 94t-76 29q-50 0 -74.5 -30.5t-24.5 -97.5z" />
    <glyph glyph-name="one.tosf" horiz-adv-x="480" 
d="M222 388h-150v80h67q61 0 82.5 26t26.5 98h94v-522h110v-70h-354v70h124v318z" />
    <glyph glyph-name="two.tosf" horiz-adv-x="480" 
d="M252 591q91 0 136.5 -43.5t45.5 -112.5q0 -72 -63 -152.5t-184 -191.5v-2h251v-89h-399l-1 67q283 247 283 362q0 71 -83 71q-75 0 -120 -74l-81 36q38 65 89 97t126 32z" />
    <glyph glyph-name="three.tosf" horiz-adv-x="480" 
d="M423 433q0 -114 -82 -146v-2q55 -12 78 -46.5t23 -91.5q0 -245 -379 -245l-9 90q151 1 212.5 41t61.5 116q0 50 -27.5 70t-97.5 20h-32v84h28q62 0 87 23.5t25 75.5q0 78 -79 78q-76 0 -124 -74l-80 36q75 129 216 129q90 0 134.5 -44t44.5 -114z" />
    <glyph glyph-name="four.tosf" horiz-adv-x="480" 
d="M392 -96h-108v224h-277v83l274 372h111v-370h81l-8 -85h-73v-224zM124 213h161l10 248h-2l-169 -246v-2z" />
    <glyph glyph-name="five.tosf" horiz-adv-x="480" 
d="M411 485h-254l-11 -158q47 19 107 19q187 0 187 -179q0 -125 -94 -195t-272 -70l-9 90q142 0 202 42t60 124q0 54 -26 76.5t-84 22.5q-59 0 -107 -25l-70 34l27 317h352z" />
    <glyph glyph-name="six.tosf" horiz-adv-x="480" 
d="M388 600q-208 0 -232 -218h2q45 32 105 32q88 0 136.5 -49t48.5 -150q0 -107 -53 -165.5t-154 -58.5q-98 0 -148 62.5t-50 166.5v103q0 171 90.5 269t247.5 98zM246 322q-57 0 -92 -36v-65q0 -139 92 -139q91 0 91 128q0 60 -22 86t-69 26z" />
    <glyph glyph-name="seven.tosf" horiz-adv-x="480" 
d="M212 -91h-121l245 576h-304v98h421v-88z" />
    <glyph glyph-name="eight.tosf" horiz-adv-x="480" 
d="M240 -10q-205 0 -205 176q0 107 93 138v2q-78 34 -78 130q0 70 46.5 112.5t143.5 42.5q98 0 144.5 -42t46.5 -112q0 -97 -78 -131v-2q93 -32 93 -138q0 -176 -206 -176zM333 175q0 46 -23.5 66t-69.5 20q-92 0 -92 -85q0 -97 93 -97q48 0 70 23t22 73zM241 506
q-45 0 -65 -20t-20 -63q0 -86 84 -86q45 0 65 21t20 65q0 43 -19.5 63t-64.5 20z" />
    <glyph glyph-name="nine.tosf" horiz-adv-x="480" 
d="M86 -8q113 0 172 56.5t67 177.5h-2q-44 -28 -105 -28q-88 0 -137.5 47t-49.5 142q0 97 53 150.5t154 53.5q98 0 148.5 -62t50.5 -164v-97q0 -174 -91 -270t-251 -96zM234 286q55 0 92 37v41q0 70 -22 102.5t-70 32.5q-92 0 -92 -108q0 -56 22.5 -80.5t69.5 -24.5z" />
    <glyph glyph-name="less.tosf" horiz-adv-x="480" 
d="M411 412l-205 -125l206 -126v-108l-354 227v12l353 229v-109z" />
    <glyph glyph-name="equal.tosf" horiz-adv-x="480" 
d="M413 325h-345v83h345v-83zM413 169h-345v83h345v-83z" />
    <glyph glyph-name="greater.tosf" horiz-adv-x="480" 
d="M69 521l354 -228v-12l-353 -228v108l204 125l-205 126v109z" />
    <glyph glyph-name="cent.tosf" horiz-adv-x="480" 
d="M436 489l-88 -32q-28 76 -103 76q-52 0 -75 -31t-23 -95v-210q0 -63 24.5 -92t75.5 -29q75 0 101 80l89 -30q-40 -115 -152 -133l-15 -129h-69l-3 129q-162 22 -162 212v197q0 91 42.5 149t127.5 68l18 121h69l2 -125q103 -23 141 -126z" />
    <glyph glyph-name="sterling.tosf" horiz-adv-x="480" 
d="M419 488l-79 -29q-19 73 -84 73q-77 0 -77 -110q0 -41 6 -80h168l-8 -67h-150q10 -80 11 -101q23 -11 60.5 -49t58.5 -38q24 0 36 18.5t18 65.5l77 -21q-11 -85 -41 -122.5t-81 -37.5q-16 0 -31.5 5.5t-26 11t-24 19t-19 20t-18.5 24t-16 21.5h-2q-18 -101 -102 -101
q-37 0 -58 22t-21 62q0 43 27 72.5t76 36.5q-15 55 -24 92h-47l-9 67h42q-8 48 -8 84q0 91 45.5 143.5t129.5 52.5q66 0 111 -36.5t60 -97.5zM100 55q27 0 28 72q-44 -8 -44 -49q0 -23 16 -23z" />
    <glyph glyph-name="currency.tosf" horiz-adv-x="480" 
d="M114 313q0 39 18 69l-43 46l41 45l45 -47q31 18 64 18q35 0 65 -19l47 51l42 -45l-46 -51q18 -31 18 -67q0 -38 -19 -70l45 -47l-42 -45l-46 48q-29 -18 -64 -18q-33 0 -64 18l-46 -50l-42 44l46 50q-19 32 -19 70zM182 312q0 -27 17 -44.5t41 -17.5q25 0 42 17.5
t17 44.5t-17.5 45t-41.5 18t-41 -18t-17 -45z" />
    <glyph glyph-name="yen.tosf" horiz-adv-x="480" 
d="M408 126h-112v-126h-111v126h-112v65h112v38h-112v65h88l-163 319h124l119 -281h2l115 281h125l-164 -319h89v-65h-112v-38h112v-65z" />
    <glyph glyph-name="logicalnot.tosf" horiz-adv-x="480" 
d="M345 100v147h-290v84h372v-231h-82z" />
    <glyph glyph-name="plusminus.tosf" horiz-adv-x="480" 
d="M198 132v143h-143v83h143v151h82v-151h147v-83h-147v-143h-82zM427 21h-372v83h372v-83z" />
    <glyph glyph-name="multiply.tosf" horiz-adv-x="480" 
d="M340 111l-117 124l-115 -124l-56 59l116 124l-116 124l55 59l116 -124l117 125l55 -59l-116 -125l117 -124z" />
    <glyph glyph-name="divide.tosf" horiz-adv-x="480" 
d="M426 248h-372v83h372v-83zM180 461q0 26 17 44.5t41 18.5t41.5 -18.5t17.5 -44.5t-17.5 -44t-41.5 -18q-25 0 -41.5 18t-16.5 44zM180 122q0 26 16.5 44.5t41.5 18.5q24 0 41.5 -18.5t17.5 -44.5q0 -25 -17.5 -43.5t-41.5 -18.5q-25 0 -41.5 18t-16.5 44z" />
    <glyph glyph-name="uni2007.tosf" horiz-adv-x="480" 
 />
    <glyph glyph-name="franc.tosf" horiz-adv-x="480" 
d="M20 82v72h56v458h357v-97h-245v-165h210v-87h-210v-109h84v-72h-84v-82h-112v82h-56z" />
    <glyph glyph-name="lira.tosf" horiz-adv-x="480" 
d="M419 488l-79 -29q-19 73 -84 73q-77 0 -77 -110q0 -23 3 -50h196l-9 -52h-181q2 -18 4 -27h172l-9 -49h-156q5 -35 7 -70q23 -11 60.5 -49t58.5 -38q24 0 36 18.5t18 65.5l77 -21q-11 -85 -41 -122.5t-81 -37.5q-16 0 -31.5 5.5t-26 11t-24 19t-19 20t-18.5 24t-16 21.5
h-2q-18 -101 -102 -101q-37 0 -58 22t-21 62q0 43 27 72.5t76 36.5q-4 12 -16 61h-44l-9 49h41l-5 27h-43l-10 52h44q-4 25 -4 54q0 91 45.5 143.5t129.5 52.5q66 0 111 -36.5t60 -97.5zM100 55q27 0 28 72q-44 -8 -44 -49q0 -23 16 -23z" />
    <glyph glyph-name="peseta.tosf" horiz-adv-x="480" 
d="M9 383v66h48v164h197q78 0 122 -43t52 -121h40v-66h-40q-8 -77 -51 -119t-116 -42h-92v-222h-112v383h-48zM251 303q31 0 46.5 20t19.5 65h-148v-85h82zM169 524v-80h148q-4 42 -19.5 61t-46.5 19h-82z" />
    <glyph glyph-name="Euro.tosf" horiz-adv-x="480" 
d="M439 488l-89 -30q-24 74 -95 74q-48 0 -69.5 -29.5t-21.5 -89.5v-25h161l-11 -56h-150v-36h143l-11 -56h-132v-45q0 -63 22.5 -91t69.5 -28q72 0 95 79l90 -29q-45 -136 -190 -136q-198 0 -198 213v37h-35v56h35v36h-35v56h35v20q0 97 49.5 155t148.5 58q68 0 117.5 -35
t70.5 -98z" />
    <glyph glyph-name="uni20B4.tosf" horiz-adv-x="477" 
d="M38 329v63h263q27 30 27 67q0 77 -82 77q-80 0 -114 -71l-80 31q58 123 201 123q84 0 127.5 -42.5t43.5 -107.5q0 -43 -24 -77h40v-63h-108q-9 -6 -70 -43h178v-62h-256q-26 -34 -26 -73q0 -37 24.5 -57t68.5 -20q81 0 117 78l73 -30q-53 -132 -197 -132q-92 0 -137 42
t-45 109q0 46 24 83h-49v62h112q22 15 68 43h-179z" />
    <glyph glyph-name="minus.tosf" horiz-adv-x="480" 
d="M427 247h-372v84h372v-84z" />
    <glyph glyph-name="approxequal.tosf" horiz-adv-x="480" 
d="M413 414v-83q-47 -27 -91 -27q-32 0 -86.5 19t-83.5 19q-42 0 -84 -26v83q47 26 93 26q34 0 90.5 -19t83.5 -19q40 0 78 27zM413 257v-82q-47 -27 -92 -27q-32 0 -86.5 19t-83.5 19q-41 0 -83 -26v83q47 26 92 26q34 0 90.5 -19.5t84.5 -19.5q40 0 78 27z" />
    <glyph glyph-name="notequal.tosf" horiz-adv-x="480" 
d="M413 169h-193l-52 -107l-53 27l39 80h-86v83h126l36 73h-162v83h202l51 105l53 -27l-38 -78h77v-83h-117l-36 -73h153v-83z" />
    <glyph glyph-name="lessequal.tosf" horiz-adv-x="480" 
d="M411 421l-194 -97v-2l195 -96v-105l-354 196v11l353 201v-108zM62 22v76h350v-76h-350z" />
    <glyph glyph-name="greaterequal.tosf" horiz-adv-x="480" 
d="M68 226l194 96v2l-193 97v108l353 -201v-11l-354 -196v105zM418 98v-76h-350v76h350z" />
    <glyph glyph-name="exclam.sc" horiz-adv-x="211" 
d="M52 583h106v-233l-12 -169h-83l-11 169v233zM48 0v116h114v-116h-114z" />
    <glyph glyph-name="ampersand.sc" horiz-adv-x="528" 
d="M397 486l-78 -37q-30 61 -80 61q-53 0 -53 -53q0 -33 21 -60l143 -183q17 59 17 127v18h135v-77h-60q-6 -78 -32 -141q47 -49 111 -61l-12 -87q-87 10 -150 66q-62 -67 -157 -67q-80 0 -128.5 44.5t-48.5 130.5q0 117 100 180q-39 54 -39 109q0 56 39.5 94.5t110.5 38.5
q113 0 161 -103zM213 73q53 0 92 48l-129 162q-46 -45 -46 -112q0 -98 83 -98z" />
    <glyph glyph-name="question.sc" horiz-adv-x="431" 
d="M403 439q0 -64 -38 -115t-112 -80l-6 -68h-80l-7 116q136 46 136 138q0 30 -19.5 51t-63.5 21q-82 0 -115 -79l-84 28q25 63 77.5 101t127.5 38q92 0 138 -44t46 -107zM150 0v116h115v-116h-115z" />
    <glyph glyph-name="grave.sc" horiz-adv-x="278" 
d="M21 728h120l49 -112h-85z" />
    <glyph glyph-name="a.sc" horiz-adv-x="520" 
d="M159 129l-37 -129h-118l193 583h127l191 -583h-117l-38 129h-201zM258 478l-75 -266h153l-76 266h-2z" />
    <glyph glyph-name="b.sc" horiz-adv-x="496" 
d="M439 434q0 -99 -77 -128v-2q104 -27 104 -137q0 -167 -191 -167h-218v583h194q94 0 141 -41t47 -108zM170 259v-170h98q44 0 64 20t20 67q0 44 -19.5 63.5t-64.5 19.5h-98zM170 491v-153h84q43 0 62 19.5t19 60.5q0 39 -18.5 56t-61.5 17h-85z" />
    <glyph glyph-name="c.sc" horiz-adv-x="448" 
d="M240 591q69 0 119.5 -37t66.5 -94l-82 -31q-20 69 -93 69q-97 0 -97 -113v-194q0 -50 25.5 -80.5t72.5 -30.5q37 0 59 17.5t33 57.5l83 -30q-35 -134 -187 -134q-91 0 -146 54.5t-55 143.5v196q0 96 54 151t147 55z" />
    </font>
</defs>
</svg>
