<svg xmlns="http://www.w3.org/2000/svg" width="56" height="46" viewBox="0 0 56 46"><path fill="#444" d="M55.64 20.68L45.7 5.38a.96.96 0 0 0-.49-.37L28.66.04a1 1 0 0 0-.54 0L11.57 5.01c-.2.07-.38.2-.49.37l-9.94 15.3a.83.83 0 0 0-.12.65c.06.22.2.42.4.54l3.25 1.95a.9.9 0 0 0 1.23-.28l.55-.84v21.55H4.48c-.5 0-.9.38-.9.86s.4.86.9.86H52.3c.5 0 .9-.38.9-.86s-.4-.86-.9-.86h-1.97V22.7l.55.84a.91.91 0 0 0 1.23.28l3.25-1.95c.2-.12.34-.32.39-.54a.79.79 0 0 0-.11-.65zm-25.5 8.73h8.93l-4.46 5.95zm3.36 7.42l-4.21 5.61V31.22zm-6.01-5.61v11.22l-4.21-5.61zm-5.32 4.14l-4.46-5.95h8.92zm4.46 8.89h-8.92l4.46-5.95zm7.98-5.95l4.46 5.95h-8.93zm1.1-1.47l4.22-5.61v11.22zm-20.77-9.14v-1.96h26.9v1.96zm6.12 9.14l-4.21 5.61V31.22zm27.48 7.42h-6.82V29.41h1.02c.49 0 .89-.38.89-.86v-3.68c0-.48-.4-.86-.89-.86h-28.7c-.49 0-.9.38-.9.86v3.68c0 .48.41.86.9.86h1.02v14.84H8.24V19.94l6.67-10.27 13.48-4.05 13.47 4.05 6.68 10.27zm3.38-22.35L43.21 8.49a.89.89 0 0 0-.5-.37L28.66 3.9a.84.84 0 0 0-.27-.04.84.84 0 0 0-.27.04L14.06 8.12a.87.87 0 0 0-.49.37L4.86 21.9l-1.73-1.04 9.29-14.29 15.97-4.8 15.96 4.8 9.29 14.29z"/><path fill="#444" d="M33.46 10H23.9c-.5 0-.9.39-.9.86v9.2c0 .48.4.87.9.87h9.56c.5 0 .9-.39.9-.87v-9.2c0-.47-.4-.86-.9-.86zm-8.67 2.94l2.62 2.52-2.62 2.52zm1.27-1.21h5.24l-2.62 2.51zm2.62 4.95l2.62 2.52h-5.24zm1.27-1.22l2.62-2.52v5.04z"/></svg>