<svg xmlns="http://www.w3.org/2000/svg" width="55" height="54" viewBox="0 0 55 54"><path fill="#444" d="M55 18.29a.88.88 0 0 0-.63-.83l-8.2-2.39a11.9 11.9 0 0 0 1.03-4.44C47.2 4.77 42.34 0 36.37 0a10.74 10.74 0 0 0-10.82 10.63c0 1.4.4 2.92 1.03 4.44l-7.95 2.32-17.5-5.1a.87.87 0 0 0-.78.14.86.86 0 0 0-.35.69v34.85c0 .38.26.72.63.82l17.73 5.17h.02v.01l.1.02h.03l.11.01.12-.01h.03l.1-.02.01-.01 17.14-4.99c.11.05.23.07.35.07.13 0 .25-.02.36-.07l17.14 4.99c.08.03.17.04.25.04a.86.86 0 0 0 .88-.86V35.71v-.01zm-1.76.64v15.63L37.25 29.9v-2.45c1.15-1.16 5.64-5.86 8.18-10.8zm-7.8-8.3a10.88 10.88 0 0 1-1.31 4.72c-2.11 4.38-6.2 8.88-7.76 10.5-1.55-1.62-5.64-6.11-7.75-10.49a11.08 11.08 0 0 1-1.32-4.73 9 9 0 0 1 9.07-8.91 9 9 0 0 1 9.07 8.91zM35.5 27.45v2.45l-16 4.66V18.93l7.82-2.28c2.54 4.94 7.03 9.64 8.18 10.8zM7.82 33.46a.87.87 0 0 0 1.09-.58.86.86 0 0 0-.59-1.07L1.76 29.9V14.27l15.99 4.66v15.63l-6.07-1.77a.9.9 0 0 0-1.09.58c-.13.46.13.94.59 1.07l6.57 1.92v15.62L1.76 47.33V31.7zm29.43 7.63a.87.87 0 0 0-.88-.87.87.87 0 0 0-.87.87v6.24l-16 4.65V36.36l16-4.66v5.94c0 .48.39.86.87.86.49 0 .88-.38.88-.86V31.7l15.99 4.66v15.62l-15.99-4.65z"/><path fill="#444" d="M35.85 17.64c3.23 0 5.85-2.84 5.85-6.32C41.7 7.83 39.08 5 35.85 5 32.62 5 30 7.83 30 11.32c0 3.48 2.62 6.32 5.85 6.32zm0-10.83c2.31 0 4.18 2.02 4.18 4.51 0 2.49-1.87 4.51-4.18 4.51-2.3 0-4.18-2.02-4.18-4.51 0-2.49 1.88-4.51 4.18-4.51z"/></svg>