<svg xmlns="http://www.w3.org/2000/svg" width="55" height="43" viewBox="0 0 55 43"><path fill="#444" d="M54.16 14.91L46.2 6.34a3.28 3.28 0 0 0-2.29-.98h-9.14V3.48A3.46 3.46 0 0 0 31.29 0H3.57A3.48 3.48 0 0 0 0 3.48v30.89a3.2 3.2 0 0 0 3.2 3.13h1.44a6.3 6.3 0 0 0 6.34 5.35 6.3 6.3 0 0 0 6.34-5.35h20.25a6.31 6.31 0 0 0 6.34 5.35 6.3 6.3 0 0 0 6.34-5.35h4.73V16.96c0-.8-.27-1.51-.82-2.05zm-1.46 1.16c.27.18.36.54.36.8v2.77H39.34v-8.93h8.33zM1.83 18.75h12.81c.55 0 .91-.36.91-.89 0-.54-.36-.9-.91-.9H1.83v-2.68h9.15c.55 0 .91-.35.91-.89 0-.53-.36-.89-.91-.89H1.83V3.48c0-.98.73-1.69 1.74-1.69H31.2c1 0 1.74.8 1.74 1.69V25H1.83zm9.15 22.32A4.49 4.49 0 0 1 6.4 36.6c0-2.5 2.02-4.46 4.58-4.46a4.47 4.47 0 1 1 0 8.93zm21.96-5.36H17.32a6.3 6.3 0 0 0-5.74-5.33h-.07l-.22-.02-.31-.01-.31.01-.23.02h-.06a6.3 6.3 0 0 0-5.74 5.33H3.2c-.73 0-1.37-.62-1.37-1.34v-7.59h31.11zm10.97 5.36a4.47 4.47 0 0 1 0-8.93 4.47 4.47 0 0 1 4.58 4.46c0 2.5-2.01 4.47-4.58 4.47zm.6-10.69h-.06l-.23-.02-.31-.01-.31.01-.22.02h-.07a6.3 6.3 0 0 0-5.74 5.33h-2.8V7.14h9.14c.28 0 .64.18.92.36l1.31 1.43h-7.07c-.83 0-1.56.71-1.56 1.52v9.46c0 .8.73 1.52 1.56 1.52h13.99v4.46h-4.57c-.55 0-.92.36-.92.89 0 .54.37.9.92.9h4.57v8.03h-2.81a6.3 6.3 0 0 0-5.74-5.33z"/><path fill="#444" d="M10.83 35C9.82 35 9 35.8 9 36.79c0 .98.82 1.78 1.83 1.78a1.8 1.8 0 0 0 1.83-1.78c0-.99-.82-1.79-1.83-1.79zM43.83 35c-1.01 0-1.83.8-1.83 1.79 0 .98.82 1.78 1.83 1.78a1.8 1.8 0 0 0 1.83-1.78c0-.99-.82-1.79-1.83-1.79z"/></svg>