<svg xmlns="http://www.w3.org/2000/svg" width="55" height="48" viewBox="0 0 55 48"><path fill="#444" d="M18.68 29.5A4.42 4.42 0 0 0 17 32.94v4.78c0 .59.49 1.07 1.11 1.07.62 0 1.11-.48 1.11-1.07v-4.78c0-.7.32-1.34.88-1.79 4.41-3.48 9.2-5.8 10.11-6.23.5-.22.81-.71.81-1.24v-6.72c0-.36-.19-.69-.49-.89a2.04 2.04 0 0 1-.97-1.72V7.37a5.33 5.33 0 0 1 5.43-5.21h1.56c3 0 5.44 2.34 5.44 5.21v6.98c0 .69-.36 1.33-.97 1.72-.31.2-.49.53-.49.89v6.71c0 .53.31 1.02.8 1.24.93.43 5.71 2.75 10.12 6.23.55.44.87 1.09.87 1.79v4.78c0 .59.5 1.07 1.11 1.07a1.1 1.1 0 0 0 1.12-1.07v-4.78c0-1.33-.62-2.58-1.69-3.44a59.34 59.34 0 0 0-10.11-6.29v-5.74a4.14 4.14 0 0 0 1.46-3.13V7.35C44.21 3.3 40.77 0 36.55 0h-1.56c-4.22 0-7.65 3.3-7.65 7.35v6.98c0 1.2.54 2.34 1.46 3.13v5.74c-1.59.77-6 3.06-10.12 6.3z"/><path fill="#444" d="M16.13 7h-1.27a6.32 6.32 0 0 0-6.44 6.19v5.68c0 1.01.44 1.96 1.19 2.64v4.46c-1.38.68-4.9 2.51-8.16 5.09A3.74 3.74 0 0 0 0 34.01v3.9c0 .59.49 1.06 1.11 1.06.62 0 1.11-.47 1.11-1.06v-3.9c0-.5.24-.98.64-1.3a46.8 46.8 0 0 1 8.21-5.06c.47-.21.77-.69.77-1.18v-5.48c0-.35-.19-.69-.49-.88-.44-.28-.7-.75-.7-1.24v-5.68c0-2.23 1.9-4.06 4.22-4.06h1.27a4.16 4.16 0 0 1 4.22 4.06v5.68c0 .49-.26.96-.69 1.24-.32.19-.5.53-.5.88v4.5c0 .59.5 1.06 1.11 1.06.62 0 1.11-.47 1.11-1.06v-3.98a3.53 3.53 0 0 0 1.19-2.64v-5.68A6.33 6.33 0 0 0 16.13 7zM38.92 25.01a1.1 1.1 0 0 0-1.12 1.07c0 .69-.58 1.24-1.29 1.24-.27 0-.51-.08-.72-.22l-.15-.12a1.2 1.2 0 0 1-.42-.91c0-.6-.49-1.07-1.11-1.07-.62 0-1.11.47-1.11 1.07 0 .86.34 1.64.89 2.24l-.76 15.91c-.01.32.13.63.38.84l2.34 2.03a1.13 1.13 0 0 0 1.48.01l2.31-2c.25-.21.39-.51.38-.84l-.72-16.1c.47-.57.75-1.3.75-2.07a1.14 1.14 0 0 0-1.13-1.08zm-2.34 19.87l-1.21-1.05.67-14.39a3.4 3.4 0 0 0 1.06-.02l.65 14.44z"/></svg>