<?xml version="1.0" encoding="UTF-8"?>
<svg width="20px" height="20px" viewBox="0 0 20 20" version="1.1" xmlns="http://www.w3.org/2000/svg" xmlns:xlink="http://www.w3.org/1999/xlink">
    <!-- Generator: Sketch 41.2 (35397) - http://www.bohemiancoding.com/sketch -->
    <title>arrow</title>
    <desc>Created with Sketch.</desc>
    <defs></defs>
    <g id="Page-1" stroke="none" stroke-width="1" fill="none" fill-rule="evenodd">
        <g id="03.Products" transform="translate(-1271.000000, -1016.000000)" fill="#3C9BCC">
            <g id="arrow" transform="translate(1271.000000, 1016.000000)">
                <path d="M10,20 C15.5077453,20 20,15.524957 20,10 C20,4.47504303 15.5077453,0 10,0 C4.49225473,0 0,4.49225473 0,10 C0,15.5077453 4.49225473,20 10,20 Z M10,1.41135972 C14.7332186,1.41135972 18.5886403,5.26678141 18.5886403,10 C18.5886403,14.7332186 14.7332186,18.5886403 10,18.5886403 C5.26678141,18.5886403 1.41135972,14.7332186 1.41135972,10 C1.41135972,5.26678141 5.26678141,1.41135972 10,1.41135972 Z M7.69363167,14.9913941 C7.8313253,15.1290878 8.00344234,15.1979346 8.19277108,15.1979346 C8.36488812,15.1979346 8.55421687,15.1290878 8.6919105,14.9913941 L13.2358003,10.4475043 C13.373494,10.3098107 13.4423408,10.1376936 13.4423408,9.94836489 C13.4423408,9.75903614 13.373494,9.5869191 13.2358003,9.44922547 L8.6919105,4.90533563 C8.41652324,4.62994836 7.96901893,4.62994836 7.69363167,4.90533563 C7.41824441,5.18072289 7.41824441,5.62822719 7.69363167,5.90361446 L11.7383821,9.94836489 L7.69363167,13.9931153 C7.41824441,14.2685026 7.41824441,14.7160069 7.69363167,14.9913941 L7.69363167,14.9913941 Z" id="Combined-Shape"></path>
            </g>
        </g>
    </g>
</svg>