<?xml version="1.0" encoding="UTF-8"?>
<svg width="22px" height="12px" viewBox="0 0 22 12" version="1.1" xmlns="http://www.w3.org/2000/svg" xmlns:xlink="http://www.w3.org/1999/xlink">
    <!-- Generator: Sketch 41.2 (35397) - http://www.bohemiancoding.com/sketch -->
    <title>arrow_!</title>
    <desc>Created with Sketch.</desc>
    <defs></defs>
    <g id="Page-1" stroke="none" stroke-width="1" fill="none" fill-rule="evenodd">
        <g id="04.Product_inner" transform="translate(-99.000000, -60.000000)" fill="#3C9BCC">
            <g id="arrow_!" transform="translate(99.000000, 60.000000)">
                <path d="M6.42196532,17 C6.76878613,17 7.15028902,16.8557377 7.42774566,16.5672131 L16.583815,7.04590164 C16.8612717,6.75737705 17,6.39672131 17,6 C17,5.60327869 16.8612717,5.24262295 16.583815,4.95409836 L7.42774566,-4.56721311 C6.87283237,-5.1442623 5.97109827,-5.1442623 5.41618497,-4.56721311 C4.86127168,-3.99016393 4.86127168,-3.05245902 5.41618497,-2.47540984 L13.566474,6 L5.41618497,14.4754098 C4.86127168,15.052459 4.86127168,15.9901639 5.41618497,16.5672131 C5.69364162,16.8557377 6.04046243,17 6.42196532,17 Z" id="Combined-Shape" transform="translate(11.000000, 6.000000) rotate(-90.000000) translate(-11.000000, -6.000000) "></path>
            </g>
        </g>
    </g>
</svg>