<?xml version="1.0" encoding="UTF-8"?>
<svg width="28px" height="28px" viewBox="0 0 28 28" version="1.1" xmlns="http://www.w3.org/2000/svg" xmlns:xlink="http://www.w3.org/1999/xlink">
    <!-- Generator: Sketch 41.2 (35397) - http://www.bohemiancoding.com/sketch -->
    <title>66666</title>
    <desc>Created with Sketch.</desc>
    <defs></defs>
    <g id="Page-1" stroke="none" stroke-width="1" fill="none" fill-rule="evenodd">
        <g id="00.Home" transform="translate(-858.000000, -3052.000000)" fill="#FFFFFF">
            <g id="66666" transform="translate(858.000000, 3052.000000)">
                <path d="M14,0 C6.28043181,0 0,6.28043181 0,14 C0,21.7190043 6.28043181,28 14,28 C21.7190043,28 28,21.7190043 28,14 C28,6.28043181 21.7201321,0 14,0 Z M17.4816724,14.4928704 L15.2039797,14.4928704 L15.2039797,22.6111335 L11.8288891,22.6111335 L11.8288891,14.4928704 L10.2245227,14.4928704 L10.2245227,11.6236204 L11.8288891,11.6236204 L11.8288891,9.76774349 C11.8288891,8.43857246 12.460485,6.36163699 15.2349956,6.36163699 L17.7360026,6.37122372 L17.7360026,9.15644888 L15.9207283,9.15644888 C15.6252316,9.15644888 15.2051075,9.30419721 15.2051075,9.93804882 L15.2051075,11.6241843 L17.7766052,11.6241843 L17.4816724,14.4928704 Z" id="Shape00"></path>
            </g>
        </g>
    </g>
</svg>