<?xml version="1.0" encoding="utf-8"?>
<!-- Generator: Adobe Illustrator 19.0.0, SVG Export Plug-In . SVG Version: 6.00 Build 0)  -->
<svg version="1.1" id="Шар_1" xmlns="http://www.w3.org/2000/svg" xmlns:xlink="http://www.w3.org/1999/xlink" x="0px" y="0px"
	 viewBox="0 0 213 63" style="enable-background:new 0 0 213 63;" xml:space="preserve">
<style type="text/css">
	.st0{fill:#FFFFFF;}
</style>
<g id="XMLID_1_">
	<path id="XMLID_4_" class="st0" d="M40.5,34.9c-0.6,1.2-1.2,2.4-1.8,3.4c-0.6,1-1.2,2-1.9,3s-1.4,1.9-2.3,2.7
		c-0.9,0.9-1.9,1.7-3.1,2.5c-1.4,1-3,1.8-4.7,2.5c-1.7,0.7-3.5,1.2-5.3,1.5s-3.8,0.3-5.8,0.1c-2-0.2-4-0.8-6-1.6
		c-2.4-1-4.2-2.3-5.6-4S1.7,41.6,1,39.5c-0.6-2.1-0.9-4.3-0.9-6.6c0.1-2.3,0.4-4.6,1-6.9c0.6-2.3,1.4-4.5,2.4-6.6
		c1-2.1,2.2-4,3.5-5.6C6.7,13,6.6,12,6.4,11C6.3,9.9,6.2,8.8,6.1,7.7C6,6.6,6.1,5.5,6.2,4.3C6.3,3.2,6.4,2.1,6.7,1
		c0-0.2,0.1-0.4,0.3-0.6c0.2-0.1,0.3-0.2,0.4-0.2s0.2,0.1,0.3,0.3c0.1,0.2,0.1,0.4,0,0.8C7.6,3.1,7.5,4.9,7.6,6.8
		C7.8,8.7,8,10.4,8.3,12c3-3.9,6.6-6.7,10.6-8.5c4-1.7,8.3-2.3,12.7-1.8c2.7,0.3,5,1,6.8,2c1.8,1,3.2,2.2,4.2,3.6
		c1,1.4,1.5,2.9,1.7,4.6c0.2,1.7,0,3.4-0.5,5c-0.5,1.7-1.4,3.2-2.6,4.7c-1.2,1.5-2.7,2.8-4.6,3.8c-1.8,1-3.9,1.8-6.3,2.2
		c-2.4,0.4-5,0.5-7.9,0.1c-2.9-0.4-5.6-1.3-8-2.8s-4.4-3.7-5.9-6.7c-0.3,0.4-0.8,1.4-1.5,2.8c-0.6,1.4-1.2,3.1-1.8,5.1
		c-0.6,1.9-1,4-1.3,6.3s-0.3,4.4,0.1,6.5c0.4,2.1,1.2,3.9,2.4,5.5c1.2,1.6,3,2.8,5.4,3.6c3,0.9,6.2,1.1,9.5,0.8
		c3.3-0.4,6.4-1.4,9.2-3.1c1.2-0.7,2.3-1.5,3.2-2.3c0.9-0.8,1.7-1.7,2.4-2.6c0.7-0.9,1.3-1.9,1.9-3c0.6-1.1,1.1-2.2,1.7-3.4
		c0.2-0.5,0.5-0.7,0.7-0.5C40.8,34,40.8,34.4,40.5,34.9z M32.1,3.8c-2.1-0.3-4.2-0.2-6.2,0.3c-2.1,0.5-4.1,1.3-6,2.4
		c-1.9,1.1-3.8,2.5-5.5,4.2s-3.3,3.6-4.7,5.7c1.3,3.2,3.1,5.6,5.5,7.1c2.4,1.5,5.1,2.5,8.1,2.8c3.4,0.4,6.3,0.1,8.8-0.7
		c2.5-0.9,4.5-2.1,6.1-3.6c1.6-1.5,2.7-3.3,3.2-5.2c0.6-1.9,0.7-3.8,0.2-5.6c-0.5-1.8-1.5-3.4-3.1-4.7C37,5.1,34.8,4.2,32.1,3.8z"/>
	<path id="XMLID_7_" class="st0" d="M54.4,34.8c-0.5,1.1-1.1,2.3-1.7,3.6c-0.6,1.3-1.3,2.4-2.1,3.5c-0.8,1.1-1.8,1.9-2.9,2.6
		c-1.1,0.7-2.4,1-4,1c-1.4,0-2.7-0.4-3.7-1.3c-1.1-0.9-1.6-2.2-1.7-4c0-0.8,0.1-1.7,0.3-2.6c0.2-0.9,0.5-1.9,0.9-2.8
		c0.4-0.9,0.8-1.8,1.4-2.7c0.5-0.9,1.1-1.7,1.7-2.4c0.7-0.8,1.5-1.6,2.4-2.2c0.9-0.7,1.7-1.2,2.6-1.5c0.9-0.4,1.7-0.5,2.5-0.5
		s1.5,0.2,2.2,0.7c0.5,0.4,0.8,0.9,0.9,1.6c0.1,0.6,0,1.3-0.3,2.1c-0.3,0.8-0.8,1.5-1.4,2.3c-0.6,0.8-1.4,1.5-2.3,2.2
		c-0.4,0.3-1,0.7-1.6,1s-1.3,0.6-1.9,0.8c-0.7,0.2-1.3,0.4-1.9,0.5c-0.6,0.1-1.1,0.2-1.5,0.2c-0.2,0.5-0.4,1.2-0.6,2.1
		c-0.2,0.9-0.2,1.7-0.2,2.5c0.1,0.8,0.3,1.5,0.7,2.2c0.4,0.6,1.1,0.9,2,0.9c1.2,0,2.3-0.4,3.3-1.1c1-0.7,1.9-1.6,2.6-2.6
		c0.8-1,1.4-2.1,2-3.1c0.5-1.1,1-2,1.3-2.7c0.1-0.3,0.3-0.5,0.4-0.6c0.2-0.1,0.3-0.2,0.4-0.2s0.2,0.1,0.3,0.2
		C54.6,34.2,54.6,34.5,54.4,34.8z M48.6,33.1c0.7-0.6,1.4-1.3,1.9-2.1s0.8-1.5,1-2.2c0.2-0.7,0.2-1.2,0.1-1.7
		c-0.1-0.4-0.4-0.7-0.8-0.6c-0.4,0-1.1,0.3-1.8,0.9c-0.8,0.6-1.8,1.6-2.9,2.9c-0.7,0.9-1.4,1.9-2,2.9c-0.6,1-1.1,1.8-1.3,2.4
		c0.3,0,0.6,0,1.1-0.1c0.4-0.1,1-0.2,1.5-0.4s1.1-0.5,1.7-0.8C47.5,33.9,48.1,33.5,48.6,33.1z"/>
	<path id="XMLID_10_" class="st0" d="M76.6,35c-1,1.9-1.8,3.6-2.6,4.9c-0.7,1.3-1.6,2.5-2.5,3.4c-0.9,1-2,1.8-3.3,2.5
		c-1.3,0.7-2.9,1.4-5,2.2c-0.9,1.6-1.9,3.2-3.1,5c-1.1,1.8-2.4,3.4-3.8,4.8c-1.4,1.5-3,2.7-4.8,3.6c-1.8,1-3.7,1.4-5.7,1.4
		c-1.4,0-2.5-0.2-3.3-0.6c-0.8-0.4-1.3-1-1.7-1.6c-0.3-0.7-0.4-1.4-0.3-2.2c0.1-0.8,0.4-1.6,0.8-2.4c0.5-1,1.3-1.9,2.2-2.7
		c1-0.7,2-1.4,3.1-1.9c1.9-0.9,4.1-1.6,6.5-2.2s4.8-1.2,7.1-1.8c0.5-0.9,1-2,1.5-3.1c0.5-1.2,0.9-2.3,1.3-3.5
		c0.4-1.2,0.8-2.3,1.1-3.3s0.6-1.9,0.8-2.7c-0.5,0.9-1.1,1.9-1.7,3.1c-0.7,1.2-1.4,2.3-2.3,3.4s-1.8,2-2.7,2.7c-1,0.8-2,1.1-3.1,1.1
		c-0.3,0-0.6,0-1-0.1c-0.4-0.1-0.7-0.2-1-0.4s-0.6-0.4-0.9-0.8c-0.3-0.3-0.5-0.8-0.6-1.3c-0.1-0.6-0.1-1.2-0.1-1.7
		c0.1-0.6,0.2-1.1,0.4-1.7s0.4-1.1,0.7-1.6s0.5-1,0.8-1.5c-0.2,0-0.4-0.1-0.5-0.2c-0.2-0.1-0.2-0.4,0-0.7c0.2-0.3,0.4-0.6,0.5-1
		s0.3-0.7,0.5-1c0.6-1.1,1.1-2.2,1.7-3.2c0.6-1.1,1-2.1,1.5-2.9c0.2-0.4,0.5-0.8,0.9-0.9s0.8-0.3,1.3-0.3h3.4
		c-0.3,0.2-0.6,0.5-1,0.7c-0.4,0.3-0.8,0.7-1.1,1.3c-1,1.6-1.9,3.3-2.7,4.9c-0.8,1.6-1.6,3.3-2.4,5c-0.7,1.5-1,2.7-1.1,3.6
		c-0.1,1,0.1,1.7,0.4,2c0.4,0.4,0.9,0.4,1.6,0.2c0.7-0.3,1.5-0.9,2.4-2c0.8-0.9,1.6-2,2.4-3.2c0.8-1.2,1.6-2.5,2.4-3.8
		c0.8-1.3,1.5-2.6,2.2-3.9c0.7-1.3,1.3-2.5,1.8-3.6c0.2-0.4,0.5-0.8,0.9-0.9c0.4-0.2,0.8-0.3,1.3-0.3h3c-0.5,0.4-1,0.8-1.4,1.3
		c-0.4,0.5-0.8,1-1.1,1.6c-0.3,0.6-0.7,1.3-1,2c-0.3,0.8-0.6,1.6-1,2.5c-0.7,1.9-1.4,4-2.2,6.2c-0.7,2.2-1.5,4.4-2.3,6.7
		c0.6-0.2,1.3-0.4,2-0.7c0.7-0.3,1.4-0.7,2.2-1.1c0.7-0.4,1.4-1,2.1-1.6c0.7-0.6,1.3-1.3,1.8-2.1c0.9-1.3,1.6-2.5,2.2-3.6
		c0.6-1.2,1-2,1.3-2.5c0.3-0.5,0.5-0.7,0.8-0.5C76.9,34.1,76.9,34.4,76.6,35z M59.3,49.2c-0.9,0.2-1.9,0.5-2.9,0.7
		c-1,0.3-2.1,0.5-3.1,0.8s-2.1,0.6-3,0.9c-1,0.3-1.8,0.6-2.6,1c-1.4,0.6-2.6,1.5-3.6,2.5s-1.6,2-1.9,3c-0.3,1-0.3,1.8,0.1,2.5
		c0.4,0.7,1.2,1.1,2.4,1.1c1.2,0,2.5-0.4,3.8-1.1c1.3-0.8,2.6-1.7,3.8-2.8c1.2-1.1,2.3-2.2,3.4-3.4c1-1.2,1.9-2.2,2.5-3.1
		c0.2-0.3,0.4-0.6,0.6-1C58.9,49.9,59.1,49.6,59.3,49.2z"/>
	<path id="XMLID_13_" class="st0" d="M90.5,17.6c-1.3,2.9-2.9,5.8-4.6,8.7c-1.8,2.9-4.1,5.6-6.8,8.1c-0.2,0.5-0.3,1-0.6,1.7
		s-0.4,1.3-0.6,2c-0.4,1.7-0.5,3-0.2,4c0.3,1,0.7,1.6,1.4,1.9c0.7,0.3,1.4,0.2,2.2-0.2c0.8-0.4,1.6-1.1,2.4-2.2
		c0.4-0.7,0.9-1.3,1.3-2c0.4-0.7,0.8-1.3,1.2-2c0.4-0.6,0.7-1.2,1-1.8c0.3-0.5,0.5-1,0.7-1.4c0.3-0.5,0.5-0.7,0.8-0.6
		c0.3,0.1,0.3,0.4,0,0.9c-0.3,0.7-0.8,1.7-1.3,2.9c-0.6,1.2-1.2,2.4-2,3.5s-1.7,2.1-2.8,2.9s-2.3,1.2-3.8,1.2c-1,0-1.9-0.2-2.4-0.6
		c-0.6-0.4-1-0.9-1.2-1.5c-0.2-0.6-0.4-1.3-0.3-2.1c0-0.8,0.1-1.6,0.3-2.4c0.1-0.8,0.3-1.6,0.6-2.4c0.2-0.8,0.4-1.4,0.6-2
		c0.4-1.6,1-3.2,1.6-5c0.6-1.8,1.3-3.5,2.1-5.2c0.7-1.7,1.5-3.4,2.4-5.1c0.8-1.6,1.6-3.1,2.5-4.5c1-1.7,2.1-2.9,3.2-3.6
		s2.1-1,2.8-0.7c0.7,0.2,1.2,1,1.3,2.2C91.9,13.6,91.5,15.3,90.5,17.6z M89.6,16.7c0.3-0.6,0.5-1.3,0.7-2.1c0.2-0.7,0.3-1.3,0.2-1.8
		c-0.1-0.4-0.3-0.6-0.6-0.5c-0.3,0.1-0.9,0.7-1.6,1.8c-0.7,1-1.4,2.3-2.3,3.9c-0.9,1.6-1.7,3.3-2.5,5.1c-0.8,1.8-1.6,3.5-2.3,5.2
		c-0.7,1.7-1.3,3.1-1.7,4.2c1-1,2-2.2,3-3.4c1-1.3,1.9-2.6,2.8-4c0.9-1.4,1.7-2.8,2.5-4.3C88.4,19.4,89.1,18,89.6,16.7z"/>
	<path id="XMLID_16_" class="st0" d="M108.2,34.9c-0.4,0.9-0.9,1.9-1.5,3c-0.6,1.2-1.3,2.3-2,3.4c-0.7,1.1-1.5,2-2.4,2.8
		c-0.8,0.8-1.7,1.2-2.5,1.3c-0.4,0-0.9,0-1.5-0.3c-0.5-0.2-1-0.6-1.3-1.1s-0.5-1.3-0.6-2.2s0.1-2.2,0.5-3.6c-0.4,0.7-1,1.6-1.7,2.6
		c-0.7,1-1.5,1.9-2.3,2.7c-1.1,1-2.1,1.7-3,1.8c-0.9,0.2-1.7,0-2.3-0.4c-0.6-0.5-1.1-1.2-1.4-2.2c-0.3-1-0.3-2.2-0.1-3.6
		c0.2-1.4,0.6-2.9,1.4-4.5c0.7-1.6,1.8-3.3,3.2-5c0.8-1,1.8-1.9,3-2.6c1.2-0.7,2.4-1.2,3.6-1.5c1.2-0.3,2.4-0.3,3.5-0.1
		c1.1,0.2,2.1,0.8,2.9,1.6c0.4,0.4,0.5,0.8,0.4,1.2c-0.2,0.4-0.5,0.5-1,0.4c-0.3-1-0.9-1.7-1.8-1.9s-1.9-0.1-2.9,0.5
		c-1.3,0.7-2.6,1.8-3.9,3.3c-1.3,1.5-2.5,3.1-3.5,4.7c-0.1,0.2-0.3,0.5-0.5,0.9c-0.2,0.4-0.5,0.9-0.7,1.4c-0.2,0.5-0.5,1.1-0.7,1.7
		s-0.3,1.1-0.4,1.7c-0.1,1-0.1,1.7,0.2,2.1c0.3,0.4,0.7,0.7,1.2,0.7s1.1-0.2,1.8-0.6c0.7-0.4,1.3-1,2-1.8c1-1.2,1.9-2.5,2.7-3.8
		c0.8-1.3,1.6-2.7,2.3-4.1c0.6-1.2,1.2-2.1,1.7-2.7c0.5-0.6,1.2-0.9,2.1-0.8c0.4,0,0.8,0.1,1.1,0.2c0.4,0.1,0.8,0.1,1.2,0
		c-0.3,0.3-0.7,0.8-1.2,1.7c-0.5,0.8-1,1.7-1.6,2.7c-0.5,1-1,2.1-1.5,3.2c-0.4,1.1-0.8,2.1-1,2.9c-0.4,2.2-0.3,3.4,0.6,3.4
		c0.6,0,1.3-0.3,2-1.1c0.7-0.7,1.4-1.6,2.1-2.7c0.7-1,1.3-2.1,1.9-3.2c0.6-1.1,1-1.9,1.3-2.5c0.3-0.5,0.5-0.7,0.8-0.6
		C108.4,34,108.4,34.3,108.2,34.9z"/>
	<path id="XMLID_18_" class="st0" d="M126.9,34.9c-0.4,0.9-0.9,1.9-1.5,3.1c-0.6,1.2-1.3,2.3-2.1,3.4c-0.8,1.1-1.6,2-2.6,2.8
		s-1.9,1.2-3,1.2c-0.5,0-1-0.1-1.5-0.3c-0.5-0.2-1-0.5-1.3-1c-0.4-0.5-0.6-1.2-0.6-2c-0.1-0.8,0.1-1.9,0.5-3.2
		c0.2-0.7,0.6-1.6,1.1-2.5c0.5-1,1.2-2.1,2-3.3c0.3-0.6,0.5-1,0.6-1.5c0-0.4-0.1-0.7-0.4-0.7c-0.3-0.1-0.8,0.1-1.5,0.4
		c-0.7,0.4-1.5,1.1-2.6,2.1c-1,0.9-2.1,2.1-3.4,3.9c-1.3,1.7-2.8,4.1-4.3,7.2c-0.2,0.4-0.5,0.7-0.8,0.7c-0.3,0.1-0.7,0.1-1.3,0.1
		c-0.4,0-0.8,0.1-1,0.1c-0.3,0-0.6,0.1-0.9,0.3c1.3-2.7,2.6-5.3,3.8-8c1.2-2.6,2.5-5.2,3.9-7.7c0.7-1.3,1.3-2.3,1.8-2.8
		c0.5-0.5,1.2-0.8,2.1-0.7c0.4,0,0.8,0.1,1.1,0.2c0.4,0.1,0.8,0.1,1.2,0c-0.4,0.2-0.9,0.7-1.5,1.5c-0.6,0.7-1.2,1.6-1.8,2.6
		c-0.6,1-1.2,2.1-1.8,3.2c-0.6,1.1-1.2,2.2-1.7,3.2c0.6-0.7,1.3-1.5,2.1-2.5c0.8-1,1.7-1.8,2.5-2.5c0.7-0.6,1.5-1.2,2.5-1.9
		c1-0.7,2-1.3,3-1.8c1-0.5,2-1,2.8-1.3c0.9-0.3,1.6-0.4,2-0.2c-1.1,2-2.1,3.9-3.1,5.8c-0.4,0.8-0.8,1.6-1.2,2.4
		c-0.4,0.8-0.8,1.6-1.1,2.4c-0.3,0.8-0.6,1.5-0.9,2.2c-0.2,0.7-0.4,1.3-0.5,1.7c-0.2,1.2-0.2,1.9,0,2.3c0.2,0.4,0.5,0.5,0.9,0.5
		c0.7,0,1.5-0.4,2.2-1.2c0.8-0.8,1.5-1.7,2.2-2.8c0.7-1.1,1.3-2.1,1.9-3.2c0.6-1.1,1-1.9,1.3-2.5c0.2-0.5,0.5-0.7,0.8-0.5
		S127.2,34.3,126.9,34.9z"/>
	<path id="XMLID_20_" class="st0" d="M169.8,34.9c-0.4,0.9-0.9,1.9-1.5,3.1c-0.6,1.2-1.3,2.3-2.1,3.4c-0.8,1.1-1.7,2-2.6,2.8
		s-2,1.2-3,1.2c-0.5,0-1-0.1-1.6-0.3c-0.5-0.2-1-0.5-1.3-1c-0.4-0.5-0.6-1.2-0.6-2s0.1-1.9,0.5-3.2c0.2-0.7,0.6-1.6,1.1-2.5
		s1.2-2.1,2-3.3c0.3-0.6,0.5-1,0.6-1.5c0-0.4-0.1-0.7-0.4-0.7c-0.3-0.1-0.8,0.1-1.5,0.4c-0.7,0.4-1.5,1.1-2.6,2.1
		c-0.6,0.6-1.3,1.3-2.2,2.3s-1.7,2.1-2.4,3.2c-0.8,1.1-1.5,2.3-2.1,3.4c-0.6,1.1-1,2.1-1.2,2.9c-0.6,0-1.1-0.3-1.5-0.9
		c-0.4-0.6-0.5-1.3-0.3-2.2c0.2-1.2,0.5-2.3,1-3.3c0.4-1,0.9-2,1.4-3.1c0.4-0.9,0.9-1.8,1.2-2.7c0.4-0.9,0.6-1.5,0.5-2
		c0-0.4-0.3-0.5-0.9-0.2c-0.6,0.3-1.6,1.1-3.1,2.5c-1,0.9-2.1,2.1-3.4,3.8c-1.3,1.7-2.7,4.1-4.3,7.1c-0.2,0.4-0.4,0.7-0.7,0.8
		c-0.3,0.1-0.8,0.1-1.4,0.1c-0.4,0-0.7,0.1-1,0.1c-0.3,0-0.5,0.1-0.8,0.3c1.3-2.7,2.6-5.3,3.8-7.9s2.5-5.1,3.8-7.7
		c0.7-1.3,1.3-2.3,1.8-2.8c0.5-0.5,1.2-0.8,2.1-0.7c0.4,0,0.8,0.1,1.1,0.2c0.4,0.1,0.8,0.1,1.2,0c-0.4,0.2-0.9,0.7-1.5,1.5
		c-0.6,0.7-1.2,1.6-1.8,2.6c-0.6,1-1.2,2.1-1.8,3.2c-0.6,1.1-1.2,2.2-1.7,3.2c0.6-0.7,1.3-1.5,2.1-2.5c0.8-1,1.7-1.8,2.5-2.5
		c0.7-0.6,1.4-1.2,2.2-1.9c0.8-0.7,1.5-1.3,2.2-1.8c0.7-0.5,1.4-1,2.1-1.3c0.7-0.3,1.2-0.4,1.7-0.2c0.5,0.2,0.9,0.5,1,1
		c0.1,0.4,0.1,1-0.2,1.5c-0.5,1.2-1.2,2.5-1.9,3.8c-0.8,1.3-1.5,2.7-2.2,4.1c0.6-0.7,1.3-1.5,2.1-2.5c0.8-1,1.7-1.8,2.5-2.5
		c0.7-0.6,1.5-1.2,2.5-1.9c1-0.7,2-1.3,3-1.8c1-0.5,2-1,2.9-1.3c0.9-0.3,1.6-0.4,2-0.2c-1.1,2-2.1,3.9-3.1,5.8
		c-0.4,0.8-0.8,1.6-1.2,2.4c-0.4,0.8-0.7,1.6-1.1,2.4c-0.3,0.8-0.6,1.5-0.9,2.2c-0.2,0.7-0.4,1.3-0.5,1.7c-0.2,1.2-0.2,1.9,0.1,2.3
		c0.2,0.4,0.5,0.5,0.9,0.5c0.7,0,1.5-0.4,2.2-1.1c0.8-0.8,1.5-1.7,2.2-2.7c0.7-1,1.3-2.1,1.9-3.2c0.6-1.1,1-2,1.3-2.6
		c0.2-0.5,0.5-0.7,0.8-0.5S170.1,34.3,169.8,34.9z"/>
	<path id="XMLID_22_" class="st0" d="M198.2,34.9c-0.4,0.9-0.9,1.9-1.5,3.1c-0.6,1.2-1.3,2.3-2.1,3.4c-0.8,1.1-1.7,2-2.6,2.8
		s-2,1.2-3,1.2c-0.5,0-1-0.1-1.6-0.3c-0.5-0.2-1-0.5-1.3-1c-0.4-0.5-0.6-1.2-0.6-2s0.1-1.9,0.5-3.2c0.2-0.7,0.6-1.6,1.1-2.5
		s1.2-2.1,2-3.3c0.3-0.6,0.5-1,0.6-1.5c0-0.4-0.1-0.7-0.4-0.7c-0.3-0.1-0.8,0.1-1.5,0.4c-0.7,0.4-1.5,1.1-2.6,2.1
		c-0.6,0.6-1.3,1.3-2.2,2.3s-1.7,2.1-2.4,3.2c-0.8,1.1-1.5,2.3-2.1,3.4c-0.6,1.1-1,2.1-1.2,2.9c-0.6,0-1.1-0.3-1.5-0.9
		c-0.4-0.6-0.5-1.3-0.3-2.2c0.2-1.2,0.5-2.3,1-3.3c0.4-1,0.9-2,1.4-3.1c0.4-0.9,0.9-1.8,1.2-2.7c0.4-0.9,0.6-1.5,0.5-2
		c0-0.4-0.3-0.5-0.9-0.2c-0.6,0.3-1.6,1.1-3.1,2.5c-1,0.9-2.1,2.1-3.4,3.8c-1.3,1.7-2.7,4.1-4.3,7.1c-0.2,0.4-0.4,0.7-0.7,0.8
		c-0.3,0.1-0.8,0.1-1.4,0.1c-0.4,0-0.7,0.1-1,0.1c-0.3,0-0.5,0.1-0.8,0.3c1.3-2.7,2.6-5.3,3.8-7.9s2.5-5.1,3.8-7.7
		c0.7-1.3,1.3-2.3,1.8-2.8c0.5-0.5,1.2-0.8,2.1-0.7c0.4,0,0.8,0.1,1.1,0.2c0.4,0.1,0.8,0.1,1.2,0c-0.4,0.2-0.9,0.7-1.5,1.5
		c-0.6,0.7-1.2,1.6-1.8,2.6c-0.6,1-1.2,2.1-1.8,3.2c-0.6,1.1-1.2,2.2-1.7,3.2c0.6-0.7,1.3-1.5,2.1-2.5c0.8-1,1.7-1.8,2.5-2.5
		c0.7-0.6,1.4-1.2,2.2-1.9c0.8-0.7,1.5-1.3,2.2-1.8c0.7-0.5,1.4-1,2.1-1.3c0.7-0.3,1.2-0.4,1.7-0.2c0.5,0.2,0.9,0.5,1,1
		c0.1,0.4,0.1,1-0.2,1.5c-0.5,1.2-1.2,2.5-1.9,3.8c-0.8,1.3-1.5,2.7-2.2,4.1c0.6-0.7,1.3-1.5,2.1-2.5c0.8-1,1.7-1.8,2.5-2.5
		c0.7-0.6,1.5-1.2,2.5-1.9c1-0.7,2-1.3,3-1.8c1-0.5,2-1,2.9-1.3c0.9-0.3,1.6-0.4,2-0.2c-1.1,2-2.1,3.9-3.1,5.8
		c-0.4,0.8-0.8,1.6-1.2,2.4c-0.4,0.8-0.7,1.6-1.1,2.4c-0.3,0.8-0.6,1.5-0.9,2.2c-0.2,0.7-0.4,1.3-0.5,1.7c-0.2,1.2-0.2,1.9,0.1,2.3
		c0.2,0.4,0.5,0.5,0.9,0.5c0.7,0,1.5-0.4,2.2-1.1c0.8-0.8,1.5-1.7,2.2-2.7c0.7-1,1.3-2.1,1.9-3.2c0.6-1.1,1-2,1.3-2.6
		c0.2-0.5,0.5-0.7,0.8-0.5S198.5,34.3,198.2,34.9z"/>
	<path id="XMLID_24_" class="st0" d="M213.2,34.9c-0.7,1.5-1.3,2.8-2,4.1c-0.7,1.3-1.4,2.4-2.3,3.3c-0.8,1-1.8,1.7-2.9,2.2
		c-1.1,0.5-2.4,0.8-3.9,0.8c-1.5,0-2.6-0.3-3.5-0.8c-0.9-0.5-1.5-1.2-1.8-2s-0.5-1.8-0.5-2.9c0.1-1.1,0.3-2.2,0.6-3.4
		c0.4-1.2,0.8-2.3,1.4-3.4c0.6-1.1,1.2-2.1,1.9-3c1-1.4,2.2-2.5,3.5-3.3c1.3-0.8,2.6-1.1,4-1.1c1.4,0,2.5,0.4,3.1,1.1
		c0.7,0.7,0.9,1.6,0.8,2.8c-0.1,0.4-0.3,0.9-0.5,1.4c-0.3,0.5-0.6,0.9-1,1.2c-0.4,0.3-0.8,0.6-1.2,0.6c-0.4,0.1-0.8,0-1.1-0.3
		c0.3-0.4,0.6-0.8,1-1.3c0.4-0.5,0.6-1,0.8-1.5c0.3-1,0.3-1.7,0-2.1c-0.2-0.4-0.6-0.6-1.1-0.6c-0.5,0-1,0.1-1.6,0.4
		c-0.5,0.3-1.1,0.7-1.6,1.1c-0.5,0.4-1.1,1-1.5,1.5c-0.5,0.6-0.9,1.1-1.3,1.7c-0.3,0.4-0.6,0.9-0.9,1.5c-0.4,0.6-0.7,1.3-1,2.1
		c-0.3,0.8-0.6,1.6-0.8,2.4c-0.2,0.9-0.3,1.7-0.3,2.5c0,1.1,0.3,2.1,0.8,3c0.5,0.9,1.4,1.3,2.5,1.3c1.2,0,2.3-0.3,3.3-0.9
		s1.8-1.4,2.6-2.4c0.8-1,1.5-2,2.1-3.2c0.6-1.2,1.2-2.3,1.8-3.4c0.3-0.5,0.5-0.7,0.8-0.6C213.4,34,213.4,34.4,213.2,34.9z"/>
</g>
<g id="XMLID_2_">
	<path id="XMLID_26_" class="st0" d="M78.7,54.9h2.7c0.9,0,1.6,0.2,2.1,0.7c0.5,0.5,0.7,1.2,0.7,2v2.4c0,0.9-0.2,1.5-0.7,2
		c-0.5,0.5-1.2,0.7-2.1,0.7h-2.7V54.9z M82.9,57.7c0-0.6-0.1-1-0.4-1.3c-0.2-0.3-0.6-0.4-1.1-0.4h-1.4v5.7h1.4
		c0.5,0,0.8-0.1,1.1-0.4c0.2-0.3,0.4-0.7,0.4-1.3V57.7z"/>
	<path id="XMLID_29_" class="st0" d="M86.8,54.9h1.4v8h-1.4V54.9z"/>
	<path id="XMLID_31_" class="st0" d="M92.9,54.8c0.6,0,1.1,0.1,1.6,0.4c0.4,0.3,0.7,0.7,0.9,1.2l-1,0.4c-0.2-0.7-0.7-1-1.4-1
		c-0.7,0-1.1,0.3-1.1,1c0,0.3,0.1,0.5,0.4,0.7c0.2,0.2,0.5,0.4,0.9,0.6s0.7,0.3,1,0.5s0.6,0.5,0.9,0.8s0.4,0.8,0.4,1.2
		c0,0.7-0.2,1.3-0.7,1.7c-0.4,0.4-1,0.6-1.8,0.6c-0.6,0-1.1-0.2-1.6-0.5c-0.5-0.3-0.8-0.8-0.9-1.3l1-0.4c0.1,0.4,0.3,0.6,0.6,0.8
		c0.3,0.2,0.6,0.3,0.9,0.3c0.8,0,1.2-0.3,1.2-1c0-0.3-0.1-0.6-0.4-0.8c-0.3-0.2-0.6-0.4-0.9-0.6c-0.4-0.2-0.7-0.3-1.1-0.5
		c-0.4-0.2-0.7-0.5-0.9-0.8c-0.2-0.3-0.4-0.8-0.4-1.2c0-0.6,0.2-1.1,0.6-1.5C91.6,55,92.2,54.8,92.9,54.8z"/>
	<path id="XMLID_33_" class="st0" d="M97,54.9h5.1v1.2h-1.9v6.8h-1.4v-6.8H97V54.9z"/>
	<path id="XMLID_35_" class="st0" d="M108.1,62.9l-1.6-3.3h-1v3.3h-1.4v-8h2.5c0.8,0,1.4,0.2,1.8,0.6c0.4,0.4,0.6,1,0.6,1.7
		c0,0.6-0.1,1-0.4,1.4c-0.2,0.4-0.6,0.6-1,0.7l1.8,3.5H108.1z M105.5,56v2.5h1.1c0.4,0,0.7-0.1,0.9-0.3c0.2-0.2,0.2-0.5,0.2-1
		s-0.1-0.8-0.2-0.9c-0.2-0.2-0.4-0.3-0.9-0.3H105.5z"/>
	<path id="XMLID_38_" class="st0" d="M111.8,54.9h1.4v8h-1.4V54.9z"/>
	<path id="XMLID_40_" class="st0" d="M120.8,56.9c0,0.9-0.3,1.5-1,1.7v0c0.9,0.2,1.4,0.8,1.4,1.9c0,0.7-0.2,1.3-0.6,1.7
		s-1,0.6-1.9,0.6H116v-8h2.4c0.8,0,1.4,0.2,1.8,0.5C120.6,55.8,120.8,56.3,120.8,56.9z M117.3,56v2.2h1.1c0.4,0,0.7-0.1,0.8-0.3
		c0.2-0.2,0.3-0.5,0.3-0.9c0-0.4-0.1-0.7-0.3-0.8c-0.2-0.2-0.4-0.2-0.8-0.2H117.3z M117.3,59.3v2.5h1.3c0.4,0,0.7-0.1,0.9-0.3
		c0.2-0.2,0.3-0.5,0.3-1c0-0.4-0.1-0.8-0.3-0.9c-0.2-0.2-0.5-0.3-0.9-0.3H117.3z"/>
	<path id="XMLID_44_" class="st0" d="M127.5,54.9h1.4v5.4c0,0.9-0.2,1.5-0.7,2c-0.5,0.5-1.2,0.7-2,0.7c-0.9,0-1.6-0.2-2-0.7
		s-0.7-1.1-0.7-2v-5.4h1.4v5.4c0,0.5,0.1,0.9,0.4,1.1s0.6,0.3,1,0.3c0.9,0,1.4-0.5,1.4-1.4V54.9z"/>
	<path id="XMLID_46_" class="st0" d="M130.8,54.9h5.1v1.2h-1.9v6.8h-1.4v-6.8h-1.9V54.9z"/>
	<path id="XMLID_48_" class="st0" d="M138.1,54.9h1.4v8h-1.4V54.9z"/>
	<path id="XMLID_50_" class="st0" d="M142.8,55.5c0.5-0.5,1.2-0.7,2-0.7c0.9,0,1.6,0.2,2.1,0.7c0.5,0.5,0.7,1.2,0.7,2v2.7
		c0,0.9-0.2,1.5-0.7,2s-1.2,0.7-2.1,0.7c-0.9,0-1.6-0.2-2-0.7s-0.7-1.2-0.7-2v-2.7C142.1,56.7,142.3,56,142.8,55.5z M146.2,60.2
		v-2.7c0-1.1-0.5-1.6-1.4-1.6c-0.5,0-0.8,0.1-1,0.4c-0.2,0.3-0.3,0.7-0.3,1.2v2.7c0,1.1,0.5,1.7,1.4,1.7
		C145.8,61.9,146.2,61.3,146.2,60.2z"/>
	<path id="XMLID_53_" class="st0" d="M150,54.9h1l3,5.2h0v-5.2h1.2v8h-1l-3.1-5.3h0v5.3H150V54.9z"/>
	<path id="XMLID_55_" class="st0" d="M163.8,54.8c0.6,0,1.1,0.2,1.5,0.5s0.7,0.8,0.9,1.3l-1,0.4c-0.2-0.7-0.6-1-1.3-1
		c-0.9,0-1.3,0.5-1.3,1.6v2.8c0,0.5,0.1,0.8,0.3,1.1s0.5,0.4,1,0.4c0.3,0,0.6-0.1,0.8-0.2s0.3-0.4,0.5-0.8l1,0.3
		c-0.3,1.2-1.1,1.8-2.4,1.8c-0.8,0-1.4-0.2-1.9-0.7c-0.5-0.5-0.7-1.1-0.7-1.9v-2.8c0-0.8,0.2-1.5,0.7-2S163,54.8,163.8,54.8z"/>
	<path id="XMLID_57_" class="st0" d="M168.8,55.5c0.5-0.5,1.2-0.7,2-0.7c0.9,0,1.6,0.2,2.1,0.7c0.5,0.5,0.7,1.2,0.7,2v2.7
		c0,0.9-0.2,1.5-0.7,2s-1.2,0.7-2.1,0.7c-0.9,0-1.6-0.2-2-0.7s-0.7-1.2-0.7-2v-2.7C168.1,56.7,168.4,56,168.8,55.5z M172.3,60.2
		v-2.7c0-1.1-0.5-1.6-1.4-1.6c-0.5,0-0.8,0.1-1,0.4c-0.2,0.3-0.3,0.7-0.3,1.2v2.7c0,1.1,0.5,1.7,1.4,1.7
		C171.8,61.9,172.3,61.3,172.3,60.2z"/>
	<path id="XMLID_60_" class="st0" d="M181.9,54.9h1.3v8H182v-5.3h0l-2,3.9h-0.6l-2-3.9h0v5.3h-1.2v-8h1.3l2.3,4.8h0L181.9,54.9z"/>
	<path id="XMLID_62_" class="st0" d="M188.6,54.9c0.8,0,1.3,0.2,1.8,0.7c0.4,0.4,0.6,1.1,0.6,1.9c0,0.8-0.2,1.4-0.6,1.8
		c-0.4,0.4-1,0.7-1.7,0.7h-1.4v2.9h-1.4v-8H188.6z M187.3,56v2.8h1.3c0.4,0,0.6-0.1,0.8-0.3s0.2-0.6,0.2-1.1c0-0.5-0.1-0.9-0.2-1.1
		c-0.2-0.2-0.4-0.3-0.8-0.3H187.3z"/>
	<path id="XMLID_65_" class="st0" d="M193.9,61l-0.5,1.8H192l2.5-8h1.5l2.5,8h-1.4l-0.5-1.8H193.9z M195.2,56.1l-1,3.9h2.1
		L195.2,56.1L195.2,56.1z"/>
	<path id="XMLID_68_" class="st0" d="M200.5,54.9h1l3,5.2h0v-5.2h1.2v8h-1l-3.1-5.3h0v5.3h-1.2V54.9z"/>
	<path id="XMLID_70_" class="st0" d="M212.9,54.9l-2.4,5.4v2.6h-1.4v-2.6l-2.4-5.4h1.5l1.6,4.1h0l1.6-4.1H212.9z"/>
</g>
</svg>
