<?xml version="1.0" encoding="UTF-8"?>
<svg width="62px" height="62px" viewBox="0 0 62 62" version="1.1" xmlns="http://www.w3.org/2000/svg" xmlns:xlink="http://www.w3.org/1999/xlink">
    <!-- Generator: Sketch 41.2 (35397) - http://www.bohemiancoding.com/sketch -->
    <title>Group 4</title>
    <desc>Created with Sketch.</desc>
    <defs></defs>
    <g id="Page-1" stroke="none" stroke-width="1" fill="none" fill-rule="evenodd">
        <g id="00.Home" transform="translate(-1570.000000, -1227.000000)" fill="#2886B7">
            <g id="Group-4" transform="translate(1570.000000, 1227.000000)">
                <path d="M61.0805085,37.5487306 L58.0866441,34.458026 C56.9012881,33.2358421 54.835322,33.2358421 53.6499661,34.458026 L37.4774237,51.1489155 L35.2485763,59.5849125 L34.7031864,60.1477461 C34.2954576,60.5685157 34.2944068,61.2473863 34.6968814,61.6714093 L34.6916271,61.6930985 L34.7115932,61.6876762 C34.9154576,61.8948076 35.1802712,62 35.4461356,62 C35.7151525,62 35.9841695,61.8937231 36.1890847,61.6822539 L36.7355254,61.1183358 L44.9090169,58.8182009 L61.0815593,42.1273113 C62.3047458,40.8650025 62.3047458,38.8110395 61.0805085,37.5487306 Z M39.9038305,51.7128336 L50.667661,40.6047326 L55.1264068,45.206087 L44.3625763,56.3141879 L39.9038305,51.7128336 Z M38.9549153,53.8014993 L42.3386441,57.2934533 L37.6854915,58.6034783 L38.9549153,53.8014993 Z M59.5946102,40.5938881 L56.6123051,43.6726637 L52.1535593,39.0713093 L55.1369153,35.9925337 C55.5278305,35.588031 56.2098305,35.588031 56.6007458,35.9925337 L59.595661,39.0832384 C59.9991864,39.4985857 59.9991864,40.1774563 59.5946102,40.5938881 Z" id="Shape"></path>
                <path d="M37.8305085,34.8874713 L47.2881356,34.8874713 L47.2881356,22.9584358 L37.8305085,22.9584358 L35.7288136,22.9584358 L28.3728814,22.9584358 L26.2711864,22.9584358 L18.9152542,22.9584358 L16.8135593,22.9584358 L7.3559322,22.9584358 L7.3559322,32.7185557 L7.3559322,34.8874713 L7.3559322,42.4786757 L7.3559322,44.6475912 L7.3559322,54.4077111 L16.8135593,54.4077111 L18.9152542,54.4077111 L28.3728814,54.4077111 L28.3728814,44.6475912 L28.3728814,42.4786757 L28.3728814,34.8874713 L35.7288136,34.8874713 L37.8305085,34.8874713 Z M37.8305085,25.1273513 L45.1864407,25.1273513 L45.1864407,32.7185557 L37.8305085,32.7185557 L37.8305085,25.1273513 Z M18.9152542,25.1273513 L26.2711864,25.1273513 L26.2711864,32.7185557 L18.9152542,32.7185557 L18.9152542,25.1273513 Z M9.45762712,25.1273513 L16.8135593,25.1273513 L16.8135593,32.7185557 L9.45762712,32.7185557 L9.45762712,25.1273513 Z M9.45762712,34.8874713 L16.8135593,34.8874713 L16.8135593,42.4786757 L9.45762712,42.4786757 L9.45762712,34.8874713 Z M16.8135593,52.2387956 L9.45762712,52.2387956 L9.45762712,44.6475912 L16.8135593,44.6475912 L16.8135593,52.2387956 Z M26.2711864,52.2387956 L18.9152542,52.2387956 L18.9152542,44.6475912 L26.2711864,44.6475912 L26.2711864,52.2387956 Z M26.2711864,42.4786757 L18.9152542,42.4786757 L18.9152542,34.8874713 L26.2711864,34.8874713 L26.2711864,42.4786757 Z M28.3728814,32.7185557 L28.3728814,25.1273513 L35.7288136,25.1273513 L35.7288136,32.7185557 L28.3728814,32.7185557 Z" id="Shape"></path>
                <path d="M27.3220339,59.83 L2.10169492,59.83 L2.10169492,17.5361469 L52.5423729,17.5361469 L52.5423729,31.634098 C52.5423729,32.2338031 53.0131525,32.7185557 53.5932203,32.7185557 C54.1732881,32.7185557 54.6440678,32.2338031 54.6440678,31.634098 L54.6440678,16.4516892 L54.6440678,5.60711144 C54.6440678,5.0074063 54.1732881,4.52265367 53.5932203,4.52265367 L48.3389831,4.52265367 L48.3389831,1.26928036 C48.3389831,0.669575212 47.8682034,0.184822589 47.2881356,0.184822589 L39.9322034,0.184822589 C39.3521356,0.184822589 38.8813559,0.669575212 38.8813559,1.26928036 L38.8813559,4.52265367 L15.7627119,4.52265367 L15.7627119,1.26928036 C15.7627119,0.669575212 15.2919322,0.184822589 14.7118644,0.184822589 L7.3559322,0.184822589 C6.77586441,0.184822589 6.30508475,0.669575212 6.30508475,1.26928036 L6.30508475,4.52265367 L1.05084746,4.52265367 C0.470779661,4.52265367 0,5.0074063 0,5.60711144 L0,16.4516892 L0,60.9144578 C0,61.5141629 0.470779661,61.9989155 1.05084746,61.9989155 L27.3220339,61.9989155 C27.9021017,61.9989155 28.3728814,61.5141629 28.3728814,60.9144578 C28.3728814,60.3147526 27.9021017,59.83 27.3220339,59.83 Z M40.9830508,2.35373813 L46.2372881,2.35373813 L46.2372881,5.60711144 L46.2372881,8.86048476 L40.9830508,8.86048476 L40.9830508,5.60711144 L40.9830508,2.35373813 Z M8.40677966,2.35373813 L13.6610169,2.35373813 L13.6610169,5.60711144 L13.6610169,8.86048476 L8.40677966,8.86048476 L8.40677966,5.60711144 L8.40677966,2.35373813 Z M2.10169492,6.69156922 L6.30508475,6.69156922 L6.30508475,9.94494253 C6.30508475,10.5446477 6.77586441,11.0294003 7.3559322,11.0294003 L14.7118644,11.0294003 C15.2919322,11.0294003 15.7627119,10.5446477 15.7627119,9.94494253 L15.7627119,6.69156922 L38.8813559,6.69156922 L38.8813559,9.94494253 C38.8813559,10.5446477 39.3521356,11.0294003 39.9322034,11.0294003 L47.2881356,11.0294003 C47.8682034,11.0294003 48.3389831,10.5446477 48.3389831,9.94494253 L48.3389831,6.69156922 L52.5423729,6.69156922 L52.5423729,15.3672314 L2.10169492,15.3672314 L2.10169492,6.69156922 Z" id="Shape"></path>
            </g>
        </g>
    </g>
</svg>