<?xml version="1.0" encoding="UTF-8"?>
<svg width="62px" height="70px" viewBox="0 0 62 70" version="1.1" xmlns="http://www.w3.org/2000/svg" xmlns:xlink="http://www.w3.org/1999/xlink">
    <!-- Generator: Sketch 41.2 (35397) - http://www.bohemiancoding.com/sketch -->
    <title>Group 3</title>
    <desc>Created with Sketch.</desc>
    <defs></defs>
    <g id="Page-1" stroke="none" stroke-width="1" fill="none" fill-rule="evenodd">
        <g id="00.Home" transform="translate(-655.000000, -1223.000000)" fill="#2886B7">
            <g id="Group-3" transform="translate(655.000000, 1223.000000)">
                <path d="M33.2231299,55.554092 C30.8292109,55.554092 28.8816157,57.4233333 28.8816157,59.7207816 C28.8816157,60.3873103 29.4446343,60.9276782 30.1391023,60.9276782 C30.8335702,60.9276782 31.3965888,60.3873103 31.3965888,59.7207816 C31.3965888,58.7542989 32.215967,57.9678851 33.2231299,57.9678851 C34.2302928,57.9678851 35.0496711,58.7542989 35.0496711,59.7207816 C35.0496711,60.6874253 34.2302928,61.4738391 33.2231299,61.4738391 C32.528662,61.4738391 31.9656434,62.0142069 31.9656434,62.6807356 C31.9656434,63.3472644 32.528662,63.8876322 33.2231299,63.8876322 C35.617049,63.8876322 37.5646442,62.0183908 37.5646442,59.7207816 C37.5644765,57.4233333 35.617049,55.554092 33.2231299,55.554092 Z" id="Shape"></path>
                <path d="M58.9980832,42.1068506 L40.5956897,52.3830115 C38.6829689,50.6122529 36.084331,49.5196092 33.2231299,49.5196092 C32.1807574,49.5196092 31.1740975,49.6668506 30.2215934,49.9363908 L11.5546247,18.310069 C10.7335698,16.9451494 9.40784369,15.9688506 7.82173399,15.5609195 C6.23545663,15.1526667 4.57876002,15.3623448 3.15679423,16.1503678 C1.73466078,16.9383908 0.717437992,18.2107816 0.292407539,19.7330805 C-0.132622915,21.2553793 0.0855090853,22.8454253 0.906563969,24.2103448 L3.08453067,23.0034483 C2.08290072,21.3385747 2.67945234,19.2018851 4.41428078,18.2407126 C6.14894156,17.2798621 8.37519574,17.851931 9.37146042,19.5082759 L27.8982612,50.8975632 C24.7302334,52.6655862 22.5940153,55.9571954 22.5940153,59.7206207 C22.5940153,65.3455632 27.362069,69.921954 33.2229623,69.921954 C39.0838556,69.921954 43.8519092,65.3457241 43.8519092,59.7206207 C43.8519092,57.7197471 43.2463037,55.8532414 42.2051048,54.2765517 L60.2627793,44.1930115 L58.9980832,42.1068506 Z M33.2231299,67.5083218 C28.7491605,67.5083218 25.1091561,64.0149195 25.1091561,59.7207816 C25.1091561,55.4266437 28.7489928,51.9334023 33.2231299,51.9334023 C37.6972671,51.9334023 41.3371038,55.4268046 41.3371038,59.7207816 C41.3371038,64.0147586 37.6970994,67.5083218 33.2231299,67.5083218 Z" id="Shape"></path>
                <path d="M39.2865624,38.470069 C39.5194489,38.8572414 39.9421321,39.0736782 40.3767194,39.0736782 C40.5899891,39.0736782 40.8062768,39.0215402 41.004289,38.9117931 L50.6170192,33.5850345 C51.2184331,33.2517701 51.4244932,32.5136322 51.0772593,31.9364138 C50.7300253,31.3591954 49.9609465,31.1614253 49.3595326,31.4946897 L39.7468025,36.8214483 C39.1453886,37.1547126 38.9393284,37.8928506 39.2865624,38.470069 Z" id="Shape"></path>
                <path d="M31.8687331,26.1386437 C32.1016196,26.5258161 32.5243027,26.7422529 32.9588901,26.7422529 C33.1721598,26.7422529 33.3884475,26.6901149 33.5864597,26.5803678 L43.1993575,21.2536092 C43.8007714,20.9203448 44.0068316,20.1822069 43.6595976,19.6049885 C43.3123637,19.0277701 42.5432849,18.8298391 41.941871,19.1632644 L32.3289732,24.490023 C31.7273916,24.8232874 31.5213315,25.5614253 31.8687331,26.1386437 Z" id="Shape"></path>
                <path d="M19.4246462,13.0027816 L36.9395895,3.29724138 L43.1000999,13.5381609 L34.8870361,18.0891264 L26.6739723,22.640092 L23.7881245,17.8427586 C23.4408906,17.2655402 22.6718118,17.0676092 22.0703979,17.4010345 C21.468984,17.7342989 21.2629239,18.4724368 21.6101578,19.0496552 L24.4960056,23.8469885 L24.4960056,23.8469885 L31.9140026,36.1784138 L31.9140026,36.1784138 L40.5894861,50.6001839 L61.3715471,39.0842989 L53.9535502,26.7530345 L53.9535502,26.7530345 L46.5355532,14.4216092 L46.5355532,14.4216092 L37.8602373,0 L18.1671597,10.9124368 C17.5657458,11.2457011 17.3596856,11.9838391 17.7069196,12.5610575 C18.0541535,13.1382759 18.8232323,13.336046 19.4246462,13.0027816 Z M51.7755835,27.959931 L57.9360939,38.2008506 L41.5101339,47.3029425 L35.3496235,37.062023 L43.5626873,32.5110575 L51.7755835,27.959931 Z M44.3575865,15.6286667 L50.5180969,25.8697471 L42.3050331,30.4207126 L34.0919693,34.9716782 L27.9314589,24.7305977 L36.1445227,20.1796322 L44.3575865,15.6286667 Z" id="Shape"></path>
                <path d="M25.5408931,14.4109885 C25.7541628,14.4109885 25.9704505,14.3588506 26.1684627,14.2491034 L35.7811929,8.92234483 C36.3826068,8.58908046 36.5886669,7.85094253 36.241433,7.27372414 C35.894199,6.69634483 35.1251202,6.49873563 34.5237063,6.832 L24.9109762,12.1587586 C24.3095623,12.492023 24.1035022,13.2301609 24.4507361,13.8073793 C24.6836226,14.1945517 25.1063058,14.4109885 25.5408931,14.4109885 Z" id="Shape"></path>
            </g>
        </g>
    </g>
</svg>