<?xml version="1.0" encoding="UTF-8"?>
<svg width="28px" height="28px" viewBox="0 0 28 28" version="1.1" xmlns="http://www.w3.org/2000/svg" xmlns:xlink="http://www.w3.org/1999/xlink">
    <!-- Generator: Sketch 41.2 (35397) - http://www.bohemiancoding.com/sketch -->
    <title>ins</title>
    <desc>Created with Sketch.</desc>
    <defs></defs>
    <g id="Page-1" stroke="none" stroke-width="1" fill="none" fill-rule="evenodd">
        <g id="00.Home" transform="translate(-901.000000, -3052.000000)" fill="#FFFFFF">
            <g id="ins" transform="translate(901.000000, 3052.000000)">
                <g id="Group-7">
                    <path d="M13.902,16.68576 C15.43584,16.68576 16.68632,15.43752 16.68632,13.90256 C16.68632,13.29664 16.48808,12.7372 16.15992,12.28024 C15.65424,11.57912 14.83216,11.11936 13.90368,11.11936 C12.97464,11.11936 12.15312,11.57856 11.64632,12.27968 C11.31704,12.73664 11.12048,13.29608 11.11992,13.902 C11.11824,15.43696 12.3676,16.68576 13.902,16.68576 Z" id="Shape"></path>
                    <polygon id="Shape" points="19.97968 10.49776 19.97968 8.1648 19.97968 7.8176 19.6308 7.81872 17.29896 7.826 17.30792 10.50672"></polygon>
                    <path d="M13.90256,0 C6.23672,0 0,6.23672 0,13.90256 C0,21.56784 6.23672,27.80512 13.90256,27.80512 C21.56784,27.80512 27.80512,21.56784 27.80512,13.90256 C27.80512,6.23672 21.56896,0 13.90256,0 Z M21.8092,12.28024 L21.8092,18.75384 C21.8092,20.44 20.43832,21.81032 18.75328,21.81032 L9.05184,21.81032 C7.36624,21.81032 5.99592,20.44 5.99592,18.75384 L5.99592,12.28024 L5.99592,9.0524 C5.99592,7.3668 7.36624,5.99648 9.05184,5.99648 L18.75272,5.99648 C20.43832,5.99648 21.8092,7.3668 21.8092,9.0524 L21.8092,12.28024 Z" id="Shape"></path>
                    <path d="M18.22744,13.90256 C18.22744,16.28648 16.2876,18.22744 13.90256,18.22744 C11.51752,18.22744 9.57824,16.28648 9.57824,13.90256 C9.57824,13.32912 9.69248,12.78088 9.89632,12.28024 L7.53592,12.28024 L7.53592,18.75384 C7.53592,19.59048 8.2152,20.26808 9.05128,20.26808 L18.75216,20.26808 C19.58712,20.26808 20.26752,19.59048 20.26752,18.75384 L20.26752,12.28024 L17.906,12.28024 C18.11152,12.78088 18.22744,13.32912 18.22744,13.90256 Z" id="Shape"></path>
                </g>
            </g>
        </g>
    </g>
</svg>