<?xml version="1.0" encoding="utf-8"?>
<!-- Generator: Adobe Illustrator 19.0.0, SVG Export Plug-In . SVG Version: 6.00 Build 0)  -->
<svg version="1.1" id="Шар_1" xmlns="http://www.w3.org/2000/svg" xmlns:xlink="http://www.w3.org/1999/xlink" x="0px" y="0px"
	 viewBox="-97 23 18 18" style="enable-background:new -97 23 18 18;" xml:space="preserve">
<style type="text/css">
	.st0{fill:#2CC990;}
</style>
<title>Shape</title>
<desc>Created with Sketch.</desc>
<g id="Page-1">
	<g id="_x30_0.Home" transform="translate(-140.000000, -453.000000)">
		<path id="Shape" class="st0" d="M48.3,483.3l-1.3,1.3l4.1,4.1l9-9l-1.3-1.3l-7.7,7.7L48.3,483.3z M59.2,485c0,4-3.2,7.2-7.2,7.2
			s-7.2-3.2-7.2-7.2s3.2-7.2,7.2-7.2c0.7,0,1.4,0.1,2,0.3l1.4-1.4c-1.1-0.4-2.3-0.6-3.4-0.6c-4.9,0-9,4-9,9s4.1,9,9,9s9-4,9-9H59.2z
			"/>
	</g>
</g>
</svg>
