<svg xmlns="http://www.w3.org/2000/svg" width="65" height="79" viewBox="0 0 65 79"><path fill="#e4e3e5" d="M54.15 72.83c0 3.21-9.88 5.82-22.07 5.82-12.2 0-22.08-2.61-22.08-5.82C10 69.61 19.88 67 32.08 67c12.19 0 22.07 2.61 22.07 5.83"/><path fill="#3c9bcc" d="M12.23 32.56c0-11.21 9.06-20.3 20.24-20.3a20.27 20.27 0 0 1 20.24 20.3c0 11.21-9.06 20.3-20.24 20.3a20.27 20.27 0 0 1-20.24-20.3zM0 32.56c0 8.21 3.04 15.7 8.03 21.42l-.01.02.07.05a32.43 32.43 0 0 0 9.22 7.3l15.14 11.99 15.07-11.93a32.57 32.57 0 0 0 17.41-28.85A32.51 32.51 0 0 0 32.47 0 32.52 32.52 0 0 0 0 32.56z"/></svg>