<?xml version="1.0" encoding="UTF-8"?>
<svg width="90px" height="90px" viewBox="0 0 90 90" version="1.1" xmlns="http://www.w3.org/2000/svg" xmlns:xlink="http://www.w3.org/1999/xlink">
    <!-- Generator: Sketch 41.2 (35397) - http://www.bohemiancoding.com/sketch -->
    <title>logo_1</title>
    <desc>Created with Sketch.</desc>
    <defs></defs>
    <g id="Page-1" stroke="none" stroke-width="1" fill="none" fill-rule="evenodd">
        <g id="04.Product_inner" transform="translate(-1830.000000, 0.000000)">
            <g id="logo_1" transform="translate(1830.000000, 0.000000)">
                <rect id="Rectangle-2" fill="#3C9BCC" x="0" y="0" width="90" height="90"></rect>
                <path d="M42.7119879,64 C46.4524931,64 49.8920381,62.9070796 53.1166116,60.7212389 C54.7074012,59.6283186 55.9972306,58.4513274 56.9001111,57.1902655 C57.845986,55.9292035 58.8778495,54.2057522 59.9527074,52.0619469 C60.3396562,51.2212389 59.7807301,50.9269912 59.4367756,51.6415929 C58.3619178,53.8274336 57.3300543,55.550885 56.3411851,56.8119469 C55.3953102,58.0309735 54.0624865,59.1659292 52.3857083,60.1327434 C49.5910779,61.7721239 46.1945272,62.5707965 42.1960561,62.5707965 C40.9492211,62.5707965 39.4874144,62.3185841 37.8106362,61.8141593 C36.133858,61.3517699 34.8010343,60.4690265 33.8121651,59.25 C32.8232959,57.9889381 32.2213755,56.6017699 32.006404,55.0464602 C31.7914324,53.3230088 31.7914324,51.8938053 32.006404,49.4977876 C32.1353869,48.2787611 32.5223357,46.5553097 33.2532391,44.3274336 C33.9841424,42.0995575 34.7150457,40.5022124 35.4029547,39.5353982 C37.3806931,43.5707965 40.9492211,45.9668142 46.0655443,46.6814159 C47.0974078,46.8075221 48.1292713,46.8915929 49.1181405,46.8915929 C51.4828277,46.8915929 53.6325434,46.4712389 55.6102818,45.630531 C58.662878,44.3274336 60.8555879,42.3517699 62.102423,39.6615044 C63.3062638,36.9712389 63.3062638,34.449115 62.0594287,32.0951327 C60.5116334,29.2787611 57.5450258,27.5973451 53.1166116,27.1349558 C52.2997197,27.050885 51.525822,27.0088496 50.7949187,27.0088496 C48.1722656,27.0088496 45.6785955,27.5132743 43.3139083,28.5221239 C40.2183177,29.8252212 37.509676,31.9269912 35.2309774,34.8274336 C33.8981537,29.0265487 35.445949,26.0840708 34.5860628,26 C34.4570798,26 34.1561196,26.1681416 34.0271367,26.630531 C33.2962334,29.3628319 33.2102447,32.5154867 34.1991139,36.2566372 C32.9952732,37.7278761 31.9634097,39.4513274 31.0605291,41.3849558 C30.2006428,43.3185841 29.6417168,45.1261062 29.3837509,46.7654867 C28.8678191,50.0862832 28.9538078,51.8517699 29.1687793,53.5331858 C29.6847111,57.4424779 32.1783812,61.0154867 36.262841,62.6969027 C38.326568,63.579646 40.4762836,64 42.7119879,64 Z M36.262841,38.1902655 C38.4555509,34.9535398 41.078204,32.4314159 44.1737945,30.6659292 C46.6244704,29.2787611 49.0751462,28.6061947 51.525822,28.6061947 C53.9764979,28.6061947 55.9972306,29.1106195 57.6740088,30.1615044 C59.909713,31.5486726 61.0275652,33.5243363 61.0275652,36.0464602 C61.0275652,38.5685841 59.909713,40.8384956 57.7170031,42.8141593 C55.5242931,44.789823 52.6436742,45.7986726 48.9891576,45.7986726 C42.5400106,45.7986726 38.2835737,43.2765487 36.262841,38.1902655 Z" id="C" fill="#FFFFFF"></path>
            </g>
        </g>
    </g>
</svg>