<svg xmlns="http://www.w3.org/2000/svg" width="81" height="80" viewBox="0 0 81 80"><path fill="#2886b7" d="M74.01 21.82A36.64 36.64 0 0 0 61.48 7.47a38.59 38.59 0 0 0-8.86-4.41 40 40 0 0 0-9.83-1.98 40.3 40.3 0 0 0-10.04.62A38.51 38.51 0 0 0 8.27 17.72c-.69 1.01.08 1.53.79.57A38.83 38.83 0 0 1 23.87 6.27c2.92-1.33 6-2.31 9.15-2.9 3.15-.57 6.36-.75 9.54-.57 3.19.21 6.34.81 9.37 1.77a38.19 38.19 0 0 1 21.53 17.4c.28.5.82.39.55-.15M4.06 55.33a39.93 39.93 0 0 0 22.55 22 39.03 39.03 0 0 0 16 2.5c1.41-.1 1.34-.94-.04-.88a39.43 39.43 0 0 1-15.53-2.68A40 40 0 0 1 4.92 54.94a40.87 40.87 0 0 1-3.34-15.26c-.01-.88-.57-.93-.58-.01a40.65 40.65 0 0 0 3.06 15.66z"/><path fill="#2885b6" d="M63.9 72.43a40.18 40.18 0 0 0 12.24-13.58 36.3 36.3 0 0 0 4.51-17.59c-.01-1.67-.99-1.68-1.07-.04a41.6 41.6 0 0 1-4.54 17.07A39.2 39.2 0 0 1 63.5 71.86c-.87.64-.51 1.2.4.57M75.14 39.76c.12-3.79-.45-7.64-1.65-11.32a34.05 34.05 0 0 0-5.56-10.27A33.98 33.98 0 0 0 48.04 6.04c-1.26-.22-1.41.59-.24.87a35.94 35.94 0 0 1 18.91 12.23 37.38 37.38 0 0 1 5.64 9.74 37.75 37.75 0 0 1 2.41 10.96c.04.46.38.35.38-.08M27.35 7.12a36.34 36.34 0 0 0-17.44 15.1 35.7 35.7 0 0 0 5.69 43.42 36.9 36.9 0 0 0 9.69 6.89 36.68 36.68 0 0 0 11.47 3.4c.83.12 1.29-.15 1.34-.42.04-.29-.32-.57-1.12-.7a36.04 36.04 0 0 1-11.03-3.39 36.06 36.06 0 0 1-9.32-6.67A34.86 34.86 0 0 1 6.6 44.7a34.64 34.64 0 0 1 4.25-21.9A35.43 35.43 0 0 1 27.6 7.87c1-.41.81-1.16-.25-.75"/><path fill="#2885b6" d="M64.16 67.49a37.28 37.28 0 0 0 5.83-6.46A30.95 30.95 0 0 0 74 53.37c.27-.73.13-1.23-.1-1.34-.26-.12-.59.14-.93.86a48.01 48.01 0 0 1-4.07 7.48 36.25 36.25 0 0 1-5.53 6.54c-.84.79-.12 1.39.79.58"/><path fill="#29698c" d="M9 40.5a31.5 31.5 0 1 1 63 0 31.5 31.5 0 0 1-63 0z"/><path fill="#fff" d="M24.96 42.88l-3.64-6.67-2.91.01v.21c.47.03.78.1.92.23.15.13.22.46.22.98v5.4c0 .74-.1 1.19-.3 1.34-.19.15-.61.23-1.24.24l-.01.23h3.49v-.23c-.64-.01-1.06-.09-1.25-.24-.19-.15-.29-.58-.29-1.27v-6.02l4.25 7.78 4.37-7.66v6.28c0 .5-.08.8-.24.92-.16.12-.51.19-1.06.21v.23h4.33v-.23c-.54-.02-.9-.08-1.06-.2-.16-.11-.24-.41-.24-.88v-6c0-.47.08-.77.22-.89.15-.12.45-.19.92-.22v-.21l-2.71-.01zM36.95 38l1.6 3.63h-3.54zm1.7 3.91l.76 1.71c.04.1.08.19.1.28l.03.24c0 .14-.08.25-.25.32a4.2 4.2 0 0 1-1.04.16v.23h5.08v-.23a2.62 2.62 0 0 1-2.14-1.47l-.11-.26-3.16-6.82h-.16l-4.07 7.25c-.25.48-.5.8-.72.97a3 3 0 0 1-1.23.33v.23h3.46l.01-.23c-.51-.04-.84-.1-1.02-.19-.18-.09-.27-.23-.27-.42 0-.1.03-.23.09-.41.06-.17.13-.35.23-.54l.62-1.15zm8.05-5.4l.58-.05.52-.02c.97 0 1.67.14 2.11.43.44.28.66.74.66 1.36 0 .68-.28 1.18-.83 1.5-.56.33-1.43.49-2.59.49l-.23-.01h-.22zm0 3.98l.46-.01.29-.01c.75 0 1.28.1 1.59.31.32.2.56.67.72 1.4.23 1.04.55 1.75.95 2.14.41.4.99.59 1.75.59.6 0 1.06-.13 1.38-.39.33-.26.5-.63.53-1.12h-.28c-.03.22-.11.39-.25.5a.9.9 0 0 1-.57.17c-.51 0-.96-.43-1.36-1.29-.2-.43-.37-.76-.51-1a2.53 2.53 0 0 0-.97-.89 6.7 6.7 0 0 0-1.81-.56 6.23 6.23 0 0 0 2.71-.64c.61-.36.92-.84.92-1.46 0-.66-.32-1.18-.97-1.54a5.68 5.68 0 0 0-2.74-.54l-4.84.03v.25c.47.03.78.1.92.23.15.13.22.46.22.98v5.79c0 .53-.08.86-.24.98-.16.12-.51.19-1.06.21v.23H48l-.01-.23c-.56-.03-.91-.1-1.07-.21-.15-.1-.22-.38-.22-.84zm9.14 4.35a6.92 6.92 0 0 0 .12-1.23c0-.27 0-.53-.02-.8s-.04-.55-.08-.83h.34c.11.87.48 1.56 1.09 2.05.62.5 1.41.74 2.37.74.75 0 1.35-.16 1.78-.48.43-.32.64-.76.64-1.32 0-.89-1.1-1.63-3.31-2.22l-.58-.16a3.91 3.91 0 0 1-1.71-.85 1.69 1.69 0 0 1-.58-1.28c0-.69.33-1.28.99-1.75a4.19 4.19 0 0 1 2.49-.71c.49 0 1.02.08 1.57.25.55.17.86.25.94.25.11 0 .21-.03.29-.1a.83.83 0 0 0 .2-.31h.36a4.56 4.56 0 0 0-.19 1.3l.02.45.03.62h-.31a2.1 2.1 0 0 0-.81-1.65 3.3 3.3 0 0 0-2.08-.58c-.69 0-1.24.14-1.66.43-.41.29-.62.67-.62 1.15 0 .67.93 1.24 2.81 1.72l.29.07a7.2 7.2 0 0 1 2.58 1.06c.47.37.7.87.7 1.5 0 .82-.36 1.5-1.08 2.04-.71.53-1.62.8-2.73.8-.68 0-1.31-.12-1.89-.35-.59-.23-.9-.34-.95-.34a.6.6 0 0 0-.36.14c-.12.09-.23.22-.34.39z"/><path fill="none" stroke="#fff" stroke-miterlimit="50" stroke-width=".5" d="M24.96 42.88l-3.64-6.67-2.91.01v.21c.47.03.78.1.92.23.15.13.22.46.22.98v5.4c0 .74-.1 1.19-.3 1.34-.19.15-.61.23-1.24.24l-.01.23h3.49v-.23c-.64-.01-1.06-.09-1.25-.24-.19-.15-.29-.58-.29-1.27v-6.02l4.25 7.78 4.37-7.66v6.28c0 .5-.08.8-.24.92-.16.12-.51.19-1.06.21v.23h4.33v-.23c-.54-.02-.9-.08-1.06-.2-.16-.11-.24-.41-.24-.88v-6c0-.47.08-.77.22-.89.15-.12.45-.19.92-.22v-.21l-2.71-.01zM36.95 38l1.6 3.63h-3.54zm1.7 3.91l.76 1.71c.04.1.08.19.1.28l.03.24c0 .14-.08.25-.25.32a4.2 4.2 0 0 1-1.04.16v.23h5.08v-.23a2.62 2.62 0 0 1-2.14-1.47l-.11-.26-3.16-6.82h-.16l-4.07 7.25c-.25.48-.5.8-.72.97a3 3 0 0 1-1.23.33v.23h3.46l.01-.23c-.51-.04-.84-.1-1.02-.19-.18-.09-.27-.23-.27-.42 0-.1.03-.23.09-.41.06-.17.13-.35.23-.54l.62-1.15zm8.05-5.4l.58-.05.52-.02c.97 0 1.67.14 2.11.43.44.28.66.74.66 1.36 0 .68-.28 1.18-.83 1.5-.56.33-1.43.49-2.59.49l-.23-.01h-.22zm0 3.98l.46-.01.29-.01c.75 0 1.28.1 1.59.31.32.2.56.67.72 1.4.23 1.04.55 1.75.95 2.14.41.4.99.59 1.75.59.6 0 1.06-.13 1.38-.39.33-.26.5-.63.53-1.12h-.28c-.03.22-.11.39-.25.5a.9.9 0 0 1-.57.17c-.51 0-.96-.43-1.36-1.29-.2-.43-.37-.76-.51-1a2.53 2.53 0 0 0-.97-.89 6.7 6.7 0 0 0-1.81-.56 6.23 6.23 0 0 0 2.71-.64c.61-.36.92-.84.92-1.46 0-.66-.32-1.18-.97-1.54a5.68 5.68 0 0 0-2.74-.54l-4.84.03v.25c.47.03.78.1.92.23.15.13.22.46.22.98v5.79c0 .53-.08.86-.24.98-.16.12-.51.19-1.06.21v.23H48l-.01-.23c-.56-.03-.91-.1-1.07-.21-.15-.1-.22-.38-.22-.84zm9.14 4.35a6.92 6.92 0 0 0 .12-1.23c0-.27 0-.53-.02-.8s-.04-.55-.08-.83h.34c.11.87.48 1.56 1.09 2.05.62.5 1.41.74 2.37.74.75 0 1.35-.16 1.78-.48.43-.32.64-.76.64-1.32 0-.89-1.1-1.63-3.31-2.22l-.58-.16a3.91 3.91 0 0 1-1.71-.85 1.69 1.69 0 0 1-.58-1.28c0-.69.33-1.28.99-1.75a4.19 4.19 0 0 1 2.49-.71c.49 0 1.02.08 1.57.25.55.17.86.25.94.25.11 0 .21-.03.29-.1a.83.83 0 0 0 .2-.31h.36a4.56 4.56 0 0 0-.19 1.3l.02.45.03.62h-.31a2.1 2.1 0 0 0-.81-1.65 3.3 3.3 0 0 0-2.08-.58c-.69 0-1.24.14-1.66.43-.41.29-.62.67-.62 1.15 0 .67.93 1.24 2.81 1.72l.29.07a7.2 7.2 0 0 1 2.58 1.06c.47.37.7.87.7 1.5 0 .82-.36 1.5-1.08 2.04-.71.53-1.62.8-2.73.8-.68 0-1.31-.12-1.89-.35-.59-.23-.9-.34-.95-.34a.6.6 0 0 0-.36.14c-.12.09-.23.22-.34.39z"/></svg>