<svg xmlns="http://www.w3.org/2000/svg" width="37" height="37" viewBox="0 0 37 37"><path fill="#ccc" d="M7.16 7.41a16.52 16.52 0 0 1 23.34-.27l-1.85.03c-.4 0-.72.33-.72.73.01.39.33.72.73.72l3.61-.05c.4 0 .72-.33.72-.73l-.04-3.61a.73.73 0 0 0-.74-.72.73.73 0 0 0-.72.74l.03 1.85a17.99 17.99 0 0 0-30.14 9.17c-.68 3.27-.45 6.64.68 9.77.11.29.39.48.68.48.08 0 .16-.01.24-.04a.74.74 0 0 0 .44-.93A16.43 16.43 0 0 1 7.16 7.41zM6.47 31.43a17.85 17.85 0 0 0 12.55 5.11h.21c4.8-.06 9.29-1.98 12.64-5.41a17.95 17.95 0 0 0 4.06-18.65.74.74 0 0 0-.93-.44.74.74 0 0 0-.44.93 16.4 16.4 0 0 1-3.73 17.14 16.43 16.43 0 0 1-11.62 4.97 16.38 16.38 0 0 1-11.72-4.7l1.85-.02c.4-.01.72-.33.72-.74a.74.74 0 0 0-.73-.72l-3.61.05a.7.7 0 0 0-.51.22.71.71 0 0 0-.21.51l.04 3.61c.01.39.33.72.73.72h.01c.4-.01.72-.33.72-.74z"/><path fill="#3c9bcc" d="M28.91 14.71a10.82 10.82 0 0 0-9.38-6.68l-.23-.02h-.18L18.87 8c-1.43 0-2.83.28-4.15.83a10.73 10.73 0 0 0-5.88 5.88 10.7 10.7 0 0 0 0 8.31 10.83 10.83 0 0 0 10.04 6.72l.17-.01.09.01.04-.01.19-.01h.13a10.92 10.92 0 0 0 9.42-6.69 10.79 10.79 0 0 0 0-8.31l-.01-.01c0 .01 0 .01 0 0zm-13.83-4.45a11.47 11.47 0 0 0-1.87 4.01h-2.55a9.32 9.32 0 0 1 4.42-4.01zM10 15.73h2.89a18.6 18.6 0 0 0 .02 6.3H10a9.34 9.34 0 0 1 0-6.3zm.66 7.75h2.59a11.57 11.57 0 0 0 1.99 4.09 9.43 9.43 0 0 1-4.58-4.09zm4.11 0h3.64v4.7c-1.52-.44-2.87-2.26-3.64-4.7zm3.64-1.45H14.4c-.2-1-.31-2.06-.31-3.16s.1-2.17.27-3.15h4.05zm0-7.75h-3.7c.74-2.53 2.09-4.31 3.7-4.72zm8.68-.01h-2.02c-.38-1.4-.91-2.63-1.58-3.61a9.53 9.53 0 0 1 3.6 3.61zm-7.23-4.72c1.62.42 2.96 2.2 3.71 4.72h-3.71zm0 6.18h4.05c.18.98.28 2.04.28 3.15 0 1.09-.11 2.16-.32 3.15h-4.01zm0 12.45v-4.7h3.64c-.77 2.44-2.12 4.26-3.64 4.7zm3.48-1.01a12.2 12.2 0 0 0 1.69-3.69h2.06a9.38 9.38 0 0 1-3.75 3.69zm4.41-5.14h-2.39a18.68 18.68 0 0 0 .02-6.31h2.37a9.36 9.36 0 0 1 0 6.31z"/></svg>