<svg xmlns="http://www.w3.org/2000/svg" width="36" height="36" viewBox="0 0 36 36"><path fill="#ccc" d="M34.56 10.98a17.6 17.6 0 0 0-9.58-9.54 17.73 17.73 0 0 0-14 0 17.66 17.66 0 0 0-9.56 9.54A17.4 17.4 0 0 0 0 17.97c0 2.44.46 4.79 1.42 7.01a17.7 17.7 0 0 0 9.56 9.56 17.73 17.73 0 0 0 14 0 17.67 17.67 0 0 0 9.58-9.56A17.56 17.56 0 0 0 36 17.97c0-2.44-.48-4.76-1.44-6.99zm-2.87 14.94a15.71 15.71 0 0 1-5.79 5.77 15.53 15.53 0 0 1-7.93 2.13 16.14 16.14 0 0 1-11.18-4.63 15.87 15.87 0 0 1-3.36-5.06 15.38 15.38 0 0 1-1.24-6.16A15.8 15.8 0 0 1 25.9 4.29a15.86 15.86 0 0 1 5.79 5.77 15.35 15.35 0 0 1 2.12 7.91c0 2.85-.7 5.51-2.12 7.95z"/><path fill="#3c9bcc" d="M19.22 18.3V8.1c0-.61-.53-1.1-1.14-1.1A1.1 1.1 0 0 0 17 8.1v10.36c0 .02.04.09.04.15-.04.36.06.65.29.89l5.89 5.88c.39.4 1.12.4 1.52 0 .45-.45.42-1.11 0-1.53z"/></svg>