<svg xmlns="http://www.w3.org/2000/svg" width="35" height="42" viewBox="0 0 35 42"><path fill="#3c9bcc" d="M22.59 23.22l-.32.29a.79.79 0 0 0-.08 1.11c.15.18.37.27.59.27.18 0 .36-.06.5-.19l.38-.35c.31-.3.32-.8.02-1.11a.76.76 0 0 0-1.09-.02z"/><path fill="#3c9bcc" d="M21.74 27.02a.72.72 0 0 0 .33-.97.75.75 0 0 0-.92-.35v-2.93c0-.4-.32-.72-.73-.72h-5.84a.72.72 0 0 0-.73.72v2.92a8 8 0 0 1-4.16-5.16 2.94 2.94 0 0 0 3.43-.71 2.92 2.92 0 0 0 4.38 0 2.94 2.94 0 0 0 4.38 0 2.94 2.94 0 0 0 3.43.71c-.1.41-.24.81-.41 1.21-.16.36.02.79.39.94a.7.7 0 0 0 .28.06c.29 0 .56-.17.68-.44.5-1.16.75-2.39.75-3.66V16.9l-.01-.09v-.02l-.01-.07-.01-.01a55.33 55.33 0 0 0-.97-3.14c-.31-.94-.63-1.92-.95-3.04a.72.72 0 0 0-.7-.53H10.92c-.32 0-.6.2-.69.5a64.63 64.63 0 0 1-1.09 3.06c-.36.96-.73 1.95-1.11 3.12v.02l-.01.04-.01.03v.04l-.01.02v1.81a9.4 9.4 0 0 0 6.28 8.81l.1.03a9.5 9.5 0 0 0 7.08-.33l.28-.13zm3.8-9.1c0 .79-.66 1.44-1.46 1.44-.81 0-1.46-.65-1.46-1.44v-.3h2.92zm-.93-3.91c.23.69.46 1.4.69 2.17h-2.77l-.37-2.47-.33-2.27h1.97c.27.94.54 1.77.81 2.57zm-5.68 2.89c0-.38-.3-.7-.68-.72l.05-2.34.05-2.4h2c.12.9.25 1.7.37 2.48l.33 2.26h-.16c-.4 0-.73.32-.73.72 0 .39.33.72.73.72h.26v.3c0 .79-.65 1.44-1.46 1.44-.8 0-1.46-.65-1.46-1.44v-.31c.39-.01.7-.33.7-.71zm-4.52-2.95c.16-.79.32-1.6.48-2.51h2l-.05 2.37a616 616 0 0 0-.06 2.37h-.95a.72.72 0 1 0 0 1.44h.94v.3c0 .79-.66 1.44-1.46 1.44-.81 0-1.46-.65-1.46-1.44v-.96c.19-1.12.38-2.08.56-3.01zm-4.95 3.67h.29c.41 0 .74-.33.74-.72 0-.4-.33-.72-.74-.72h-.01c.26-.75.52-1.45.77-2.12.31-.82.63-1.66.95-2.62h1.95c-.14.8-.29 1.52-.43 2.23-.19.96-.39 1.95-.59 3.11l-.01.12v1.02c0 .79-.65 1.44-1.46 1.44-.8 0-1.46-.65-1.46-1.44zm10.23 8.64a8.04 8.04 0 0 1-4.38 0v-2.77h4.38z"/><path fill="#ccc" d="M26.25 40.25h-6.61l2.25-2.12C28.03 32.36 35 25.83 35 17.5c0-4.67-1.82-9.07-5.13-12.37A17.36 17.36 0 0 0 17.5 0C12.83 0 8.43 1.82 5.13 5.13A17.36 17.36 0 0 0 0 17.5c0 8.33 6.97 14.86 13.11 20.63.78.72 1.53 1.43 2.25 2.12H8.75a.88.88 0 0 0-.88.88c0 .48.4.87.88.87h17.5c.48 0 .87-.39.87-.88a.87.87 0 0 0-.87-.87zm-11.94-3.4C8.42 31.33 1.75 25.07 1.75 17.5c0-4.21 1.64-8.16 4.61-11.14A15.67 15.67 0 0 1 17.5 1.75c4.21 0 8.16 1.64 11.14 4.61a15.67 15.67 0 0 1 4.61 11.14c0 7.57-6.67 13.83-12.56 19.35-1.12 1.05-2.19 2.05-3.19 3.04-1.01-.99-2.07-1.99-3.19-3.04z"/></svg>