<svg xmlns="http://www.w3.org/2000/svg" width="36" height="42" viewBox="0 0 36 42"><path fill="#ccc" d="M33.54 27.38l-.01-.01a13.74 13.74 0 0 0-3.29-2.39A11.87 11.87 0 0 0 14.76 7.1a12.55 12.55 0 0 0-1.99-3.99C11.33 1.02 9.83 0 8.17 0 6.22 0 4.63 1.44 3.23 2.7l-.7.63c-.85.71-1.37 1.92-1.5 3.48-.19 2.32.47 5.38 1.86 8.63 1.56 3.66 4 7.48 7.07 11.05 6.98 8.24 14.46 11.94 18.77 11.94 1.25 0 2.24-.31 2.96-.9l.01-.01c.23-.21.49-.42.76-.64 1.59-1.3 3.39-2.78 3.47-4.94.05-1.49-.73-2.98-2.39-4.56zM14.7 9.45a10.13 10.13 0 1 1 13.52 15.01h-.08c-1.62 0-2.77.97-3.97 2.02l-.01.01-.08.07-.4.35a.51.51 0 0 1-.37.13c-.74 0-2.63-.78-7.08-5.97a35.76 35.76 0 0 1-3.94-5.38c-.76-1.4-.99-2.44-.61-2.79l.34-.27c1.15-.95 2.25-1.85 2.68-3.18zm16.65 26.08l-.79.66c-.38.32-1.02.49-1.83.49-3.78 0-10.85-3.54-17.45-11.33a42.02 42.02 0 0 1-6.79-10.6c-1.27-2.99-1.88-5.76-1.72-7.8.09-1.07.4-1.89.88-2.29l.01-.01L4.4 4c.4-.36.82-.74 1.25-1.08.46.51 1.21 1.37 1.99 2.47.17.24.44.37.71.37a.88.88 0 0 0 .71-1.39 32.9 32.9 0 0 0-1.91-2.4c.34-.14.68-.22 1.02-.22 1.02 0 2.09.79 3.16 2.35 1.43 2.08 2 3.6 1.76 4.64-.22.93-1.08 1.64-2.18 2.54l-.35.28-.02.02c-1.12.97-1.04 2.64.22 4.95a36.34 36.34 0 0 0 4.14 5.67c3.85 4.49 6.52 6.58 8.41 6.58.57 0 1.1-.19 1.51-.55l.03-.02c.44.28 1.11.71 1.81 1.19.58.41 1.07.79 1.48 1.13.16.13.36.2.56.2a.87.87 0 0 0 .56-1.54c-.44-.37-.98-.78-1.6-1.22-.51-.36-1.01-.68-1.42-.95.64-.49 1.23-.82 1.9-.82 1.06 0 2.43.8 4.2 2.45 1.26 1.2 1.88 2.28 1.84 3.22-.05 1.38-1.46 2.54-2.83 3.66z"/><path fill="#ccc" d="M10.25 8.35c.15 0 .3-.03.43-.11a.88.88 0 0 0 .34-1.19l-.43-.68a.88.88 0 0 0-1.22-.21.88.88 0 0 0-.21 1.22c.12.17.23.33.33.53.16.28.46.44.76.44zM31.5 31.26a.88.88 0 0 0-1.24-.01.87.87 0 0 0-.01 1.23l.48.53a.87.87 0 1 0 1.3-1.17l-.53-.58z"/><path fill="#3c9bcc" d="M23.53 17.91h2.9v1.42c0 .33.4.5.78.5.4 0 .79-.17.79-.5v-1.42h.57c.25 0 .49-.37.49-.73 0-.37-.17-.73-.49-.73H28v-1.27c0-.35-.39-.5-.79-.5-.38 0-.78.15-.78.5v1.27h-1.41l2.31-4.64a.47.47 0 0 0 .07-.21c0-.36-.51-.6-.79-.6a.7.7 0 0 0-.66.41l-2.87 5.63a.62.62 0 0 0-.08.31c0 .35.23.56.53.56zM17.69 19.83h4.3c.26 0 .49-.34.49-.7 0-.37-.23-.68-.49-.68h-3.36v-.29c0-1.26 3.83-2.1 3.83-4.71 0-1.53-1.31-2.45-2.71-2.45-1.34 0-2.59.85-2.59 2.22 0 .65.3.85.71.85.52 0 .82-.29.82-.58 0-.75.48-1.07 1.07-1.07.8 0 1.13.58 1.13 1.08 0 1.7-3.89 2.73-3.89 4.66v1.17c0 .3.41.5.69.5zM27.34 40H9.87a.87.87 0 0 0-.87.87c0 .49.39.88.87.88h17.47c.48 0 .87-.39.87-.88a.87.87 0 0 0-.87-.87z"/></svg>