<svg xmlns="http://www.w3.org/2000/svg" width="38.2" height="44.2" viewBox="0 0 38.2 44.2"><path fill="#fff" d="M14.02 22.36v-6.33c0-.3-.17-.58-.44-.74a2 2 0 0 1-1.03-1.72V7c0-2.77 2.52-5.03 5.62-5.03h1.59c3.09 0 5.62 2.26 5.62 5.03v6.57c0 .69-.39 1.34-1.03 1.72a.85.85 0 0 0-.44.74v6.33c0 .45.29.86.74 1.06.93.4 5.79 2.6 10.26 5.89.59.44.93 1.08.93 1.77v4.5c0 .49.44.89.99.89.56 0 1-.4 1-.89v-4.5a3.9 3.9 0 0 0-1.66-3.14 59.9 59.9 0 0 0-10.28-5.95v-5.53a3.64 3.64 0 0 0 1.48-2.9V7c0-3.75-3.41-6.8-7.61-6.8h-1.59c-4.2 0-7.61 3.05-7.61 6.8v6.57c0 1.12.54 2.18 1.47 2.9V22a61.54 61.54 0 0 0-10.28 5.94A3.9 3.9 0 0 0 .1 31.09v4.5c0 .49.44.89.99.89s1-.4 1-.89v-4.5c0-.69.34-1.34.93-1.77a58.44 58.44 0 0 1 10.26-5.89c.45-.21.74-.62.74-1.07z"/><path fill="none" stroke="#fff" stroke-miterlimit="50" stroke-width=".4" d="M14.02 22.36v-6.33c0-.3-.17-.58-.44-.74a2 2 0 0 1-1.03-1.72V7c0-2.77 2.52-5.03 5.62-5.03h1.59c3.09 0 5.62 2.26 5.62 5.03v6.57c0 .69-.39 1.34-1.03 1.72a.85.85 0 0 0-.44.74v6.33c0 .45.29.86.74 1.06.93.4 5.79 2.6 10.26 5.89.59.44.93 1.08.93 1.77v4.5c0 .49.44.89.99.89.56 0 1-.4 1-.89v-4.5a3.9 3.9 0 0 0-1.66-3.14 59.9 59.9 0 0 0-10.28-5.95v-5.53a3.64 3.64 0 0 0 1.48-2.9V7c0-3.75-3.41-6.8-7.61-6.8h-1.59c-4.2 0-7.61 3.05-7.61 6.8v6.57c0 1.12.54 2.18 1.47 2.9V22a61.54 61.54 0 0 0-10.28 5.94A3.9 3.9 0 0 0 .1 31.09v4.5c0 .49.44.89.99.89s1-.4 1-.89v-4.5c0-.69.34-1.34.93-1.77a58.44 58.44 0 0 1 10.26-5.89c.45-.21.74-.62.74-1.07z"/><path fill="#fff" d="M21.96 23.2c-.56 0-1 .39-1 .89 0 .37-.18.71-.46.94a.66.66 0 0 0-.17.12c-.23.14-.51.23-.8.23-.79 0-1.44-.58-1.44-1.29 0-.5-.45-.89-1-.89s-.99.39-.99.89c0 .72.28 1.39.76 1.91l-.73 15.21c-.01.26.11.52.33.7l2.34 1.88a1.03 1.03 0 0 0 1.32 0l2.37-1.91a.84.84 0 0 0 .33-.69l-.76-15.03c.56-.55.9-1.28.9-2.06-.01-.51-.46-.9-1-.9zm-2.52 18.74l-1.32-1.07.66-13.79c.24.05.48.07.73.07.2 0 .39-.02.58-.04l.69 13.73z"/><path fill="none" d="M21.96 23.2c-.56 0-1 .39-1 .89 0 .37-.18.71-.46.94a.66.66 0 0 0-.17.12c-.23.14-.51.23-.8.23-.79 0-1.44-.58-1.44-1.29 0-.5-.45-.89-1-.89s-.99.39-.99.89c0 .72.28 1.39.76 1.91l-.73 15.21c-.01.26.11.52.33.7l2.34 1.88a1.03 1.03 0 0 0 1.32 0l2.37-1.91a.84.84 0 0 0 .33-.69l-.76-15.03c.56-.55.9-1.28.9-2.06-.01-.51-.46-.9-1-.9zm-2.52 18.74l-1.32-1.07.66-13.79c.24.05.48.07.73.07.2 0 .39-.02.58-.04l.69 13.73z"/></svg>