<?xml version="1.0" encoding="UTF-8"?>
<svg width="28px" height="28px" viewBox="0 0 28 28" version="1.1" xmlns="http://www.w3.org/2000/svg" xmlns:xlink="http://www.w3.org/1999/xlink">
    <!-- Generator: Sketch 41.2 (35397) - http://www.bohemiancoding.com/sketch -->
    <title>search</title>
    <desc>Created with Sketch.</desc>
    <defs></defs>
    <g id="Page-1" stroke="none" stroke-width="1" fill="none" fill-rule="evenodd">
        <g id="04.Product_inner" transform="translate(-1861.000000, -210.000000)" fill="#2886B7">
            <g id="search" transform="translate(1861.000000, 210.000000)">
                <path d="M27.7578177,26.5720621 L20.951874,19.7676275 C22.777556,17.6691796 23.8829009,14.9312639 23.8829009,11.9388027 C23.8829009,5.35166297 18.5238412,0 11.9414504,0 C5.35284986,0 0,5.3578714 0,11.9388027 C0,18.5197339 5.35905966,23.8776053 11.9414504,23.8776053 C14.9345753,23.8776053 17.6730982,22.7725055 19.7720115,20.9472284 L26.5779552,27.751663 C26.7394101,27.913082 26.9567532,28 27.1678864,28 C27.3790197,28 27.5963628,27.9192905 27.7578177,27.751663 C28.0807274,27.4288248 28.0807274,26.8949002 27.7578177,26.5720621 Z M1.6704369,11.9388027 C1.6704369,6.2767184 6.27811045,1.67627494 11.9352406,1.67627494 C17.5985806,1.67627494 22.2000444,6.28292683 22.2000444,11.9388027 C22.2000444,17.5946785 17.5985806,22.2075388 11.9352406,22.2075388 C6.27811045,22.2075388 1.6704369,17.6008869 1.6704369,11.9388027 Z" id="Shape-Copy"></path>
            </g>
        </g>
    </g>
</svg>