<svg xmlns="http://www.w3.org/2000/svg" width="56" height="66" viewBox="0 0 56 66"><path fill="#2886b7" d="M50.4 0H10.08a5.57 5.57 0 0 0-5.5 4.5A5.53 5.53 0 0 0 0 9.9v50.6C0 63.53 2.51 66 5.6 66h40.32a5.57 5.57 0 0 0 5.5-4.5A5.53 5.53 0 0 0 56 56.1V5.5C56 2.47 53.49 0 50.4 0zm-1.12 60.5c0 1.82-1.51 3.3-3.36 3.3H5.6a3.34 3.34 0 0 1-3.36-3.3V9.9c0-1.82 1.51-3.3 3.36-3.3h33.6v8.8c0 .61.5 1.1 1.12 1.1h8.96zm-7.84-46.2V8.16l6.26 6.14zm12.32 41.8c0 1.43-.94 2.64-2.24 3.1V15.4c0-.3-.13-.58-.33-.78l-10.08-9.9c-.2-.2-.48-.32-.79-.32H6.93a3.34 3.34 0 0 1 3.15-2.2H50.4a3.34 3.34 0 0 1 3.36 3.3z"/><path fill="#2886b7" d="M26.11 10A6.06 6.06 0 0 0 20 16c0 3.31 2.74 6 6.11 6a6.06 6.06 0 0 0 6.11-6c0-3.31-2.74-6-6.11-6zm0 9.6a3.65 3.65 0 0 1-3.67-3.6c0-1.98 1.65-3.6 3.67-3.6a3.64 3.64 0 0 1 3.66 3.6c0 1.98-1.64 3.6-3.66 3.6zM5 26v-2h12v2zM20 26v-2h3v2zM29 26v-2h12v2zM42 26v-2h3v2zM5 31v-2h12v2zM20 31v-2h3v2zM29 31v-2h12v2zM42 31v-2h3v2zM5 35v-2h12v2zM20 35v-2h3v2zM29 35v-2h12v2zM42 35v-2h3v2zM5 39v-2h12v2zM20 39v-2h3v2zM29 39v-2h12v2zM42 39v-2h3v2zM5 46v-2h12v2zM20 46v-2h3v2zM29 46v-2h12v2zM42 46v-2h3v2zM5 51v-2h12v2zM20 51v-2h3v2zM29 51v-2h12v2zM42 51v-2h3v2zM5 55v-2h12v2zM20 55v-2h3v2zM29 55v-2h12v2zM42 55v-2h3v2zM5 58v-2h12v2zM20 58v-2h3v2zM29 58v-2h12v2zM42 58v-2h3v2z"/></svg>