<?xml version="1.0" encoding="UTF-8"?>
<svg width="70px" height="70px" viewBox="0 0 70 70" version="1.1" xmlns="http://www.w3.org/2000/svg" xmlns:xlink="http://www.w3.org/1999/xlink">
    <!-- Generator: Sketch 41.2 (35397) - http://www.bohemiancoding.com/sketch -->
    <title>Group</title>
    <desc>Created with Sketch.</desc>
    <defs></defs>
    <g id="Page-1" stroke="none" stroke-width="1" fill="none" fill-rule="evenodd">
        <g id="00.Home" transform="translate(-194.000000, -1223.000000)" fill="#2886B7">
            <g id="Group" transform="translate(194.000000, 1223.000000)">
                <path d="M24.5245,33.8065 C21.875,30.814 18.3423333,29.1666667 14.5751667,29.1666667 C10.808,29.1666667 7.27533333,30.814 4.627,33.8065 C-0.753666667,39.886 -0.753666667,49.7758333 4.627,55.8553333 L14.5751667,67.0938333 L24.5233333,55.8553333 C29.9051667,49.7758333 29.9051667,39.886 24.5245,33.8065 Z M22.7768333,54.3083333 L14.5763333,63.5728333 L6.37466667,54.3083333 C1.74766667,49.0828333 1.74766667,40.579 6.37466667,35.3535 C8.57383333,32.8685 11.487,31.5 14.5751667,31.5 C17.6633333,31.5 20.5776667,32.8685 22.7756667,35.3535 C27.4026667,40.579 27.4026667,49.0816667 22.7768333,54.3083333 Z" id="Shape"></path>
                <path d="M56.8715,28.5915 L64.4128333,20.0911667 C68.4705,15.5178333 68.4705,8.07916667 64.4128333,3.50583333 C62.4061667,1.24483333 59.7275,0 56.8703333,0 C54.0143333,0 51.3356667,1.24483333 49.329,3.50583333 C45.2713333,8.07916667 45.2713333,15.5178333 49.329,20.0911667 L56.8715,28.5915 Z M51.0743333,5.05516667 C52.6318333,3.29933333 54.6898333,2.33333333 56.8703333,2.33333333 C59.052,2.33333333 61.11,3.29933333 62.6675,5.05516667 C65.9668333,8.77333333 65.9668333,14.8236667 62.6675,18.5418333 L56.8715,25.0763333 L51.0743333,18.5418333 C47.775,14.8236667 47.775,8.77333333 51.0743333,5.05516667 Z" id="Shape"></path>
                <path d="M61.3713333,63.6031667 C60.7425,63.462 60.1183333,63.8563333 59.9771667,64.4851667 C59.843,65.0801667 59.5828333,65.6273333 59.2036667,66.1091667 C58.8058333,66.6155 58.8921667,67.3493333 59.3996667,67.7471667 C59.6143333,67.9151667 59.8675,67.9968333 60.1195,67.9968333 C60.466,67.9968333 60.8078333,67.844 61.0376667,67.5511667 C61.6256667,66.8045 62.0456667,65.9225 62.2533333,64.9985 C62.3945,64.3685 62.0001667,63.7443333 61.3713333,63.6031667 Z" id="Shape"></path>
                <path d="M37.3275,36.1666667 C36.8223333,36.1655 36.3311667,36.0756667 35.8668333,35.8983333 C35.2695,35.6708333 34.5916667,35.9706667 34.3606667,36.5726667 C34.132,37.1746667 34.4341667,37.849 35.035,38.0788333 C35.7653333,38.3565 36.5341667,38.4988333 37.3251667,38.5 L37.7416667,38.5 C38.3868333,38.5 38.9083333,37.9785 38.9083333,37.3333333 C38.9083333,36.6881667 38.3868333,36.1666667 37.7416667,36.1666667 L37.3275,36.1666667 L37.3275,36.1666667 Z" id="Shape"></path>
                <path d="M34.5578333,28.7886667 C34.769,28.7886667 34.9813333,28.7315 35.1738333,28.6125 C35.6906667,28.2905 36.2623333,28.0933333 36.8701667,28.0256667 C37.5106667,27.9545 37.9726667,27.3781667 37.9026667,26.7376667 C37.8326667,26.0971667 37.2598333,25.6398333 36.6146667,25.7051667 C35.6556667,25.8113333 34.755,26.1216667 33.9383333,26.6315 C33.3911667,26.9721667 33.2255,27.692 33.5661667,28.2391667 C33.7878333,28.5938333 34.1681667,28.7886667 34.5578333,28.7886667 Z" id="Shape"></path>
                <path d="M21.0746667,67.6666667 L18.7413333,67.6666667 C18.0961667,67.6666667 17.5746667,68.1881667 17.5746667,68.8333333 C17.5746667,69.4785 18.0961667,70 18.7413333,70 L21.0746667,70 C21.7198333,70 22.2413333,69.4785 22.2413333,68.8333333 C22.2413333,68.1881667 21.7186667,67.6666667 21.0746667,67.6666667 Z" id="Shape"></path>
                <path d="M41.9918333,46.6666667 C41.8915,46.6666667 41.7923333,46.669 41.6931667,46.6736667 C41.0491667,46.6993333 40.5498333,47.243 40.5755,47.887 C40.6,48.5146667 41.118,49.0058333 41.7398333,49.0058333 C41.7561667,49.0058333 41.7725,49.0058333 41.7888333,49.0046667 L44.0743333,49 C44.7195,49 45.241,48.4785 45.241,47.8333333 C45.241,47.1881667 44.7195,46.6666667 44.0743333,46.6666667 L41.9918333,46.6666667 Z" id="Shape"></path>
                <path d="M41.4085,28 L43.7418333,28 C44.387,28 44.9085,27.4785 44.9085,26.8333333 C44.9085,26.1881667 44.387,25.6666667 43.7418333,25.6666667 L41.4085,25.6666667 C40.7633333,25.6666667 40.2418333,26.1881667 40.2418333,26.8333333 C40.2418333,27.4785 40.7633333,28 41.4085,28 Z" id="Shape"></path>
                <path d="M55.741,46.6666667 C55.0958333,46.6666667 54.5743333,47.1881667 54.5743333,47.8333333 C54.5743333,48.4785 55.0958333,49 55.741,49 L58.0743333,49 C58.7195,49 59.241,48.4785 59.241,47.8333333 C59.241,47.1881667 58.7195,46.6666667 58.0743333,46.6666667 L55.741,46.6666667 Z" id="Shape"></path>
                <path d="M59.9095,37.3333333 C59.9095,36.6881667 59.388,36.1666667 58.7428333,36.1666667 L56.4095,36.1666667 C55.7643333,36.1666667 55.2428333,36.6881667 55.2428333,37.3333333 C55.2428333,37.9785 55.7643333,38.5 56.4095,38.5 L58.7428333,38.5 C59.3868333,38.5 59.9095,37.9785 59.9095,37.3333333 Z" id="Shape"></path>
                <path d="M48.741,49 L51.0743333,49 C51.7195,49 52.241,48.4785 52.241,47.8333333 C52.241,47.1881667 51.7195,46.6666667 51.0743333,46.6666667 L48.741,46.6666667 C48.0958333,46.6666667 47.5743333,47.1881667 47.5743333,47.8333333 C47.5743333,48.4785 48.097,49 48.741,49 Z" id="Shape"></path>
                <path d="M50.7418333,28 C51.387,28 51.9085,27.4785 51.9085,26.8333333 C51.9085,26.1881667 51.387,25.6666667 50.7418333,25.6666667 L48.4085,25.6666667 C47.7633333,25.6666667 47.2418333,26.1881667 47.2418333,26.8333333 C47.2418333,27.4785 47.7633333,28 48.4085,28 L50.7418333,28 Z" id="Shape"></path>
                <path d="M42.4095,36.1666667 C41.7643333,36.1666667 41.2428333,36.6881667 41.2428333,37.3333333 C41.2428333,37.9785 41.7643333,38.5 42.4095,38.5 L44.7428333,38.5 C45.388,38.5 45.9095,37.9785 45.9095,37.3333333 C45.9095,36.6881667 45.388,36.1666667 44.7428333,36.1666667 L42.4095,36.1666667 Z" id="Shape"></path>
                <path d="M52.9095,37.3333333 C52.9095,36.6881667 52.388,36.1666667 51.7428333,36.1666667 L49.4095,36.1666667 C48.7643333,36.1666667 48.2428333,36.6881667 48.2428333,37.3333333 C48.2428333,37.9785 48.7643333,38.5 49.4095,38.5 L51.7428333,38.5 C52.3868333,38.5 52.9095,37.9785 52.9095,37.3333333 Z" id="Shape"></path>
                <path d="M69.3303333,41.5706667 C69.2276667,40.9336667 68.6268333,40.4985 67.9933333,40.6035 C67.3563333,40.705 66.9235,41.3046667 67.0261667,41.9405 C67.0588333,42.1481667 67.0775,42.3593333 67.0751667,42.5845 C67.0751667,42.9765 67.0191667,43.3638333 66.9095,43.7371667 C66.7286667,44.3555 67.0821667,45.0041667 67.7016667,45.185 C67.8113333,45.2165 67.921,45.2316667 68.0295,45.2316667 C68.5346667,45.2316667 69.0001667,44.9026667 69.1495,44.3928333 C69.321,43.806 69.4085,43.1981667 69.4085,42.5926667 C69.4108333,42.2566667 69.3851667,41.9125 69.3303333,41.5706667 Z" id="Shape"></path>
                <path d="M49.0746667,67.6666667 L46.7413333,67.6666667 C46.0961667,67.6666667 45.5746667,68.1881667 45.5746667,68.8333333 C45.5746667,69.4785 46.0961667,70 46.7413333,70 L49.0746667,70 C49.7198333,70 50.2413333,69.4785 50.2413333,68.8333333 C50.2413333,68.1881667 49.7186667,67.6666667 49.0746667,67.6666667 Z" id="Shape"></path>
                <path d="M42.0746667,67.6666667 L39.7413333,67.6666667 C39.0961667,67.6666667 38.5746667,68.1881667 38.5746667,68.8333333 C38.5746667,69.4785 39.0961667,70 39.7413333,70 L42.0746667,70 C42.7198333,70 43.2413333,69.4785 43.2413333,68.8333333 C43.2413333,68.1881667 42.7186667,67.6666667 42.0746667,67.6666667 Z" id="Shape"></path>
                <path d="M54.9091667,58.3333333 C54.9091667,57.6881667 54.3876667,57.1666667 53.7425,57.1666667 L51.4091667,57.1666667 C50.764,57.1666667 50.2425,57.6881667 50.2425,58.3333333 C50.2425,58.9785 50.764,59.5 51.4091667,59.5 L53.7425,59.5 C54.3865,59.5 54.9091667,58.9785 54.9091667,58.3333333 Z" id="Shape"></path>
                <path d="M47.9091667,58.3333333 C47.9091667,57.6881667 47.3876667,57.1666667 46.7425,57.1666667 L44.4091667,57.1666667 C43.764,57.1666667 43.2425,57.6881667 43.2425,58.3333333 C43.2425,58.9785 43.764,59.5 44.4091667,59.5 L46.7425,59.5 C47.3865,59.5 47.9091667,58.9785 47.9091667,58.3333333 Z" id="Shape"></path>
                <path d="M55.9918333,67.6666667 L53.7401667,67.6666667 C53.095,67.6666667 52.5735,68.1881667 52.5735,68.8333333 C52.5735,69.4785 53.095,70 53.7401667,70 L56.0396667,69.9988333 L56.0735,68.8321667 L56.0735,69.9988333 C56.7186667,69.9988333 57.1993333,69.4773333 57.1993333,68.8321667 C57.1993333,68.1881667 56.637,67.6666667 55.9918333,67.6666667 Z" id="Shape"></path>
                <path d="M60.1195,61.5055 C60.3715,61.5055 60.627,61.4238333 60.8393333,61.2558333 C61.3468333,60.8568333 61.4331667,60.123 61.0353333,59.6178333 C60.4485,58.8723333 59.6913333,58.2563333 58.8431667,57.8351667 C58.2633333,57.547 57.5656667,57.7838333 57.2786667,58.3601667 C56.9916667,58.9376667 57.2273333,59.6376667 57.8036667,59.9246667 C58.3438333,60.1918333 58.8268333,60.585 59.2001667,61.061 C59.4311667,61.3526667 59.773,61.5055 60.1195,61.5055 Z" id="Shape"></path>
                <path d="M64.5691667,46.3505 C64.0686667,46.5605 63.539,46.6666667 62.9918333,46.6666667 L62.741,46.6666667 C62.0958333,46.6666667 61.5743333,47.1881667 61.5743333,47.8333333 C61.5743333,48.4785 62.0958333,49 62.741,49 L62.9918333,49 C63.8505,49 64.6846667,48.832 65.471,48.5018333 C66.066,48.2521667 66.3448333,47.5685 66.0951667,46.9746667 C65.8466667,46.3808333 65.1583333,46.1008333 64.5691667,46.3505 Z" id="Shape"></path>
                <path d="M32.7005,34.8308333 C33.3118333,34.629 33.6455,33.9698333 33.4448333,33.3573333 C33.3106667,32.9478333 33.2418333,32.5196667 33.2418333,32.088 C33.243,31.9118333 33.2535,31.7356667 33.2745,31.5641667 C33.355,30.9248333 32.9023333,30.3403333 32.263,30.261 C31.6038333,30.1875 31.0391667,30.6355 30.9598333,31.2725 C30.9271667,31.5361667 30.9096667,31.8045 30.9085,32.0821667 C30.9085,32.7681667 31.0158333,33.4425 31.227,34.0865 C31.3891667,34.5776667 31.8453333,34.8891667 32.3353333,34.8891667 C32.4566667,34.8891667 32.5803333,34.8716667 32.7005,34.8308333 Z" id="Shape"></path>
                <path d="M28.0746667,67.6666667 L25.7413333,67.6666667 C25.0961667,67.6666667 24.5746667,68.1881667 24.5746667,68.8333333 C24.5746667,69.4785 25.0961667,70 25.7413333,70 L28.0746667,70 C28.7198333,70 29.2413333,69.4785 29.2413333,68.8333333 C29.2413333,68.1881667 28.7186667,67.6666667 28.0746667,67.6666667 Z" id="Shape"></path>
                <path d="M39.809,59.0263333 C40.2523333,59.0263333 40.6746667,58.7731667 40.8706667,58.345 C41.1378333,57.7581667 40.8811667,57.0663333 40.2955,56.7991667 C39.7483333,56.5483333 39.2525,56.1715 38.8628333,55.7071667 C38.4475,55.2136667 37.7125,55.1495 37.219,55.5648333 C36.7255,55.979 36.6613333,56.7151667 37.0766667,57.2086667 C37.688,57.9355 38.465,58.5281667 39.3248333,58.9201667 C39.4823333,58.9913333 39.6468333,59.0263333 39.809,59.0263333 Z" id="Shape"></path>
                <path d="M66.2036667,37.0276667 C65.3706667,36.5446667 64.4606667,36.2611667 63.5005,36.1853333 C62.86,36.1386667 62.2965,36.6135 62.2463333,37.2575 C62.1961667,37.9003333 62.6756667,38.4615 63.3185,38.5116667 C63.9275,38.5595 64.505,38.7391667 65.0335,39.046 C65.2178333,39.1533333 65.4196667,39.2035 65.618,39.2035 C66.0205,39.2035 66.4125,38.9946667 66.6283333,38.6225 C66.9515,38.066 66.7613333,37.352 66.2036667,37.0276667 Z" id="Shape"></path>
                <path d="M35.0746667,67.6666667 L32.7413333,67.6666667 C32.0961667,67.6666667 31.5746667,68.1881667 31.5746667,68.8333333 C31.5746667,69.4785 32.0961667,70 32.7413333,70 L35.0746667,70 C35.7198333,70 36.2413333,69.4785 36.2413333,68.8333333 C36.2413333,68.1881667 35.7186667,67.6666667 35.0746667,67.6666667 Z" id="Shape"></path>
                <path d="M37.9808333,52.3121667 C38.0963333,51.7125 38.339,51.1583333 38.703,50.6636667 C39.0845,50.1456667 38.9736667,49.4153333 38.4545,49.0326667 C37.9353333,48.6523333 37.2061667,48.762 36.8235,49.2811667 C36.253,50.0581667 35.8703333,50.9296667 35.6883333,51.8735 C35.567,52.5058333 35.9811667,53.1171667 36.6146667,53.2396667 C36.6881667,53.2536667 36.7628333,53.2606667 36.8351667,53.2606667 C37.3835,53.2583333 37.8723333,52.8698333 37.9808333,52.3121667 Z" id="Shape"></path>
                <path d="M57.1585,17.5 C60.6958333,17.5 63.5751667,14.6206667 63.5751667,11.0833333 C63.5751667,7.546 60.6958333,4.66666667 57.1585,4.66666667 C53.6211667,4.66666667 50.7418333,7.546 50.7418333,11.0833333 C50.7418333,14.6206667 53.6211667,17.5 57.1585,17.5 Z M57.1585,7 C59.4101667,7 61.2418333,8.83166667 61.2418333,11.0833333 C61.2418333,13.335 59.4101667,15.1666667 57.1585,15.1666667 C54.9068333,15.1666667 53.0751667,13.335 53.0751667,11.0833333 C53.0751667,8.83166667 54.908,7 57.1585,7 Z" id="Shape"></path>
                <path d="M14.5751667,36.1666667 C10.7146667,36.1666667 7.57516667,39.3061667 7.57516667,43.1666667 C7.57516667,47.0271667 10.7146667,50.1666667 14.5751667,50.1666667 C18.4356667,50.1666667 21.5751667,47.0271667 21.5751667,43.1666667 C21.5751667,39.3061667 18.4356667,36.1666667 14.5751667,36.1666667 Z M14.5751667,47.8333333 C12.0015,47.8333333 9.9085,45.7403333 9.9085,43.1666667 C9.9085,40.593 12.0015,38.5 14.5751667,38.5 C17.1488333,38.5 19.2418333,40.593 19.2418333,43.1666667 C19.2418333,45.7403333 17.1488333,47.8333333 14.5751667,47.8333333 Z" id="Shape"></path>
            </g>
        </g>
    </g>
</svg>