<?xml version="1.0" encoding="UTF-8"?>
<svg width="46px" height="64px" viewBox="0 0 46 64" version="1.1" xmlns="http://www.w3.org/2000/svg" xmlns:xlink="http://www.w3.org/1999/xlink">
    <!-- Generator: Sketch 41.2 (35397) - http://www.bohemiancoding.com/sketch -->
    <title>Group 2</title>
    <desc>Created with Sketch.</desc>
    <defs></defs>
    <g id="Page-1" stroke="none" stroke-width="1" fill="none" fill-rule="evenodd">
        <g id="00.Home" transform="translate(-1121.000000, -1226.000000)" fill="#2886B7">
            <g id="Group-2" transform="translate(1121.000000, 1226.000000)">
                <path d="M44.6120576,4.00290909 L33.0293237,4.00290909 L33.0293237,1.28342246 C33.0293237,0.574631016 32.4738489,0 31.7883165,0 L14.1383813,0 C13.4530144,0 12.8973741,0.574631016 12.8973741,1.28342246 L12.8973741,10.2867166 C12.8973741,10.995508 13.4530144,11.570139 14.1383813,11.570139 L31.7883165,11.570139 C32.4738489,11.570139 33.0293237,10.995508 33.0293237,10.2867166 L33.0293237,6.56975401 L43.3710504,6.56975401 L43.3710504,61.3573476 L2.55564748,61.3573476 L2.55564748,6.56975401 L7.57477698,6.56975401 C8.26014388,6.56975401 8.81578417,5.99512299 8.81578417,5.28633155 C8.81578417,4.57754011 8.26014388,4.00290909 7.57477698,4.00290909 L1.31464029,4.00290909 C0.629273381,4.00290909 0.0736330935,4.57754011 0.0736330935,5.28633155 L0.0736330935,62.6407701 C0.0736330935,63.3495615 0.629273381,63.9241925 1.31464029,63.9241925 L44.6120576,63.9241925 C45.2975899,63.9241925 45.8530647,63.3495615 45.8530647,62.6407701 L45.8530647,5.28633155 C45.8530647,4.57754011 45.2974245,4.00290909 44.6120576,4.00290909 Z M30.5473094,9.00329412 L15.3793885,9.00329412 L15.3793885,2.56684492 L30.5473094,2.56684492 L30.5473094,9.00329412 Z" id="Shape"></path>
                <path d="M15.3793885,17.1316364 C15.3793885,16.4228449 14.8237482,15.8482139 14.1383813,15.8482139 L6.89917266,15.8482139 C6.21380576,15.8482139 5.65816547,16.4228449 5.65816547,17.1316364 L5.65816547,24.6182674 C5.65816547,25.3270588 6.21380576,25.9016898 6.89917266,25.9016898 L14.1383813,25.9016898 C14.8237482,25.9016898 15.3793885,25.3270588 15.3793885,24.6182674 L15.3793885,17.1316364 Z M12.8973741,23.3348449 L8.14017986,23.3348449 L8.14017986,18.4150588 L12.8973741,18.4150588 L12.8973741,23.3348449 Z" id="Shape"></path>
                <path d="M19.1024101,22.1583743 L36.8901799,22.1583743 C37.5757122,22.1583743 38.1311871,21.5837433 38.1311871,20.8749519 C38.1311871,20.1661604 37.5757122,19.5915294 36.8901799,19.5915294 L19.1024101,19.5915294 C18.4170432,19.5915294 17.8614029,20.1661604 17.8614029,20.8749519 C17.8614029,21.5837433 18.4170432,22.1583743 19.1024101,22.1583743 Z" id="Shape"></path>
                <path d="M15.3793885,31.3918289 C15.3793885,30.6830374 14.8237482,30.1084064 14.1383813,30.1084064 L6.89917266,30.1084064 C6.21380576,30.1084064 5.65816547,30.6830374 5.65816547,31.3918289 L5.65816547,38.8784599 C5.65816547,39.5872513 6.21380576,40.1618824 6.89917266,40.1618824 L14.1383813,40.1618824 C14.8237482,40.1618824 15.3793885,39.5872513 15.3793885,38.8784599 L15.3793885,31.3918289 Z M12.8973741,37.5950374 L8.14017986,37.5950374 L8.14017986,32.6752513 L12.8973741,32.6752513 L12.8973741,37.5950374 Z" id="Shape"></path>
                <path d="M19.1024101,36.4185668 L36.8901799,36.4185668 C37.5757122,36.4185668 38.1311871,35.8439358 38.1311871,35.1351444 C38.1311871,34.4263529 37.5757122,33.8517219 36.8901799,33.8517219 L19.1024101,33.8517219 C18.4170432,33.8517219 17.8614029,34.4263529 17.8614029,35.1351444 C17.8614029,35.8439358 18.4170432,36.4185668 19.1024101,36.4185668 Z" id="Shape"></path>
                <path d="M14.1383813,46.935615 C14.8237482,46.935615 15.3793885,46.360984 15.3793885,45.6521925 C15.3793885,44.9434011 14.8237482,44.3687701 14.1383813,44.3687701 L6.89917266,44.3687701 C6.21380576,44.3687701 5.65816547,44.9434011 5.65816547,45.6521925 L5.65816547,53.1388235 C5.65816547,53.847615 6.21380576,54.422246 6.89917266,54.422246 L14.1383813,54.422246 C14.8237482,54.422246 15.3793885,53.847615 15.3793885,53.1388235 C15.3793885,52.4300321 14.8237482,51.8554011 14.1383813,51.8554011 L8.14017986,51.8554011 L8.14017986,46.935615 L14.1383813,46.935615 Z" id="Shape"></path>
                <path d="M19.1024101,50.6789305 L36.8901799,50.6789305 C37.5757122,50.6789305 38.1311871,50.1042995 38.1311871,49.395508 C38.1311871,48.6867166 37.5757122,48.1120856 36.8901799,48.1120856 L19.1024101,48.1120856 C18.4170432,48.1120856 17.8614029,48.6867166 17.8614029,49.395508 C17.8614029,50.1042995 18.4170432,50.6789305 19.1024101,50.6789305 Z" id="Shape"></path>
            </g>
        </g>
    </g>
</svg>