<?xml version="1.0" encoding="UTF-8"?>
<svg width="33px" height="39px" viewBox="0 0 33 39" version="1.1" xmlns="http://www.w3.org/2000/svg" xmlns:xlink="http://www.w3.org/1999/xlink">
    <!-- Generator: Sketch 41.2 (35397) - http://www.bohemiancoding.com/sketch -->
    <title>333</title>
    <desc>Created with Sketch.</desc>
    <defs>
        <path d="M32.9576426,10.0417609 C32.937481,8.98881671 32.9182358,7.99411667 32.9182358,7.03181491 C32.9182358,6.27791782 32.3029406,5.66671878 31.5435816,5.66671878 C25.6646436,5.66671878 21.1885861,3.98892464 17.4575912,0.386526971 C16.9238588,-0.128933326 16.0745057,-0.128751313 15.5409566,0.386526971 C11.8103283,3.98892464 7.33500391,5.66671878 1.4564325,5.66671878 C0.697256782,5.66671878 0.0817782548,6.27791782 0.0817782548,7.03181491 C0.0817782548,7.99429868 0.0627163826,8.98936275 0.0423714998,10.0424889 C-0.146047775,19.8413309 -0.404116199,33.2613179 16.0490288,38.9246467 C16.1949254,38.9748822 16.3470538,39 16.4991823,39 C16.6513107,39 16.8036223,38.9748822 16.9493357,38.9246467 C33.4037637,33.2611359 33.1460619,19.8407849 32.9576426,10.0417609 Z" id="path-1"></path>
        <mask id="mask-2" maskContentUnits="userSpaceOnUse" maskUnits="objectBoundingBox" x="0" y="0" width="33" height="39" fill="white">
            <use xlink:href="#path-1"></use>
        </mask>
    </defs>
    <g id="Page-1" stroke="none" stroke-width="1" fill="none" fill-rule="evenodd">
        <g id="06.Сompany" transform="translate(-1400.000000, -645.000000)">
            <g id="333" transform="translate(1400.000000, 645.000000)">
                <path d="M21.8511758,15.0419043 L15.0295155,21.913019 L12.118546,18.980784 C11.5665793,18.4249749 10.6716356,18.4249749 10.1198574,18.980784 C9.56789068,19.5369728 9.56789068,20.4382645 10.1198574,20.9942634 L14.0301712,24.9331431 C14.3060604,25.2110477 14.6678822,25.35 15.0295155,25.35 C15.3911489,25.35 15.7529707,25.2110477 16.0288598,24.9331431 L23.849676,17.0553837 C24.4018312,16.4993847 24.4018312,15.5979033 23.8498644,15.0420942 C23.2980862,14.4860952 22.4031425,14.4859054 21.8511758,15.0419043 Z" id="Shape" fill="#fff"></path>
                <use id="Shape" stroke="#fff" mask="url(#mask-2)" stroke-width="4" xlink:href="#path-1"></use>
            </g>
        </g>
    </g>
</svg>