<?xml version="1.0" encoding="UTF-8"?>
<svg width="33px" height="43px" viewBox="0 0 33 43" version="1.1" xmlns="http://www.w3.org/2000/svg" xmlns:xlink="http://www.w3.org/1999/xlink">
    <!-- Generator: Sketch 41.2 (35397) - http://www.bohemiancoding.com/sketch -->
    <title>6767</title>
    <desc>Created with Sketch.</desc>
    <defs></defs>
    <g id="Page-1" stroke="none" stroke-width="1" fill="none" fill-rule="evenodd">
        <g id="06.Сompany" transform="translate(-1400.000000, -554.000000)">
            <g id="6767" transform="translate(1400.000000, 554.000000)">
                <path d="M17.7440618,7.57881874 L17.7440618,0.846843177 C17.7440618,0.376374745 17.3628417,0 16.8863166,0 C16.4097915,0 16.0285714,0.376374745 16.0285714,0.846843177 L16.0285714,7.58737271 C16.0285714,8.05784114 16.4097915,8.43421589 16.8863166,8.43421589 C17.3628417,8.42566191 17.7440618,8.04928717 17.7440618,7.57881874 Z" id="Shape" fill="#fff"></path>
                <path d="M10.4000965,10.460387 C10.6166988,10.460387 10.8419653,10.3748473 11.006583,10.2123218 C11.3444826,9.8787169 11.3444826,9.34837067 11.006583,9.01476578 L6.1806834,4.25020367 C5.84278378,3.91659878 5.30561004,3.91659878 4.96771042,4.25020367 C4.62981081,4.58380855 4.62981081,5.11415479 4.96771042,5.44775967 L9.79361004,10.2123218 C9.9582278,10.3748473 10.1834942,10.460387 10.4000965,10.460387 Z" id="Shape" fill="#fff"></path>
                <path d="M31.2564788,15 L24.4291737,15 C23.9526486,15 23.5714286,15.3763747 23.5714286,15.8468432 C23.5714286,16.3173116 23.9526486,16.6936864 24.4291737,16.6936864 L31.2564788,16.6936864 C31.7330039,16.6936864 32.1142239,16.3173116 32.1142239,15.8468432 C32.1142239,15.3763747 31.7330039,15 31.2564788,15 Z" id="Shape" fill="#FF6766"></path>
                <path d="M1.88571429,15.8468432 C1.88571429,16.3173116 2.26693436,16.6936864 2.74345946,16.6936864 L9.57076448,16.6936864 C10.0472896,16.6936864 10.4285097,16.3173116 10.4285097,15.8468432 C10.4285097,15.3763747 10.0472896,15 9.57076448,15 L2.74345946,15 C2.27559846,15 1.88571429,15.3849287 1.88571429,15.8468432 Z" id="Shape" fill="#FF6766"></path>
                <path d="M23.152112,10.2123218 L27.9780116,5.44775967 C28.3159112,5.11415479 28.3159112,4.58380855 27.9780116,4.25020367 C27.640112,3.91659878 27.1029382,3.91659878 26.7650386,4.25020367 L21.939139,9.01476578 C21.6012394,9.34837067 21.6012394,9.8787169 21.939139,10.2123218 C22.1037568,10.3748473 22.3290232,10.460387 22.5456255,10.460387 C22.7622278,10.460387 22.9874942,10.3748473 23.152112,10.2123218 Z" id="Shape" fill="#fff"></path>
                <path d="M0,25.5496099 L0,40.219671 C0,41.1434999 0.762440154,41.8876954 1.68949807,41.8876954 L6.74066409,41.8876954 C7.3211583,41.8876954 7.82367568,41.6054144 8.13558301,41.1691618 C8.94134363,41.9133573 10.0156911,42.3752718 11.2026718,42.3752718 L24.7359846,42.3752718 C27.768417,42.3752718 29.7005097,40.801341 30.0470734,38.0640702 L31.8665328,26.6359643 C31.8751969,26.5931944 31.8751969,26.5504245 31.8751969,26.5076547 C31.8751969,24.0697728 29.8651274,22.0852514 27.395861,22.0852514 L20.6292046,22.0852514 L20.6292046,17.2864734 C20.6292046,15.2078583 20.0140541,13.7109133 18.792417,12.8213003 C16.8603243,11.4270029 14.2177761,12.2225223 14.1051429,12.2567382 C13.7499151,12.3679398 13.5073205,12.6929907 13.5073205,13.0608115 L13.5073205,18.5182453 C13.5073205,22.7695691 8.4994749,24.2237443 8.29153668,24.2836221 C8.18756757,24.309284 8.08359846,24.3606078 8.00562162,24.4290396 C7.69371429,24.0868807 7.24318147,23.8730315 6.74932819,23.8730315 L1.68949807,23.8730315 C0.753776062,23.8730315 0,24.625781 0,25.5496099 Z M8.43882625,25.9430926 C8.54279537,25.9516465 8.64676448,25.9430926 8.75073359,25.9174306 C9.01932046,25.8404449 15.2228108,24.0697728 15.2228108,18.5267993 L15.2228108,13.7451292 C15.8899459,13.6424816 16.9902857,13.6082657 17.7787181,14.1899357 C18.5324942,14.7373899 18.9137143,15.7809744 18.9137143,17.2779194 L18.9137143,22.9235406 C18.9137143,23.3940091 19.2949344,23.7703838 19.7714595,23.7703838 L27.395861,23.7703838 C28.9034131,23.7703838 30.1250502,24.9593858 30.1597066,26.4392229 L28.3489112,37.807451 L28.3489112,37.8331129 C28.1149807,39.7149867 26.9020077,40.6644775 24.7359846,40.6644775 L11.2026718,40.6644775 C9.67779151,40.6644775 8.43882625,39.4412596 8.43882625,37.9357606 L8.43882625,25.9430926 L8.43882625,25.9430926 Z M1.71549035,25.5667178 L6.72333591,25.5667178 L6.72333591,40.1940091 L1.71549035,40.1940091 L1.71549035,25.5667178 Z" id="Shape" fill="#fff"></path>
            </g>
        </g>
    </g>
</svg>