<?xml version="1.0" encoding="UTF-8"?>
<svg width="38px" height="35px" viewBox="0 0 38 35" version="1.1" xmlns="http://www.w3.org/2000/svg" xmlns:xlink="http://www.w3.org/1999/xlink">
    <!-- Generator: Sketch 41.2 (35397) - http://www.bohemiancoding.com/sketch -->
    <title>1</title>
    <desc>Created with Sketch.</desc>
    <defs></defs>
    <g id="Page-1" stroke="none" stroke-width="1" fill="none" fill-rule="evenodd">
        <g id="06.Сompany" transform="translate(-1400.000000, -919.000000)">
            <g id="1" transform="translate(1400.000000, 919.000000)">
                <path d="M36.4338735,33.0555556 L0.88157753,33.0555556 C0.394654624,33.0555556 0,33.419937 0,33.869509 C0,34.3189465 0.394654624,34.6834625 0.88157753,34.6834625 L36.4338735,34.6834625 C36.9206506,34.6834625 37.315451,34.3189465 37.315451,33.869509 C37.315451,33.4200043 36.9207964,33.0555556 36.4338735,33.0555556 Z" id="Shape" fill="#FF6766"></path>
                <path d="M33.8084232,4.38240209 L27.6121471,4.38240209 C27.1249675,4.38240209 26.7298408,4.79812554 26.7298408,5.3107002 L26.7298408,11.6221451 L22.2981043,11.6221451 L22.2981043,0.928298116 C22.2981043,0.415723454 21.9029775,0 21.415798,0 L15.219376,0 C14.7321964,0 14.3370697,0.415723454 14.3370697,0.928298116 L14.3370697,18.4936693 L9.90533319,18.4936693 L9.90533319,10.602905 C9.90533319,10.0901769 9.51020644,9.67460693 9.02302689,9.67460693 L2.82675075,9.67460693 C2.33942532,9.67460693 1.94444444,10.0901769 1.94444444,10.602905 L1.94444444,28.3740275 C1.94444444,28.8867556 2.3395712,29.3023256 2.82675075,29.3023256 L9.02302689,29.3023256 L15.219303,29.3023256 L21.415725,29.3023256 L27.6120741,29.3023256 L33.8083503,29.3023256 C34.2956757,29.3023256 34.6906566,28.8866021 34.6906566,28.3740275 L34.6906566,5.3107002 C34.6907295,4.79812554 34.2957486,4.38240209 33.8084232,4.38240209 Z M8.14079352,27.4457293 L3.70905706,27.4457293 L3.70905706,11.5312032 L8.14079352,11.5312032 L8.14079352,27.4457293 Z M14.3372155,27.4457293 L9.90547908,27.4457293 L9.90547908,20.3502655 L14.3372155,20.3502655 L14.3372155,27.4457293 Z M20.5335646,12.5504432 L20.5335646,27.4457293 L16.1017552,27.4457293 L16.1017552,1.85659623 L20.5335646,1.85659623 L20.5335646,12.5504432 Z M26.7299866,27.4457293 L22.2982502,27.4457293 L22.2982502,13.4787413 L26.7299866,13.4787413 L26.7299866,27.4457293 Z M32.9262628,27.4457293 L28.4945993,27.4457293 L28.4945993,12.5504432 L28.4945993,6.23899832 L32.9263357,6.23899832 L32.9263357,27.4457293 L32.9262628,27.4457293 Z" id="Shape" fill="#AAAAAA"></path>
            </g>
        </g>
    </g>
</svg>