<?xml version="1.0" encoding="UTF-8"?>
<svg width="46px" height="33px" viewBox="0 0 46 33" version="1.1" xmlns="http://www.w3.org/2000/svg" xmlns:xlink="http://www.w3.org/1999/xlink">
    <!-- Generator: Sketch 41.2 (35397) - http://www.bohemiancoding.com/sketch -->
    <title>2</title>
    <desc>Created with Sketch.</desc>
    <defs></defs>
    <g id="Page-1" stroke="none" stroke-width="1" fill="none" fill-rule="evenodd">
        <g id="06.Сompany" transform="translate(-1396.000000, -740.000000)">
            <g id="2" transform="translate(1396.000000, 740.000000)">
                <path d="M15.909069,2.26321189 L15.3381928,2.57066531 C14.6269372,2.94985786 13.7940194,3.00110009 13.054688,2.71414357 L12.1001081,2.34519947 C12.0439563,2.30420568 11.9878046,2.27346034 11.9316528,2.25296345 L6.05443556,0.0495472972 C5.61458013,-0.114427858 5.12793157,0.141783322 4.97819355,0.623460341 L0.0461975329,16.3548268 C-0.0286714768,16.5905411 -0.00995422438,16.8467523 0.0836320377,17.0619697 C0.1772183,17.277187 0.355032198,17.4514107 0.570280601,17.5333982 L6.43813924,19.7368144 C6.5317255,19.7675597 6.62531176,19.7880566 6.7095394,19.7880566 C7.06516719,19.7880566 7.39271911,19.5420939 7.51438125,19.1629013 L12.1656185,4.34364668 L12.4838118,4.46662804 C13.65364,4.91755972 14.9638477,4.83557214 16.0868829,4.2411622 L16.6577591,3.93370879 C17.359656,3.55451624 18.1832151,3.50327401 18.9225466,3.77998208 L29.7130426,7.84861562 C29.6007391,8.34054109 29.3761321,8.92470258 28.9643525,9.24240444 C28.5057798,9.59085165 27.8226001,9.59085165 26.924172,9.25265289 L22.1138381,7.44892618 C21.8892311,7.3669386 21.6459068,7.3874355 21.4400171,7.51041686 C21.2341273,7.63339823 21.0843893,7.84861562 21.0188789,8.09457835 C21.0095202,8.12532369 20.3450578,10.8514107 18.2206496,12.1017212 C16.8823661,12.8908516 15.2165306,12.921597 13.2605777,12.1939572 C12.8207223,12.0299821 12.3340737,12.2861933 12.1843357,12.7678703 C12.0345977,13.2495473 12.2685634,13.7824666 12.7084188,13.9464417 C13.8314539,14.366628 14.8889787,14.5818454 15.8716345,14.5818454 C17.0133869,14.5818454 18.061553,14.3051374 19.0161329,13.7414728 C20.915934,12.624392 21.8985897,10.6669386 22.3478038,9.49861562 L26.3626544,11.0051374 C27.7945243,11.5483051 28.9924284,11.4663175 29.9189324,10.7591746 C31.406954,9.63184543 31.481823,7.34644171 31.4911816,7.24395724 C31.5005402,6.83401935 31.2665746,6.47532369 30.9203054,6.34209388 L19.4653469,2.01724916 C18.3142359,1.58681438 17.0133869,1.6790504 15.909069,2.26321189 Z M6.19481495,17.6768765 L1.9272814,16.0781187 L6.29775984,2.10948519 L10.5652934,3.70824295 L6.19481495,17.6768765 Z" id="Shape" fill="#FF6766"></path>
                <path d="M38.2542399,18.6310248 L36.2421353,20.6602173 C34.4172031,22.4946894 32.3583054,24.0422049 30.1309523,25.2310248 L19.4527598,30.9496583 C18.9848285,31.2058695 18.4139523,30.9906521 18.1799867,30.4679813 C17.946021,29.955559 18.1425522,29.3304037 18.6198421,29.0741925 L18.7508629,29.0024534 L18.7508629,29.0024534 L24.5906456,25.876677 C25.0117838,25.6512111 25.1895977,25.097795 24.9837079,24.6366149 C24.7778181,24.1754347 24.2724523,23.9807142 23.8513141,24.2061801 L18.0115314,27.3319565 L18.0115314,27.3319565 L15.0729228,28.9102173 C14.6049915,29.1664285 14.0341153,28.9512111 13.8001496,28.4285403 C13.6878461,28.1825776 13.6691288,27.8956211 13.7533565,27.6394099 C13.8375841,27.3729503 14.0060394,27.1679813 14.2306464,27.0449999 L16.4486408,25.8561801 L16.4486408,25.8561801 L22.7937894,22.4536956 C23.2149276,22.2282298 23.3927415,21.6748136 23.1868517,21.2136335 C22.9809619,20.7524534 22.4755961,20.5577329 22.0544579,20.7831987 L15.6999507,24.1959316 L15.6999507,24.1959316 L15.4566264,24.3291614 L12.4244315,25.9586645 C12.1998245,26.0816459 11.937783,26.1021428 11.7038173,26.0099068 C11.460493,25.9176708 11.2733205,25.7331987 11.161017,25.487236 C10.9270513,24.9748136 11.1235825,24.3496583 11.6008724,24.0934472 L12.6490386,23.5297826 L12.6490386,23.5297826 L14.792164,22.3819565 L15.3911161,22.0642546 L15.3911161,22.0642546 L20.3137534,19.4201552 C20.7348916,19.1946894 20.9127055,18.6412732 20.7068157,18.1800931 C20.500926,17.718913 19.9955601,17.5241925 19.574422,17.7496583 L14.240005,20.6089751 L11.9097071,21.8592857 C11.4417758,22.1052484 10.8708996,21.9002794 10.6369339,21.3776086 C10.5246304,21.1316459 10.5059132,20.8446894 10.5901408,20.5884782 C10.6743684,20.3220186 10.8428237,20.1170496 11.0674307,19.9940683 L15.1384331,17.811149 C15.5595713,17.5856832 15.7373852,17.032267 15.5314954,16.5710869 C15.3256057,16.1099068 14.8202399,15.9151863 14.3991017,16.1406521 L10.3280993,18.3235714 C9.69171269,18.6617701 9.21442275,19.2561801 8.98981572,19.9838198 C8.76520869,20.7114596 8.8026432,21.50059 9.11147786,22.1974844 C9.30800902,22.6279192 9.5887678,22.9866149 9.92567835,23.2530745 C9.33608489,24.1036956 9.18634687,25.2720186 9.64491956,26.2968633 C9.95375422,26.9937577 10.4965545,27.5164285 11.161017,27.7623913 C11.4417758,27.8648757 11.7225346,27.916118 12.0032934,27.916118 C11.9939347,28.3772981 12.0781624,28.8384782 12.2746935,29.2586645 C12.7332662,30.2835093 13.6784875,30.8779192 14.6517846,30.8779192 C15.0448469,30.8779192 15.4379092,30.7856832 15.8122542,30.5807142 L16.4112063,30.2630124 C16.4392822,30.6114596 16.5235098,30.9496583 16.6638892,31.2776086 C17.1224619,32.3024534 18.0676831,32.8968633 19.0409803,32.8968633 C19.4340426,32.8968633 19.8271049,32.8046273 20.2014499,32.5996583 L30.8796424,26.8810248 C33.2567335,25.6102173 35.446652,23.9704658 37.3932463,22.0130124 L39.779696,19.6046273 L45.2451337,16.6735714 C45.6662718,16.4481055 45.8440857,15.8946894 45.638196,15.4335093 L38.9561369,0.52201858 C38.853192,0.296552741 38.6847367,0.132577586 38.4694883,0.0505900082 C38.2542399,-0.0313975694 38.0202742,-0.010900675 37.8237431,0.091583797 L32.2460019,3.07388193 C31.8248637,3.29934777 31.6470498,3.85276392 31.8529396,4.31394405 L38.2542399,18.6310248 Z M37.8050258,2.17201858 L43.7290362,15.4437577 L39.6767511,17.6164285 L33.7527407,4.34468939 L37.8050258,2.17201858 Z" id="Shape" fill="#AAAAAA"></path>
            </g>
        </g>
    </g>
</svg>