<?xml version="1.0" encoding="UTF-8"?>
<svg width="38px" height="38px" viewBox="0 0 38 38" version="1.1" xmlns="http://www.w3.org/2000/svg" xmlns:xlink="http://www.w3.org/1999/xlink">
    <!-- Generator: Sketch 41.2 (35397) - http://www.bohemiancoding.com/sketch -->
    <title>9</title>
    <desc>Created with Sketch.</desc>
    <defs></defs>
    <g id="Page-1" stroke="none" stroke-width="1" fill="none" fill-rule="evenodd">
        <g id="06.Сompany" transform="translate(-1400.000000, -828.000000)" fill="#FFFFFF">
            <g id="9" transform="translate(1400.000000, 828.000000)">
                <path d="M35.2839229,14.8622055 C35.9810577,14.1835375 36.2271717,13.187502 35.9263908,12.2628103 C35.6255347,11.3381186 34.8401959,10.6768735 33.8767947,10.5371146 L25.4526744,9.31458103 C25.2873201,9.29062451 25.144374,9.18691304 25.0703819,9.03716601 L21.3030263,1.41350988 C20.8722329,0.541612648 19.999818,0 19.0262655,0 C18.052713,0 17.1802981,0.541612648 16.7495047,1.41350988 L12.982149,9.03724111 C12.9080817,9.18691304 12.7652108,9.29062451 12.5997813,9.31465613 L4.17581141,10.5371146 C3.21241027,10.6768735 2.42714661,11.3381186 2.12621534,12.2628103 C1.82528408,13.187502 2.07147322,14.1835375 2.76868329,14.8622055 L8.86438367,20.7964387 C8.98401926,20.9129921 9.03868618,21.0808379 9.01041278,21.2453794 L7.57140189,29.6246047 C7.40687475,30.5829407 7.79382934,31.533166 8.58142406,32.104668 C9.36901878,32.6763202 10.3937792,32.7501423 11.255366,32.2978221 L18.7900021,28.3416917 C18.9379863,28.2639644 19.1146199,28.2639644 19.2626792,28.3416917 L26.7973905,32.2978221 C27.1721635,32.494581 27.5776913,32.591834 27.981264,32.5917589 C28.5053747,32.5917589 29.0261768,32.4277431 29.4711069,32.1045929 C30.2587016,31.5330158 30.6457314,30.5827154 30.4811291,29.6245296 L29.0421182,21.2453043 C29.01392,21.0807628 29.0685117,20.912917 29.1881473,20.7963636 L35.2839229,14.8622055 Z M27.0403463,21.5883557 L28.4793572,29.9677312 C28.5274821,30.2481502 28.3541571,30.4080356 28.2773828,30.4636838 C28.2005333,30.5192569 27.9946488,30.6346838 27.7425944,30.5022095 L20.2078831,26.5460791 C19.8379979,26.3519486 19.4322445,26.2547708 19.0264159,26.2547708 C18.6205873,26.2547708 18.2147587,26.3519486 17.8449486,26.546004 L10.3103125,30.5020593 C10.0581078,30.6344585 9.85229844,30.5191818 9.77552413,30.4635336 C9.69874981,30.4078854 9.52534963,30.248 9.57354977,29.967581 L11.0125607,21.5883557 C11.1538525,20.7656482 10.880969,19.9266443 10.2823399,19.3439526 L4.18663952,13.4097194 C3.98263489,13.2110079 4.02880476,12.9799289 4.05820609,12.8898103 C4.08745703,12.7996166 4.18618835,12.5855099 4.46809522,12.5446561 L12.89199,11.3221225 C13.7190622,11.2021146 14.4337927,10.6836324 14.8037532,9.93497233 L18.5711088,2.31124111 C18.6972112,2.05613043 18.9315195,2.02856917 19.0264911,2.02856917 C19.1213122,2.02856917 19.3556205,2.05605534 19.4817981,2.31124111 L19.4817981,2.31131621 L23.2491537,9.93504743 C23.619039,10.6837075 24.3336944,11.2021897 25.1607666,11.3221976 L33.5848117,12.5447312 C33.8667186,12.585585 33.9653747,12.7996917 33.9947008,12.8898854 C34.024027,12.9800791 34.070272,13.2112332 33.8661922,13.4097945 L27.7704918,19.3440277 C27.1719379,19.9266443 26.8990544,20.7656482 27.0403463,21.5883557 Z" id="Shape"></path>
                <path d="M30.6906587,1.19375692 C30.2367804,0.864523719 29.6017568,0.965005932 29.2721009,1.41815218 L28.1940271,2.90000198 C27.8643713,3.35314822 27.9649073,3.98750791 28.4187104,4.31674111 C28.5991037,4.44748815 28.8079209,4.51049605 29.0148581,4.51049605 C29.3289485,4.51049605 29.6386024,4.36548024 29.8372682,4.09242095 L30.9153421,2.61057115 C31.2449979,2.15734981 31.1444619,1.52299012 30.6906587,1.19375692 Z" id="Shape"></path>
                <path d="M9.9153206,2.89989409 L8.83724675,1.41804429 C8.50766611,0.965048242 7.8725673,0.864566029 7.41868896,1.19364903 C6.96496101,1.52288223 6.86434981,2.15724192 7.19400565,2.61038816 L8.27207949,4.09223797 C8.47082045,4.36552255 8.78047436,4.51046326 9.09463998,4.51046326 C9.30165242,4.51046326 9.51054474,4.44745536 9.69071248,4.31663322 C10.1444404,3.98747512 10.2450516,3.35311544 9.9153206,2.89989409 Z" id="Shape"></path>
                <path d="M3.72605828,22.7010935 C3.5527333,22.1684176 2.97982093,21.8768089 2.44631085,22.0499117 L0.702007374,22.6160066 C0.1684973,22.7891093 -0.123335343,23.3614374 0.0499896354,23.8941133 C0.18940157,24.3228524 0.587560251,24.5953109 1.01564663,24.5953109 C1.11964162,24.5953109 1.22544129,24.5791647 1.32973706,24.5452951 L3.07404054,23.9792002 C3.60747542,23.8060975 3.89938325,23.2339196 3.72605828,22.7010935 Z" id="Shape"></path>
                <path d="M19.0155866,34 C18.4547055,34 18,34.4541225 18,35.0142846 L18,36.8460949 C18,37.4062569 18.4547055,37.8603794 19.0155866,37.8603794 C19.5764678,37.8603794 20.0311732,37.4062569 20.0311732,36.8460949 L20.0311732,35.0142846 C20.0311732,34.4540474 19.5765429,34 19.0155866,34 Z" id="Shape"></path>
                <path d="M37.0740405,22.6159559 L35.3297371,22.0498611 C34.7964526,21.8769085 34.2233146,22.1682919 34.0499896,22.701118 C33.8766647,23.2339441 34.1684973,23.8061219 34.7020074,23.9792247 L36.4463109,24.5453196 C36.5506066,24.579114 36.6563311,24.5951852 36.7603261,24.5951852 C37.1884877,24.5951852 37.5866463,24.3226516 37.7260583,23.8939875 C37.8993833,23.3612365 37.6074754,22.7890587 37.0740405,22.6159559 Z" id="Shape"></path>
            </g>
        </g>
    </g>
</svg>