<?xml version="1.0" encoding="UTF-8"?>
<svg width="28px" height="28px" viewBox="0 0 28 28" version="1.1" xmlns="http://www.w3.org/2000/svg" xmlns:xlink="http://www.w3.org/1999/xlink">
    <!-- Generator: Sketch 41.2 (35397) - http://www.bohemiancoding.com/sketch -->
    <title>tw</title>
    <desc>Created with Sketch.</desc>
    <defs></defs>
    <g id="Page-1" stroke="none" stroke-width="1" fill="none" fill-rule="evenodd">
        <g id="00.Home" transform="translate(-944.000000, -3052.000000)" fill="#FFFFFF">
            <g id="tw" transform="translate(944.000000, 3052.000000)">
                <path d="M14,0 C6.28043181,0 0,6.28043181 0,14 C0,21.7190043 6.28043181,28 14,28 C21.7190043,28 28,21.7190043 28,14 C28,6.28043181 21.7201321,0 14,0 Z M20.2454685,10.7957786 C20.2516716,10.9345041 20.2550552,11.0743575 20.2550552,11.2142109 C20.2550552,15.472408 17.0147426,20.3808104 11.0862,20.3808104 C9.26641424,20.3808104 7.57238379,19.8490292 6.1467816,18.934343 C6.39885604,18.964231 6.65544188,18.979457 6.91541126,18.979457 C8.42560219,18.979457 9.81454926,18.4640296 10.9175864,17.6000967 C9.50777411,17.5741561 8.31732861,16.6425522 7.90735519,15.3618787 C8.10360106,15.3990977 8.30605011,15.4199629 8.51301055,15.4199629 C8.80681544,15.4199629 9.09216144,15.381616 9.36228148,15.3077419 C7.88818174,15.0122452 6.77781358,13.7101426 6.77781358,12.1480706 C6.77781358,12.1345364 6.77781358,12.1204383 6.77837751,12.107468 C7.21259969,12.3482639 7.70941755,12.4937565 8.23725127,12.5101104 C7.3733183,11.9332152 6.80431805,10.9463466 6.80431805,9.82864739 C6.80431805,9.23765407 6.96278096,8.6838798 7.24023201,8.20792717 C8.82880851,10.1579795 11.2040603,11.4403448 13.8815758,11.5756868 C13.8263111,11.3394022 13.7986788,11.0940949 13.7986788,10.8408926 C13.7986788,9.0617095 15.2411987,7.61862563 17.0203819,7.61862563 C17.9474744,7.61862563 18.7837751,8.00998953 19.3725127,8.63594619 C20.1073069,8.49158141 20.7952953,8.224281 21.4195601,7.85378232 C21.1770724,8.60662209 20.6678482,9.23765407 20.000725,9.63691291 C20.6531862,9.55909128 21.2757593,9.38653025 21.8515266,9.12994441 C21.4218158,9.77507452 20.8753726,10.3429469 20.2454685,10.7957786 Z" id="Shape-tv"></path>
            </g>
        </g>
    </g>
</svg>